%TF.GenerationSoftware,KiCad,Pcbnew,9.0.2*%
%TF.CreationDate,2025-06-13T20:10:21+08:00*%
%TF.ProjectId,Breadboard Power Supply,42726561-6462-46f6-9172-6420506f7765,1*%
%TF.SameCoordinates,Original*%
%TF.FileFunction,Legend,Bot*%
%TF.FilePolarity,Positive*%
%FSLAX46Y46*%
G04 Gerber Fmt 4.6, Leading zero omitted, Abs format (unit mm)*
G04 Created by KiCad (PCBNEW 9.0.2) date 2025-06-13 20:10:21*
%MOMM*%
%LPD*%
G01*
G04 APERTURE LIST*
%ADD10C,0.152400*%
%ADD11C,0.010000*%
G04 APERTURE END LIST*
D10*
X126238000Y-81100116D02*
G75*
G02*
X122830232Y-81100116I-1703884J0D01*
G01*
X122830232Y-81100116D02*
G75*
G02*
X126238000Y-81100116I1703884J0D01*
G01*
X127190289Y-78534382D02*
X127228994Y-78650496D01*
X127228994Y-78650496D02*
X127267698Y-78689201D01*
X127267698Y-78689201D02*
X127345108Y-78727905D01*
X127345108Y-78727905D02*
X127461222Y-78727905D01*
X127461222Y-78727905D02*
X127538632Y-78689201D01*
X127538632Y-78689201D02*
X127577337Y-78650496D01*
X127577337Y-78650496D02*
X127616041Y-78573086D01*
X127616041Y-78573086D02*
X127616041Y-78263448D01*
X127616041Y-78263448D02*
X126803241Y-78263448D01*
X126803241Y-78263448D02*
X126803241Y-78534382D01*
X126803241Y-78534382D02*
X126841946Y-78611791D01*
X126841946Y-78611791D02*
X126880651Y-78650496D01*
X126880651Y-78650496D02*
X126958060Y-78689201D01*
X126958060Y-78689201D02*
X127035470Y-78689201D01*
X127035470Y-78689201D02*
X127112879Y-78650496D01*
X127112879Y-78650496D02*
X127151584Y-78611791D01*
X127151584Y-78611791D02*
X127190289Y-78534382D01*
X127190289Y-78534382D02*
X127190289Y-78263448D01*
X127616041Y-79076248D02*
X127074175Y-79076248D01*
X127228994Y-79076248D02*
X127151584Y-79114953D01*
X127151584Y-79114953D02*
X127112879Y-79153658D01*
X127112879Y-79153658D02*
X127074175Y-79231067D01*
X127074175Y-79231067D02*
X127074175Y-79308477D01*
X127577337Y-79889048D02*
X127616041Y-79811639D01*
X127616041Y-79811639D02*
X127616041Y-79656820D01*
X127616041Y-79656820D02*
X127577337Y-79579410D01*
X127577337Y-79579410D02*
X127499927Y-79540706D01*
X127499927Y-79540706D02*
X127190289Y-79540706D01*
X127190289Y-79540706D02*
X127112879Y-79579410D01*
X127112879Y-79579410D02*
X127074175Y-79656820D01*
X127074175Y-79656820D02*
X127074175Y-79811639D01*
X127074175Y-79811639D02*
X127112879Y-79889048D01*
X127112879Y-79889048D02*
X127190289Y-79927753D01*
X127190289Y-79927753D02*
X127267698Y-79927753D01*
X127267698Y-79927753D02*
X127345108Y-79540706D01*
X127616041Y-80624439D02*
X127190289Y-80624439D01*
X127190289Y-80624439D02*
X127112879Y-80585734D01*
X127112879Y-80585734D02*
X127074175Y-80508325D01*
X127074175Y-80508325D02*
X127074175Y-80353506D01*
X127074175Y-80353506D02*
X127112879Y-80276096D01*
X127577337Y-80624439D02*
X127616041Y-80547030D01*
X127616041Y-80547030D02*
X127616041Y-80353506D01*
X127616041Y-80353506D02*
X127577337Y-80276096D01*
X127577337Y-80276096D02*
X127499927Y-80237392D01*
X127499927Y-80237392D02*
X127422517Y-80237392D01*
X127422517Y-80237392D02*
X127345108Y-80276096D01*
X127345108Y-80276096D02*
X127306403Y-80353506D01*
X127306403Y-80353506D02*
X127306403Y-80547030D01*
X127306403Y-80547030D02*
X127267698Y-80624439D01*
X127616041Y-81359829D02*
X126803241Y-81359829D01*
X127577337Y-81359829D02*
X127616041Y-81282420D01*
X127616041Y-81282420D02*
X127616041Y-81127601D01*
X127616041Y-81127601D02*
X127577337Y-81050191D01*
X127577337Y-81050191D02*
X127538632Y-81011486D01*
X127538632Y-81011486D02*
X127461222Y-80972782D01*
X127461222Y-80972782D02*
X127228994Y-80972782D01*
X127228994Y-80972782D02*
X127151584Y-81011486D01*
X127151584Y-81011486D02*
X127112879Y-81050191D01*
X127112879Y-81050191D02*
X127074175Y-81127601D01*
X127074175Y-81127601D02*
X127074175Y-81282420D01*
X127074175Y-81282420D02*
X127112879Y-81359829D01*
X127616041Y-81746876D02*
X126803241Y-81746876D01*
X127112879Y-81746876D02*
X127074175Y-81824286D01*
X127074175Y-81824286D02*
X127074175Y-81979105D01*
X127074175Y-81979105D02*
X127112879Y-82056514D01*
X127112879Y-82056514D02*
X127151584Y-82095219D01*
X127151584Y-82095219D02*
X127228994Y-82133924D01*
X127228994Y-82133924D02*
X127461222Y-82133924D01*
X127461222Y-82133924D02*
X127538632Y-82095219D01*
X127538632Y-82095219D02*
X127577337Y-82056514D01*
X127577337Y-82056514D02*
X127616041Y-81979105D01*
X127616041Y-81979105D02*
X127616041Y-81824286D01*
X127616041Y-81824286D02*
X127577337Y-81746876D01*
X127616041Y-82598381D02*
X127577337Y-82520971D01*
X127577337Y-82520971D02*
X127538632Y-82482266D01*
X127538632Y-82482266D02*
X127461222Y-82443562D01*
X127461222Y-82443562D02*
X127228994Y-82443562D01*
X127228994Y-82443562D02*
X127151584Y-82482266D01*
X127151584Y-82482266D02*
X127112879Y-82520971D01*
X127112879Y-82520971D02*
X127074175Y-82598381D01*
X127074175Y-82598381D02*
X127074175Y-82714495D01*
X127074175Y-82714495D02*
X127112879Y-82791904D01*
X127112879Y-82791904D02*
X127151584Y-82830609D01*
X127151584Y-82830609D02*
X127228994Y-82869314D01*
X127228994Y-82869314D02*
X127461222Y-82869314D01*
X127461222Y-82869314D02*
X127538632Y-82830609D01*
X127538632Y-82830609D02*
X127577337Y-82791904D01*
X127577337Y-82791904D02*
X127616041Y-82714495D01*
X127616041Y-82714495D02*
X127616041Y-82598381D01*
X127616041Y-83565999D02*
X127190289Y-83565999D01*
X127190289Y-83565999D02*
X127112879Y-83527294D01*
X127112879Y-83527294D02*
X127074175Y-83449885D01*
X127074175Y-83449885D02*
X127074175Y-83295066D01*
X127074175Y-83295066D02*
X127112879Y-83217656D01*
X127577337Y-83565999D02*
X127616041Y-83488590D01*
X127616041Y-83488590D02*
X127616041Y-83295066D01*
X127616041Y-83295066D02*
X127577337Y-83217656D01*
X127577337Y-83217656D02*
X127499927Y-83178952D01*
X127499927Y-83178952D02*
X127422517Y-83178952D01*
X127422517Y-83178952D02*
X127345108Y-83217656D01*
X127345108Y-83217656D02*
X127306403Y-83295066D01*
X127306403Y-83295066D02*
X127306403Y-83488590D01*
X127306403Y-83488590D02*
X127267698Y-83565999D01*
X127616041Y-83953046D02*
X127074175Y-83953046D01*
X127228994Y-83953046D02*
X127151584Y-83991751D01*
X127151584Y-83991751D02*
X127112879Y-84030456D01*
X127112879Y-84030456D02*
X127074175Y-84107865D01*
X127074175Y-84107865D02*
X127074175Y-84185275D01*
X127616041Y-84804551D02*
X126803241Y-84804551D01*
X127577337Y-84804551D02*
X127616041Y-84727142D01*
X127616041Y-84727142D02*
X127616041Y-84572323D01*
X127616041Y-84572323D02*
X127577337Y-84494913D01*
X127577337Y-84494913D02*
X127538632Y-84456208D01*
X127538632Y-84456208D02*
X127461222Y-84417504D01*
X127461222Y-84417504D02*
X127228994Y-84417504D01*
X127228994Y-84417504D02*
X127151584Y-84456208D01*
X127151584Y-84456208D02*
X127112879Y-84494913D01*
X127112879Y-84494913D02*
X127074175Y-84572323D01*
X127074175Y-84572323D02*
X127074175Y-84727142D01*
X127074175Y-84727142D02*
X127112879Y-84804551D01*
X128924603Y-77605467D02*
X128111803Y-77605467D01*
X128111803Y-77605467D02*
X128111803Y-77915105D01*
X128111803Y-77915105D02*
X128150508Y-77992515D01*
X128150508Y-77992515D02*
X128189213Y-78031220D01*
X128189213Y-78031220D02*
X128266622Y-78069924D01*
X128266622Y-78069924D02*
X128382737Y-78069924D01*
X128382737Y-78069924D02*
X128460146Y-78031220D01*
X128460146Y-78031220D02*
X128498851Y-77992515D01*
X128498851Y-77992515D02*
X128537556Y-77915105D01*
X128537556Y-77915105D02*
X128537556Y-77605467D01*
X128924603Y-78534382D02*
X128885899Y-78456972D01*
X128885899Y-78456972D02*
X128847194Y-78418267D01*
X128847194Y-78418267D02*
X128769784Y-78379563D01*
X128769784Y-78379563D02*
X128537556Y-78379563D01*
X128537556Y-78379563D02*
X128460146Y-78418267D01*
X128460146Y-78418267D02*
X128421441Y-78456972D01*
X128421441Y-78456972D02*
X128382737Y-78534382D01*
X128382737Y-78534382D02*
X128382737Y-78650496D01*
X128382737Y-78650496D02*
X128421441Y-78727905D01*
X128421441Y-78727905D02*
X128460146Y-78766610D01*
X128460146Y-78766610D02*
X128537556Y-78805315D01*
X128537556Y-78805315D02*
X128769784Y-78805315D01*
X128769784Y-78805315D02*
X128847194Y-78766610D01*
X128847194Y-78766610D02*
X128885899Y-78727905D01*
X128885899Y-78727905D02*
X128924603Y-78650496D01*
X128924603Y-78650496D02*
X128924603Y-78534382D01*
X128382737Y-79076248D02*
X128924603Y-79231067D01*
X128924603Y-79231067D02*
X128537556Y-79385886D01*
X128537556Y-79385886D02*
X128924603Y-79540705D01*
X128924603Y-79540705D02*
X128382737Y-79695524D01*
X128885899Y-80314800D02*
X128924603Y-80237391D01*
X128924603Y-80237391D02*
X128924603Y-80082572D01*
X128924603Y-80082572D02*
X128885899Y-80005162D01*
X128885899Y-80005162D02*
X128808489Y-79966458D01*
X128808489Y-79966458D02*
X128498851Y-79966458D01*
X128498851Y-79966458D02*
X128421441Y-80005162D01*
X128421441Y-80005162D02*
X128382737Y-80082572D01*
X128382737Y-80082572D02*
X128382737Y-80237391D01*
X128382737Y-80237391D02*
X128421441Y-80314800D01*
X128421441Y-80314800D02*
X128498851Y-80353505D01*
X128498851Y-80353505D02*
X128576260Y-80353505D01*
X128576260Y-80353505D02*
X128653670Y-79966458D01*
X128924603Y-80701848D02*
X128382737Y-80701848D01*
X128537556Y-80701848D02*
X128460146Y-80740553D01*
X128460146Y-80740553D02*
X128421441Y-80779258D01*
X128421441Y-80779258D02*
X128382737Y-80856667D01*
X128382737Y-80856667D02*
X128382737Y-80934077D01*
X128885899Y-81785582D02*
X128924603Y-81901696D01*
X128924603Y-81901696D02*
X128924603Y-82095220D01*
X128924603Y-82095220D02*
X128885899Y-82172629D01*
X128885899Y-82172629D02*
X128847194Y-82211334D01*
X128847194Y-82211334D02*
X128769784Y-82250039D01*
X128769784Y-82250039D02*
X128692375Y-82250039D01*
X128692375Y-82250039D02*
X128614965Y-82211334D01*
X128614965Y-82211334D02*
X128576260Y-82172629D01*
X128576260Y-82172629D02*
X128537556Y-82095220D01*
X128537556Y-82095220D02*
X128498851Y-81940401D01*
X128498851Y-81940401D02*
X128460146Y-81862991D01*
X128460146Y-81862991D02*
X128421441Y-81824286D01*
X128421441Y-81824286D02*
X128344032Y-81785582D01*
X128344032Y-81785582D02*
X128266622Y-81785582D01*
X128266622Y-81785582D02*
X128189213Y-81824286D01*
X128189213Y-81824286D02*
X128150508Y-81862991D01*
X128150508Y-81862991D02*
X128111803Y-81940401D01*
X128111803Y-81940401D02*
X128111803Y-82133924D01*
X128111803Y-82133924D02*
X128150508Y-82250039D01*
X128382737Y-82946724D02*
X128924603Y-82946724D01*
X128382737Y-82598381D02*
X128808489Y-82598381D01*
X128808489Y-82598381D02*
X128885899Y-82637086D01*
X128885899Y-82637086D02*
X128924603Y-82714496D01*
X128924603Y-82714496D02*
X128924603Y-82830610D01*
X128924603Y-82830610D02*
X128885899Y-82908019D01*
X128885899Y-82908019D02*
X128847194Y-82946724D01*
X128382737Y-83333771D02*
X129195537Y-83333771D01*
X128421441Y-83333771D02*
X128382737Y-83411181D01*
X128382737Y-83411181D02*
X128382737Y-83566000D01*
X128382737Y-83566000D02*
X128421441Y-83643409D01*
X128421441Y-83643409D02*
X128460146Y-83682114D01*
X128460146Y-83682114D02*
X128537556Y-83720819D01*
X128537556Y-83720819D02*
X128769784Y-83720819D01*
X128769784Y-83720819D02*
X128847194Y-83682114D01*
X128847194Y-83682114D02*
X128885899Y-83643409D01*
X128885899Y-83643409D02*
X128924603Y-83566000D01*
X128924603Y-83566000D02*
X128924603Y-83411181D01*
X128924603Y-83411181D02*
X128885899Y-83333771D01*
X128382737Y-84069161D02*
X129195537Y-84069161D01*
X128421441Y-84069161D02*
X128382737Y-84146571D01*
X128382737Y-84146571D02*
X128382737Y-84301390D01*
X128382737Y-84301390D02*
X128421441Y-84378799D01*
X128421441Y-84378799D02*
X128460146Y-84417504D01*
X128460146Y-84417504D02*
X128537556Y-84456209D01*
X128537556Y-84456209D02*
X128769784Y-84456209D01*
X128769784Y-84456209D02*
X128847194Y-84417504D01*
X128847194Y-84417504D02*
X128885899Y-84378799D01*
X128885899Y-84378799D02*
X128924603Y-84301390D01*
X128924603Y-84301390D02*
X128924603Y-84146571D01*
X128924603Y-84146571D02*
X128885899Y-84069161D01*
X128924603Y-84920666D02*
X128885899Y-84843256D01*
X128885899Y-84843256D02*
X128808489Y-84804551D01*
X128808489Y-84804551D02*
X128111803Y-84804551D01*
X128382737Y-85152894D02*
X128924603Y-85346418D01*
X128382737Y-85539941D02*
X128924603Y-85346418D01*
X128924603Y-85346418D02*
X129118127Y-85269008D01*
X129118127Y-85269008D02*
X129156832Y-85230303D01*
X129156832Y-85230303D02*
X129195537Y-85152894D01*
X124047803Y-79933672D02*
X124860603Y-80204605D01*
X124860603Y-80204605D02*
X124047803Y-80475539D01*
X124860603Y-81172225D02*
X124860603Y-80707768D01*
X124860603Y-80939996D02*
X124047803Y-80939996D01*
X124047803Y-80939996D02*
X124163918Y-80862587D01*
X124163918Y-80862587D02*
X124241327Y-80785177D01*
X124241327Y-80785177D02*
X124280032Y-80707768D01*
X124783194Y-81520567D02*
X124821899Y-81559272D01*
X124821899Y-81559272D02*
X124860603Y-81520567D01*
X124860603Y-81520567D02*
X124821899Y-81481863D01*
X124821899Y-81481863D02*
X124783194Y-81520567D01*
X124783194Y-81520567D02*
X124860603Y-81520567D01*
X124047803Y-82062434D02*
X124047803Y-82139844D01*
X124047803Y-82139844D02*
X124086508Y-82217253D01*
X124086508Y-82217253D02*
X124125213Y-82255958D01*
X124125213Y-82255958D02*
X124202622Y-82294663D01*
X124202622Y-82294663D02*
X124357441Y-82333368D01*
X124357441Y-82333368D02*
X124550965Y-82333368D01*
X124550965Y-82333368D02*
X124705784Y-82294663D01*
X124705784Y-82294663D02*
X124783194Y-82255958D01*
X124783194Y-82255958D02*
X124821899Y-82217253D01*
X124821899Y-82217253D02*
X124860603Y-82139844D01*
X124860603Y-82139844D02*
X124860603Y-82062434D01*
X124860603Y-82062434D02*
X124821899Y-81985025D01*
X124821899Y-81985025D02*
X124783194Y-81946320D01*
X124783194Y-81946320D02*
X124705784Y-81907615D01*
X124705784Y-81907615D02*
X124550965Y-81868911D01*
X124550965Y-81868911D02*
X124357441Y-81868911D01*
X124357441Y-81868911D02*
X124202622Y-81907615D01*
X124202622Y-81907615D02*
X124125213Y-81946320D01*
X124125213Y-81946320D02*
X124086508Y-81985025D01*
X124086508Y-81985025D02*
X124047803Y-82062434D01*
D11*
%TO.C,REF\u002A\u002A*%
X124647264Y-95050873D02*
X124664739Y-95082233D01*
X124665575Y-95118034D01*
X124645082Y-95149472D01*
X124640416Y-95153348D01*
X124630949Y-95158814D01*
X124617267Y-95163021D01*
X124596748Y-95166133D01*
X124566768Y-95168313D01*
X124524704Y-95169724D01*
X124467932Y-95170529D01*
X124393830Y-95170893D01*
X124299773Y-95170978D01*
X123978227Y-95170978D01*
X123956647Y-95144327D01*
X123941877Y-95120614D01*
X123935067Y-95097600D01*
X123940949Y-95076594D01*
X123956647Y-95050873D01*
X123978227Y-95024222D01*
X124625684Y-95024222D01*
X124647264Y-95050873D01*
G36*
X124647264Y-95050873D02*
G01*
X124664739Y-95082233D01*
X124665575Y-95118034D01*
X124645082Y-95149472D01*
X124640416Y-95153348D01*
X124630949Y-95158814D01*
X124617267Y-95163021D01*
X124596748Y-95166133D01*
X124566768Y-95168313D01*
X124524704Y-95169724D01*
X124467932Y-95170529D01*
X124393830Y-95170893D01*
X124299773Y-95170978D01*
X123978227Y-95170978D01*
X123956647Y-95144327D01*
X123941877Y-95120614D01*
X123935067Y-95097600D01*
X123940949Y-95076594D01*
X123956647Y-95050873D01*
X123978227Y-95024222D01*
X124625684Y-95024222D01*
X124647264Y-95050873D01*
G37*
X124387567Y-87884041D02*
X124461789Y-87884299D01*
X124518541Y-87884970D01*
X124560512Y-87886248D01*
X124590389Y-87888327D01*
X124610861Y-87891401D01*
X124624614Y-87895666D01*
X124634337Y-87901316D01*
X124642717Y-87908545D01*
X124664181Y-87940009D01*
X124665947Y-87975174D01*
X124646267Y-88008178D01*
X124640398Y-88013484D01*
X124631314Y-88018934D01*
X124617973Y-88023100D01*
X124597757Y-88026154D01*
X124568049Y-88028268D01*
X124526232Y-88029614D01*
X124469689Y-88030362D01*
X124395802Y-88030686D01*
X124301956Y-88030755D01*
X124226294Y-88030716D01*
X124148385Y-88030461D01*
X124088375Y-88029817D01*
X124043648Y-88028613D01*
X124011585Y-88026676D01*
X123989571Y-88023836D01*
X123974987Y-88019921D01*
X123965218Y-88014758D01*
X123957645Y-88008178D01*
X123938623Y-87978994D01*
X123939463Y-87945863D01*
X123962776Y-87911709D01*
X123990485Y-87884000D01*
X124303537Y-87884000D01*
X124387567Y-87884041D01*
G36*
X124387567Y-87884041D02*
G01*
X124461789Y-87884299D01*
X124518541Y-87884970D01*
X124560512Y-87886248D01*
X124590389Y-87888327D01*
X124610861Y-87891401D01*
X124624614Y-87895666D01*
X124634337Y-87901316D01*
X124642717Y-87908545D01*
X124664181Y-87940009D01*
X124665947Y-87975174D01*
X124646267Y-88008178D01*
X124640398Y-88013484D01*
X124631314Y-88018934D01*
X124617973Y-88023100D01*
X124597757Y-88026154D01*
X124568049Y-88028268D01*
X124526232Y-88029614D01*
X124469689Y-88030362D01*
X124395802Y-88030686D01*
X124301956Y-88030755D01*
X124226294Y-88030716D01*
X124148385Y-88030461D01*
X124088375Y-88029817D01*
X124043648Y-88028613D01*
X124011585Y-88026676D01*
X123989571Y-88023836D01*
X123974987Y-88019921D01*
X123965218Y-88014758D01*
X123957645Y-88008178D01*
X123938623Y-87978994D01*
X123939463Y-87945863D01*
X123962776Y-87911709D01*
X123990485Y-87884000D01*
X124303537Y-87884000D01*
X124387567Y-87884041D01*
G37*
X119200307Y-88127331D02*
X119241450Y-88129540D01*
X119273582Y-88135106D01*
X119304122Y-88145414D01*
X119340489Y-88161852D01*
X119367728Y-88175800D01*
X119453429Y-88234335D01*
X119522617Y-88306381D01*
X119573741Y-88390053D01*
X119605250Y-88483469D01*
X119612225Y-88516566D01*
X119619094Y-88557040D01*
X119620919Y-88590001D01*
X119617947Y-88624302D01*
X119610426Y-88668800D01*
X119598002Y-88720066D01*
X119560112Y-88810566D01*
X119505836Y-88889655D01*
X119437770Y-88955472D01*
X119358511Y-89006160D01*
X119270654Y-89039860D01*
X119176795Y-89054714D01*
X119079530Y-89048864D01*
X118983220Y-89022601D01*
X118894494Y-88977582D01*
X118819419Y-88916627D01*
X118759641Y-88841816D01*
X118716809Y-88755232D01*
X118692571Y-88658957D01*
X118688576Y-88555072D01*
X118698850Y-88477438D01*
X118726053Y-88394687D01*
X118771484Y-88319594D01*
X118837302Y-88247702D01*
X118881567Y-88209154D01*
X118939961Y-88169744D01*
X119000586Y-88144554D01*
X119069865Y-88131139D01*
X119154222Y-88127052D01*
X119200307Y-88127331D01*
G36*
X119200307Y-88127331D02*
G01*
X119241450Y-88129540D01*
X119273582Y-88135106D01*
X119304122Y-88145414D01*
X119340489Y-88161852D01*
X119367728Y-88175800D01*
X119453429Y-88234335D01*
X119522617Y-88306381D01*
X119573741Y-88390053D01*
X119605250Y-88483469D01*
X119612225Y-88516566D01*
X119619094Y-88557040D01*
X119620919Y-88590001D01*
X119617947Y-88624302D01*
X119610426Y-88668800D01*
X119598002Y-88720066D01*
X119560112Y-88810566D01*
X119505836Y-88889655D01*
X119437770Y-88955472D01*
X119358511Y-89006160D01*
X119270654Y-89039860D01*
X119176795Y-89054714D01*
X119079530Y-89048864D01*
X118983220Y-89022601D01*
X118894494Y-88977582D01*
X118819419Y-88916627D01*
X118759641Y-88841816D01*
X118716809Y-88755232D01*
X118692571Y-88658957D01*
X118688576Y-88555072D01*
X118698850Y-88477438D01*
X118726053Y-88394687D01*
X118771484Y-88319594D01*
X118837302Y-88247702D01*
X118881567Y-88209154D01*
X118939961Y-88169744D01*
X119000586Y-88144554D01*
X119069865Y-88131139D01*
X119154222Y-88127052D01*
X119200307Y-88127331D01*
G37*
X124061178Y-95421083D02*
X124062631Y-95422443D01*
X124070992Y-95433646D01*
X124076547Y-95450748D01*
X124079840Y-95477918D01*
X124081418Y-95519322D01*
X124081822Y-95579127D01*
X124081822Y-95718489D01*
X124345589Y-95718489D01*
X124421417Y-95718564D01*
X124488083Y-95718972D01*
X124537867Y-95719954D01*
X124573784Y-95721750D01*
X124598850Y-95724601D01*
X124616081Y-95728747D01*
X124628492Y-95734429D01*
X124639100Y-95741886D01*
X124641906Y-95744176D01*
X124664548Y-95775354D01*
X124666112Y-95809734D01*
X124646267Y-95842666D01*
X124638191Y-95849645D01*
X124627593Y-95855117D01*
X124611749Y-95859137D01*
X124587773Y-95861928D01*
X124552774Y-95863712D01*
X124503864Y-95864711D01*
X124438154Y-95865148D01*
X124352756Y-95865244D01*
X124081822Y-95865244D01*
X124081822Y-96011180D01*
X124081821Y-96022280D01*
X124081596Y-96078798D01*
X124080457Y-96117642D01*
X124077657Y-96143035D01*
X124072450Y-96159196D01*
X124064089Y-96170348D01*
X124051826Y-96180711D01*
X124021138Y-96196559D01*
X123987358Y-96193457D01*
X123954822Y-96167813D01*
X123951105Y-96162871D01*
X123946269Y-96152662D01*
X123942506Y-96137236D01*
X123939683Y-96114114D01*
X123937670Y-96080817D01*
X123936333Y-96034863D01*
X123935542Y-95973772D01*
X123935163Y-95895065D01*
X123935067Y-95796260D01*
X123935068Y-95776233D01*
X123935158Y-95682110D01*
X123935498Y-95607595D01*
X123936239Y-95550189D01*
X123937535Y-95507389D01*
X123939537Y-95476696D01*
X123942396Y-95455609D01*
X123946266Y-95441627D01*
X123951298Y-95432250D01*
X123957645Y-95424978D01*
X123990362Y-95406172D01*
X124027939Y-95404725D01*
X124061178Y-95421083D01*
G36*
X124061178Y-95421083D02*
G01*
X124062631Y-95422443D01*
X124070992Y-95433646D01*
X124076547Y-95450748D01*
X124079840Y-95477918D01*
X124081418Y-95519322D01*
X124081822Y-95579127D01*
X124081822Y-95718489D01*
X124345589Y-95718489D01*
X124421417Y-95718564D01*
X124488083Y-95718972D01*
X124537867Y-95719954D01*
X124573784Y-95721750D01*
X124598850Y-95724601D01*
X124616081Y-95728747D01*
X124628492Y-95734429D01*
X124639100Y-95741886D01*
X124641906Y-95744176D01*
X124664548Y-95775354D01*
X124666112Y-95809734D01*
X124646267Y-95842666D01*
X124638191Y-95849645D01*
X124627593Y-95855117D01*
X124611749Y-95859137D01*
X124587773Y-95861928D01*
X124552774Y-95863712D01*
X124503864Y-95864711D01*
X124438154Y-95865148D01*
X124352756Y-95865244D01*
X124081822Y-95865244D01*
X124081822Y-96011180D01*
X124081821Y-96022280D01*
X124081596Y-96078798D01*
X124080457Y-96117642D01*
X124077657Y-96143035D01*
X124072450Y-96159196D01*
X124064089Y-96170348D01*
X124051826Y-96180711D01*
X124021138Y-96196559D01*
X123987358Y-96193457D01*
X123954822Y-96167813D01*
X123951105Y-96162871D01*
X123946269Y-96152662D01*
X123942506Y-96137236D01*
X123939683Y-96114114D01*
X123937670Y-96080817D01*
X123936333Y-96034863D01*
X123935542Y-95973772D01*
X123935163Y-95895065D01*
X123935067Y-95796260D01*
X123935068Y-95776233D01*
X123935158Y-95682110D01*
X123935498Y-95607595D01*
X123936239Y-95550189D01*
X123937535Y-95507389D01*
X123939537Y-95476696D01*
X123942396Y-95455609D01*
X123946266Y-95441627D01*
X123951298Y-95432250D01*
X123957645Y-95424978D01*
X123990362Y-95406172D01*
X124027939Y-95404725D01*
X124061178Y-95421083D01*
G37*
X124343631Y-96428891D02*
X124460000Y-96429375D01*
X124474175Y-96429443D01*
X124535937Y-96430029D01*
X124579620Y-96431352D01*
X124609001Y-96433897D01*
X124627855Y-96438152D01*
X124639959Y-96444604D01*
X124649089Y-96453738D01*
X124666506Y-96487196D01*
X124663604Y-96522144D01*
X124639100Y-96553047D01*
X124625897Y-96562056D01*
X124607361Y-96569508D01*
X124581333Y-96573876D01*
X124542787Y-96575931D01*
X124486700Y-96576444D01*
X124364045Y-96576444D01*
X124364045Y-97073155D01*
X124498871Y-97073155D01*
X124534662Y-97073228D01*
X124580992Y-97073991D01*
X124611526Y-97076167D01*
X124630557Y-97080464D01*
X124642374Y-97087588D01*
X124651271Y-97098245D01*
X124666341Y-97130496D01*
X124663673Y-97165783D01*
X124639100Y-97196514D01*
X124632845Y-97201169D01*
X124622321Y-97207105D01*
X124608391Y-97211636D01*
X124588317Y-97214952D01*
X124559360Y-97217241D01*
X124518780Y-97218692D01*
X124463840Y-97219495D01*
X124391799Y-97219838D01*
X124299920Y-97219911D01*
X123990485Y-97219911D01*
X123962776Y-97192202D01*
X123940533Y-97160823D01*
X123937844Y-97127594D01*
X123957645Y-97095733D01*
X123967415Y-97087447D01*
X123983307Y-97080035D01*
X124007275Y-97075698D01*
X124044148Y-97073662D01*
X124098756Y-97073155D01*
X124217289Y-97073155D01*
X124217289Y-96576444D01*
X124101776Y-96576444D01*
X124050078Y-96576006D01*
X124015554Y-96574042D01*
X123992978Y-96569526D01*
X123977126Y-96561433D01*
X123962776Y-96548735D01*
X123940533Y-96517357D01*
X123937844Y-96484128D01*
X123957645Y-96452266D01*
X123963835Y-96446634D01*
X123972041Y-96441544D01*
X123983817Y-96437457D01*
X124001276Y-96434279D01*
X124026530Y-96431913D01*
X124061690Y-96430262D01*
X124108869Y-96429231D01*
X124170177Y-96428723D01*
X124247727Y-96428641D01*
X124343631Y-96428891D01*
G36*
X124343631Y-96428891D02*
G01*
X124460000Y-96429375D01*
X124474175Y-96429443D01*
X124535937Y-96430029D01*
X124579620Y-96431352D01*
X124609001Y-96433897D01*
X124627855Y-96438152D01*
X124639959Y-96444604D01*
X124649089Y-96453738D01*
X124666506Y-96487196D01*
X124663604Y-96522144D01*
X124639100Y-96553047D01*
X124625897Y-96562056D01*
X124607361Y-96569508D01*
X124581333Y-96573876D01*
X124542787Y-96575931D01*
X124486700Y-96576444D01*
X124364045Y-96576444D01*
X124364045Y-97073155D01*
X124498871Y-97073155D01*
X124534662Y-97073228D01*
X124580992Y-97073991D01*
X124611526Y-97076167D01*
X124630557Y-97080464D01*
X124642374Y-97087588D01*
X124651271Y-97098245D01*
X124666341Y-97130496D01*
X124663673Y-97165783D01*
X124639100Y-97196514D01*
X124632845Y-97201169D01*
X124622321Y-97207105D01*
X124608391Y-97211636D01*
X124588317Y-97214952D01*
X124559360Y-97217241D01*
X124518780Y-97218692D01*
X124463840Y-97219495D01*
X124391799Y-97219838D01*
X124299920Y-97219911D01*
X123990485Y-97219911D01*
X123962776Y-97192202D01*
X123940533Y-97160823D01*
X123937844Y-97127594D01*
X123957645Y-97095733D01*
X123967415Y-97087447D01*
X123983307Y-97080035D01*
X124007275Y-97075698D01*
X124044148Y-97073662D01*
X124098756Y-97073155D01*
X124217289Y-97073155D01*
X124217289Y-96576444D01*
X124101776Y-96576444D01*
X124050078Y-96576006D01*
X124015554Y-96574042D01*
X123992978Y-96569526D01*
X123977126Y-96561433D01*
X123962776Y-96548735D01*
X123940533Y-96517357D01*
X123937844Y-96484128D01*
X123957645Y-96452266D01*
X123963835Y-96446634D01*
X123972041Y-96441544D01*
X123983817Y-96437457D01*
X124001276Y-96434279D01*
X124026530Y-96431913D01*
X124061690Y-96430262D01*
X124108869Y-96429231D01*
X124170177Y-96428723D01*
X124247727Y-96428641D01*
X124343631Y-96428891D01*
G37*
X124361526Y-91744825D02*
X124440311Y-91745050D01*
X124501021Y-91745668D01*
X124522089Y-91746225D01*
X124546396Y-91746867D01*
X124579175Y-91748837D01*
X124602095Y-91751765D01*
X124617897Y-91755842D01*
X124629319Y-91761257D01*
X124639100Y-91768197D01*
X124668845Y-91791594D01*
X124668251Y-91957286D01*
X124667953Y-91992082D01*
X124664522Y-92090565D01*
X124656839Y-92171527D01*
X124644282Y-92238621D01*
X124626227Y-92295504D01*
X124602052Y-92345831D01*
X124600135Y-92349190D01*
X124563417Y-92407002D01*
X124526451Y-92449356D01*
X124482966Y-92482172D01*
X124426689Y-92511372D01*
X124417073Y-92515654D01*
X124353887Y-92538231D01*
X124298509Y-92545203D01*
X124243483Y-92536601D01*
X124181351Y-92512459D01*
X124179658Y-92511663D01*
X124110236Y-92471212D01*
X124053638Y-92420527D01*
X124009070Y-92357802D01*
X123975741Y-92281226D01*
X123952861Y-92188991D01*
X123939636Y-92079288D01*
X123935275Y-91950309D01*
X123935270Y-91946737D01*
X123935372Y-91902844D01*
X124081822Y-91902844D01*
X124082270Y-91990333D01*
X124084746Y-92057253D01*
X124095998Y-92149651D01*
X124115537Y-92228966D01*
X124142511Y-92290940D01*
X124163240Y-92321880D01*
X124193006Y-92350000D01*
X124235434Y-92373340D01*
X124251400Y-92380467D01*
X124283902Y-92392291D01*
X124308333Y-92394721D01*
X124333061Y-92389108D01*
X124348939Y-92383382D01*
X124408847Y-92350452D01*
X124454600Y-92303114D01*
X124487736Y-92239348D01*
X124509790Y-92157139D01*
X124510292Y-92154345D01*
X124516255Y-92108060D01*
X124520483Y-92051664D01*
X124522089Y-91996726D01*
X124522089Y-91902844D01*
X124081822Y-91902844D01*
X123935372Y-91902844D01*
X123935410Y-91886717D01*
X123936446Y-91844786D01*
X123939040Y-91816672D01*
X123943853Y-91798103D01*
X123951544Y-91784806D01*
X123962776Y-91772509D01*
X123990485Y-91744800D01*
X124299920Y-91744800D01*
X124361526Y-91744825D01*
G36*
X124361526Y-91744825D02*
G01*
X124440311Y-91745050D01*
X124501021Y-91745668D01*
X124522089Y-91746225D01*
X124546396Y-91746867D01*
X124579175Y-91748837D01*
X124602095Y-91751765D01*
X124617897Y-91755842D01*
X124629319Y-91761257D01*
X124639100Y-91768197D01*
X124668845Y-91791594D01*
X124668251Y-91957286D01*
X124667953Y-91992082D01*
X124664522Y-92090565D01*
X124656839Y-92171527D01*
X124644282Y-92238621D01*
X124626227Y-92295504D01*
X124602052Y-92345831D01*
X124600135Y-92349190D01*
X124563417Y-92407002D01*
X124526451Y-92449356D01*
X124482966Y-92482172D01*
X124426689Y-92511372D01*
X124417073Y-92515654D01*
X124353887Y-92538231D01*
X124298509Y-92545203D01*
X124243483Y-92536601D01*
X124181351Y-92512459D01*
X124179658Y-92511663D01*
X124110236Y-92471212D01*
X124053638Y-92420527D01*
X124009070Y-92357802D01*
X123975741Y-92281226D01*
X123952861Y-92188991D01*
X123939636Y-92079288D01*
X123935275Y-91950309D01*
X123935270Y-91946737D01*
X123935372Y-91902844D01*
X124081822Y-91902844D01*
X124082270Y-91990333D01*
X124084746Y-92057253D01*
X124095998Y-92149651D01*
X124115537Y-92228966D01*
X124142511Y-92290940D01*
X124163240Y-92321880D01*
X124193006Y-92350000D01*
X124235434Y-92373340D01*
X124251400Y-92380467D01*
X124283902Y-92392291D01*
X124308333Y-92394721D01*
X124333061Y-92389108D01*
X124348939Y-92383382D01*
X124408847Y-92350452D01*
X124454600Y-92303114D01*
X124487736Y-92239348D01*
X124509790Y-92157139D01*
X124510292Y-92154345D01*
X124516255Y-92108060D01*
X124520483Y-92051664D01*
X124522089Y-91996726D01*
X124522089Y-91902844D01*
X124081822Y-91902844D01*
X123935372Y-91902844D01*
X123935410Y-91886717D01*
X123936446Y-91844786D01*
X123939040Y-91816672D01*
X123943853Y-91798103D01*
X123951544Y-91784806D01*
X123962776Y-91772509D01*
X123990485Y-91744800D01*
X124299920Y-91744800D01*
X124361526Y-91744825D01*
G37*
X124301956Y-84655378D02*
X124377617Y-84655417D01*
X124455526Y-84655672D01*
X124515536Y-84656316D01*
X124560264Y-84657520D01*
X124592326Y-84659457D01*
X124614340Y-84662297D01*
X124628924Y-84666212D01*
X124638694Y-84671374D01*
X124646267Y-84677955D01*
X124652501Y-84684923D01*
X124659801Y-84697921D01*
X124664554Y-84717069D01*
X124667292Y-84746472D01*
X124668545Y-84790238D01*
X124668845Y-84852472D01*
X124668469Y-84901418D01*
X124664041Y-85008278D01*
X124653953Y-85097506D01*
X124637365Y-85172304D01*
X124613435Y-85235875D01*
X124581321Y-85291421D01*
X124540182Y-85342146D01*
X124534330Y-85348134D01*
X124485821Y-85385001D01*
X124425013Y-85416101D01*
X124360769Y-85437583D01*
X124301956Y-85445600D01*
X124280739Y-85444321D01*
X124223323Y-85432009D01*
X124163413Y-85409480D01*
X124109363Y-85380250D01*
X124069532Y-85347833D01*
X124052510Y-85328292D01*
X124013322Y-85273580D01*
X123983193Y-85213277D01*
X123961232Y-85144081D01*
X123946550Y-85062689D01*
X123938259Y-84965800D01*
X123936148Y-84878333D01*
X124081808Y-84878333D01*
X124081817Y-84881361D01*
X124083782Y-84932481D01*
X124088507Y-84992584D01*
X124095035Y-85049292D01*
X124104331Y-85099250D01*
X124130600Y-85174002D01*
X124169899Y-85231511D01*
X124222933Y-85273012D01*
X124274200Y-85294229D01*
X124322026Y-85295647D01*
X124372961Y-85277365D01*
X124418878Y-85247695D01*
X124461287Y-85200998D01*
X124491090Y-85139608D01*
X124510226Y-85060462D01*
X124510464Y-85058972D01*
X124516256Y-85010001D01*
X124520396Y-84951307D01*
X124522004Y-84895266D01*
X124522089Y-84802133D01*
X124081822Y-84802133D01*
X124081808Y-84878333D01*
X123936148Y-84878333D01*
X123935467Y-84850111D01*
X123935066Y-84810629D01*
X123934653Y-84764918D01*
X123936457Y-84729117D01*
X123942739Y-84702026D01*
X123955759Y-84682444D01*
X123977778Y-84669170D01*
X124011055Y-84661002D01*
X124057851Y-84656740D01*
X124081822Y-84656143D01*
X124120427Y-84655183D01*
X124201041Y-84655130D01*
X124301956Y-84655378D01*
G36*
X124301956Y-84655378D02*
G01*
X124377617Y-84655417D01*
X124455526Y-84655672D01*
X124515536Y-84656316D01*
X124560264Y-84657520D01*
X124592326Y-84659457D01*
X124614340Y-84662297D01*
X124628924Y-84666212D01*
X124638694Y-84671374D01*
X124646267Y-84677955D01*
X124652501Y-84684923D01*
X124659801Y-84697921D01*
X124664554Y-84717069D01*
X124667292Y-84746472D01*
X124668545Y-84790238D01*
X124668845Y-84852472D01*
X124668469Y-84901418D01*
X124664041Y-85008278D01*
X124653953Y-85097506D01*
X124637365Y-85172304D01*
X124613435Y-85235875D01*
X124581321Y-85291421D01*
X124540182Y-85342146D01*
X124534330Y-85348134D01*
X124485821Y-85385001D01*
X124425013Y-85416101D01*
X124360769Y-85437583D01*
X124301956Y-85445600D01*
X124280739Y-85444321D01*
X124223323Y-85432009D01*
X124163413Y-85409480D01*
X124109363Y-85380250D01*
X124069532Y-85347833D01*
X124052510Y-85328292D01*
X124013322Y-85273580D01*
X123983193Y-85213277D01*
X123961232Y-85144081D01*
X123946550Y-85062689D01*
X123938259Y-84965800D01*
X123936148Y-84878333D01*
X124081808Y-84878333D01*
X124081817Y-84881361D01*
X124083782Y-84932481D01*
X124088507Y-84992584D01*
X124095035Y-85049292D01*
X124104331Y-85099250D01*
X124130600Y-85174002D01*
X124169899Y-85231511D01*
X124222933Y-85273012D01*
X124274200Y-85294229D01*
X124322026Y-85295647D01*
X124372961Y-85277365D01*
X124418878Y-85247695D01*
X124461287Y-85200998D01*
X124491090Y-85139608D01*
X124510226Y-85060462D01*
X124510464Y-85058972D01*
X124516256Y-85010001D01*
X124520396Y-84951307D01*
X124522004Y-84895266D01*
X124522089Y-84802133D01*
X124081822Y-84802133D01*
X124081808Y-84878333D01*
X123936148Y-84878333D01*
X123935467Y-84850111D01*
X123935066Y-84810629D01*
X123934653Y-84764918D01*
X123936457Y-84729117D01*
X123942739Y-84702026D01*
X123955759Y-84682444D01*
X123977778Y-84669170D01*
X124011055Y-84661002D01*
X124057851Y-84656740D01*
X124081822Y-84656143D01*
X124120427Y-84655183D01*
X124201041Y-84655130D01*
X124301956Y-84655378D01*
G37*
X124360486Y-89543489D02*
X124439573Y-89543708D01*
X124500516Y-89544317D01*
X124546062Y-89545508D01*
X124578963Y-89547471D01*
X124601968Y-89550397D01*
X124617826Y-89554477D01*
X124629286Y-89559903D01*
X124639100Y-89566864D01*
X124663493Y-89597292D01*
X124666372Y-89632235D01*
X124647282Y-89669216D01*
X124643807Y-89673400D01*
X124635279Y-89681576D01*
X124623728Y-89687636D01*
X124605896Y-89692019D01*
X124578524Y-89695161D01*
X124538354Y-89697498D01*
X124482128Y-89699469D01*
X124406589Y-89701511D01*
X124187458Y-89707155D01*
X124428099Y-89972444D01*
X124494875Y-90046278D01*
X124552991Y-90111458D01*
X124597949Y-90163652D01*
X124630871Y-90204727D01*
X124652879Y-90236545D01*
X124665094Y-90260974D01*
X124668639Y-90279876D01*
X124664636Y-90295117D01*
X124654207Y-90308561D01*
X124638474Y-90322073D01*
X124629991Y-90328318D01*
X124619413Y-90333950D01*
X124605255Y-90338161D01*
X124584803Y-90341113D01*
X124555342Y-90342968D01*
X124514161Y-90343887D01*
X124458544Y-90344032D01*
X124385779Y-90343565D01*
X124293151Y-90342648D01*
X123978199Y-90339333D01*
X123956633Y-90312682D01*
X123940441Y-90286617D01*
X123937670Y-90253759D01*
X123956623Y-90219228D01*
X123960208Y-90214916D01*
X123968737Y-90206784D01*
X123980329Y-90200755D01*
X123998235Y-90196394D01*
X124025706Y-90193266D01*
X124065994Y-90190937D01*
X124122351Y-90188971D01*
X124198029Y-90186933D01*
X124417878Y-90181289D01*
X124254084Y-90000666D01*
X124175451Y-89913928D01*
X124107058Y-89838157D01*
X124051708Y-89776020D01*
X124008338Y-89725922D01*
X123975881Y-89686265D01*
X123953273Y-89655452D01*
X123939448Y-89631886D01*
X123933343Y-89613970D01*
X123933892Y-89600107D01*
X123940029Y-89588699D01*
X123950691Y-89578150D01*
X123964811Y-89566864D01*
X123970772Y-89562411D01*
X123981268Y-89556412D01*
X123995093Y-89551833D01*
X124014998Y-89548481D01*
X124043732Y-89546167D01*
X124084045Y-89544699D01*
X124138687Y-89543887D01*
X124210407Y-89543540D01*
X124301956Y-89543466D01*
X124360486Y-89543489D01*
G36*
X124360486Y-89543489D02*
G01*
X124439573Y-89543708D01*
X124500516Y-89544317D01*
X124546062Y-89545508D01*
X124578963Y-89547471D01*
X124601968Y-89550397D01*
X124617826Y-89554477D01*
X124629286Y-89559903D01*
X124639100Y-89566864D01*
X124663493Y-89597292D01*
X124666372Y-89632235D01*
X124647282Y-89669216D01*
X124643807Y-89673400D01*
X124635279Y-89681576D01*
X124623728Y-89687636D01*
X124605896Y-89692019D01*
X124578524Y-89695161D01*
X124538354Y-89697498D01*
X124482128Y-89699469D01*
X124406589Y-89701511D01*
X124187458Y-89707155D01*
X124428099Y-89972444D01*
X124494875Y-90046278D01*
X124552991Y-90111458D01*
X124597949Y-90163652D01*
X124630871Y-90204727D01*
X124652879Y-90236545D01*
X124665094Y-90260974D01*
X124668639Y-90279876D01*
X124664636Y-90295117D01*
X124654207Y-90308561D01*
X124638474Y-90322073D01*
X124629991Y-90328318D01*
X124619413Y-90333950D01*
X124605255Y-90338161D01*
X124584803Y-90341113D01*
X124555342Y-90342968D01*
X124514161Y-90343887D01*
X124458544Y-90344032D01*
X124385779Y-90343565D01*
X124293151Y-90342648D01*
X123978199Y-90339333D01*
X123956633Y-90312682D01*
X123940441Y-90286617D01*
X123937670Y-90253759D01*
X123956623Y-90219228D01*
X123960208Y-90214916D01*
X123968737Y-90206784D01*
X123980329Y-90200755D01*
X123998235Y-90196394D01*
X124025706Y-90193266D01*
X124065994Y-90190937D01*
X124122351Y-90188971D01*
X124198029Y-90186933D01*
X124417878Y-90181289D01*
X124254084Y-90000666D01*
X124175451Y-89913928D01*
X124107058Y-89838157D01*
X124051708Y-89776020D01*
X124008338Y-89725922D01*
X123975881Y-89686265D01*
X123953273Y-89655452D01*
X123939448Y-89631886D01*
X123933343Y-89613970D01*
X123933892Y-89600107D01*
X123940029Y-89588699D01*
X123950691Y-89578150D01*
X123964811Y-89566864D01*
X123970772Y-89562411D01*
X123981268Y-89556412D01*
X123995093Y-89551833D01*
X124014998Y-89548481D01*
X124043732Y-89546167D01*
X124084045Y-89544699D01*
X124138687Y-89543887D01*
X124210407Y-89543540D01*
X124301956Y-89543466D01*
X124360486Y-89543489D01*
G37*
X124320259Y-88359702D02*
X124371592Y-88372643D01*
X124428118Y-88395806D01*
X124482035Y-88425698D01*
X124525539Y-88458827D01*
X124535887Y-88469023D01*
X124587662Y-88536108D01*
X124627554Y-88616234D01*
X124651956Y-88702444D01*
X124660068Y-88757408D01*
X124666673Y-88850861D01*
X124664586Y-88940642D01*
X124654340Y-89023131D01*
X124636470Y-89094714D01*
X124611508Y-89151772D01*
X124579988Y-89190689D01*
X124578012Y-89192064D01*
X124552786Y-89199152D01*
X124505535Y-89203391D01*
X124436071Y-89204800D01*
X124373838Y-89203940D01*
X124326456Y-89199220D01*
X124294353Y-89187530D01*
X124274800Y-89165761D01*
X124265070Y-89130802D01*
X124262433Y-89079544D01*
X124264161Y-89008877D01*
X124267173Y-88960257D01*
X124275366Y-88910061D01*
X124289419Y-88877567D01*
X124310654Y-88860108D01*
X124340394Y-88855017D01*
X124344936Y-88855123D01*
X124379730Y-88863825D01*
X124403147Y-88887835D01*
X124416347Y-88929100D01*
X124420489Y-88989569D01*
X124420489Y-89058044D01*
X124458841Y-89058044D01*
X124467976Y-89057994D01*
X124485227Y-89055773D01*
X124495521Y-89046506D01*
X124502459Y-89025125D01*
X124509641Y-88986564D01*
X124510575Y-88981090D01*
X124520478Y-88884140D01*
X124517559Y-88794148D01*
X124502829Y-88713240D01*
X124477299Y-88643541D01*
X124441978Y-88587176D01*
X124397879Y-88546271D01*
X124346012Y-88522949D01*
X124287388Y-88519337D01*
X124258494Y-88524855D01*
X124202604Y-88551539D01*
X124156945Y-88597727D01*
X124122108Y-88662709D01*
X124098690Y-88745771D01*
X124094241Y-88770445D01*
X124083742Y-88859774D01*
X124084971Y-88939581D01*
X124097906Y-89017674D01*
X124104696Y-89052817D01*
X124105713Y-89098255D01*
X124093182Y-89129570D01*
X124066395Y-89149723D01*
X124038148Y-89156107D01*
X124006924Y-89146621D01*
X123993499Y-89137292D01*
X123969967Y-89103057D01*
X123952095Y-89050435D01*
X123940599Y-88981919D01*
X123936192Y-88900000D01*
X123940179Y-88802850D01*
X123956494Y-88696843D01*
X123984545Y-88603031D01*
X124023452Y-88524235D01*
X124072334Y-88463281D01*
X124105195Y-88437211D01*
X124154394Y-88407703D01*
X124208252Y-88382432D01*
X124259419Y-88364782D01*
X124300544Y-88358142D01*
X124320259Y-88359702D01*
G36*
X124320259Y-88359702D02*
G01*
X124371592Y-88372643D01*
X124428118Y-88395806D01*
X124482035Y-88425698D01*
X124525539Y-88458827D01*
X124535887Y-88469023D01*
X124587662Y-88536108D01*
X124627554Y-88616234D01*
X124651956Y-88702444D01*
X124660068Y-88757408D01*
X124666673Y-88850861D01*
X124664586Y-88940642D01*
X124654340Y-89023131D01*
X124636470Y-89094714D01*
X124611508Y-89151772D01*
X124579988Y-89190689D01*
X124578012Y-89192064D01*
X124552786Y-89199152D01*
X124505535Y-89203391D01*
X124436071Y-89204800D01*
X124373838Y-89203940D01*
X124326456Y-89199220D01*
X124294353Y-89187530D01*
X124274800Y-89165761D01*
X124265070Y-89130802D01*
X124262433Y-89079544D01*
X124264161Y-89008877D01*
X124267173Y-88960257D01*
X124275366Y-88910061D01*
X124289419Y-88877567D01*
X124310654Y-88860108D01*
X124340394Y-88855017D01*
X124344936Y-88855123D01*
X124379730Y-88863825D01*
X124403147Y-88887835D01*
X124416347Y-88929100D01*
X124420489Y-88989569D01*
X124420489Y-89058044D01*
X124458841Y-89058044D01*
X124467976Y-89057994D01*
X124485227Y-89055773D01*
X124495521Y-89046506D01*
X124502459Y-89025125D01*
X124509641Y-88986564D01*
X124510575Y-88981090D01*
X124520478Y-88884140D01*
X124517559Y-88794148D01*
X124502829Y-88713240D01*
X124477299Y-88643541D01*
X124441978Y-88587176D01*
X124397879Y-88546271D01*
X124346012Y-88522949D01*
X124287388Y-88519337D01*
X124258494Y-88524855D01*
X124202604Y-88551539D01*
X124156945Y-88597727D01*
X124122108Y-88662709D01*
X124098690Y-88745771D01*
X124094241Y-88770445D01*
X124083742Y-88859774D01*
X124084971Y-88939581D01*
X124097906Y-89017674D01*
X124104696Y-89052817D01*
X124105713Y-89098255D01*
X124093182Y-89129570D01*
X124066395Y-89149723D01*
X124038148Y-89156107D01*
X124006924Y-89146621D01*
X123993499Y-89137292D01*
X123969967Y-89103057D01*
X123952095Y-89050435D01*
X123940599Y-88981919D01*
X123936192Y-88900000D01*
X123940179Y-88802850D01*
X123956494Y-88696843D01*
X123984545Y-88603031D01*
X124023452Y-88524235D01*
X124072334Y-88463281D01*
X124105195Y-88437211D01*
X124154394Y-88407703D01*
X124208252Y-88382432D01*
X124259419Y-88364782D01*
X124300544Y-88358142D01*
X124320259Y-88359702D01*
G37*
X124372911Y-90728829D02*
X124451228Y-90729061D01*
X124511496Y-90729681D01*
X124556393Y-90730874D01*
X124588602Y-90732821D01*
X124610800Y-90735706D01*
X124625669Y-90739712D01*
X124635889Y-90745021D01*
X124644138Y-90751817D01*
X124648795Y-90756332D01*
X124655282Y-90764562D01*
X124660194Y-90775922D01*
X124663749Y-90793190D01*
X124666167Y-90819145D01*
X124667667Y-90856564D01*
X124668467Y-90908227D01*
X124668787Y-90976911D01*
X124668845Y-91065394D01*
X124668838Y-91085069D01*
X124668572Y-91172094D01*
X124667806Y-91239746D01*
X124666392Y-91290701D01*
X124664180Y-91327633D01*
X124661022Y-91353217D01*
X124656769Y-91370129D01*
X124651271Y-91381043D01*
X124641285Y-91391536D01*
X124610168Y-91404797D01*
X124574280Y-91403614D01*
X124542733Y-91387450D01*
X124540457Y-91385261D01*
X124534189Y-91376573D01*
X124529523Y-91363231D01*
X124526227Y-91342248D01*
X124524068Y-91310637D01*
X124522814Y-91265410D01*
X124522231Y-91203580D01*
X124522089Y-91122161D01*
X124522089Y-90875555D01*
X124364045Y-90875555D01*
X124364045Y-91037994D01*
X124363964Y-91073662D01*
X124363167Y-91129432D01*
X124361162Y-91168570D01*
X124357521Y-91195024D01*
X124351812Y-91212741D01*
X124343607Y-91225671D01*
X124340423Y-91229314D01*
X124309448Y-91247722D01*
X124273112Y-91248356D01*
X124239493Y-91230817D01*
X124239424Y-91230755D01*
X124230798Y-91221084D01*
X124224742Y-91207791D01*
X124220811Y-91187083D01*
X124218556Y-91155172D01*
X124217531Y-91108266D01*
X124217289Y-91042576D01*
X124217289Y-90874429D01*
X124152378Y-90877814D01*
X124087467Y-90881200D01*
X124084414Y-91123277D01*
X124084086Y-91148293D01*
X124082606Y-91229913D01*
X124080222Y-91292232D01*
X124076227Y-91337846D01*
X124069913Y-91369348D01*
X124060574Y-91389333D01*
X124047503Y-91400396D01*
X124029992Y-91405131D01*
X124007335Y-91406133D01*
X124004970Y-91406127D01*
X123984939Y-91404973D01*
X123969146Y-91400176D01*
X123957090Y-91389368D01*
X123948267Y-91370183D01*
X123942175Y-91340255D01*
X123938311Y-91297217D01*
X123936174Y-91238701D01*
X123935260Y-91162343D01*
X123935067Y-91065774D01*
X123935067Y-90775594D01*
X123964811Y-90752197D01*
X123971495Y-90747248D01*
X123982066Y-90741404D01*
X123996153Y-90736943D01*
X124016478Y-90733679D01*
X124045765Y-90731426D01*
X124086737Y-90729998D01*
X124142117Y-90729208D01*
X124214628Y-90728871D01*
X124306994Y-90728800D01*
X124372911Y-90728829D01*
G36*
X124372911Y-90728829D02*
G01*
X124451228Y-90729061D01*
X124511496Y-90729681D01*
X124556393Y-90730874D01*
X124588602Y-90732821D01*
X124610800Y-90735706D01*
X124625669Y-90739712D01*
X124635889Y-90745021D01*
X124644138Y-90751817D01*
X124648795Y-90756332D01*
X124655282Y-90764562D01*
X124660194Y-90775922D01*
X124663749Y-90793190D01*
X124666167Y-90819145D01*
X124667667Y-90856564D01*
X124668467Y-90908227D01*
X124668787Y-90976911D01*
X124668845Y-91065394D01*
X124668838Y-91085069D01*
X124668572Y-91172094D01*
X124667806Y-91239746D01*
X124666392Y-91290701D01*
X124664180Y-91327633D01*
X124661022Y-91353217D01*
X124656769Y-91370129D01*
X124651271Y-91381043D01*
X124641285Y-91391536D01*
X124610168Y-91404797D01*
X124574280Y-91403614D01*
X124542733Y-91387450D01*
X124540457Y-91385261D01*
X124534189Y-91376573D01*
X124529523Y-91363231D01*
X124526227Y-91342248D01*
X124524068Y-91310637D01*
X124522814Y-91265410D01*
X124522231Y-91203580D01*
X124522089Y-91122161D01*
X124522089Y-90875555D01*
X124364045Y-90875555D01*
X124364045Y-91037994D01*
X124363964Y-91073662D01*
X124363167Y-91129432D01*
X124361162Y-91168570D01*
X124357521Y-91195024D01*
X124351812Y-91212741D01*
X124343607Y-91225671D01*
X124340423Y-91229314D01*
X124309448Y-91247722D01*
X124273112Y-91248356D01*
X124239493Y-91230817D01*
X124239424Y-91230755D01*
X124230798Y-91221084D01*
X124224742Y-91207791D01*
X124220811Y-91187083D01*
X124218556Y-91155172D01*
X124217531Y-91108266D01*
X124217289Y-91042576D01*
X124217289Y-90874429D01*
X124152378Y-90877814D01*
X124087467Y-90881200D01*
X124084414Y-91123277D01*
X124084086Y-91148293D01*
X124082606Y-91229913D01*
X124080222Y-91292232D01*
X124076227Y-91337846D01*
X124069913Y-91369348D01*
X124060574Y-91389333D01*
X124047503Y-91400396D01*
X124029992Y-91405131D01*
X124007335Y-91406133D01*
X124004970Y-91406127D01*
X123984939Y-91404973D01*
X123969146Y-91400176D01*
X123957090Y-91389368D01*
X123948267Y-91370183D01*
X123942175Y-91340255D01*
X123938311Y-91297217D01*
X123936174Y-91238701D01*
X123935260Y-91162343D01*
X123935067Y-91065774D01*
X123935067Y-90775594D01*
X123964811Y-90752197D01*
X123971495Y-90747248D01*
X123982066Y-90741404D01*
X123996153Y-90736943D01*
X124016478Y-90733679D01*
X124045765Y-90731426D01*
X124086737Y-90729998D01*
X124142117Y-90729208D01*
X124214628Y-90728871D01*
X124306994Y-90728800D01*
X124372911Y-90728829D01*
G37*
X124376713Y-85784303D02*
X124454889Y-85784552D01*
X124515103Y-85785188D01*
X124559982Y-85786385D01*
X124592152Y-85788316D01*
X124614239Y-85791154D01*
X124628870Y-85795073D01*
X124638670Y-85800245D01*
X124646267Y-85806844D01*
X124649444Y-85810178D01*
X124655554Y-85818700D01*
X124660229Y-85830702D01*
X124663659Y-85848913D01*
X124666036Y-85876060D01*
X124667552Y-85914871D01*
X124668398Y-85968076D01*
X124668765Y-86038402D01*
X124668845Y-86128578D01*
X124668833Y-86170686D01*
X124668651Y-86251833D01*
X124668098Y-86314325D01*
X124666982Y-86360891D01*
X124665113Y-86394259D01*
X124662298Y-86417156D01*
X124658346Y-86432312D01*
X124653066Y-86442454D01*
X124646267Y-86450311D01*
X124624667Y-86465037D01*
X124595467Y-86472889D01*
X124571560Y-86467390D01*
X124544667Y-86450311D01*
X124540059Y-86445332D01*
X124533772Y-86435557D01*
X124529146Y-86421441D01*
X124525930Y-86399946D01*
X124523870Y-86368032D01*
X124522712Y-86322658D01*
X124522202Y-86260787D01*
X124522089Y-86179378D01*
X124522089Y-85931022D01*
X124364045Y-85931022D01*
X124364045Y-86092199D01*
X124363899Y-86128017D01*
X124362176Y-86193641D01*
X124357741Y-86240882D01*
X124349637Y-86272617D01*
X124336906Y-86291723D01*
X124318592Y-86301077D01*
X124293738Y-86303555D01*
X124273482Y-86302758D01*
X124251656Y-86297506D01*
X124236304Y-86284712D01*
X124226309Y-86261372D01*
X124220553Y-86224483D01*
X124217919Y-86171041D01*
X124217289Y-86098042D01*
X124217289Y-85929895D01*
X124152378Y-85933281D01*
X124087467Y-85936666D01*
X124084418Y-86184383D01*
X124083539Y-86246974D01*
X124082095Y-86315435D01*
X124080164Y-86366339D01*
X124077514Y-86402592D01*
X124073910Y-86427099D01*
X124069121Y-86442765D01*
X124062913Y-86452494D01*
X124056510Y-86458509D01*
X124024828Y-86471518D01*
X123989142Y-86467957D01*
X123958084Y-86448182D01*
X123955161Y-86444931D01*
X123948810Y-86435951D01*
X123943957Y-86423847D01*
X123940403Y-86405841D01*
X123937946Y-86379153D01*
X123936385Y-86341003D01*
X123935518Y-86288614D01*
X123935146Y-86219206D01*
X123935067Y-86129999D01*
X123935083Y-86075266D01*
X123935275Y-85998169D01*
X123935860Y-85939223D01*
X123937051Y-85895636D01*
X123939064Y-85864617D01*
X123942112Y-85843375D01*
X123946409Y-85829118D01*
X123952172Y-85819055D01*
X123959612Y-85810394D01*
X123961293Y-85808609D01*
X123968832Y-85801365D01*
X123977850Y-85795723D01*
X123990984Y-85791483D01*
X124010872Y-85788444D01*
X124040151Y-85786406D01*
X124081458Y-85785170D01*
X124137431Y-85784535D01*
X124210707Y-85784300D01*
X124303923Y-85784266D01*
X124376713Y-85784303D01*
G36*
X124376713Y-85784303D02*
G01*
X124454889Y-85784552D01*
X124515103Y-85785188D01*
X124559982Y-85786385D01*
X124592152Y-85788316D01*
X124614239Y-85791154D01*
X124628870Y-85795073D01*
X124638670Y-85800245D01*
X124646267Y-85806844D01*
X124649444Y-85810178D01*
X124655554Y-85818700D01*
X124660229Y-85830702D01*
X124663659Y-85848913D01*
X124666036Y-85876060D01*
X124667552Y-85914871D01*
X124668398Y-85968076D01*
X124668765Y-86038402D01*
X124668845Y-86128578D01*
X124668833Y-86170686D01*
X124668651Y-86251833D01*
X124668098Y-86314325D01*
X124666982Y-86360891D01*
X124665113Y-86394259D01*
X124662298Y-86417156D01*
X124658346Y-86432312D01*
X124653066Y-86442454D01*
X124646267Y-86450311D01*
X124624667Y-86465037D01*
X124595467Y-86472889D01*
X124571560Y-86467390D01*
X124544667Y-86450311D01*
X124540059Y-86445332D01*
X124533772Y-86435557D01*
X124529146Y-86421441D01*
X124525930Y-86399946D01*
X124523870Y-86368032D01*
X124522712Y-86322658D01*
X124522202Y-86260787D01*
X124522089Y-86179378D01*
X124522089Y-85931022D01*
X124364045Y-85931022D01*
X124364045Y-86092199D01*
X124363899Y-86128017D01*
X124362176Y-86193641D01*
X124357741Y-86240882D01*
X124349637Y-86272617D01*
X124336906Y-86291723D01*
X124318592Y-86301077D01*
X124293738Y-86303555D01*
X124273482Y-86302758D01*
X124251656Y-86297506D01*
X124236304Y-86284712D01*
X124226309Y-86261372D01*
X124220553Y-86224483D01*
X124217919Y-86171041D01*
X124217289Y-86098042D01*
X124217289Y-85929895D01*
X124152378Y-85933281D01*
X124087467Y-85936666D01*
X124084418Y-86184383D01*
X124083539Y-86246974D01*
X124082095Y-86315435D01*
X124080164Y-86366339D01*
X124077514Y-86402592D01*
X124073910Y-86427099D01*
X124069121Y-86442765D01*
X124062913Y-86452494D01*
X124056510Y-86458509D01*
X124024828Y-86471518D01*
X123989142Y-86467957D01*
X123958084Y-86448182D01*
X123955161Y-86444931D01*
X123948810Y-86435951D01*
X123943957Y-86423847D01*
X123940403Y-86405841D01*
X123937946Y-86379153D01*
X123936385Y-86341003D01*
X123935518Y-86288614D01*
X123935146Y-86219206D01*
X123935067Y-86129999D01*
X123935083Y-86075266D01*
X123935275Y-85998169D01*
X123935860Y-85939223D01*
X123937051Y-85895636D01*
X123939064Y-85864617D01*
X123942112Y-85843375D01*
X123946409Y-85829118D01*
X123952172Y-85819055D01*
X123959612Y-85810394D01*
X123961293Y-85808609D01*
X123968832Y-85801365D01*
X123977850Y-85795723D01*
X123990984Y-85791483D01*
X124010872Y-85788444D01*
X124040151Y-85786406D01*
X124081458Y-85785170D01*
X124137431Y-85784535D01*
X124210707Y-85784300D01*
X124303923Y-85784266D01*
X124376713Y-85784303D01*
G37*
X124017915Y-93636772D02*
X124052481Y-93649636D01*
X124100826Y-93669395D01*
X124159825Y-93694619D01*
X124226355Y-93723881D01*
X124297291Y-93755750D01*
X124369507Y-93788799D01*
X124439880Y-93821599D01*
X124505285Y-93852720D01*
X124562597Y-93880735D01*
X124608692Y-93904214D01*
X124640446Y-93921728D01*
X124654733Y-93931849D01*
X124668102Y-93966257D01*
X124661741Y-94007954D01*
X124657044Y-94013319D01*
X124634893Y-94029148D01*
X124598132Y-94051350D01*
X124550415Y-94077767D01*
X124495393Y-94106240D01*
X124336150Y-94186014D01*
X124482742Y-94259201D01*
X124502032Y-94268897D01*
X124554380Y-94295875D01*
X124599170Y-94319904D01*
X124632154Y-94338668D01*
X124649089Y-94349854D01*
X124650332Y-94351000D01*
X124665619Y-94379121D01*
X124667302Y-94414183D01*
X124654733Y-94445224D01*
X124651884Y-94447650D01*
X124631259Y-94459910D01*
X124593708Y-94479648D01*
X124541880Y-94505552D01*
X124478423Y-94536315D01*
X124405985Y-94570625D01*
X124327216Y-94607175D01*
X124283093Y-94627415D01*
X124202365Y-94664188D01*
X124138687Y-94692645D01*
X124089752Y-94713669D01*
X124053257Y-94728146D01*
X124026895Y-94736961D01*
X124008361Y-94740996D01*
X123995352Y-94741138D01*
X123985561Y-94738270D01*
X123964678Y-94723613D01*
X123944377Y-94697010D01*
X123944035Y-94696255D01*
X123937034Y-94676665D01*
X123936504Y-94659210D01*
X123944478Y-94642298D01*
X123962989Y-94624337D01*
X123994071Y-94603737D01*
X124039756Y-94578905D01*
X124102078Y-94548250D01*
X124183071Y-94510180D01*
X124214454Y-94495546D01*
X124277638Y-94465797D01*
X124332244Y-94439703D01*
X124375290Y-94418708D01*
X124403793Y-94404261D01*
X124414770Y-94397809D01*
X124414189Y-94396450D01*
X124400242Y-94386458D01*
X124370704Y-94369167D01*
X124329087Y-94346570D01*
X124278903Y-94320662D01*
X124247414Y-94304689D01*
X124192061Y-94275739D01*
X124153044Y-94253251D01*
X124127566Y-94235035D01*
X124112831Y-94218904D01*
X124106042Y-94202670D01*
X124104400Y-94184143D01*
X124104875Y-94173640D01*
X124109082Y-94157524D01*
X124119946Y-94142210D01*
X124140219Y-94125612D01*
X124172654Y-94105643D01*
X124220004Y-94080217D01*
X124285022Y-94047248D01*
X124304277Y-94037515D01*
X124350946Y-94013057D01*
X124387109Y-93992822D01*
X124409497Y-93978689D01*
X124414845Y-93972540D01*
X124411573Y-93971173D01*
X124390664Y-93961798D01*
X124353725Y-93944938D01*
X124303874Y-93922021D01*
X124244226Y-93894480D01*
X124177898Y-93863745D01*
X124120677Y-93837030D01*
X124058688Y-93807407D01*
X124012949Y-93784336D01*
X123980908Y-93766357D01*
X123960014Y-93752010D01*
X123947718Y-93739834D01*
X123941466Y-93728368D01*
X123938574Y-93718958D01*
X123938425Y-93693853D01*
X123953768Y-93666710D01*
X123954753Y-93665410D01*
X123977388Y-93643326D01*
X123999613Y-93632277D01*
X124000253Y-93632231D01*
X124017915Y-93636772D01*
G36*
X124017915Y-93636772D02*
G01*
X124052481Y-93649636D01*
X124100826Y-93669395D01*
X124159825Y-93694619D01*
X124226355Y-93723881D01*
X124297291Y-93755750D01*
X124369507Y-93788799D01*
X124439880Y-93821599D01*
X124505285Y-93852720D01*
X124562597Y-93880735D01*
X124608692Y-93904214D01*
X124640446Y-93921728D01*
X124654733Y-93931849D01*
X124668102Y-93966257D01*
X124661741Y-94007954D01*
X124657044Y-94013319D01*
X124634893Y-94029148D01*
X124598132Y-94051350D01*
X124550415Y-94077767D01*
X124495393Y-94106240D01*
X124336150Y-94186014D01*
X124482742Y-94259201D01*
X124502032Y-94268897D01*
X124554380Y-94295875D01*
X124599170Y-94319904D01*
X124632154Y-94338668D01*
X124649089Y-94349854D01*
X124650332Y-94351000D01*
X124665619Y-94379121D01*
X124667302Y-94414183D01*
X124654733Y-94445224D01*
X124651884Y-94447650D01*
X124631259Y-94459910D01*
X124593708Y-94479648D01*
X124541880Y-94505552D01*
X124478423Y-94536315D01*
X124405985Y-94570625D01*
X124327216Y-94607175D01*
X124283093Y-94627415D01*
X124202365Y-94664188D01*
X124138687Y-94692645D01*
X124089752Y-94713669D01*
X124053257Y-94728146D01*
X124026895Y-94736961D01*
X124008361Y-94740996D01*
X123995352Y-94741138D01*
X123985561Y-94738270D01*
X123964678Y-94723613D01*
X123944377Y-94697010D01*
X123944035Y-94696255D01*
X123937034Y-94676665D01*
X123936504Y-94659210D01*
X123944478Y-94642298D01*
X123962989Y-94624337D01*
X123994071Y-94603737D01*
X124039756Y-94578905D01*
X124102078Y-94548250D01*
X124183071Y-94510180D01*
X124214454Y-94495546D01*
X124277638Y-94465797D01*
X124332244Y-94439703D01*
X124375290Y-94418708D01*
X124403793Y-94404261D01*
X124414770Y-94397809D01*
X124414189Y-94396450D01*
X124400242Y-94386458D01*
X124370704Y-94369167D01*
X124329087Y-94346570D01*
X124278903Y-94320662D01*
X124247414Y-94304689D01*
X124192061Y-94275739D01*
X124153044Y-94253251D01*
X124127566Y-94235035D01*
X124112831Y-94218904D01*
X124106042Y-94202670D01*
X124104400Y-94184143D01*
X124104875Y-94173640D01*
X124109082Y-94157524D01*
X124119946Y-94142210D01*
X124140219Y-94125612D01*
X124172654Y-94105643D01*
X124220004Y-94080217D01*
X124285022Y-94047248D01*
X124304277Y-94037515D01*
X124350946Y-94013057D01*
X124387109Y-93992822D01*
X124409497Y-93978689D01*
X124414845Y-93972540D01*
X124411573Y-93971173D01*
X124390664Y-93961798D01*
X124353725Y-93944938D01*
X124303874Y-93922021D01*
X124244226Y-93894480D01*
X124177898Y-93863745D01*
X124120677Y-93837030D01*
X124058688Y-93807407D01*
X124012949Y-93784336D01*
X123980908Y-93766357D01*
X123960014Y-93752010D01*
X123947718Y-93739834D01*
X123941466Y-93728368D01*
X123938574Y-93718958D01*
X123938425Y-93693853D01*
X123953768Y-93666710D01*
X123954753Y-93665410D01*
X123977388Y-93643326D01*
X123999613Y-93632277D01*
X124000253Y-93632231D01*
X124017915Y-93636772D01*
G37*
X124186232Y-86756048D02*
X124211029Y-86761840D01*
X124232699Y-86776647D01*
X124260049Y-86804620D01*
X124267378Y-86812598D01*
X124288281Y-86836308D01*
X124305251Y-86858702D01*
X124319205Y-86882735D01*
X124331056Y-86911363D01*
X124341720Y-86947540D01*
X124352111Y-86994220D01*
X124363146Y-87054359D01*
X124375738Y-87130910D01*
X124390804Y-87226829D01*
X124393838Y-87245192D01*
X124407458Y-87307522D01*
X124423192Y-87352740D01*
X124440263Y-87379024D01*
X124457897Y-87384553D01*
X124462168Y-87381932D01*
X124477233Y-87364000D01*
X124493867Y-87335874D01*
X124499857Y-87323074D01*
X124507050Y-87301776D01*
X124511827Y-87275390D01*
X124514646Y-87239546D01*
X124515964Y-87189872D01*
X124516237Y-87122000D01*
X124516164Y-87104215D01*
X124515053Y-87036594D01*
X124512828Y-86971655D01*
X124509762Y-86916030D01*
X124506127Y-86876349D01*
X124502059Y-86840838D01*
X124501276Y-86811585D01*
X124505876Y-86792685D01*
X124516551Y-86777571D01*
X124520144Y-86773915D01*
X124551918Y-86757573D01*
X124587572Y-86758893D01*
X124618190Y-86777850D01*
X124629796Y-86798220D01*
X124642491Y-86834204D01*
X124652541Y-86876628D01*
X124653140Y-86880078D01*
X124658356Y-86922748D01*
X124662730Y-86980134D01*
X124665818Y-87045151D01*
X124667177Y-87110711D01*
X124667218Y-87126943D01*
X124664741Y-87225256D01*
X124656735Y-87305308D01*
X124642203Y-87370487D01*
X124620149Y-87424183D01*
X124589576Y-87469784D01*
X124549486Y-87510677D01*
X124523259Y-87530798D01*
X124493712Y-87542424D01*
X124453995Y-87545333D01*
X124442026Y-87545192D01*
X124409345Y-87541319D01*
X124382819Y-87528935D01*
X124351971Y-87503770D01*
X124329831Y-87482558D01*
X124307285Y-87456162D01*
X124288917Y-87426445D01*
X124273661Y-87390215D01*
X124260449Y-87344283D01*
X124248214Y-87285456D01*
X124235889Y-87210544D01*
X124222406Y-87116355D01*
X124215396Y-87071043D01*
X124200837Y-87003089D01*
X124184337Y-86953953D01*
X124166439Y-86924386D01*
X124147685Y-86915136D01*
X124128615Y-86926952D01*
X124109771Y-86960584D01*
X124108557Y-86963630D01*
X124096479Y-87009989D01*
X124088279Y-87072639D01*
X124084119Y-87146073D01*
X124084161Y-87224783D01*
X124088569Y-87303261D01*
X124097505Y-87376000D01*
X124098154Y-87379927D01*
X124105861Y-87428743D01*
X124109473Y-87460995D01*
X124108876Y-87481992D01*
X124103954Y-87497046D01*
X124094596Y-87511466D01*
X124093725Y-87512636D01*
X124063351Y-87537153D01*
X124027850Y-87541946D01*
X123993269Y-87526140D01*
X123988813Y-87521594D01*
X123973673Y-87491980D01*
X123960550Y-87444998D01*
X123949750Y-87384694D01*
X123941581Y-87315112D01*
X123936351Y-87240297D01*
X123934367Y-87164294D01*
X123935936Y-87091147D01*
X123941366Y-87024900D01*
X123950964Y-86969600D01*
X123965825Y-86918717D01*
X123998958Y-86847405D01*
X124041640Y-86796248D01*
X124093705Y-86765425D01*
X124154983Y-86755111D01*
X124186232Y-86756048D01*
G36*
X124186232Y-86756048D02*
G01*
X124211029Y-86761840D01*
X124232699Y-86776647D01*
X124260049Y-86804620D01*
X124267378Y-86812598D01*
X124288281Y-86836308D01*
X124305251Y-86858702D01*
X124319205Y-86882735D01*
X124331056Y-86911363D01*
X124341720Y-86947540D01*
X124352111Y-86994220D01*
X124363146Y-87054359D01*
X124375738Y-87130910D01*
X124390804Y-87226829D01*
X124393838Y-87245192D01*
X124407458Y-87307522D01*
X124423192Y-87352740D01*
X124440263Y-87379024D01*
X124457897Y-87384553D01*
X124462168Y-87381932D01*
X124477233Y-87364000D01*
X124493867Y-87335874D01*
X124499857Y-87323074D01*
X124507050Y-87301776D01*
X124511827Y-87275390D01*
X124514646Y-87239546D01*
X124515964Y-87189872D01*
X124516237Y-87122000D01*
X124516164Y-87104215D01*
X124515053Y-87036594D01*
X124512828Y-86971655D01*
X124509762Y-86916030D01*
X124506127Y-86876349D01*
X124502059Y-86840838D01*
X124501276Y-86811585D01*
X124505876Y-86792685D01*
X124516551Y-86777571D01*
X124520144Y-86773915D01*
X124551918Y-86757573D01*
X124587572Y-86758893D01*
X124618190Y-86777850D01*
X124629796Y-86798220D01*
X124642491Y-86834204D01*
X124652541Y-86876628D01*
X124653140Y-86880078D01*
X124658356Y-86922748D01*
X124662730Y-86980134D01*
X124665818Y-87045151D01*
X124667177Y-87110711D01*
X124667218Y-87126943D01*
X124664741Y-87225256D01*
X124656735Y-87305308D01*
X124642203Y-87370487D01*
X124620149Y-87424183D01*
X124589576Y-87469784D01*
X124549486Y-87510677D01*
X124523259Y-87530798D01*
X124493712Y-87542424D01*
X124453995Y-87545333D01*
X124442026Y-87545192D01*
X124409345Y-87541319D01*
X124382819Y-87528935D01*
X124351971Y-87503770D01*
X124329831Y-87482558D01*
X124307285Y-87456162D01*
X124288917Y-87426445D01*
X124273661Y-87390215D01*
X124260449Y-87344283D01*
X124248214Y-87285456D01*
X124235889Y-87210544D01*
X124222406Y-87116355D01*
X124215396Y-87071043D01*
X124200837Y-87003089D01*
X124184337Y-86953953D01*
X124166439Y-86924386D01*
X124147685Y-86915136D01*
X124128615Y-86926952D01*
X124109771Y-86960584D01*
X124108557Y-86963630D01*
X124096479Y-87009989D01*
X124088279Y-87072639D01*
X124084119Y-87146073D01*
X124084161Y-87224783D01*
X124088569Y-87303261D01*
X124097505Y-87376000D01*
X124098154Y-87379927D01*
X124105861Y-87428743D01*
X124109473Y-87460995D01*
X124108876Y-87481992D01*
X124103954Y-87497046D01*
X124094596Y-87511466D01*
X124093725Y-87512636D01*
X124063351Y-87537153D01*
X124027850Y-87541946D01*
X123993269Y-87526140D01*
X123988813Y-87521594D01*
X123973673Y-87491980D01*
X123960550Y-87444998D01*
X123949750Y-87384694D01*
X123941581Y-87315112D01*
X123936351Y-87240297D01*
X123934367Y-87164294D01*
X123935936Y-87091147D01*
X123941366Y-87024900D01*
X123950964Y-86969600D01*
X123965825Y-86918717D01*
X123998958Y-86847405D01*
X124041640Y-86796248D01*
X124093705Y-86765425D01*
X124154983Y-86755111D01*
X124186232Y-86756048D01*
G37*
X121487325Y-89614449D02*
X121688581Y-89631209D01*
X121883128Y-89664708D01*
X122066756Y-89714956D01*
X122184053Y-89758810D01*
X122346951Y-89836652D01*
X122500866Y-89930172D01*
X122642671Y-90037178D01*
X122769239Y-90155481D01*
X122877441Y-90282889D01*
X122930120Y-90360394D01*
X122999750Y-90487275D01*
X123058468Y-90624757D01*
X123103587Y-90766284D01*
X123132422Y-90905298D01*
X123134106Y-90919403D01*
X123137434Y-90962847D01*
X123140275Y-91020277D01*
X123142373Y-91085878D01*
X123143468Y-91153833D01*
X123141140Y-91280622D01*
X123128136Y-91428327D01*
X123103133Y-91566221D01*
X123065318Y-91699986D01*
X123056889Y-91723438D01*
X123037408Y-91771388D01*
X123012473Y-91827860D01*
X122983722Y-91889621D01*
X122952790Y-91953437D01*
X122921315Y-92016074D01*
X122890934Y-92074297D01*
X122863283Y-92124873D01*
X122839999Y-92164567D01*
X122822718Y-92190146D01*
X122813079Y-92198375D01*
X122809984Y-92196924D01*
X122790079Y-92185750D01*
X122754420Y-92164866D01*
X122705459Y-92135735D01*
X122645646Y-92099819D01*
X122577433Y-92058580D01*
X122503271Y-92013483D01*
X122206008Y-91832215D01*
X122250539Y-91785685D01*
X122328865Y-91694277D01*
X122403439Y-91580666D01*
X122457474Y-91462878D01*
X122490290Y-91342441D01*
X122501211Y-91220883D01*
X122499868Y-91179415D01*
X122481612Y-91061920D01*
X122442617Y-90951911D01*
X122383670Y-90850570D01*
X122305557Y-90759079D01*
X122209064Y-90678620D01*
X122094978Y-90610373D01*
X122060724Y-90594092D01*
X121937240Y-90548018D01*
X121798918Y-90512894D01*
X121649561Y-90488803D01*
X121492973Y-90475827D01*
X121332956Y-90474051D01*
X121173314Y-90483557D01*
X121017850Y-90504428D01*
X120870366Y-90536748D01*
X120734667Y-90580601D01*
X120648076Y-90618018D01*
X120534688Y-90682815D01*
X120441070Y-90758228D01*
X120366959Y-90844582D01*
X120312094Y-90942205D01*
X120276212Y-91051423D01*
X120259051Y-91172561D01*
X120257880Y-91241962D01*
X120272141Y-91364832D01*
X120307241Y-91480336D01*
X120362682Y-91587047D01*
X120437964Y-91683536D01*
X120452440Y-91699280D01*
X120478962Y-91729850D01*
X120496138Y-91752191D01*
X120500787Y-91762309D01*
X120498597Y-91764294D01*
X120479721Y-91778759D01*
X120446397Y-91802600D01*
X120401380Y-91833971D01*
X120347425Y-91871026D01*
X120287285Y-91911917D01*
X120223718Y-91954798D01*
X120159476Y-91997822D01*
X120097315Y-92039143D01*
X120039991Y-92076914D01*
X119990257Y-92109288D01*
X119950868Y-92134418D01*
X119924580Y-92150458D01*
X119914147Y-92155561D01*
X119909941Y-92150950D01*
X119904933Y-92131733D01*
X119902386Y-92122162D01*
X119891249Y-92094191D01*
X119872802Y-92052552D01*
X119848725Y-92001005D01*
X119820699Y-91943310D01*
X119815154Y-91932043D01*
X119735889Y-91754313D01*
X119676385Y-91584510D01*
X119636245Y-91420570D01*
X119615071Y-91260429D01*
X119612466Y-91102023D01*
X119628033Y-90943289D01*
X119645523Y-90847732D01*
X119690564Y-90683442D01*
X119753656Y-90529411D01*
X119835915Y-90383491D01*
X119938457Y-90243534D01*
X120062399Y-90107392D01*
X120107661Y-90063527D01*
X120239865Y-89951242D01*
X120377832Y-89858028D01*
X120525750Y-89781281D01*
X120687803Y-89718397D01*
X120699391Y-89714580D01*
X120885392Y-89664493D01*
X121081521Y-89631101D01*
X121283568Y-89614416D01*
X121487325Y-89614449D01*
G36*
X121487325Y-89614449D02*
G01*
X121688581Y-89631209D01*
X121883128Y-89664708D01*
X122066756Y-89714956D01*
X122184053Y-89758810D01*
X122346951Y-89836652D01*
X122500866Y-89930172D01*
X122642671Y-90037178D01*
X122769239Y-90155481D01*
X122877441Y-90282889D01*
X122930120Y-90360394D01*
X122999750Y-90487275D01*
X123058468Y-90624757D01*
X123103587Y-90766284D01*
X123132422Y-90905298D01*
X123134106Y-90919403D01*
X123137434Y-90962847D01*
X123140275Y-91020277D01*
X123142373Y-91085878D01*
X123143468Y-91153833D01*
X123141140Y-91280622D01*
X123128136Y-91428327D01*
X123103133Y-91566221D01*
X123065318Y-91699986D01*
X123056889Y-91723438D01*
X123037408Y-91771388D01*
X123012473Y-91827860D01*
X122983722Y-91889621D01*
X122952790Y-91953437D01*
X122921315Y-92016074D01*
X122890934Y-92074297D01*
X122863283Y-92124873D01*
X122839999Y-92164567D01*
X122822718Y-92190146D01*
X122813079Y-92198375D01*
X122809984Y-92196924D01*
X122790079Y-92185750D01*
X122754420Y-92164866D01*
X122705459Y-92135735D01*
X122645646Y-92099819D01*
X122577433Y-92058580D01*
X122503271Y-92013483D01*
X122206008Y-91832215D01*
X122250539Y-91785685D01*
X122328865Y-91694277D01*
X122403439Y-91580666D01*
X122457474Y-91462878D01*
X122490290Y-91342441D01*
X122501211Y-91220883D01*
X122499868Y-91179415D01*
X122481612Y-91061920D01*
X122442617Y-90951911D01*
X122383670Y-90850570D01*
X122305557Y-90759079D01*
X122209064Y-90678620D01*
X122094978Y-90610373D01*
X122060724Y-90594092D01*
X121937240Y-90548018D01*
X121798918Y-90512894D01*
X121649561Y-90488803D01*
X121492973Y-90475827D01*
X121332956Y-90474051D01*
X121173314Y-90483557D01*
X121017850Y-90504428D01*
X120870366Y-90536748D01*
X120734667Y-90580601D01*
X120648076Y-90618018D01*
X120534688Y-90682815D01*
X120441070Y-90758228D01*
X120366959Y-90844582D01*
X120312094Y-90942205D01*
X120276212Y-91051423D01*
X120259051Y-91172561D01*
X120257880Y-91241962D01*
X120272141Y-91364832D01*
X120307241Y-91480336D01*
X120362682Y-91587047D01*
X120437964Y-91683536D01*
X120452440Y-91699280D01*
X120478962Y-91729850D01*
X120496138Y-91752191D01*
X120500787Y-91762309D01*
X120498597Y-91764294D01*
X120479721Y-91778759D01*
X120446397Y-91802600D01*
X120401380Y-91833971D01*
X120347425Y-91871026D01*
X120287285Y-91911917D01*
X120223718Y-91954798D01*
X120159476Y-91997822D01*
X120097315Y-92039143D01*
X120039991Y-92076914D01*
X119990257Y-92109288D01*
X119950868Y-92134418D01*
X119924580Y-92150458D01*
X119914147Y-92155561D01*
X119909941Y-92150950D01*
X119904933Y-92131733D01*
X119902386Y-92122162D01*
X119891249Y-92094191D01*
X119872802Y-92052552D01*
X119848725Y-92001005D01*
X119820699Y-91943310D01*
X119815154Y-91932043D01*
X119735889Y-91754313D01*
X119676385Y-91584510D01*
X119636245Y-91420570D01*
X119615071Y-91260429D01*
X119612466Y-91102023D01*
X119628033Y-90943289D01*
X119645523Y-90847732D01*
X119690564Y-90683442D01*
X119753656Y-90529411D01*
X119835915Y-90383491D01*
X119938457Y-90243534D01*
X120062399Y-90107392D01*
X120107661Y-90063527D01*
X120239865Y-89951242D01*
X120377832Y-89858028D01*
X120525750Y-89781281D01*
X120687803Y-89718397D01*
X120699391Y-89714580D01*
X120885392Y-89664493D01*
X121081521Y-89631101D01*
X121283568Y-89614416D01*
X121487325Y-89614449D01*
G37*
X121986158Y-94746732D02*
X122137594Y-94755311D01*
X122274283Y-94774167D01*
X122400276Y-94804163D01*
X122519625Y-94846164D01*
X122636381Y-94901031D01*
X122747179Y-94967833D01*
X122860739Y-95058637D01*
X122956211Y-95162292D01*
X123033073Y-95278113D01*
X123090797Y-95405414D01*
X123128858Y-95543511D01*
X123134666Y-95581207D01*
X123140396Y-95660248D01*
X123140583Y-95748371D01*
X123135539Y-95837764D01*
X123125578Y-95920616D01*
X123111012Y-95989113D01*
X123101364Y-96019965D01*
X123071123Y-96097270D01*
X123033617Y-96174321D01*
X122992614Y-96243800D01*
X122951879Y-96298385D01*
X122932505Y-96321084D01*
X122914662Y-96343799D01*
X122907778Y-96355221D01*
X122909424Y-96356463D01*
X122927205Y-96359272D01*
X122960370Y-96361224D01*
X123003733Y-96361955D01*
X123099689Y-96361955D01*
X123099689Y-97220104D01*
X123038974Y-97185839D01*
X123029868Y-97180645D01*
X123015249Y-97172285D01*
X123001173Y-97164712D01*
X122986540Y-97157888D01*
X122970249Y-97151773D01*
X122951198Y-97146327D01*
X122928286Y-97141513D01*
X122900413Y-97137292D01*
X122866478Y-97133623D01*
X122825379Y-97130469D01*
X122776015Y-97127789D01*
X122717286Y-97125546D01*
X122648090Y-97123701D01*
X122567326Y-97122213D01*
X122473894Y-97121045D01*
X122366692Y-97120156D01*
X122244620Y-97119509D01*
X122106576Y-97119064D01*
X121951459Y-97118782D01*
X121778168Y-97118625D01*
X121585603Y-97118552D01*
X121372662Y-97118526D01*
X121138245Y-97118507D01*
X119453378Y-97118311D01*
X119453378Y-96212983D01*
X119490067Y-96237415D01*
X119499647Y-96243682D01*
X119545981Y-96269792D01*
X119593102Y-96287531D01*
X119648251Y-96299092D01*
X119718667Y-96306669D01*
X119725650Y-96307161D01*
X119763641Y-96308938D01*
X119817576Y-96310556D01*
X119884703Y-96312001D01*
X119962271Y-96313260D01*
X120047528Y-96314320D01*
X120137724Y-96315171D01*
X120230107Y-96315797D01*
X120321925Y-96316188D01*
X120410427Y-96316330D01*
X120492862Y-96316210D01*
X120566479Y-96315817D01*
X120628526Y-96315138D01*
X120676251Y-96314159D01*
X120706904Y-96312868D01*
X120717733Y-96311253D01*
X120713333Y-96303043D01*
X120698362Y-96281353D01*
X120676448Y-96251986D01*
X120642236Y-96203121D01*
X120595714Y-96114875D01*
X120562046Y-96016084D01*
X120559231Y-96001557D01*
X121113465Y-96001557D01*
X121125389Y-96086681D01*
X121152040Y-96170867D01*
X121192962Y-96249392D01*
X121236530Y-96316800D01*
X122386721Y-96316800D01*
X122433089Y-96246244D01*
X122456791Y-96205583D01*
X122482639Y-96151454D01*
X122500829Y-96102311D01*
X122516551Y-96038835D01*
X122527541Y-95942669D01*
X122519365Y-95858100D01*
X122491805Y-95784781D01*
X122444642Y-95722363D01*
X122377658Y-95670498D01*
X122290633Y-95628840D01*
X122183350Y-95597038D01*
X122171009Y-95594455D01*
X122109772Y-95586000D01*
X122032692Y-95580337D01*
X121945002Y-95577424D01*
X121851934Y-95577217D01*
X121758720Y-95579670D01*
X121670594Y-95584739D01*
X121592788Y-95592381D01*
X121530533Y-95602552D01*
X121524666Y-95603833D01*
X121414121Y-95632874D01*
X121323575Y-95667390D01*
X121250953Y-95708544D01*
X121194181Y-95757501D01*
X121151184Y-95815426D01*
X121135615Y-95847380D01*
X121116722Y-95920216D01*
X121113465Y-96001557D01*
X120559231Y-96001557D01*
X120540231Y-95903490D01*
X120529265Y-95773836D01*
X120528219Y-95681330D01*
X120538014Y-95559989D01*
X120562174Y-95449901D01*
X120601785Y-95346611D01*
X120657932Y-95245662D01*
X120688883Y-95200497D01*
X120780115Y-95095089D01*
X120889106Y-95003462D01*
X121015726Y-94925668D01*
X121159845Y-94861759D01*
X121321332Y-94811786D01*
X121500059Y-94775802D01*
X121695895Y-94753857D01*
X121851934Y-94748100D01*
X121908711Y-94746006D01*
X121986158Y-94746732D01*
G36*
X121986158Y-94746732D02*
G01*
X122137594Y-94755311D01*
X122274283Y-94774167D01*
X122400276Y-94804163D01*
X122519625Y-94846164D01*
X122636381Y-94901031D01*
X122747179Y-94967833D01*
X122860739Y-95058637D01*
X122956211Y-95162292D01*
X123033073Y-95278113D01*
X123090797Y-95405414D01*
X123128858Y-95543511D01*
X123134666Y-95581207D01*
X123140396Y-95660248D01*
X123140583Y-95748371D01*
X123135539Y-95837764D01*
X123125578Y-95920616D01*
X123111012Y-95989113D01*
X123101364Y-96019965D01*
X123071123Y-96097270D01*
X123033617Y-96174321D01*
X122992614Y-96243800D01*
X122951879Y-96298385D01*
X122932505Y-96321084D01*
X122914662Y-96343799D01*
X122907778Y-96355221D01*
X122909424Y-96356463D01*
X122927205Y-96359272D01*
X122960370Y-96361224D01*
X123003733Y-96361955D01*
X123099689Y-96361955D01*
X123099689Y-97220104D01*
X123038974Y-97185839D01*
X123029868Y-97180645D01*
X123015249Y-97172285D01*
X123001173Y-97164712D01*
X122986540Y-97157888D01*
X122970249Y-97151773D01*
X122951198Y-97146327D01*
X122928286Y-97141513D01*
X122900413Y-97137292D01*
X122866478Y-97133623D01*
X122825379Y-97130469D01*
X122776015Y-97127789D01*
X122717286Y-97125546D01*
X122648090Y-97123701D01*
X122567326Y-97122213D01*
X122473894Y-97121045D01*
X122366692Y-97120156D01*
X122244620Y-97119509D01*
X122106576Y-97119064D01*
X121951459Y-97118782D01*
X121778168Y-97118625D01*
X121585603Y-97118552D01*
X121372662Y-97118526D01*
X121138245Y-97118507D01*
X119453378Y-97118311D01*
X119453378Y-96212983D01*
X119490067Y-96237415D01*
X119499647Y-96243682D01*
X119545981Y-96269792D01*
X119593102Y-96287531D01*
X119648251Y-96299092D01*
X119718667Y-96306669D01*
X119725650Y-96307161D01*
X119763641Y-96308938D01*
X119817576Y-96310556D01*
X119884703Y-96312001D01*
X119962271Y-96313260D01*
X120047528Y-96314320D01*
X120137724Y-96315171D01*
X120230107Y-96315797D01*
X120321925Y-96316188D01*
X120410427Y-96316330D01*
X120492862Y-96316210D01*
X120566479Y-96315817D01*
X120628526Y-96315138D01*
X120676251Y-96314159D01*
X120706904Y-96312868D01*
X120717733Y-96311253D01*
X120713333Y-96303043D01*
X120698362Y-96281353D01*
X120676448Y-96251986D01*
X120642236Y-96203121D01*
X120595714Y-96114875D01*
X120562046Y-96016084D01*
X120559231Y-96001557D01*
X121113465Y-96001557D01*
X121125389Y-96086681D01*
X121152040Y-96170867D01*
X121192962Y-96249392D01*
X121236530Y-96316800D01*
X122386721Y-96316800D01*
X122433089Y-96246244D01*
X122456791Y-96205583D01*
X122482639Y-96151454D01*
X122500829Y-96102311D01*
X122516551Y-96038835D01*
X122527541Y-95942669D01*
X122519365Y-95858100D01*
X122491805Y-95784781D01*
X122444642Y-95722363D01*
X122377658Y-95670498D01*
X122290633Y-95628840D01*
X122183350Y-95597038D01*
X122171009Y-95594455D01*
X122109772Y-95586000D01*
X122032692Y-95580337D01*
X121945002Y-95577424D01*
X121851934Y-95577217D01*
X121758720Y-95579670D01*
X121670594Y-95584739D01*
X121592788Y-95592381D01*
X121530533Y-95602552D01*
X121524666Y-95603833D01*
X121414121Y-95632874D01*
X121323575Y-95667390D01*
X121250953Y-95708544D01*
X121194181Y-95757501D01*
X121151184Y-95815426D01*
X121135615Y-95847380D01*
X121116722Y-95920216D01*
X121113465Y-96001557D01*
X120559231Y-96001557D01*
X120540231Y-95903490D01*
X120529265Y-95773836D01*
X120528219Y-95681330D01*
X120538014Y-95559989D01*
X120562174Y-95449901D01*
X120601785Y-95346611D01*
X120657932Y-95245662D01*
X120688883Y-95200497D01*
X120780115Y-95095089D01*
X120889106Y-95003462D01*
X121015726Y-94925668D01*
X121159845Y-94861759D01*
X121321332Y-94811786D01*
X121500059Y-94775802D01*
X121695895Y-94753857D01*
X121851934Y-94748100D01*
X121908711Y-94746006D01*
X121986158Y-94746732D01*
G37*
X122343363Y-92204739D02*
X122418202Y-92208368D01*
X122480401Y-92215978D01*
X122536984Y-92228312D01*
X122663076Y-92272687D01*
X122777679Y-92335600D01*
X122878568Y-92415762D01*
X122964924Y-92512260D01*
X123035932Y-92624178D01*
X123090776Y-92750603D01*
X123128638Y-92890622D01*
X123134351Y-92926851D01*
X123140313Y-93005845D01*
X123140646Y-93094159D01*
X123135659Y-93183925D01*
X123125666Y-93267278D01*
X123110978Y-93336349D01*
X123080749Y-93422813D01*
X123026057Y-93532714D01*
X122958543Y-93630044D01*
X122907556Y-93692133D01*
X123003622Y-93695395D01*
X123099689Y-93698657D01*
X123099689Y-94121550D01*
X123099686Y-94132457D01*
X123099380Y-94226944D01*
X123098616Y-94313669D01*
X123097451Y-94390163D01*
X123095942Y-94453957D01*
X123094147Y-94502582D01*
X123092121Y-94533567D01*
X123089922Y-94544444D01*
X123089463Y-94544422D01*
X123073910Y-94537386D01*
X123051071Y-94521566D01*
X123045638Y-94517266D01*
X123031606Y-94506223D01*
X123018186Y-94496689D01*
X123003722Y-94488539D01*
X122986556Y-94481648D01*
X122965034Y-94475889D01*
X122937498Y-94471138D01*
X122902292Y-94467269D01*
X122857760Y-94464156D01*
X122802246Y-94461675D01*
X122734093Y-94459700D01*
X122651645Y-94458106D01*
X122553246Y-94456766D01*
X122437239Y-94455556D01*
X122301968Y-94454351D01*
X122145778Y-94453025D01*
X122003012Y-94451772D01*
X121857942Y-94450349D01*
X121732027Y-94448824D01*
X121623436Y-94447067D01*
X121530334Y-94444949D01*
X121450891Y-94442340D01*
X121383273Y-94439110D01*
X121325649Y-94435131D01*
X121276185Y-94430272D01*
X121233050Y-94424403D01*
X121194410Y-94417396D01*
X121158434Y-94409120D01*
X121123289Y-94399446D01*
X121087142Y-94388244D01*
X121048161Y-94375384D01*
X121005091Y-94359910D01*
X120912871Y-94317006D01*
X120833099Y-94263265D01*
X120758965Y-94194424D01*
X120695405Y-94116815D01*
X120633725Y-94012239D01*
X120586202Y-93892756D01*
X120552567Y-93757492D01*
X120532552Y-93605574D01*
X120525889Y-93436128D01*
X120526287Y-93378110D01*
X120528335Y-93312602D01*
X120532704Y-93251307D01*
X120540035Y-93189903D01*
X120550969Y-93124068D01*
X120566147Y-93049480D01*
X120586209Y-92961816D01*
X120611797Y-92856755D01*
X120618820Y-92828194D01*
X120636776Y-92752946D01*
X120652820Y-92682612D01*
X120666028Y-92621433D01*
X120675474Y-92573646D01*
X120680231Y-92543489D01*
X120683910Y-92515217D01*
X120689187Y-92488940D01*
X120693942Y-92478941D01*
X120702781Y-92482048D01*
X120730072Y-92492806D01*
X120772906Y-92510136D01*
X120828425Y-92532874D01*
X120893772Y-92559853D01*
X120966089Y-92589910D01*
X120981879Y-92596507D01*
X121072484Y-92635093D01*
X121142217Y-92666232D01*
X121191405Y-92690083D01*
X121220374Y-92706802D01*
X121229452Y-92716546D01*
X121227405Y-92724234D01*
X121217760Y-92750585D01*
X121202190Y-92789018D01*
X121182815Y-92834178D01*
X121144814Y-92928707D01*
X121103780Y-93065520D01*
X121078612Y-93206711D01*
X121074611Y-93244686D01*
X121072447Y-93347941D01*
X121085622Y-93435048D01*
X121114756Y-93506871D01*
X121160466Y-93564269D01*
X121223372Y-93608104D01*
X121304092Y-93639238D01*
X121403245Y-93658530D01*
X121462224Y-93665950D01*
X121455445Y-93504064D01*
X121455110Y-93478106D01*
X121977842Y-93478106D01*
X121977857Y-93486993D01*
X121978655Y-93542340D01*
X121980488Y-93589264D01*
X121983111Y-93623047D01*
X121986274Y-93638972D01*
X121992741Y-93643057D01*
X122014875Y-93647428D01*
X122053988Y-93650396D01*
X122111939Y-93652086D01*
X122190586Y-93652622D01*
X122386462Y-93652622D01*
X122442973Y-93607952D01*
X122458212Y-93595215D01*
X122500844Y-93548396D01*
X122536672Y-93487745D01*
X122541850Y-93477103D01*
X122558745Y-93438324D01*
X122568909Y-93403308D01*
X122574325Y-93363278D01*
X122576978Y-93309459D01*
X122577383Y-93291352D01*
X122574540Y-93215989D01*
X122562620Y-93155257D01*
X122540037Y-93103548D01*
X122505211Y-93055254D01*
X122500798Y-93050197D01*
X122445160Y-93001728D01*
X122381333Y-92973541D01*
X122306282Y-92964248D01*
X122234693Y-92971480D01*
X122171645Y-92996204D01*
X122113758Y-93040751D01*
X122066808Y-93095681D01*
X122026961Y-93168106D01*
X121999263Y-93254660D01*
X121983096Y-93357330D01*
X121977842Y-93478106D01*
X121455110Y-93478106D01*
X121453813Y-93377505D01*
X121460194Y-93226049D01*
X121474777Y-93077604D01*
X121496882Y-92941422D01*
X121511821Y-92876755D01*
X121554741Y-92744510D01*
X121611340Y-92622238D01*
X121680017Y-92512315D01*
X121759170Y-92417117D01*
X121847196Y-92339020D01*
X121942493Y-92280401D01*
X121994864Y-92256405D01*
X122065590Y-92230768D01*
X122136812Y-92214522D01*
X122215712Y-92206178D01*
X122306282Y-92204310D01*
X122309467Y-92204245D01*
X122343363Y-92204739D01*
G36*
X122343363Y-92204739D02*
G01*
X122418202Y-92208368D01*
X122480401Y-92215978D01*
X122536984Y-92228312D01*
X122663076Y-92272687D01*
X122777679Y-92335600D01*
X122878568Y-92415762D01*
X122964924Y-92512260D01*
X123035932Y-92624178D01*
X123090776Y-92750603D01*
X123128638Y-92890622D01*
X123134351Y-92926851D01*
X123140313Y-93005845D01*
X123140646Y-93094159D01*
X123135659Y-93183925D01*
X123125666Y-93267278D01*
X123110978Y-93336349D01*
X123080749Y-93422813D01*
X123026057Y-93532714D01*
X122958543Y-93630044D01*
X122907556Y-93692133D01*
X123003622Y-93695395D01*
X123099689Y-93698657D01*
X123099689Y-94121550D01*
X123099686Y-94132457D01*
X123099380Y-94226944D01*
X123098616Y-94313669D01*
X123097451Y-94390163D01*
X123095942Y-94453957D01*
X123094147Y-94502582D01*
X123092121Y-94533567D01*
X123089922Y-94544444D01*
X123089463Y-94544422D01*
X123073910Y-94537386D01*
X123051071Y-94521566D01*
X123045638Y-94517266D01*
X123031606Y-94506223D01*
X123018186Y-94496689D01*
X123003722Y-94488539D01*
X122986556Y-94481648D01*
X122965034Y-94475889D01*
X122937498Y-94471138D01*
X122902292Y-94467269D01*
X122857760Y-94464156D01*
X122802246Y-94461675D01*
X122734093Y-94459700D01*
X122651645Y-94458106D01*
X122553246Y-94456766D01*
X122437239Y-94455556D01*
X122301968Y-94454351D01*
X122145778Y-94453025D01*
X122003012Y-94451772D01*
X121857942Y-94450349D01*
X121732027Y-94448824D01*
X121623436Y-94447067D01*
X121530334Y-94444949D01*
X121450891Y-94442340D01*
X121383273Y-94439110D01*
X121325649Y-94435131D01*
X121276185Y-94430272D01*
X121233050Y-94424403D01*
X121194410Y-94417396D01*
X121158434Y-94409120D01*
X121123289Y-94399446D01*
X121087142Y-94388244D01*
X121048161Y-94375384D01*
X121005091Y-94359910D01*
X120912871Y-94317006D01*
X120833099Y-94263265D01*
X120758965Y-94194424D01*
X120695405Y-94116815D01*
X120633725Y-94012239D01*
X120586202Y-93892756D01*
X120552567Y-93757492D01*
X120532552Y-93605574D01*
X120525889Y-93436128D01*
X120526287Y-93378110D01*
X120528335Y-93312602D01*
X120532704Y-93251307D01*
X120540035Y-93189903D01*
X120550969Y-93124068D01*
X120566147Y-93049480D01*
X120586209Y-92961816D01*
X120611797Y-92856755D01*
X120618820Y-92828194D01*
X120636776Y-92752946D01*
X120652820Y-92682612D01*
X120666028Y-92621433D01*
X120675474Y-92573646D01*
X120680231Y-92543489D01*
X120683910Y-92515217D01*
X120689187Y-92488940D01*
X120693942Y-92478941D01*
X120702781Y-92482048D01*
X120730072Y-92492806D01*
X120772906Y-92510136D01*
X120828425Y-92532874D01*
X120893772Y-92559853D01*
X120966089Y-92589910D01*
X120981879Y-92596507D01*
X121072484Y-92635093D01*
X121142217Y-92666232D01*
X121191405Y-92690083D01*
X121220374Y-92706802D01*
X121229452Y-92716546D01*
X121227405Y-92724234D01*
X121217760Y-92750585D01*
X121202190Y-92789018D01*
X121182815Y-92834178D01*
X121144814Y-92928707D01*
X121103780Y-93065520D01*
X121078612Y-93206711D01*
X121074611Y-93244686D01*
X121072447Y-93347941D01*
X121085622Y-93435048D01*
X121114756Y-93506871D01*
X121160466Y-93564269D01*
X121223372Y-93608104D01*
X121304092Y-93639238D01*
X121403245Y-93658530D01*
X121462224Y-93665950D01*
X121455445Y-93504064D01*
X121455110Y-93478106D01*
X121977842Y-93478106D01*
X121977857Y-93486993D01*
X121978655Y-93542340D01*
X121980488Y-93589264D01*
X121983111Y-93623047D01*
X121986274Y-93638972D01*
X121992741Y-93643057D01*
X122014875Y-93647428D01*
X122053988Y-93650396D01*
X122111939Y-93652086D01*
X122190586Y-93652622D01*
X122386462Y-93652622D01*
X122442973Y-93607952D01*
X122458212Y-93595215D01*
X122500844Y-93548396D01*
X122536672Y-93487745D01*
X122541850Y-93477103D01*
X122558745Y-93438324D01*
X122568909Y-93403308D01*
X122574325Y-93363278D01*
X122576978Y-93309459D01*
X122577383Y-93291352D01*
X122574540Y-93215989D01*
X122562620Y-93155257D01*
X122540037Y-93103548D01*
X122505211Y-93055254D01*
X122500798Y-93050197D01*
X122445160Y-93001728D01*
X122381333Y-92973541D01*
X122306282Y-92964248D01*
X122234693Y-92971480D01*
X122171645Y-92996204D01*
X122113758Y-93040751D01*
X122066808Y-93095681D01*
X122026961Y-93168106D01*
X121999263Y-93254660D01*
X121983096Y-93357330D01*
X121977842Y-93478106D01*
X121455110Y-93478106D01*
X121453813Y-93377505D01*
X121460194Y-93226049D01*
X121474777Y-93077604D01*
X121496882Y-92941422D01*
X121511821Y-92876755D01*
X121554741Y-92744510D01*
X121611340Y-92622238D01*
X121680017Y-92512315D01*
X121759170Y-92417117D01*
X121847196Y-92339020D01*
X121942493Y-92280401D01*
X121994864Y-92256405D01*
X122065590Y-92230768D01*
X122136812Y-92214522D01*
X122215712Y-92206178D01*
X122306282Y-92204310D01*
X122309467Y-92204245D01*
X122343363Y-92204739D01*
G37*
X122287295Y-84655313D02*
X122467535Y-84655407D01*
X122630015Y-84655605D01*
X122775670Y-84655937D01*
X122905434Y-84656431D01*
X123020243Y-84657117D01*
X123121030Y-84658024D01*
X123208730Y-84659183D01*
X123284279Y-84660622D01*
X123348611Y-84662371D01*
X123402661Y-84664460D01*
X123447363Y-84666917D01*
X123483652Y-84669773D01*
X123512463Y-84673057D01*
X123534731Y-84676798D01*
X123551390Y-84681026D01*
X123563375Y-84685771D01*
X123571621Y-84691061D01*
X123577062Y-84696927D01*
X123580634Y-84703398D01*
X123583270Y-84710503D01*
X123585906Y-84718272D01*
X123589477Y-84726734D01*
X123591145Y-84731092D01*
X123593111Y-84739605D01*
X123594911Y-84752306D01*
X123596555Y-84770115D01*
X123598047Y-84793951D01*
X123599397Y-84824734D01*
X123600611Y-84863383D01*
X123601697Y-84910818D01*
X123602661Y-84967957D01*
X123603511Y-85035721D01*
X123604253Y-85115029D01*
X123604897Y-85206801D01*
X123605447Y-85311956D01*
X123605913Y-85431413D01*
X123606300Y-85566092D01*
X123606616Y-85716912D01*
X123606869Y-85884794D01*
X123607066Y-86070655D01*
X123607213Y-86275417D01*
X123607318Y-86499998D01*
X123607389Y-86745318D01*
X123607432Y-87012296D01*
X123607437Y-87050679D01*
X123607480Y-87316078D01*
X123607525Y-87559950D01*
X123607548Y-87783217D01*
X123607524Y-87986804D01*
X123607430Y-88171633D01*
X123607243Y-88338627D01*
X123606939Y-88488710D01*
X123606494Y-88622804D01*
X123605885Y-88741834D01*
X123605089Y-88846721D01*
X123604080Y-88938390D01*
X123602837Y-89017763D01*
X123601335Y-89085763D01*
X123599551Y-89143314D01*
X123597461Y-89191338D01*
X123595042Y-89230760D01*
X123592270Y-89262501D01*
X123589121Y-89287486D01*
X123585572Y-89306636D01*
X123581598Y-89320877D01*
X123577178Y-89331129D01*
X123572286Y-89338318D01*
X123566900Y-89343365D01*
X123560996Y-89347195D01*
X123554549Y-89350729D01*
X123547537Y-89354892D01*
X123545687Y-89355975D01*
X123540180Y-89358187D01*
X123531868Y-89360214D01*
X123519809Y-89362062D01*
X123503063Y-89363739D01*
X123480687Y-89365255D01*
X123451740Y-89366617D01*
X123415280Y-89367833D01*
X123370367Y-89368911D01*
X123316057Y-89369860D01*
X123251410Y-89370688D01*
X123175484Y-89371403D01*
X123087338Y-89372013D01*
X122986029Y-89372526D01*
X122870617Y-89372950D01*
X122740160Y-89373294D01*
X122593716Y-89373566D01*
X122430344Y-89373773D01*
X122249101Y-89373924D01*
X122049048Y-89374028D01*
X121829241Y-89374092D01*
X121588739Y-89374124D01*
X121326602Y-89374133D01*
X119135031Y-89374133D01*
X119096649Y-89335751D01*
X119072911Y-89308645D01*
X119061111Y-89281747D01*
X119058267Y-89245440D01*
X119058267Y-89193511D01*
X119146206Y-89193511D01*
X119196102Y-89191573D01*
X119306523Y-89172801D01*
X119407987Y-89135783D01*
X119499152Y-89082631D01*
X119578673Y-89015454D01*
X119645205Y-88936362D01*
X119697406Y-88847466D01*
X119733930Y-88750875D01*
X119753434Y-88648700D01*
X119754561Y-88544147D01*
X120570978Y-88544147D01*
X120570978Y-88989805D01*
X121747845Y-88992880D01*
X122924711Y-88995955D01*
X122983622Y-89022593D01*
X123008183Y-89034515D01*
X123038434Y-89051754D01*
X123055560Y-89064926D01*
X123063591Y-89072924D01*
X123078493Y-89080622D01*
X123079765Y-89076740D01*
X123081791Y-89053480D01*
X123083626Y-89011126D01*
X123085227Y-88951868D01*
X123086549Y-88877893D01*
X123087548Y-88791390D01*
X123088180Y-88694548D01*
X123088400Y-88589555D01*
X123088349Y-88520644D01*
X123088091Y-88422393D01*
X123087637Y-88332970D01*
X123087010Y-88254667D01*
X123086235Y-88189777D01*
X123085335Y-88140589D01*
X123084334Y-88109396D01*
X123083257Y-88098489D01*
X123080037Y-88099678D01*
X123062452Y-88109824D01*
X123036158Y-88126960D01*
X123023691Y-88135460D01*
X123009622Y-88144671D01*
X122995351Y-88152767D01*
X122979479Y-88159815D01*
X122960609Y-88165883D01*
X122937341Y-88171039D01*
X122908278Y-88175349D01*
X122872021Y-88178881D01*
X122827170Y-88181703D01*
X122772328Y-88183882D01*
X122706097Y-88185486D01*
X122627077Y-88186581D01*
X122533871Y-88187235D01*
X122425079Y-88187516D01*
X122299303Y-88187491D01*
X122155145Y-88187228D01*
X121991207Y-88186794D01*
X121806089Y-88186255D01*
X121627232Y-88185721D01*
X121468374Y-88185195D01*
X121329316Y-88184650D01*
X121208665Y-88184055D01*
X121105028Y-88183381D01*
X121017011Y-88182597D01*
X120943223Y-88181674D01*
X120882269Y-88180581D01*
X120832757Y-88179288D01*
X120793293Y-88177765D01*
X120762484Y-88175981D01*
X120738938Y-88173908D01*
X120721260Y-88171514D01*
X120708059Y-88168770D01*
X120697940Y-88165644D01*
X120689511Y-88162108D01*
X120681375Y-88158209D01*
X120644544Y-88138562D01*
X120614391Y-88119775D01*
X120612908Y-88118728D01*
X120590659Y-88104398D01*
X120577702Y-88098489D01*
X120577249Y-88099496D01*
X120575803Y-88116695D01*
X120574480Y-88153344D01*
X120573316Y-88207038D01*
X120572347Y-88275370D01*
X120571611Y-88355936D01*
X120571142Y-88446330D01*
X120570978Y-88544147D01*
X119754561Y-88544147D01*
X119754573Y-88543050D01*
X119736005Y-88436036D01*
X119696384Y-88329768D01*
X119638516Y-88232781D01*
X119563684Y-88147707D01*
X119475615Y-88078985D01*
X119376616Y-88028082D01*
X119268993Y-87996465D01*
X119155054Y-87985600D01*
X119058267Y-87985600D01*
X119058267Y-86365247D01*
X119058280Y-86154103D01*
X119058313Y-86019686D01*
X119667867Y-86019686D01*
X119730966Y-85981689D01*
X119756005Y-85967007D01*
X119783586Y-85952469D01*
X119811700Y-85940373D01*
X119842551Y-85930468D01*
X119878344Y-85922506D01*
X119921283Y-85916239D01*
X119973574Y-85911418D01*
X120037419Y-85907794D01*
X120115025Y-85905119D01*
X120208594Y-85903143D01*
X120320333Y-85901618D01*
X120452445Y-85900296D01*
X120572434Y-85899387D01*
X120689063Y-85898980D01*
X120784531Y-85899233D01*
X120858556Y-85900143D01*
X120910855Y-85901707D01*
X120941149Y-85903921D01*
X120949156Y-85906780D01*
X120945858Y-85909839D01*
X120924408Y-85927994D01*
X120887889Y-85957725D01*
X120838442Y-85997361D01*
X120778207Y-86045229D01*
X120709327Y-86099657D01*
X120633943Y-86158973D01*
X120554196Y-86221505D01*
X120472228Y-86285579D01*
X120390180Y-86349525D01*
X120310194Y-86411669D01*
X120234411Y-86470339D01*
X120164973Y-86523863D01*
X120104021Y-86570570D01*
X120053696Y-86608786D01*
X120016140Y-86636839D01*
X119993495Y-86653057D01*
X119921212Y-86698365D01*
X119841463Y-86738339D01*
X119773188Y-86759870D01*
X119715844Y-86763173D01*
X119667867Y-86757884D01*
X119668117Y-87889644D01*
X119698722Y-87850133D01*
X119706089Y-87840752D01*
X119760438Y-87777817D01*
X119828259Y-87709003D01*
X119911516Y-87632404D01*
X120012178Y-87546112D01*
X120032847Y-87528948D01*
X120082409Y-87488167D01*
X120143326Y-87438412D01*
X120213898Y-87381045D01*
X120292424Y-87317431D01*
X120377204Y-87248931D01*
X120466537Y-87176910D01*
X120558722Y-87102730D01*
X120577702Y-87087483D01*
X120652060Y-87027754D01*
X120744848Y-86953347D01*
X120835388Y-86880869D01*
X120921978Y-86811686D01*
X121002918Y-86747159D01*
X121076506Y-86688653D01*
X121141044Y-86637530D01*
X121194829Y-86595153D01*
X121236162Y-86562885D01*
X121263342Y-86542090D01*
X121274668Y-86534131D01*
X121278771Y-86535889D01*
X121299334Y-86548770D01*
X121335561Y-86573115D01*
X121385824Y-86607753D01*
X121448492Y-86651514D01*
X121521936Y-86703225D01*
X121604527Y-86761716D01*
X121694636Y-86825816D01*
X121790631Y-86894354D01*
X121890885Y-86966157D01*
X121993768Y-87040056D01*
X122097650Y-87114879D01*
X122200901Y-87189455D01*
X122301892Y-87262613D01*
X122398994Y-87333181D01*
X122490577Y-87399989D01*
X122575011Y-87461865D01*
X122650667Y-87517639D01*
X122715916Y-87566138D01*
X122769128Y-87606193D01*
X122808673Y-87636631D01*
X122834026Y-87657056D01*
X122888295Y-87703101D01*
X122944775Y-87753388D01*
X122994669Y-87800185D01*
X123088400Y-87891349D01*
X123088400Y-86736910D01*
X123012200Y-86737544D01*
X122970160Y-86736426D01*
X122934334Y-86730696D01*
X122896772Y-86718110D01*
X122848577Y-86696432D01*
X122841897Y-86693211D01*
X122792359Y-86667812D01*
X122744369Y-86641004D01*
X122707466Y-86618083D01*
X122700834Y-86613515D01*
X122669593Y-86591484D01*
X122624654Y-86559307D01*
X122568147Y-86518543D01*
X122502204Y-86470755D01*
X122428957Y-86417502D01*
X122350536Y-86360345D01*
X122269072Y-86300845D01*
X122186698Y-86240563D01*
X122105544Y-86181060D01*
X122027742Y-86123895D01*
X121955423Y-86070630D01*
X121890718Y-86022826D01*
X121835759Y-85982043D01*
X121792676Y-85949842D01*
X121763602Y-85927784D01*
X121750667Y-85917429D01*
X121746351Y-85912956D01*
X121744312Y-85908764D01*
X121746926Y-85905357D01*
X121755986Y-85902675D01*
X121773285Y-85900659D01*
X121800614Y-85899252D01*
X121839765Y-85898395D01*
X121892533Y-85898030D01*
X121960707Y-85898097D01*
X122046082Y-85898540D01*
X122150449Y-85899298D01*
X122275600Y-85900315D01*
X122320300Y-85900692D01*
X122441395Y-85901831D01*
X122542688Y-85903028D01*
X122626262Y-85904364D01*
X122694204Y-85905923D01*
X122748599Y-85907785D01*
X122791532Y-85910034D01*
X122825089Y-85912752D01*
X122851355Y-85916021D01*
X122872416Y-85919922D01*
X122890357Y-85924539D01*
X122916770Y-85932808D01*
X122978772Y-85956417D01*
X123031573Y-85982315D01*
X123068645Y-86007465D01*
X123070075Y-86008661D01*
X123074424Y-86010832D01*
X123078026Y-86008672D01*
X123080951Y-86000356D01*
X123083269Y-85984060D01*
X123085051Y-85957959D01*
X123086367Y-85920229D01*
X123087286Y-85869044D01*
X123087878Y-85802580D01*
X123088215Y-85719013D01*
X123088365Y-85616517D01*
X123088400Y-85493268D01*
X123088400Y-84961704D01*
X123030783Y-85000477D01*
X123021893Y-85006568D01*
X123007069Y-85017024D01*
X122993422Y-85026421D01*
X122979765Y-85034817D01*
X122964911Y-85042267D01*
X122947670Y-85048827D01*
X122926855Y-85054554D01*
X122901280Y-85059505D01*
X122869755Y-85063734D01*
X122831093Y-85067299D01*
X122784107Y-85070256D01*
X122727608Y-85072660D01*
X122660409Y-85074569D01*
X122581322Y-85076038D01*
X122489160Y-85077124D01*
X122382734Y-85077882D01*
X122260857Y-85078370D01*
X122122341Y-85078642D01*
X121965999Y-85078757D01*
X121790642Y-85078769D01*
X121595082Y-85078735D01*
X121378133Y-85078711D01*
X121255513Y-85078720D01*
X121050447Y-85078757D01*
X120866116Y-85078773D01*
X120701334Y-85078712D01*
X120554916Y-85078516D01*
X120425674Y-85078130D01*
X120312422Y-85077495D01*
X120213975Y-85076556D01*
X120129144Y-85075255D01*
X120056744Y-85073536D01*
X119995589Y-85071341D01*
X119944492Y-85068615D01*
X119902267Y-85065299D01*
X119867727Y-85061338D01*
X119839686Y-85056675D01*
X119816958Y-85051253D01*
X119798356Y-85045014D01*
X119782693Y-85037903D01*
X119768784Y-85029862D01*
X119755441Y-85020834D01*
X119741479Y-85010764D01*
X119725711Y-84999593D01*
X119667867Y-84959803D01*
X119667867Y-86019686D01*
X119058313Y-86019686D01*
X119058330Y-85949980D01*
X119058430Y-85766314D01*
X119058592Y-85602009D01*
X119058829Y-85455971D01*
X119059153Y-85327106D01*
X119059575Y-85214317D01*
X119060109Y-85116512D01*
X119060767Y-85032596D01*
X119061561Y-84961473D01*
X119062504Y-84902050D01*
X119063608Y-84853232D01*
X119064884Y-84813923D01*
X119066347Y-84783031D01*
X119068007Y-84759459D01*
X119069878Y-84742114D01*
X119071972Y-84729901D01*
X119074300Y-84721725D01*
X119076876Y-84716492D01*
X119080445Y-84710496D01*
X119083978Y-84703721D01*
X119087488Y-84697522D01*
X119091918Y-84691874D01*
X119098208Y-84686753D01*
X119107301Y-84682131D01*
X119120139Y-84677985D01*
X119137662Y-84674287D01*
X119160813Y-84671013D01*
X119190534Y-84668137D01*
X119227765Y-84665633D01*
X119273449Y-84663476D01*
X119328527Y-84661640D01*
X119393941Y-84660100D01*
X119470633Y-84658830D01*
X119559544Y-84657805D01*
X119661617Y-84656999D01*
X119667867Y-84656966D01*
X119777792Y-84656386D01*
X119909011Y-84655941D01*
X120056216Y-84655638D01*
X120220349Y-84655452D01*
X120402352Y-84655358D01*
X120603165Y-84655329D01*
X120823732Y-84655339D01*
X121064992Y-84655364D01*
X121327889Y-84655378D01*
X121370040Y-84655378D01*
X121630668Y-84655354D01*
X121869796Y-84655315D01*
X122088360Y-84655292D01*
X122287295Y-84655313D01*
G36*
X122287295Y-84655313D02*
G01*
X122467535Y-84655407D01*
X122630015Y-84655605D01*
X122775670Y-84655937D01*
X122905434Y-84656431D01*
X123020243Y-84657117D01*
X123121030Y-84658024D01*
X123208730Y-84659183D01*
X123284279Y-84660622D01*
X123348611Y-84662371D01*
X123402661Y-84664460D01*
X123447363Y-84666917D01*
X123483652Y-84669773D01*
X123512463Y-84673057D01*
X123534731Y-84676798D01*
X123551390Y-84681026D01*
X123563375Y-84685771D01*
X123571621Y-84691061D01*
X123577062Y-84696927D01*
X123580634Y-84703398D01*
X123583270Y-84710503D01*
X123585906Y-84718272D01*
X123589477Y-84726734D01*
X123591145Y-84731092D01*
X123593111Y-84739605D01*
X123594911Y-84752306D01*
X123596555Y-84770115D01*
X123598047Y-84793951D01*
X123599397Y-84824734D01*
X123600611Y-84863383D01*
X123601697Y-84910818D01*
X123602661Y-84967957D01*
X123603511Y-85035721D01*
X123604253Y-85115029D01*
X123604897Y-85206801D01*
X123605447Y-85311956D01*
X123605913Y-85431413D01*
X123606300Y-85566092D01*
X123606616Y-85716912D01*
X123606869Y-85884794D01*
X123607066Y-86070655D01*
X123607213Y-86275417D01*
X123607318Y-86499998D01*
X123607389Y-86745318D01*
X123607432Y-87012296D01*
X123607437Y-87050679D01*
X123607480Y-87316078D01*
X123607525Y-87559950D01*
X123607548Y-87783217D01*
X123607524Y-87986804D01*
X123607430Y-88171633D01*
X123607243Y-88338627D01*
X123606939Y-88488710D01*
X123606494Y-88622804D01*
X123605885Y-88741834D01*
X123605089Y-88846721D01*
X123604080Y-88938390D01*
X123602837Y-89017763D01*
X123601335Y-89085763D01*
X123599551Y-89143314D01*
X123597461Y-89191338D01*
X123595042Y-89230760D01*
X123592270Y-89262501D01*
X123589121Y-89287486D01*
X123585572Y-89306636D01*
X123581598Y-89320877D01*
X123577178Y-89331129D01*
X123572286Y-89338318D01*
X123566900Y-89343365D01*
X123560996Y-89347195D01*
X123554549Y-89350729D01*
X123547537Y-89354892D01*
X123545687Y-89355975D01*
X123540180Y-89358187D01*
X123531868Y-89360214D01*
X123519809Y-89362062D01*
X123503063Y-89363739D01*
X123480687Y-89365255D01*
X123451740Y-89366617D01*
X123415280Y-89367833D01*
X123370367Y-89368911D01*
X123316057Y-89369860D01*
X123251410Y-89370688D01*
X123175484Y-89371403D01*
X123087338Y-89372013D01*
X122986029Y-89372526D01*
X122870617Y-89372950D01*
X122740160Y-89373294D01*
X122593716Y-89373566D01*
X122430344Y-89373773D01*
X122249101Y-89373924D01*
X122049048Y-89374028D01*
X121829241Y-89374092D01*
X121588739Y-89374124D01*
X121326602Y-89374133D01*
X119135031Y-89374133D01*
X119096649Y-89335751D01*
X119072911Y-89308645D01*
X119061111Y-89281747D01*
X119058267Y-89245440D01*
X119058267Y-89193511D01*
X119146206Y-89193511D01*
X119196102Y-89191573D01*
X119306523Y-89172801D01*
X119407987Y-89135783D01*
X119499152Y-89082631D01*
X119578673Y-89015454D01*
X119645205Y-88936362D01*
X119697406Y-88847466D01*
X119733930Y-88750875D01*
X119753434Y-88648700D01*
X119754561Y-88544147D01*
X120570978Y-88544147D01*
X120570978Y-88989805D01*
X121747845Y-88992880D01*
X122924711Y-88995955D01*
X122983622Y-89022593D01*
X123008183Y-89034515D01*
X123038434Y-89051754D01*
X123055560Y-89064926D01*
X123063591Y-89072924D01*
X123078493Y-89080622D01*
X123079765Y-89076740D01*
X123081791Y-89053480D01*
X123083626Y-89011126D01*
X123085227Y-88951868D01*
X123086549Y-88877893D01*
X123087548Y-88791390D01*
X123088180Y-88694548D01*
X123088400Y-88589555D01*
X123088349Y-88520644D01*
X123088091Y-88422393D01*
X123087637Y-88332970D01*
X123087010Y-88254667D01*
X123086235Y-88189777D01*
X123085335Y-88140589D01*
X123084334Y-88109396D01*
X123083257Y-88098489D01*
X123080037Y-88099678D01*
X123062452Y-88109824D01*
X123036158Y-88126960D01*
X123023691Y-88135460D01*
X123009622Y-88144671D01*
X122995351Y-88152767D01*
X122979479Y-88159815D01*
X122960609Y-88165883D01*
X122937341Y-88171039D01*
X122908278Y-88175349D01*
X122872021Y-88178881D01*
X122827170Y-88181703D01*
X122772328Y-88183882D01*
X122706097Y-88185486D01*
X122627077Y-88186581D01*
X122533871Y-88187235D01*
X122425079Y-88187516D01*
X122299303Y-88187491D01*
X122155145Y-88187228D01*
X121991207Y-88186794D01*
X121806089Y-88186255D01*
X121627232Y-88185721D01*
X121468374Y-88185195D01*
X121329316Y-88184650D01*
X121208665Y-88184055D01*
X121105028Y-88183381D01*
X121017011Y-88182597D01*
X120943223Y-88181674D01*
X120882269Y-88180581D01*
X120832757Y-88179288D01*
X120793293Y-88177765D01*
X120762484Y-88175981D01*
X120738938Y-88173908D01*
X120721260Y-88171514D01*
X120708059Y-88168770D01*
X120697940Y-88165644D01*
X120689511Y-88162108D01*
X120681375Y-88158209D01*
X120644544Y-88138562D01*
X120614391Y-88119775D01*
X120612908Y-88118728D01*
X120590659Y-88104398D01*
X120577702Y-88098489D01*
X120577249Y-88099496D01*
X120575803Y-88116695D01*
X120574480Y-88153344D01*
X120573316Y-88207038D01*
X120572347Y-88275370D01*
X120571611Y-88355936D01*
X120571142Y-88446330D01*
X120570978Y-88544147D01*
X119754561Y-88544147D01*
X119754573Y-88543050D01*
X119736005Y-88436036D01*
X119696384Y-88329768D01*
X119638516Y-88232781D01*
X119563684Y-88147707D01*
X119475615Y-88078985D01*
X119376616Y-88028082D01*
X119268993Y-87996465D01*
X119155054Y-87985600D01*
X119058267Y-87985600D01*
X119058267Y-86365247D01*
X119058280Y-86154103D01*
X119058313Y-86019686D01*
X119667867Y-86019686D01*
X119730966Y-85981689D01*
X119756005Y-85967007D01*
X119783586Y-85952469D01*
X119811700Y-85940373D01*
X119842551Y-85930468D01*
X119878344Y-85922506D01*
X119921283Y-85916239D01*
X119973574Y-85911418D01*
X120037419Y-85907794D01*
X120115025Y-85905119D01*
X120208594Y-85903143D01*
X120320333Y-85901618D01*
X120452445Y-85900296D01*
X120572434Y-85899387D01*
X120689063Y-85898980D01*
X120784531Y-85899233D01*
X120858556Y-85900143D01*
X120910855Y-85901707D01*
X120941149Y-85903921D01*
X120949156Y-85906780D01*
X120945858Y-85909839D01*
X120924408Y-85927994D01*
X120887889Y-85957725D01*
X120838442Y-85997361D01*
X120778207Y-86045229D01*
X120709327Y-86099657D01*
X120633943Y-86158973D01*
X120554196Y-86221505D01*
X120472228Y-86285579D01*
X120390180Y-86349525D01*
X120310194Y-86411669D01*
X120234411Y-86470339D01*
X120164973Y-86523863D01*
X120104021Y-86570570D01*
X120053696Y-86608786D01*
X120016140Y-86636839D01*
X119993495Y-86653057D01*
X119921212Y-86698365D01*
X119841463Y-86738339D01*
X119773188Y-86759870D01*
X119715844Y-86763173D01*
X119667867Y-86757884D01*
X119668117Y-87889644D01*
X119698722Y-87850133D01*
X119706089Y-87840752D01*
X119760438Y-87777817D01*
X119828259Y-87709003D01*
X119911516Y-87632404D01*
X120012178Y-87546112D01*
X120032847Y-87528948D01*
X120082409Y-87488167D01*
X120143326Y-87438412D01*
X120213898Y-87381045D01*
X120292424Y-87317431D01*
X120377204Y-87248931D01*
X120466537Y-87176910D01*
X120558722Y-87102730D01*
X120577702Y-87087483D01*
X120652060Y-87027754D01*
X120744848Y-86953347D01*
X120835388Y-86880869D01*
X120921978Y-86811686D01*
X121002918Y-86747159D01*
X121076506Y-86688653D01*
X121141044Y-86637530D01*
X121194829Y-86595153D01*
X121236162Y-86562885D01*
X121263342Y-86542090D01*
X121274668Y-86534131D01*
X121278771Y-86535889D01*
X121299334Y-86548770D01*
X121335561Y-86573115D01*
X121385824Y-86607753D01*
X121448492Y-86651514D01*
X121521936Y-86703225D01*
X121604527Y-86761716D01*
X121694636Y-86825816D01*
X121790631Y-86894354D01*
X121890885Y-86966157D01*
X121993768Y-87040056D01*
X122097650Y-87114879D01*
X122200901Y-87189455D01*
X122301892Y-87262613D01*
X122398994Y-87333181D01*
X122490577Y-87399989D01*
X122575011Y-87461865D01*
X122650667Y-87517639D01*
X122715916Y-87566138D01*
X122769128Y-87606193D01*
X122808673Y-87636631D01*
X122834026Y-87657056D01*
X122888295Y-87703101D01*
X122944775Y-87753388D01*
X122994669Y-87800185D01*
X123088400Y-87891349D01*
X123088400Y-86736910D01*
X123012200Y-86737544D01*
X122970160Y-86736426D01*
X122934334Y-86730696D01*
X122896772Y-86718110D01*
X122848577Y-86696432D01*
X122841897Y-86693211D01*
X122792359Y-86667812D01*
X122744369Y-86641004D01*
X122707466Y-86618083D01*
X122700834Y-86613515D01*
X122669593Y-86591484D01*
X122624654Y-86559307D01*
X122568147Y-86518543D01*
X122502204Y-86470755D01*
X122428957Y-86417502D01*
X122350536Y-86360345D01*
X122269072Y-86300845D01*
X122186698Y-86240563D01*
X122105544Y-86181060D01*
X122027742Y-86123895D01*
X121955423Y-86070630D01*
X121890718Y-86022826D01*
X121835759Y-85982043D01*
X121792676Y-85949842D01*
X121763602Y-85927784D01*
X121750667Y-85917429D01*
X121746351Y-85912956D01*
X121744312Y-85908764D01*
X121746926Y-85905357D01*
X121755986Y-85902675D01*
X121773285Y-85900659D01*
X121800614Y-85899252D01*
X121839765Y-85898395D01*
X121892533Y-85898030D01*
X121960707Y-85898097D01*
X122046082Y-85898540D01*
X122150449Y-85899298D01*
X122275600Y-85900315D01*
X122320300Y-85900692D01*
X122441395Y-85901831D01*
X122542688Y-85903028D01*
X122626262Y-85904364D01*
X122694204Y-85905923D01*
X122748599Y-85907785D01*
X122791532Y-85910034D01*
X122825089Y-85912752D01*
X122851355Y-85916021D01*
X122872416Y-85919922D01*
X122890357Y-85924539D01*
X122916770Y-85932808D01*
X122978772Y-85956417D01*
X123031573Y-85982315D01*
X123068645Y-86007465D01*
X123070075Y-86008661D01*
X123074424Y-86010832D01*
X123078026Y-86008672D01*
X123080951Y-86000356D01*
X123083269Y-85984060D01*
X123085051Y-85957959D01*
X123086367Y-85920229D01*
X123087286Y-85869044D01*
X123087878Y-85802580D01*
X123088215Y-85719013D01*
X123088365Y-85616517D01*
X123088400Y-85493268D01*
X123088400Y-84961704D01*
X123030783Y-85000477D01*
X123021893Y-85006568D01*
X123007069Y-85017024D01*
X122993422Y-85026421D01*
X122979765Y-85034817D01*
X122964911Y-85042267D01*
X122947670Y-85048827D01*
X122926855Y-85054554D01*
X122901280Y-85059505D01*
X122869755Y-85063734D01*
X122831093Y-85067299D01*
X122784107Y-85070256D01*
X122727608Y-85072660D01*
X122660409Y-85074569D01*
X122581322Y-85076038D01*
X122489160Y-85077124D01*
X122382734Y-85077882D01*
X122260857Y-85078370D01*
X122122341Y-85078642D01*
X121965999Y-85078757D01*
X121790642Y-85078769D01*
X121595082Y-85078735D01*
X121378133Y-85078711D01*
X121255513Y-85078720D01*
X121050447Y-85078757D01*
X120866116Y-85078773D01*
X120701334Y-85078712D01*
X120554916Y-85078516D01*
X120425674Y-85078130D01*
X120312422Y-85077495D01*
X120213975Y-85076556D01*
X120129144Y-85075255D01*
X120056744Y-85073536D01*
X119995589Y-85071341D01*
X119944492Y-85068615D01*
X119902267Y-85065299D01*
X119867727Y-85061338D01*
X119839686Y-85056675D01*
X119816958Y-85051253D01*
X119798356Y-85045014D01*
X119782693Y-85037903D01*
X119768784Y-85029862D01*
X119755441Y-85020834D01*
X119741479Y-85010764D01*
X119725711Y-84999593D01*
X119667867Y-84959803D01*
X119667867Y-86019686D01*
X119058313Y-86019686D01*
X119058330Y-85949980D01*
X119058430Y-85766314D01*
X119058592Y-85602009D01*
X119058829Y-85455971D01*
X119059153Y-85327106D01*
X119059575Y-85214317D01*
X119060109Y-85116512D01*
X119060767Y-85032596D01*
X119061561Y-84961473D01*
X119062504Y-84902050D01*
X119063608Y-84853232D01*
X119064884Y-84813923D01*
X119066347Y-84783031D01*
X119068007Y-84759459D01*
X119069878Y-84742114D01*
X119071972Y-84729901D01*
X119074300Y-84721725D01*
X119076876Y-84716492D01*
X119080445Y-84710496D01*
X119083978Y-84703721D01*
X119087488Y-84697522D01*
X119091918Y-84691874D01*
X119098208Y-84686753D01*
X119107301Y-84682131D01*
X119120139Y-84677985D01*
X119137662Y-84674287D01*
X119160813Y-84671013D01*
X119190534Y-84668137D01*
X119227765Y-84665633D01*
X119273449Y-84663476D01*
X119328527Y-84661640D01*
X119393941Y-84660100D01*
X119470633Y-84658830D01*
X119559544Y-84657805D01*
X119661617Y-84656999D01*
X119667867Y-84656966D01*
X119777792Y-84656386D01*
X119909011Y-84655941D01*
X120056216Y-84655638D01*
X120220349Y-84655452D01*
X120402352Y-84655358D01*
X120603165Y-84655329D01*
X120823732Y-84655339D01*
X121064992Y-84655364D01*
X121327889Y-84655378D01*
X121370040Y-84655378D01*
X121630668Y-84655354D01*
X121869796Y-84655315D01*
X122088360Y-84655292D01*
X122287295Y-84655313D01*
G37*
%TD*%
M02*
