%TF.GenerationSoftware,KiCad,Pcbnew,9.0.2*%
%TF.CreationDate,2025-06-13T20:10:21+08:00*%
%TF.ProjectId,Breadboard Power Supply,42726561-6462-46f6-9172-6420506f7765,1*%
%TF.SameCoordinates,Original*%
%TF.FileFunction,Soldermask,Top*%
%TF.FilePolarity,Negative*%
%FSLAX46Y46*%
G04 Gerber Fmt 4.6, Leading zero omitted, Abs format (unit mm)*
G04 Created by KiCad (PCBNEW 9.0.2) date 2025-06-13 20:10:21*
%MOMM*%
%LPD*%
G01*
G04 APERTURE LIST*
G04 APERTURE END LIST*
G36*
X150741742Y-111576601D02*
G01*
X150895687Y-111640367D01*
X151034234Y-111732941D01*
X151152059Y-111850766D01*
X151244633Y-111989313D01*
X151308399Y-112143258D01*
X151340907Y-112306685D01*
X151340907Y-112473315D01*
X151308399Y-112636742D01*
X151244633Y-112790687D01*
X151152059Y-112929234D01*
X151034234Y-113047059D01*
X150895687Y-113139633D01*
X150741742Y-113203399D01*
X150578315Y-113235907D01*
X150411685Y-113235907D01*
X150248258Y-113203399D01*
X150094313Y-113139633D01*
X149955766Y-113047059D01*
X149837941Y-112929234D01*
X149745367Y-112790687D01*
X149681601Y-112636742D01*
X149649093Y-112473315D01*
X149649093Y-112306685D01*
X149681601Y-112143258D01*
X149745367Y-111989313D01*
X149837941Y-111850766D01*
X149955766Y-111732941D01*
X150094313Y-111640367D01*
X150248258Y-111576601D01*
X150411685Y-111544093D01*
X150578315Y-111544093D01*
X150741742Y-111576601D01*
G37*
G36*
X128485000Y-111975000D02*
G01*
X126785000Y-111975000D01*
X126785000Y-110275000D01*
X128485000Y-110275000D01*
X128485000Y-111975000D01*
G37*
G36*
X130421742Y-110311601D02*
G01*
X130575687Y-110375367D01*
X130714234Y-110467941D01*
X130832059Y-110585766D01*
X130924633Y-110724313D01*
X130988399Y-110878258D01*
X131020907Y-111041685D01*
X131020907Y-111208315D01*
X130988399Y-111371742D01*
X130924633Y-111525687D01*
X130832059Y-111664234D01*
X130714234Y-111782059D01*
X130575687Y-111874633D01*
X130421742Y-111938399D01*
X130258315Y-111970907D01*
X130091685Y-111970907D01*
X129928258Y-111938399D01*
X129774313Y-111874633D01*
X129635766Y-111782059D01*
X129517941Y-111664234D01*
X129425367Y-111525687D01*
X129361601Y-111371742D01*
X129329093Y-111208315D01*
X129329093Y-111041685D01*
X129361601Y-110878258D01*
X129425367Y-110724313D01*
X129517941Y-110585766D01*
X129635766Y-110467941D01*
X129774313Y-110375367D01*
X129928258Y-110311601D01*
X130091685Y-110279093D01*
X130258315Y-110279093D01*
X130421742Y-110311601D01*
G37*
G36*
X132961742Y-110311601D02*
G01*
X133115687Y-110375367D01*
X133254234Y-110467941D01*
X133372059Y-110585766D01*
X133464633Y-110724313D01*
X133528399Y-110878258D01*
X133560907Y-111041685D01*
X133560907Y-111208315D01*
X133528399Y-111371742D01*
X133464633Y-111525687D01*
X133372059Y-111664234D01*
X133254234Y-111782059D01*
X133115687Y-111874633D01*
X132961742Y-111938399D01*
X132798315Y-111970907D01*
X132631685Y-111970907D01*
X132468258Y-111938399D01*
X132314313Y-111874633D01*
X132175766Y-111782059D01*
X132057941Y-111664234D01*
X131965367Y-111525687D01*
X131901601Y-111371742D01*
X131869093Y-111208315D01*
X131869093Y-111041685D01*
X131901601Y-110878258D01*
X131965367Y-110724313D01*
X132057941Y-110585766D01*
X132175766Y-110467941D01*
X132314313Y-110375367D01*
X132468258Y-110311601D01*
X132631685Y-110279093D01*
X132798315Y-110279093D01*
X132961742Y-110311601D01*
G37*
G36*
X151345000Y-110700000D02*
G01*
X149645000Y-110700000D01*
X149645000Y-109000000D01*
X151345000Y-109000000D01*
X151345000Y-110700000D01*
G37*
G36*
X140119850Y-107920964D02*
G01*
X140170040Y-107926787D01*
X140187189Y-107934359D01*
X140210671Y-107939030D01*
X140235810Y-107955827D01*
X140255696Y-107964608D01*
X140269277Y-107978189D01*
X140291777Y-107993223D01*
X140306810Y-108015722D01*
X140320391Y-108029303D01*
X140329170Y-108049186D01*
X140345970Y-108074329D01*
X140350641Y-108097812D01*
X140358212Y-108114959D01*
X140364033Y-108165139D01*
X140365000Y-108170000D01*
X140365000Y-110270000D01*
X140364032Y-110274863D01*
X140358212Y-110325040D01*
X140350641Y-110342185D01*
X140345970Y-110365671D01*
X140329169Y-110390815D01*
X140320391Y-110410696D01*
X140306812Y-110424274D01*
X140291777Y-110446777D01*
X140269274Y-110461812D01*
X140255696Y-110475391D01*
X140235815Y-110484169D01*
X140210671Y-110500970D01*
X140187185Y-110505641D01*
X140170040Y-110513212D01*
X140119861Y-110519032D01*
X140115000Y-110520000D01*
X138015000Y-110520000D01*
X138010138Y-110519032D01*
X137959959Y-110513212D01*
X137942812Y-110505641D01*
X137919329Y-110500970D01*
X137894186Y-110484170D01*
X137874303Y-110475391D01*
X137860722Y-110461810D01*
X137838223Y-110446777D01*
X137823189Y-110424277D01*
X137809608Y-110410696D01*
X137800827Y-110390810D01*
X137784030Y-110365671D01*
X137779359Y-110342189D01*
X137771787Y-110325040D01*
X137765964Y-110274849D01*
X137765000Y-110270000D01*
X137765000Y-108170000D01*
X137765964Y-108165150D01*
X137771787Y-108114959D01*
X137779359Y-108097808D01*
X137784030Y-108074329D01*
X137800826Y-108049191D01*
X137809608Y-108029303D01*
X137823191Y-108015719D01*
X137838223Y-107993223D01*
X137860719Y-107978191D01*
X137874303Y-107964608D01*
X137894191Y-107955826D01*
X137919329Y-107939030D01*
X137942808Y-107934359D01*
X137959959Y-107926787D01*
X138010151Y-107920964D01*
X138015000Y-107920000D01*
X140115000Y-107920000D01*
X140119850Y-107920964D01*
G37*
G36*
X144448479Y-107955919D02*
G01*
X144642488Y-108018957D01*
X144824248Y-108111568D01*
X144989282Y-108231472D01*
X145133528Y-108375718D01*
X145253432Y-108540752D01*
X145346043Y-108722512D01*
X145409081Y-108916521D01*
X145440993Y-109118003D01*
X145440993Y-109321997D01*
X145409081Y-109523479D01*
X145346043Y-109717488D01*
X145253432Y-109899248D01*
X145133528Y-110064282D01*
X144989282Y-110208528D01*
X144824248Y-110328432D01*
X144642488Y-110421043D01*
X144448479Y-110484081D01*
X144246997Y-110515993D01*
X144043003Y-110515993D01*
X143841521Y-110484081D01*
X143647512Y-110421043D01*
X143465752Y-110328432D01*
X143300718Y-110208528D01*
X143156472Y-110064282D01*
X143036568Y-109899248D01*
X142943957Y-109717488D01*
X142880919Y-109523479D01*
X142849007Y-109321997D01*
X142849007Y-109118003D01*
X142880919Y-108916521D01*
X142943957Y-108722512D01*
X143036568Y-108540752D01*
X143156472Y-108375718D01*
X143300718Y-108231472D01*
X143465752Y-108111568D01*
X143647512Y-108018957D01*
X143841521Y-107955919D01*
X144043003Y-107924007D01*
X144246997Y-107924007D01*
X144448479Y-107955919D01*
G37*
G36*
X127867228Y-106549448D02*
G01*
X128012117Y-106609463D01*
X128142515Y-106696592D01*
X128253408Y-106807485D01*
X128340537Y-106937883D01*
X128400552Y-107082772D01*
X128431148Y-107236586D01*
X128431148Y-107393414D01*
X128400552Y-107547228D01*
X128340537Y-107692117D01*
X128253408Y-107822515D01*
X128142515Y-107933408D01*
X128012117Y-108020537D01*
X127867228Y-108080552D01*
X127713414Y-108111148D01*
X127556586Y-108111148D01*
X127402772Y-108080552D01*
X127257883Y-108020537D01*
X127127485Y-107933408D01*
X127016592Y-107822515D01*
X126929463Y-107692117D01*
X126869448Y-107547228D01*
X126838852Y-107393414D01*
X126838852Y-107236586D01*
X126869448Y-107082772D01*
X126929463Y-106937883D01*
X127016592Y-106807485D01*
X127127485Y-106696592D01*
X127257883Y-106609463D01*
X127402772Y-106549448D01*
X127556586Y-106518852D01*
X127713414Y-106518852D01*
X127867228Y-106549448D01*
G37*
G36*
X130367228Y-106549448D02*
G01*
X130512117Y-106609463D01*
X130642515Y-106696592D01*
X130753408Y-106807485D01*
X130840537Y-106937883D01*
X130900552Y-107082772D01*
X130931148Y-107236586D01*
X130931148Y-107393414D01*
X130900552Y-107547228D01*
X130840537Y-107692117D01*
X130753408Y-107822515D01*
X130642515Y-107933408D01*
X130512117Y-108020537D01*
X130367228Y-108080552D01*
X130213414Y-108111148D01*
X130056586Y-108111148D01*
X129902772Y-108080552D01*
X129757883Y-108020537D01*
X129627485Y-107933408D01*
X129516592Y-107822515D01*
X129429463Y-107692117D01*
X129369448Y-107547228D01*
X129338852Y-107393414D01*
X129338852Y-107236586D01*
X129369448Y-107082772D01*
X129429463Y-106937883D01*
X129516592Y-106807485D01*
X129627485Y-106696592D01*
X129757883Y-106609463D01*
X129902772Y-106549448D01*
X130056586Y-106518852D01*
X130213414Y-106518852D01*
X130367228Y-106549448D01*
G37*
G36*
X129222500Y-101330000D02*
G01*
X127317500Y-101330000D01*
X127317500Y-99330000D01*
X129222500Y-99330000D01*
X129222500Y-101330000D01*
G37*
G36*
X123466496Y-99371014D02*
G01*
X123639005Y-99442470D01*
X123794260Y-99546208D01*
X123926292Y-99678240D01*
X124030030Y-99833495D01*
X124101486Y-100006004D01*
X124137913Y-100189139D01*
X124142500Y-100282500D01*
X124142500Y-100377500D01*
X124137913Y-100470861D01*
X124101486Y-100653996D01*
X124030030Y-100826505D01*
X123926292Y-100981760D01*
X123794260Y-101113792D01*
X123639005Y-101217530D01*
X123466496Y-101288986D01*
X123283361Y-101325413D01*
X123096639Y-101325413D01*
X122913504Y-101288986D01*
X122740995Y-101217530D01*
X122585740Y-101113792D01*
X122453708Y-100981760D01*
X122349970Y-100826505D01*
X122278514Y-100653996D01*
X122242087Y-100470861D01*
X122237500Y-100377500D01*
X122237500Y-100282500D01*
X122242087Y-100189139D01*
X122278514Y-100006004D01*
X122349970Y-99833495D01*
X122453708Y-99678240D01*
X122585740Y-99546208D01*
X122740995Y-99442470D01*
X122913504Y-99371014D01*
X123096639Y-99334587D01*
X123283361Y-99334587D01*
X123466496Y-99371014D01*
G37*
G36*
X126006496Y-99371014D02*
G01*
X126179005Y-99442470D01*
X126334260Y-99546208D01*
X126466292Y-99678240D01*
X126570030Y-99833495D01*
X126641486Y-100006004D01*
X126677913Y-100189139D01*
X126682500Y-100282500D01*
X126682500Y-100377500D01*
X126677913Y-100470861D01*
X126641486Y-100653996D01*
X126570030Y-100826505D01*
X126466292Y-100981760D01*
X126334260Y-101113792D01*
X126179005Y-101217530D01*
X126006496Y-101288986D01*
X125823361Y-101325413D01*
X125636639Y-101325413D01*
X125453504Y-101288986D01*
X125280995Y-101217530D01*
X125125740Y-101113792D01*
X124993708Y-100981760D01*
X124889970Y-100826505D01*
X124818514Y-100653996D01*
X124782087Y-100470861D01*
X124777500Y-100377500D01*
X124777500Y-100282500D01*
X124782087Y-100189139D01*
X124818514Y-100006004D01*
X124889970Y-99833495D01*
X124993708Y-99678240D01*
X125125740Y-99546208D01*
X125280995Y-99442470D01*
X125453504Y-99371014D01*
X125636639Y-99334587D01*
X125823361Y-99334587D01*
X126006496Y-99371014D01*
G37*
G36*
X138633199Y-99660142D02*
G01*
X138759978Y-99712655D01*
X138874075Y-99788893D01*
X138971107Y-99885925D01*
X139047345Y-100000022D01*
X139099858Y-100126801D01*
X139126629Y-100261388D01*
X139126629Y-100398612D01*
X139099858Y-100533199D01*
X139047345Y-100659978D01*
X138971107Y-100774075D01*
X138874075Y-100871107D01*
X138759978Y-100947345D01*
X138633199Y-100999858D01*
X138498612Y-101026629D01*
X138361388Y-101026629D01*
X138226801Y-100999858D01*
X138100022Y-100947345D01*
X137985925Y-100871107D01*
X137888893Y-100774075D01*
X137812655Y-100659978D01*
X137760142Y-100533199D01*
X137733371Y-100398612D01*
X137733371Y-100261388D01*
X137760142Y-100126801D01*
X137812655Y-100000022D01*
X137888893Y-99885925D01*
X137985925Y-99788893D01*
X138100022Y-99712655D01*
X138226801Y-99660142D01*
X138361388Y-99633371D01*
X138498612Y-99633371D01*
X138633199Y-99660142D01*
G37*
G36*
X146253199Y-99660142D02*
G01*
X146379978Y-99712655D01*
X146494075Y-99788893D01*
X146591107Y-99885925D01*
X146667345Y-100000022D01*
X146719858Y-100126801D01*
X146746629Y-100261388D01*
X146746629Y-100398612D01*
X146719858Y-100533199D01*
X146667345Y-100659978D01*
X146591107Y-100774075D01*
X146494075Y-100871107D01*
X146379978Y-100947345D01*
X146253199Y-100999858D01*
X146118612Y-101026629D01*
X145981388Y-101026629D01*
X145846801Y-100999858D01*
X145720022Y-100947345D01*
X145605925Y-100871107D01*
X145508893Y-100774075D01*
X145432655Y-100659978D01*
X145380142Y-100533199D01*
X145353371Y-100398612D01*
X145353371Y-100261388D01*
X145380142Y-100126801D01*
X145432655Y-100000022D01*
X145508893Y-99885925D01*
X145605925Y-99788893D01*
X145720022Y-99712655D01*
X145846801Y-99660142D01*
X145981388Y-99633371D01*
X146118612Y-99633371D01*
X146253199Y-99660142D01*
G37*
G36*
X138633199Y-95215142D02*
G01*
X138759978Y-95267655D01*
X138874075Y-95343893D01*
X138971107Y-95440925D01*
X139047345Y-95555022D01*
X139099858Y-95681801D01*
X139126629Y-95816388D01*
X139126629Y-95953612D01*
X139099858Y-96088199D01*
X139047345Y-96214978D01*
X138971107Y-96329075D01*
X138874075Y-96426107D01*
X138759978Y-96502345D01*
X138633199Y-96554858D01*
X138498612Y-96581629D01*
X138361388Y-96581629D01*
X138226801Y-96554858D01*
X138100022Y-96502345D01*
X137985925Y-96426107D01*
X137888893Y-96329075D01*
X137812655Y-96214978D01*
X137760142Y-96088199D01*
X137733371Y-95953612D01*
X137733371Y-95816388D01*
X137760142Y-95681801D01*
X137812655Y-95555022D01*
X137888893Y-95440925D01*
X137985925Y-95343893D01*
X138100022Y-95267655D01*
X138226801Y-95215142D01*
X138361388Y-95188371D01*
X138498612Y-95188371D01*
X138633199Y-95215142D01*
G37*
G36*
X146253199Y-95215142D02*
G01*
X146379978Y-95267655D01*
X146494075Y-95343893D01*
X146591107Y-95440925D01*
X146667345Y-95555022D01*
X146719858Y-95681801D01*
X146746629Y-95816388D01*
X146746629Y-95953612D01*
X146719858Y-96088199D01*
X146667345Y-96214978D01*
X146591107Y-96329075D01*
X146494075Y-96426107D01*
X146379978Y-96502345D01*
X146253199Y-96554858D01*
X146118612Y-96581629D01*
X145981388Y-96581629D01*
X145846801Y-96554858D01*
X145720022Y-96502345D01*
X145605925Y-96426107D01*
X145508893Y-96329075D01*
X145432655Y-96214978D01*
X145380142Y-96088199D01*
X145353371Y-95953612D01*
X145353371Y-95816388D01*
X145380142Y-95681801D01*
X145432655Y-95555022D01*
X145508893Y-95440925D01*
X145605925Y-95343893D01*
X145720022Y-95267655D01*
X145846801Y-95215142D01*
X145981388Y-95188371D01*
X146118612Y-95188371D01*
X146253199Y-95215142D01*
G37*
G36*
X130708125Y-90900510D02*
G01*
X130716782Y-90902662D01*
X130726059Y-90903393D01*
X130807944Y-90925333D01*
X130891741Y-90946173D01*
X130898818Y-90949683D01*
X130903457Y-90950926D01*
X130981395Y-90990637D01*
X131061247Y-91030241D01*
X131064929Y-91033200D01*
X131066376Y-91033938D01*
X131137826Y-91091797D01*
X131208718Y-91148782D01*
X131265727Y-91219705D01*
X131323561Y-91291123D01*
X131324297Y-91292569D01*
X131327259Y-91296253D01*
X131366880Y-91376141D01*
X131406573Y-91454042D01*
X131407815Y-91458678D01*
X131411327Y-91465759D01*
X131432175Y-91549593D01*
X131454106Y-91631440D01*
X131454835Y-91640712D01*
X131456990Y-91649375D01*
X131465000Y-91767500D01*
X131465000Y-93517500D01*
X131456990Y-93635625D01*
X131454835Y-93644288D01*
X131454106Y-93653559D01*
X131432178Y-93735392D01*
X131411327Y-93819241D01*
X131407814Y-93826322D01*
X131406573Y-93830957D01*
X131366898Y-93908821D01*
X131327259Y-93988747D01*
X131324296Y-93992432D01*
X131323561Y-93993876D01*
X131265837Y-94065158D01*
X131208718Y-94136218D01*
X131137658Y-94193337D01*
X131066376Y-94251061D01*
X131064932Y-94251796D01*
X131061247Y-94254759D01*
X130981321Y-94294398D01*
X130903457Y-94334073D01*
X130898822Y-94335314D01*
X130891741Y-94338827D01*
X130807892Y-94359678D01*
X130726059Y-94381606D01*
X130716788Y-94382335D01*
X130708125Y-94384490D01*
X130590000Y-94392500D01*
X128840000Y-94392500D01*
X128721875Y-94384490D01*
X128713212Y-94382335D01*
X128703940Y-94381606D01*
X128622093Y-94359675D01*
X128538259Y-94338827D01*
X128531178Y-94335315D01*
X128526542Y-94334073D01*
X128448641Y-94294380D01*
X128368753Y-94254759D01*
X128365069Y-94251797D01*
X128363623Y-94251061D01*
X128292205Y-94193227D01*
X128221282Y-94136218D01*
X128164297Y-94065326D01*
X128106438Y-93993876D01*
X128105700Y-93992429D01*
X128102741Y-93988747D01*
X128063137Y-93908895D01*
X128023426Y-93830957D01*
X128022183Y-93826318D01*
X128018673Y-93819241D01*
X127997833Y-93735444D01*
X127975893Y-93653559D01*
X127975162Y-93644282D01*
X127973010Y-93635625D01*
X127965000Y-93517500D01*
X127965000Y-91767500D01*
X127973010Y-91649375D01*
X127975162Y-91640718D01*
X127975893Y-91631440D01*
X127997837Y-91549541D01*
X128018673Y-91465759D01*
X128022182Y-91458682D01*
X128023426Y-91454042D01*
X128063156Y-91376067D01*
X128102741Y-91296253D01*
X128105699Y-91292572D01*
X128106438Y-91291123D01*
X128164406Y-91219537D01*
X128221282Y-91148782D01*
X128292037Y-91091906D01*
X128363623Y-91033938D01*
X128365072Y-91033199D01*
X128368753Y-91030241D01*
X128448567Y-90990656D01*
X128526542Y-90950926D01*
X128531182Y-90949682D01*
X128538259Y-90946173D01*
X128622041Y-90925337D01*
X128703940Y-90903393D01*
X128713218Y-90902662D01*
X128721875Y-90900510D01*
X128840000Y-90892500D01*
X130590000Y-90892500D01*
X130708125Y-90900510D01*
G37*
G36*
X127616663Y-86207995D02*
G01*
X127625683Y-86210984D01*
X127631807Y-86211674D01*
X127703961Y-86236922D01*
X127781964Y-86262769D01*
X127787388Y-86266114D01*
X127790247Y-86267115D01*
X127856422Y-86308695D01*
X127930177Y-86354188D01*
X128053312Y-86477323D01*
X128098823Y-86551109D01*
X128140384Y-86617252D01*
X128141383Y-86620109D01*
X128144731Y-86625536D01*
X128170592Y-86703583D01*
X128195825Y-86775693D01*
X128196514Y-86781811D01*
X128199505Y-86790837D01*
X128215000Y-86942500D01*
X128215000Y-88942500D01*
X128199505Y-89094163D01*
X128196514Y-89103188D01*
X128195825Y-89109307D01*
X128170595Y-89181407D01*
X128144731Y-89259464D01*
X128141383Y-89264891D01*
X128140384Y-89267747D01*
X128098857Y-89333836D01*
X128053312Y-89407677D01*
X127930177Y-89530812D01*
X127856336Y-89576357D01*
X127790247Y-89617884D01*
X127787391Y-89618883D01*
X127781964Y-89622231D01*
X127703897Y-89648099D01*
X127631806Y-89673325D01*
X127625688Y-89674014D01*
X127616663Y-89677005D01*
X127465000Y-89692500D01*
X125965000Y-89692500D01*
X125813337Y-89677005D01*
X125804312Y-89674014D01*
X125798192Y-89673325D01*
X125726073Y-89648089D01*
X125648036Y-89622231D01*
X125642609Y-89618883D01*
X125639752Y-89617884D01*
X125573609Y-89576323D01*
X125499823Y-89530812D01*
X125376688Y-89407677D01*
X125331195Y-89333922D01*
X125289615Y-89267747D01*
X125288614Y-89264888D01*
X125285269Y-89259464D01*
X125259418Y-89181451D01*
X125234174Y-89109306D01*
X125233484Y-89103184D01*
X125230495Y-89094163D01*
X125215000Y-88942500D01*
X125215000Y-86942500D01*
X125230495Y-86790837D01*
X125233483Y-86781816D01*
X125234174Y-86775692D01*
X125259428Y-86703519D01*
X125285269Y-86625536D01*
X125288613Y-86620113D01*
X125289615Y-86617252D01*
X125331229Y-86551022D01*
X125376688Y-86477323D01*
X125499823Y-86354188D01*
X125573522Y-86308729D01*
X125639752Y-86267115D01*
X125642613Y-86266113D01*
X125648036Y-86262769D01*
X125726029Y-86236925D01*
X125798193Y-86211674D01*
X125804316Y-86210984D01*
X125813337Y-86207995D01*
X125965000Y-86192500D01*
X127465000Y-86192500D01*
X127616663Y-86207995D01*
G37*
G36*
X134465000Y-89692500D02*
G01*
X130965000Y-89692500D01*
X130965000Y-86192500D01*
X134465000Y-86192500D01*
X134465000Y-89692500D01*
G37*
G36*
X139965000Y-89165000D02*
G01*
X138165000Y-89165000D01*
X138165000Y-87365000D01*
X139965000Y-87365000D01*
X139965000Y-89165000D01*
G37*
G36*
X141866256Y-87403754D02*
G01*
X142029257Y-87471271D01*
X142175954Y-87569291D01*
X142300709Y-87694046D01*
X142398729Y-87840743D01*
X142466246Y-88003744D01*
X142500666Y-88176785D01*
X142500666Y-88353215D01*
X142466246Y-88526256D01*
X142398729Y-88689257D01*
X142300709Y-88835954D01*
X142175954Y-88960709D01*
X142029257Y-89058729D01*
X141866256Y-89126246D01*
X141693215Y-89160666D01*
X141516785Y-89160666D01*
X141343744Y-89126246D01*
X141180743Y-89058729D01*
X141034046Y-88960709D01*
X140909291Y-88835954D01*
X140811271Y-88689257D01*
X140743754Y-88526256D01*
X140709334Y-88353215D01*
X140709334Y-88176785D01*
X140743754Y-88003744D01*
X140811271Y-87840743D01*
X140909291Y-87694046D01*
X141034046Y-87569291D01*
X141180743Y-87471271D01*
X141343744Y-87403754D01*
X141516785Y-87369334D01*
X141693215Y-87369334D01*
X141866256Y-87403754D01*
G37*
G36*
X137998199Y-81245142D02*
G01*
X138124978Y-81297655D01*
X138239075Y-81373893D01*
X138336107Y-81470925D01*
X138412345Y-81585022D01*
X138464858Y-81711801D01*
X138491629Y-81846388D01*
X138491629Y-81983612D01*
X138464858Y-82118199D01*
X138412345Y-82244978D01*
X138336107Y-82359075D01*
X138239075Y-82456107D01*
X138124978Y-82532345D01*
X137998199Y-82584858D01*
X137863612Y-82611629D01*
X137726388Y-82611629D01*
X137591801Y-82584858D01*
X137465022Y-82532345D01*
X137350925Y-82456107D01*
X137253893Y-82359075D01*
X137177655Y-82244978D01*
X137125142Y-82118199D01*
X137098371Y-81983612D01*
X137098371Y-81846388D01*
X137125142Y-81711801D01*
X137177655Y-81585022D01*
X137253893Y-81470925D01*
X137350925Y-81373893D01*
X137465022Y-81297655D01*
X137591801Y-81245142D01*
X137726388Y-81218371D01*
X137863612Y-81218371D01*
X137998199Y-81245142D01*
G37*
G36*
X145618199Y-81245142D02*
G01*
X145744978Y-81297655D01*
X145859075Y-81373893D01*
X145956107Y-81470925D01*
X146032345Y-81585022D01*
X146084858Y-81711801D01*
X146111629Y-81846388D01*
X146111629Y-81983612D01*
X146084858Y-82118199D01*
X146032345Y-82244978D01*
X145956107Y-82359075D01*
X145859075Y-82456107D01*
X145744978Y-82532345D01*
X145618199Y-82584858D01*
X145483612Y-82611629D01*
X145346388Y-82611629D01*
X145211801Y-82584858D01*
X145085022Y-82532345D01*
X144970925Y-82456107D01*
X144873893Y-82359075D01*
X144797655Y-82244978D01*
X144745142Y-82118199D01*
X144718371Y-81983612D01*
X144718371Y-81846388D01*
X144745142Y-81711801D01*
X144797655Y-81585022D01*
X144873893Y-81470925D01*
X144970925Y-81373893D01*
X145085022Y-81297655D01*
X145211801Y-81245142D01*
X145346388Y-81218371D01*
X145483612Y-81218371D01*
X145618199Y-81245142D01*
G37*
G36*
X136746790Y-74480393D02*
G01*
X136910952Y-74533733D01*
X137064748Y-74612096D01*
X137204393Y-74713553D01*
X137326447Y-74835607D01*
X137427904Y-74975252D01*
X137506267Y-75129048D01*
X137559607Y-75293210D01*
X137586609Y-75463695D01*
X137590000Y-75550000D01*
X137590000Y-76850000D01*
X137586609Y-76936305D01*
X137559607Y-77106790D01*
X137506267Y-77270952D01*
X137427904Y-77424748D01*
X137326447Y-77564393D01*
X137204393Y-77686447D01*
X137064748Y-77787904D01*
X136910952Y-77866267D01*
X136746790Y-77919607D01*
X136576305Y-77946609D01*
X136403695Y-77946609D01*
X136233210Y-77919607D01*
X136069048Y-77866267D01*
X135915252Y-77787904D01*
X135775607Y-77686447D01*
X135653553Y-77564393D01*
X135552096Y-77424748D01*
X135473733Y-77270952D01*
X135420393Y-77106790D01*
X135393391Y-76936305D01*
X135390000Y-76850000D01*
X135390000Y-75550000D01*
X135393391Y-75463695D01*
X135420393Y-75293210D01*
X135473733Y-75129048D01*
X135552096Y-74975252D01*
X135653553Y-74835607D01*
X135775607Y-74713553D01*
X135915252Y-74612096D01*
X136069048Y-74533733D01*
X136233210Y-74480393D01*
X136403695Y-74453391D01*
X136576305Y-74453391D01*
X136746790Y-74480393D01*
G37*
G36*
X144946790Y-74480393D02*
G01*
X145110952Y-74533733D01*
X145264748Y-74612096D01*
X145404393Y-74713553D01*
X145526447Y-74835607D01*
X145627904Y-74975252D01*
X145706267Y-75129048D01*
X145759607Y-75293210D01*
X145786609Y-75463695D01*
X145790000Y-75550000D01*
X145790000Y-76850000D01*
X145786609Y-76936305D01*
X145759607Y-77106790D01*
X145706267Y-77270952D01*
X145627904Y-77424748D01*
X145526447Y-77564393D01*
X145404393Y-77686447D01*
X145264748Y-77787904D01*
X145110952Y-77866267D01*
X144946790Y-77919607D01*
X144776305Y-77946609D01*
X144603695Y-77946609D01*
X144433210Y-77919607D01*
X144269048Y-77866267D01*
X144115252Y-77787904D01*
X143975607Y-77686447D01*
X143853553Y-77564393D01*
X143752096Y-77424748D01*
X143673733Y-77270952D01*
X143620393Y-77106790D01*
X143593391Y-76936305D01*
X143590000Y-76850000D01*
X143590000Y-75550000D01*
X143593391Y-75463695D01*
X143620393Y-75293210D01*
X143673733Y-75129048D01*
X143752096Y-74975252D01*
X143853553Y-74835607D01*
X143975607Y-74713553D01*
X144115252Y-74612096D01*
X144269048Y-74533733D01*
X144433210Y-74480393D01*
X144603695Y-74453391D01*
X144776305Y-74453391D01*
X144946790Y-74480393D01*
G37*
G36*
X139340000Y-77450000D02*
G01*
X137840000Y-77450000D01*
X137840000Y-74950000D01*
X139340000Y-74950000D01*
X139340000Y-77450000D01*
G37*
G36*
X140807714Y-74982295D02*
G01*
X140943548Y-75038559D01*
X141065795Y-75120242D01*
X141169758Y-75224205D01*
X141251441Y-75346452D01*
X141307705Y-75482286D01*
X141336389Y-75626487D01*
X141340000Y-75700000D01*
X141340000Y-76700000D01*
X141336389Y-76773513D01*
X141307705Y-76917714D01*
X141251441Y-77053548D01*
X141169758Y-77175795D01*
X141065795Y-77279758D01*
X140943548Y-77361441D01*
X140807714Y-77417705D01*
X140663513Y-77446389D01*
X140516487Y-77446389D01*
X140372286Y-77417705D01*
X140236452Y-77361441D01*
X140114205Y-77279758D01*
X140010242Y-77175795D01*
X139928559Y-77053548D01*
X139872295Y-76917714D01*
X139843611Y-76773513D01*
X139840000Y-76700000D01*
X139840000Y-75700000D01*
X139843611Y-75626487D01*
X139872295Y-75482286D01*
X139928559Y-75346452D01*
X140010242Y-75224205D01*
X140114205Y-75120242D01*
X140236452Y-75038559D01*
X140372286Y-74982295D01*
X140516487Y-74953611D01*
X140663513Y-74953611D01*
X140807714Y-74982295D01*
G37*
G36*
X142807714Y-74982295D02*
G01*
X142943548Y-75038559D01*
X143065795Y-75120242D01*
X143169758Y-75224205D01*
X143251441Y-75346452D01*
X143307705Y-75482286D01*
X143336389Y-75626487D01*
X143340000Y-75700000D01*
X143340000Y-76700000D01*
X143336389Y-76773513D01*
X143307705Y-76917714D01*
X143251441Y-77053548D01*
X143169758Y-77175795D01*
X143065795Y-77279758D01*
X142943548Y-77361441D01*
X142807714Y-77417705D01*
X142663513Y-77446389D01*
X142516487Y-77446389D01*
X142372286Y-77417705D01*
X142236452Y-77361441D01*
X142114205Y-77279758D01*
X142010242Y-77175795D01*
X141928559Y-77053548D01*
X141872295Y-76917714D01*
X141843611Y-76773513D01*
X141840000Y-76700000D01*
X141840000Y-75700000D01*
X141843611Y-75626487D01*
X141872295Y-75482286D01*
X141928559Y-75346452D01*
X142010242Y-75224205D01*
X142114205Y-75120242D01*
X142236452Y-75038559D01*
X142372286Y-74982295D01*
X142516487Y-74953611D01*
X142663513Y-74953611D01*
X142807714Y-74982295D01*
G37*
G36*
X128587500Y-76565000D02*
G01*
X126682500Y-76565000D01*
X126682500Y-74565000D01*
X128587500Y-74565000D01*
X128587500Y-76565000D01*
G37*
G36*
X122831496Y-74606014D02*
G01*
X123004005Y-74677470D01*
X123159260Y-74781208D01*
X123291292Y-74913240D01*
X123395030Y-75068495D01*
X123466486Y-75241004D01*
X123502913Y-75424139D01*
X123507500Y-75517500D01*
X123507500Y-75612500D01*
X123502913Y-75705861D01*
X123466486Y-75888996D01*
X123395030Y-76061505D01*
X123291292Y-76216760D01*
X123159260Y-76348792D01*
X123004005Y-76452530D01*
X122831496Y-76523986D01*
X122648361Y-76560413D01*
X122461639Y-76560413D01*
X122278504Y-76523986D01*
X122105995Y-76452530D01*
X121950740Y-76348792D01*
X121818708Y-76216760D01*
X121714970Y-76061505D01*
X121643514Y-75888996D01*
X121607087Y-75705861D01*
X121602500Y-75612500D01*
X121602500Y-75517500D01*
X121607087Y-75424139D01*
X121643514Y-75241004D01*
X121714970Y-75068495D01*
X121818708Y-74913240D01*
X121950740Y-74781208D01*
X122105995Y-74677470D01*
X122278504Y-74606014D01*
X122461639Y-74569587D01*
X122648361Y-74569587D01*
X122831496Y-74606014D01*
G37*
G36*
X125371496Y-74606014D02*
G01*
X125544005Y-74677470D01*
X125699260Y-74781208D01*
X125831292Y-74913240D01*
X125935030Y-75068495D01*
X126006486Y-75241004D01*
X126042913Y-75424139D01*
X126047500Y-75517500D01*
X126047500Y-75612500D01*
X126042913Y-75705861D01*
X126006486Y-75888996D01*
X125935030Y-76061505D01*
X125831292Y-76216760D01*
X125699260Y-76348792D01*
X125544005Y-76452530D01*
X125371496Y-76523986D01*
X125188361Y-76560413D01*
X125001639Y-76560413D01*
X124818504Y-76523986D01*
X124645995Y-76452530D01*
X124490740Y-76348792D01*
X124358708Y-76216760D01*
X124254970Y-76061505D01*
X124183514Y-75888996D01*
X124147087Y-75705861D01*
X124142500Y-75612500D01*
X124142500Y-75517500D01*
X124147087Y-75424139D01*
X124183514Y-75241004D01*
X124254970Y-75068495D01*
X124358708Y-74913240D01*
X124490740Y-74781208D01*
X124645995Y-74677470D01*
X124818504Y-74606014D01*
X125001639Y-74569587D01*
X125188361Y-74569587D01*
X125371496Y-74606014D01*
G37*
G36*
X122787228Y-69084448D02*
G01*
X122932117Y-69144463D01*
X123062515Y-69231592D01*
X123173408Y-69342485D01*
X123260537Y-69472883D01*
X123320552Y-69617772D01*
X123351148Y-69771586D01*
X123351148Y-69928414D01*
X123320552Y-70082228D01*
X123260537Y-70227117D01*
X123173408Y-70357515D01*
X123062515Y-70468408D01*
X122932117Y-70555537D01*
X122787228Y-70615552D01*
X122633414Y-70646148D01*
X122476586Y-70646148D01*
X122322772Y-70615552D01*
X122177883Y-70555537D01*
X122047485Y-70468408D01*
X121936592Y-70357515D01*
X121849463Y-70227117D01*
X121789448Y-70082228D01*
X121758852Y-69928414D01*
X121758852Y-69771586D01*
X121789448Y-69617772D01*
X121849463Y-69472883D01*
X121936592Y-69342485D01*
X122047485Y-69231592D01*
X122177883Y-69144463D01*
X122322772Y-69084448D01*
X122476586Y-69053852D01*
X122633414Y-69053852D01*
X122787228Y-69084448D01*
G37*
G36*
X125287228Y-69084448D02*
G01*
X125432117Y-69144463D01*
X125562515Y-69231592D01*
X125673408Y-69342485D01*
X125760537Y-69472883D01*
X125820552Y-69617772D01*
X125851148Y-69771586D01*
X125851148Y-69928414D01*
X125820552Y-70082228D01*
X125760537Y-70227117D01*
X125673408Y-70357515D01*
X125562515Y-70468408D01*
X125432117Y-70555537D01*
X125287228Y-70615552D01*
X125133414Y-70646148D01*
X124976586Y-70646148D01*
X124822772Y-70615552D01*
X124677883Y-70555537D01*
X124547485Y-70468408D01*
X124436592Y-70357515D01*
X124349463Y-70227117D01*
X124289448Y-70082228D01*
X124258852Y-69928414D01*
X124258852Y-69771586D01*
X124289448Y-69617772D01*
X124349463Y-69472883D01*
X124436592Y-69342485D01*
X124547485Y-69231592D01*
X124677883Y-69144463D01*
X124822772Y-69084448D01*
X124976586Y-69053852D01*
X125133414Y-69053852D01*
X125287228Y-69084448D01*
G37*
G36*
X128034228Y-69084448D02*
G01*
X128179117Y-69144463D01*
X128309515Y-69231592D01*
X128420408Y-69342485D01*
X128507537Y-69472883D01*
X128567552Y-69617772D01*
X128598148Y-69771586D01*
X128598148Y-69928414D01*
X128567552Y-70082228D01*
X128507537Y-70227117D01*
X128420408Y-70357515D01*
X128309515Y-70468408D01*
X128179117Y-70555537D01*
X128034228Y-70615552D01*
X127880414Y-70646148D01*
X127723586Y-70646148D01*
X127569772Y-70615552D01*
X127424883Y-70555537D01*
X127294485Y-70468408D01*
X127183592Y-70357515D01*
X127096463Y-70227117D01*
X127036448Y-70082228D01*
X127005852Y-69928414D01*
X127005852Y-69771586D01*
X127036448Y-69617772D01*
X127096463Y-69472883D01*
X127183592Y-69342485D01*
X127294485Y-69231592D01*
X127424883Y-69144463D01*
X127569772Y-69084448D01*
X127723586Y-69053852D01*
X127880414Y-69053852D01*
X128034228Y-69084448D01*
G37*
G36*
X130534228Y-69084448D02*
G01*
X130679117Y-69144463D01*
X130809515Y-69231592D01*
X130920408Y-69342485D01*
X131007537Y-69472883D01*
X131067552Y-69617772D01*
X131098148Y-69771586D01*
X131098148Y-69928414D01*
X131067552Y-70082228D01*
X131007537Y-70227117D01*
X130920408Y-70357515D01*
X130809515Y-70468408D01*
X130679117Y-70555537D01*
X130534228Y-70615552D01*
X130380414Y-70646148D01*
X130223586Y-70646148D01*
X130069772Y-70615552D01*
X129924883Y-70555537D01*
X129794485Y-70468408D01*
X129683592Y-70357515D01*
X129596463Y-70227117D01*
X129536448Y-70082228D01*
X129505852Y-69928414D01*
X129505852Y-69771586D01*
X129536448Y-69617772D01*
X129596463Y-69472883D01*
X129683592Y-69342485D01*
X129794485Y-69231592D01*
X129924883Y-69144463D01*
X130069772Y-69084448D01*
X130223586Y-69053852D01*
X130380414Y-69053852D01*
X130534228Y-69084448D01*
G37*
G36*
X145199850Y-66010964D02*
G01*
X145250040Y-66016787D01*
X145267189Y-66024359D01*
X145290671Y-66029030D01*
X145315810Y-66045827D01*
X145335696Y-66054608D01*
X145349277Y-66068189D01*
X145371777Y-66083223D01*
X145386810Y-66105722D01*
X145400391Y-66119303D01*
X145409170Y-66139186D01*
X145425970Y-66164329D01*
X145430641Y-66187812D01*
X145438212Y-66204959D01*
X145444033Y-66255139D01*
X145445000Y-66260000D01*
X145445000Y-68360000D01*
X145444032Y-68364863D01*
X145438212Y-68415040D01*
X145430641Y-68432185D01*
X145425970Y-68455671D01*
X145409169Y-68480815D01*
X145400391Y-68500696D01*
X145386812Y-68514274D01*
X145371777Y-68536777D01*
X145349274Y-68551812D01*
X145335696Y-68565391D01*
X145315815Y-68574169D01*
X145290671Y-68590970D01*
X145267185Y-68595641D01*
X145250040Y-68603212D01*
X145199861Y-68609032D01*
X145195000Y-68610000D01*
X143095000Y-68610000D01*
X143090138Y-68609032D01*
X143039959Y-68603212D01*
X143022812Y-68595641D01*
X142999329Y-68590970D01*
X142974186Y-68574170D01*
X142954303Y-68565391D01*
X142940722Y-68551810D01*
X142918223Y-68536777D01*
X142903189Y-68514277D01*
X142889608Y-68500696D01*
X142880827Y-68480810D01*
X142864030Y-68455671D01*
X142859359Y-68432189D01*
X142851787Y-68415040D01*
X142845964Y-68364849D01*
X142845000Y-68360000D01*
X142845000Y-66260000D01*
X142845964Y-66255150D01*
X142851787Y-66204959D01*
X142859359Y-66187808D01*
X142864030Y-66164329D01*
X142880826Y-66139191D01*
X142889608Y-66119303D01*
X142903191Y-66105719D01*
X142918223Y-66083223D01*
X142940719Y-66068191D01*
X142954303Y-66054608D01*
X142974191Y-66045826D01*
X142999329Y-66029030D01*
X143022808Y-66024359D01*
X143039959Y-66016787D01*
X143090151Y-66010964D01*
X143095000Y-66010000D01*
X145195000Y-66010000D01*
X145199850Y-66010964D01*
G37*
G36*
X139368479Y-66045919D02*
G01*
X139562488Y-66108957D01*
X139744248Y-66201568D01*
X139909282Y-66321472D01*
X140053528Y-66465718D01*
X140173432Y-66630752D01*
X140266043Y-66812512D01*
X140329081Y-67006521D01*
X140360993Y-67208003D01*
X140360993Y-67411997D01*
X140329081Y-67613479D01*
X140266043Y-67807488D01*
X140173432Y-67989248D01*
X140053528Y-68154282D01*
X139909282Y-68298528D01*
X139744248Y-68418432D01*
X139562488Y-68511043D01*
X139368479Y-68574081D01*
X139166997Y-68605993D01*
X138963003Y-68605993D01*
X138761521Y-68574081D01*
X138567512Y-68511043D01*
X138385752Y-68418432D01*
X138220718Y-68298528D01*
X138076472Y-68154282D01*
X137956568Y-67989248D01*
X137863957Y-67807488D01*
X137800919Y-67613479D01*
X137769007Y-67411997D01*
X137769007Y-67208003D01*
X137800919Y-67006521D01*
X137863957Y-66812512D01*
X137956568Y-66630752D01*
X138076472Y-66465718D01*
X138220718Y-66321472D01*
X138385752Y-66201568D01*
X138567512Y-66108957D01*
X138761521Y-66045919D01*
X138963003Y-66014007D01*
X139166997Y-66014007D01*
X139368479Y-66045919D01*
G37*
G36*
X150741742Y-65755001D02*
G01*
X150895687Y-65818767D01*
X151034234Y-65911341D01*
X151152059Y-66029166D01*
X151244633Y-66167713D01*
X151308399Y-66321658D01*
X151340907Y-66485085D01*
X151340907Y-66651715D01*
X151308399Y-66815142D01*
X151244633Y-66969087D01*
X151152059Y-67107634D01*
X151034234Y-67225459D01*
X150895687Y-67318033D01*
X150741742Y-67381799D01*
X150578315Y-67414307D01*
X150411685Y-67414307D01*
X150248258Y-67381799D01*
X150094313Y-67318033D01*
X149955766Y-67225459D01*
X149837941Y-67107634D01*
X149745367Y-66969087D01*
X149681601Y-66815142D01*
X149649093Y-66651715D01*
X149649093Y-66485085D01*
X149681601Y-66321658D01*
X149745367Y-66167713D01*
X149837941Y-66029166D01*
X149955766Y-65911341D01*
X150094313Y-65818767D01*
X150248258Y-65755001D01*
X150411685Y-65722493D01*
X150578315Y-65722493D01*
X150741742Y-65755001D01*
G37*
G36*
X133565000Y-66255000D02*
G01*
X131865000Y-66255000D01*
X131865000Y-64555000D01*
X133565000Y-64555000D01*
X133565000Y-66255000D01*
G37*
G36*
X127881742Y-64591601D02*
G01*
X128035687Y-64655367D01*
X128174234Y-64747941D01*
X128292059Y-64865766D01*
X128384633Y-65004313D01*
X128448399Y-65158258D01*
X128480907Y-65321685D01*
X128480907Y-65488315D01*
X128448399Y-65651742D01*
X128384633Y-65805687D01*
X128292059Y-65944234D01*
X128174234Y-66062059D01*
X128035687Y-66154633D01*
X127881742Y-66218399D01*
X127718315Y-66250907D01*
X127551685Y-66250907D01*
X127388258Y-66218399D01*
X127234313Y-66154633D01*
X127095766Y-66062059D01*
X126977941Y-65944234D01*
X126885367Y-65805687D01*
X126821601Y-65651742D01*
X126789093Y-65488315D01*
X126789093Y-65321685D01*
X126821601Y-65158258D01*
X126885367Y-65004313D01*
X126977941Y-64865766D01*
X127095766Y-64747941D01*
X127234313Y-64655367D01*
X127388258Y-64591601D01*
X127551685Y-64559093D01*
X127718315Y-64559093D01*
X127881742Y-64591601D01*
G37*
G36*
X130421742Y-64591601D02*
G01*
X130575687Y-64655367D01*
X130714234Y-64747941D01*
X130832059Y-64865766D01*
X130924633Y-65004313D01*
X130988399Y-65158258D01*
X131020907Y-65321685D01*
X131020907Y-65488315D01*
X130988399Y-65651742D01*
X130924633Y-65805687D01*
X130832059Y-65944234D01*
X130714234Y-66062059D01*
X130575687Y-66154633D01*
X130421742Y-66218399D01*
X130258315Y-66250907D01*
X130091685Y-66250907D01*
X129928258Y-66218399D01*
X129774313Y-66154633D01*
X129635766Y-66062059D01*
X129517941Y-65944234D01*
X129425367Y-65805687D01*
X129361601Y-65651742D01*
X129329093Y-65488315D01*
X129329093Y-65321685D01*
X129361601Y-65158258D01*
X129425367Y-65004313D01*
X129517941Y-64865766D01*
X129635766Y-64747941D01*
X129774313Y-64655367D01*
X129928258Y-64591601D01*
X130091685Y-64559093D01*
X130258315Y-64559093D01*
X130421742Y-64591601D01*
G37*
G36*
X151345000Y-64878400D02*
G01*
X149645000Y-64878400D01*
X149645000Y-63178400D01*
X151345000Y-63178400D01*
X151345000Y-64878400D01*
G37*
M02*
