M48
; DRILL file {KiCad 9.0.2} date 2025-06-13T16:54:51+0800
; FORMAT={-:-/ absolute / metric / decimal}
; #@! TF.CreationDate,2025-06-13T16:54:51+08:00
; #@! TF.GenerationSoftware,Kicad,Pcbnew,9.0.2
; #@! TF.FileFunction,Plated,1,2,PTH
FMAT,2
METRIC
; #@! TA.AperFunction,Plated,PTH,ComponentDrill
T1C0.700
; #@! TA.AperFunction,Plated,PTH,ComponentDrill
T2C0.800
; #@! TA.AperFunction,Plated,PTH,ComponentDrill
T3C0.900
; #@! TA.AperFunction,Plated,PTH,ComponentDrill
T4C1.000
; #@! TA.AperFunction,Plated,PTH,ComponentDrill
T5C1.100
; #@! TA.AperFunction,Plated,PTH,ComponentDrill
T6C1.300
; #@! TA.AperFunction,Plated,PTH,ComponentDrill
T7C1.500
%
G90
G05
T1
X137.795Y-81.915
X138.43Y-95.885
X138.43Y-100.33
X145.415Y-81.915
X146.05Y-95.885
X146.05Y-100.33
T2
X122.555Y-69.85
X125.055Y-69.85
X127.635Y-107.315
X127.802Y-69.85
X130.135Y-107.315
X130.302Y-69.85
X138.59Y-76.2
X140.59Y-76.2
X142.59Y-76.2
T3
X139.065Y-88.265
X141.605Y-88.265
T4
X127.635Y-65.405
X127.635Y-111.125
X130.175Y-65.405
X130.175Y-111.125
X132.715Y-65.405
X132.715Y-111.125
X150.495Y-64.028
X150.495Y-66.568
X150.495Y-109.85
X150.495Y-112.39
T5
X122.555Y-75.565
X123.19Y-100.33
X125.095Y-75.565
X125.73Y-100.33
X127.635Y-75.565
X128.27Y-100.33
T6
X139.065Y-67.31
X139.065Y-109.22
X144.145Y-67.31
X144.145Y-109.22
T7
X136.49Y-76.2
X144.69Y-76.2
T4
G00X126.715Y-86.942
M15
G01X126.715Y-88.942
M16
G05
G00X128.715Y-92.642
M15
G01X130.715Y-92.642
M16
G05
G00X132.715Y-86.942
M15
G01X132.715Y-88.942
M16
G05
M30
