%TF.GenerationSoftware,KiCad,Pcbnew,9.0.2*%
%TF.CreationDate,2025-06-13T16:54:46+08:00*%
%TF.ProjectId,Breadboard Power Supply,42726561-6462-46f6-9172-6420506f7765,1*%
%TF.SameCoordinates,Original*%
%TF.FileFunction,Copper,L2,Bot*%
%TF.FilePolarity,Positive*%
%FSLAX46Y46*%
G04 Gerber Fmt 4.6, Leading zero omitted, Abs format (unit mm)*
G04 Created by KiCad (PCBNEW 9.0.2) date 2025-06-13 16:54:46*
%MOMM*%
%LPD*%
G01*
G04 APERTURE LIST*
G04 Aperture macros list*
%AMRoundRect*
0 Rectangle with rounded corners*
0 $1 Rounding radius*
0 $2 $3 $4 $5 $6 $7 $8 $9 X,Y pos of 4 corners*
0 Add a 4 corners polygon primitive as box body*
4,1,4,$2,$3,$4,$5,$6,$7,$8,$9,$2,$3,0*
0 Add four circle primitives for the rounded corners*
1,1,$1+$1,$2,$3*
1,1,$1+$1,$4,$5*
1,1,$1+$1,$6,$7*
1,1,$1+$1,$8,$9*
0 Add four rect primitives between the rounded corners*
20,1,$1+$1,$2,$3,$4,$5,0*
20,1,$1+$1,$4,$5,$6,$7,0*
20,1,$1+$1,$6,$7,$8,$9,0*
20,1,$1+$1,$8,$9,$2,$3,0*%
G04 Aperture macros list end*
%TA.AperFunction,ComponentPad*%
%ADD10O,1.500000X2.500000*%
%TD*%
%TA.AperFunction,ComponentPad*%
%ADD11R,1.500000X2.500000*%
%TD*%
%TA.AperFunction,ComponentPad*%
%ADD12O,2.200000X3.500000*%
%TD*%
%TA.AperFunction,ComponentPad*%
%ADD13RoundRect,0.250000X-1.050000X-1.050000X1.050000X-1.050000X1.050000X1.050000X-1.050000X1.050000X0*%
%TD*%
%TA.AperFunction,ComponentPad*%
%ADD14C,2.600000*%
%TD*%
%TA.AperFunction,ComponentPad*%
%ADD15RoundRect,0.250000X1.050000X1.050000X-1.050000X1.050000X-1.050000X-1.050000X1.050000X-1.050000X0*%
%TD*%
%TA.AperFunction,ComponentPad*%
%ADD16C,1.400000*%
%TD*%
%TA.AperFunction,ComponentPad*%
%ADD17C,1.600000*%
%TD*%
%TA.AperFunction,ComponentPad*%
%ADD18R,1.800000X1.800000*%
%TD*%
%TA.AperFunction,ComponentPad*%
%ADD19C,1.800000*%
%TD*%
%TA.AperFunction,ComponentPad*%
%ADD20R,1.905000X2.000000*%
%TD*%
%TA.AperFunction,ComponentPad*%
%ADD21O,1.905000X2.000000*%
%TD*%
%TA.AperFunction,ComponentPad*%
%ADD22R,1.700000X1.700000*%
%TD*%
%TA.AperFunction,ComponentPad*%
%ADD23C,1.700000*%
%TD*%
%TA.AperFunction,ComponentPad*%
%ADD24R,3.500000X3.500000*%
%TD*%
%TA.AperFunction,ComponentPad*%
%ADD25RoundRect,0.750000X-0.750000X-1.000000X0.750000X-1.000000X0.750000X1.000000X-0.750000X1.000000X0*%
%TD*%
%TA.AperFunction,ComponentPad*%
%ADD26RoundRect,0.875000X-0.875000X-0.875000X0.875000X-0.875000X0.875000X0.875000X-0.875000X0.875000X0*%
%TD*%
%TA.AperFunction,Conductor*%
%ADD27C,0.152400*%
%TD*%
%TA.AperFunction,Conductor*%
%ADD28C,0.127000*%
%TD*%
G04 APERTURE END LIST*
D10*
%TO.P,S1,3*%
%TO.N,unconnected-(S1-Pad3)*%
X142590000Y-76200000D03*
%TO.P,S1,2*%
%TO.N,/PWR_input*%
X140590000Y-76200000D03*
D11*
%TO.P,S1,1*%
%TO.N,/12V*%
X138590000Y-76200000D03*
D12*
%TO.P,S1,*%
%TO.N,*%
X144690000Y-76200000D03*
X136490000Y-76200000D03*
%TD*%
D13*
%TO.P,J7,1,Pin_1*%
%TO.N,GND*%
X139065000Y-109220000D03*
D14*
%TO.P,J7,2,Pin_2*%
%TO.N,/PWR_output*%
X144145000Y-109220000D03*
%TD*%
D15*
%TO.P,J5,1,Pin_1*%
%TO.N,GND*%
X144145000Y-67310000D03*
D14*
%TO.P,J5,2,Pin_2*%
%TO.N,/PWR_output*%
X139065000Y-67310000D03*
%TD*%
D16*
%TO.P,R3,1*%
%TO.N,GND*%
X138430000Y-95885000D03*
%TO.P,R3,2*%
%TO.N,Net-(U2-ADJ)*%
X146050000Y-95885000D03*
%TD*%
D17*
%TO.P,C1,1*%
%TO.N,/12V*%
X130302000Y-69850000D03*
%TO.P,C1,2*%
%TO.N,GND*%
X127802000Y-69850000D03*
%TD*%
D18*
%TO.P,D1,1,K*%
%TO.N,GND*%
X139065000Y-88265000D03*
D19*
%TO.P,D1,2,A*%
%TO.N,Net-(D1-A)*%
X141605000Y-88265000D03*
%TD*%
D20*
%TO.P,U1,1,VI*%
%TO.N,/12V*%
X127635000Y-75565000D03*
D21*
%TO.P,U1,2,GND*%
%TO.N,GND*%
X125095000Y-75565000D03*
%TO.P,U1,3,VO*%
%TO.N,/5V*%
X122555000Y-75565000D03*
%TD*%
D17*
%TO.P,C2,1*%
%TO.N,/5V*%
X122555000Y-69850000D03*
%TO.P,C2,2*%
%TO.N,GND*%
X125055000Y-69850000D03*
%TD*%
D16*
%TO.P,R2,1*%
%TO.N,Net-(D1-A)*%
X145415000Y-81915000D03*
%TO.P,R2,2*%
%TO.N,/12V*%
X137795000Y-81915000D03*
%TD*%
D22*
%TO.P,J4,1,Pin_1*%
%TO.N,/3.3V*%
X127635000Y-111125000D03*
D23*
%TO.P,J4,2,Pin_2*%
%TO.N,/PWR_output*%
X130175000Y-111125000D03*
%TO.P,J4,3,Pin_3*%
%TO.N,/5V*%
X132715000Y-111125000D03*
%TD*%
D20*
%TO.P,U2,1,ADJ*%
%TO.N,Net-(U2-ADJ)*%
X128270000Y-100330000D03*
D21*
%TO.P,U2,2,VO*%
%TO.N,/3.3V*%
X125730000Y-100330000D03*
%TO.P,U2,3,VI*%
%TO.N,/12V*%
X123190000Y-100330000D03*
%TD*%
D22*
%TO.P,J3,1,Pin_1*%
%TO.N,/3.3V*%
X132715000Y-65405000D03*
D23*
%TO.P,J3,2,Pin_2*%
%TO.N,/PWR_output*%
X130175000Y-65405000D03*
%TO.P,J3,3,Pin_3*%
%TO.N,/5V*%
X127635000Y-65405000D03*
%TD*%
D22*
%TO.P,J1,1,Pin_1*%
%TO.N,GND*%
X150495000Y-64028400D03*
D23*
%TO.P,J1,2,Pin_2*%
%TO.N,/PWR_output*%
X150495000Y-66568400D03*
%TD*%
D17*
%TO.P,C3,1*%
%TO.N,/3.3V*%
X127635000Y-107315000D03*
%TO.P,C3,2*%
%TO.N,GND*%
X130135000Y-107315000D03*
%TD*%
D22*
%TO.P,J2,1,Pin_1*%
%TO.N,GND*%
X150495000Y-109850000D03*
D23*
%TO.P,J2,2,Pin_2*%
%TO.N,/PWR_output*%
X150495000Y-112390000D03*
%TD*%
D16*
%TO.P,R1,1*%
%TO.N,Net-(U2-ADJ)*%
X146050000Y-100330000D03*
%TO.P,R1,2*%
%TO.N,/3.3V*%
X138430000Y-100330000D03*
%TD*%
D24*
%TO.P,J6,1*%
%TO.N,/PWR_input*%
X132715000Y-87942500D03*
D25*
%TO.P,J6,2*%
%TO.N,GND*%
X126715000Y-87942500D03*
D26*
%TO.P,J6,3*%
X129715000Y-92642500D03*
%TD*%
D27*
%TO.N,/12V*%
X137795000Y-78105000D02*
X137795000Y-81915000D01*
X138590000Y-77310000D02*
X137795000Y-78105000D01*
X138590000Y-75885000D02*
X138430000Y-75725000D01*
X138590000Y-76200000D02*
X138590000Y-70645000D01*
%TO.N,/PWR_input*%
X140715000Y-76200000D02*
X140970000Y-75945000D01*
X132715000Y-84328000D02*
X132715000Y-87942500D01*
X140335000Y-83820000D02*
X133223000Y-83820000D01*
X140590000Y-83565000D02*
X140335000Y-83820000D01*
X140590000Y-76200000D02*
X140590000Y-83565000D01*
%TO.N,/12V*%
X138590000Y-70645000D02*
X137795000Y-69850000D01*
%TO.N,/PWR_input*%
X140590000Y-76200000D02*
X140715000Y-76200000D01*
%TO.N,/12V*%
X138590000Y-76200000D02*
X138590000Y-75885000D01*
X137795000Y-69850000D02*
X130302000Y-69850000D01*
%TO.N,/PWR_input*%
X133223000Y-83820000D02*
X132715000Y-84328000D01*
%TO.N,/12V*%
X138590000Y-76200000D02*
X138590000Y-77310000D01*
X130302000Y-74803000D02*
X129540000Y-75565000D01*
X130302000Y-69850000D02*
X130302000Y-74803000D01*
X129540000Y-75565000D02*
X127635000Y-75565000D01*
D28*
%TO.N,Net-(D1-A)*%
X146050000Y-82550000D02*
X146050000Y-87417579D01*
X146050000Y-87417579D02*
X145202579Y-88265000D01*
X145415000Y-81915000D02*
X146050000Y-82550000D01*
X145202579Y-88265000D02*
X141605000Y-88265000D01*
%TO.N,GND*%
X125095000Y-75565000D02*
X125095000Y-69890000D01*
X124420000Y-74890000D02*
X125095000Y-75565000D01*
X124500000Y-69850000D02*
X125055000Y-69850000D01*
X125055000Y-69850000D02*
X127802000Y-69850000D01*
X124460000Y-69890000D02*
X124500000Y-69850000D01*
X125095000Y-69890000D02*
X125055000Y-69850000D01*
D27*
%TO.N,/12V*%
X127635000Y-75565000D02*
X127635000Y-79375000D01*
X123190000Y-80607219D02*
X123190000Y-100330000D01*
X123787219Y-80010000D02*
X123190000Y-80607219D01*
X127635000Y-79375000D02*
X127000000Y-80010000D01*
X127000000Y-80010000D02*
X123787219Y-80010000D01*
%TO.N,/5V*%
X132080000Y-113030000D02*
X121751804Y-113030000D01*
X122555000Y-66040000D02*
X123190000Y-65405000D01*
X120650000Y-111928196D02*
X120650000Y-76200000D01*
X123190000Y-65405000D02*
X127635000Y-65405000D01*
X121920000Y-74930000D02*
X122555000Y-75565000D01*
X121751804Y-113030000D02*
X120650000Y-111928196D01*
X132715000Y-111125000D02*
X132715000Y-112395000D01*
X122555000Y-75565000D02*
X122555000Y-69850000D01*
X121285000Y-75565000D02*
X122555000Y-75565000D01*
X120650000Y-76200000D02*
X121285000Y-75565000D01*
X132715000Y-112395000D02*
X132080000Y-113030000D01*
X127508000Y-65532000D02*
X127635000Y-65405000D01*
X122555000Y-69850000D02*
X122428000Y-69850000D01*
X122555000Y-69850000D02*
X122555000Y-66040000D01*
D28*
%TO.N,Net-(U2-ADJ)*%
X128270000Y-100330000D02*
X128270000Y-102235000D01*
X128905000Y-102870000D02*
X145415000Y-102870000D01*
X145415000Y-102870000D02*
X146050000Y-102235000D01*
X146050000Y-95885000D02*
X146050000Y-100330000D01*
X146050000Y-102235000D02*
X146050000Y-100330000D01*
X128270000Y-102235000D02*
X128905000Y-102870000D01*
%TD*%
%TA.AperFunction,Conductor*%
%TO.N,GND*%
G36*
X151653677Y-62249685D02*
G01*
X151674319Y-62266319D01*
X152109681Y-62701681D01*
X152143166Y-62763004D01*
X152146000Y-62789362D01*
X152146000Y-67766638D01*
X152126315Y-67833677D01*
X152109681Y-67854319D01*
X151674319Y-68289681D01*
X151612996Y-68323166D01*
X151586638Y-68326000D01*
X148081999Y-68326000D01*
X147320000Y-69087999D01*
X147320000Y-95216688D01*
X147300315Y-95283727D01*
X147247511Y-95329482D01*
X147178353Y-95339426D01*
X147114797Y-95310401D01*
X147085516Y-95272985D01*
X147081916Y-95265920D01*
X147076760Y-95255801D01*
X146965690Y-95102927D01*
X146832073Y-94969310D01*
X146679199Y-94858240D01*
X146653728Y-94845262D01*
X146510836Y-94772454D01*
X146331118Y-94714059D01*
X146144486Y-94684500D01*
X146144481Y-94684500D01*
X145955519Y-94684500D01*
X145955514Y-94684500D01*
X145768881Y-94714059D01*
X145589163Y-94772454D01*
X145420800Y-94858240D01*
X145333579Y-94921610D01*
X145267927Y-94969310D01*
X145267925Y-94969312D01*
X145267924Y-94969312D01*
X145134312Y-95102924D01*
X145134312Y-95102925D01*
X145134310Y-95102927D01*
X145086610Y-95168579D01*
X145023240Y-95255800D01*
X144937454Y-95424163D01*
X144879059Y-95603881D01*
X144849500Y-95790513D01*
X144849500Y-95979486D01*
X144879059Y-96166118D01*
X144937454Y-96345836D01*
X145014485Y-96497016D01*
X145023240Y-96514199D01*
X145134310Y-96667073D01*
X145267927Y-96800690D01*
X145354229Y-96863393D01*
X145420796Y-96911757D01*
X145424949Y-96914301D01*
X145423988Y-96915868D01*
X145469078Y-96958435D01*
X145486000Y-97020967D01*
X145486000Y-99194032D01*
X145466315Y-99261071D01*
X145424084Y-99299278D01*
X145424953Y-99300695D01*
X145420807Y-99303235D01*
X145338327Y-99363160D01*
X145267927Y-99414310D01*
X145267925Y-99414312D01*
X145267924Y-99414312D01*
X145134312Y-99547924D01*
X145134312Y-99547925D01*
X145134310Y-99547927D01*
X145086610Y-99613579D01*
X145023240Y-99700800D01*
X144937454Y-99869163D01*
X144879059Y-100048881D01*
X144849500Y-100235513D01*
X144849500Y-100424486D01*
X144879059Y-100611118D01*
X144937454Y-100790836D01*
X145011040Y-100935255D01*
X145023240Y-100959199D01*
X145134310Y-101112073D01*
X145267927Y-101245690D01*
X145354229Y-101308393D01*
X145420796Y-101356757D01*
X145424949Y-101359301D01*
X145423988Y-101360868D01*
X145469078Y-101403435D01*
X145486000Y-101465967D01*
X145486000Y-101950021D01*
X145466315Y-102017060D01*
X145449681Y-102037702D01*
X145217703Y-102269681D01*
X145156380Y-102303166D01*
X145130022Y-102306000D01*
X129189979Y-102306000D01*
X129122940Y-102286315D01*
X129102298Y-102269681D01*
X128874797Y-102042180D01*
X128841312Y-101980857D01*
X128846296Y-101911165D01*
X128888168Y-101855232D01*
X128953632Y-101830815D01*
X128962478Y-101830499D01*
X129270371Y-101830499D01*
X129270372Y-101830499D01*
X129329983Y-101824091D01*
X129464831Y-101773796D01*
X129580046Y-101687546D01*
X129666296Y-101572331D01*
X129716591Y-101437483D01*
X129723000Y-101377873D01*
X129722999Y-100235513D01*
X137229500Y-100235513D01*
X137229500Y-100424486D01*
X137259059Y-100611118D01*
X137317454Y-100790836D01*
X137391040Y-100935255D01*
X137403240Y-100959199D01*
X137514310Y-101112073D01*
X137647927Y-101245690D01*
X137800801Y-101356760D01*
X137865999Y-101389980D01*
X137969163Y-101442545D01*
X137969165Y-101442545D01*
X137969168Y-101442547D01*
X138035175Y-101463994D01*
X138148881Y-101500940D01*
X138335514Y-101530500D01*
X138335519Y-101530500D01*
X138524486Y-101530500D01*
X138711118Y-101500940D01*
X138890832Y-101442547D01*
X139059199Y-101356760D01*
X139212073Y-101245690D01*
X139345690Y-101112073D01*
X139456760Y-100959199D01*
X139542547Y-100790832D01*
X139600940Y-100611118D01*
X139630500Y-100424486D01*
X139630500Y-100235513D01*
X139600940Y-100048881D01*
X139573846Y-99965497D01*
X139542547Y-99869168D01*
X139542545Y-99869165D01*
X139542545Y-99869163D01*
X139470989Y-99728727D01*
X139456760Y-99700801D01*
X139345690Y-99547927D01*
X139212073Y-99414310D01*
X139059199Y-99303240D01*
X139051137Y-99299132D01*
X138890836Y-99217454D01*
X138711118Y-99159059D01*
X138524486Y-99129500D01*
X138524481Y-99129500D01*
X138335519Y-99129500D01*
X138335514Y-99129500D01*
X138148881Y-99159059D01*
X137969163Y-99217454D01*
X137800800Y-99303240D01*
X137713579Y-99366610D01*
X137647927Y-99414310D01*
X137647925Y-99414312D01*
X137647924Y-99414312D01*
X137514312Y-99547924D01*
X137514312Y-99547925D01*
X137514310Y-99547927D01*
X137466610Y-99613579D01*
X137403240Y-99700800D01*
X137317454Y-99869163D01*
X137259059Y-100048881D01*
X137229500Y-100235513D01*
X129722999Y-100235513D01*
X129722999Y-99282128D01*
X129716591Y-99222517D01*
X129714702Y-99217453D01*
X129666297Y-99087671D01*
X129666293Y-99087664D01*
X129580047Y-98972455D01*
X129580044Y-98972452D01*
X129464835Y-98886206D01*
X129464828Y-98886202D01*
X129329982Y-98835908D01*
X129329983Y-98835908D01*
X129270383Y-98829501D01*
X129270381Y-98829500D01*
X129270373Y-98829500D01*
X129270364Y-98829500D01*
X127269629Y-98829500D01*
X127269623Y-98829501D01*
X127210016Y-98835908D01*
X127075171Y-98886202D01*
X127075164Y-98886206D01*
X126959955Y-98972452D01*
X126959952Y-98972455D01*
X126873706Y-99087664D01*
X126873703Y-99087670D01*
X126863308Y-99115541D01*
X126821436Y-99171474D01*
X126755972Y-99195891D01*
X126687699Y-99181039D01*
X126674250Y-99172531D01*
X126491538Y-99039783D01*
X126491530Y-99039779D01*
X126287755Y-98935950D01*
X126070248Y-98865278D01*
X125884812Y-98835908D01*
X125844354Y-98829500D01*
X125615646Y-98829500D01*
X125575188Y-98835908D01*
X125389753Y-98865278D01*
X125389750Y-98865278D01*
X125172244Y-98935950D01*
X124968461Y-99039783D01*
X124902551Y-99087670D01*
X124783434Y-99174214D01*
X124783432Y-99174216D01*
X124783431Y-99174216D01*
X124621715Y-99335932D01*
X124560318Y-99420438D01*
X124504987Y-99463103D01*
X124435374Y-99469082D01*
X124373579Y-99436476D01*
X124359682Y-99420438D01*
X124348773Y-99405423D01*
X124298286Y-99335934D01*
X124136566Y-99174214D01*
X124017440Y-99087664D01*
X123951533Y-99039779D01*
X123834405Y-98980099D01*
X123783609Y-98932125D01*
X123766700Y-98869615D01*
X123766700Y-96892882D01*
X137775669Y-96892882D01*
X137775670Y-96892883D01*
X137801059Y-96911329D01*
X137969362Y-96997085D01*
X138148997Y-97055451D01*
X138335553Y-97085000D01*
X138524447Y-97085000D01*
X138711002Y-97055451D01*
X138890637Y-96997085D01*
X139058937Y-96911331D01*
X139084328Y-96892883D01*
X139084328Y-96892882D01*
X138430001Y-96238554D01*
X138430000Y-96238554D01*
X137775669Y-96892882D01*
X123766700Y-96892882D01*
X123766700Y-95790552D01*
X137230000Y-95790552D01*
X137230000Y-95979447D01*
X137259548Y-96166002D01*
X137317914Y-96345637D01*
X137403666Y-96513933D01*
X137422116Y-96539328D01*
X138076446Y-95885000D01*
X138076446Y-95884999D01*
X138030369Y-95838922D01*
X138080000Y-95838922D01*
X138080000Y-95931078D01*
X138103852Y-96020095D01*
X138149930Y-96099905D01*
X138215095Y-96165070D01*
X138294905Y-96211148D01*
X138383922Y-96235000D01*
X138476078Y-96235000D01*
X138565095Y-96211148D01*
X138644905Y-96165070D01*
X138710070Y-96099905D01*
X138756148Y-96020095D01*
X138780000Y-95931078D01*
X138780000Y-95884999D01*
X138783554Y-95884999D01*
X138783554Y-95885000D01*
X139437882Y-96539328D01*
X139437883Y-96539328D01*
X139456331Y-96513937D01*
X139542085Y-96345637D01*
X139600451Y-96166002D01*
X139630000Y-95979447D01*
X139630000Y-95790552D01*
X139600451Y-95603997D01*
X139542085Y-95424362D01*
X139456329Y-95256059D01*
X139437883Y-95230670D01*
X139437882Y-95230669D01*
X138783554Y-95884999D01*
X138780000Y-95884999D01*
X138780000Y-95838922D01*
X138756148Y-95749905D01*
X138710070Y-95670095D01*
X138644905Y-95604930D01*
X138565095Y-95558852D01*
X138476078Y-95535000D01*
X138383922Y-95535000D01*
X138294905Y-95558852D01*
X138215095Y-95604930D01*
X138149930Y-95670095D01*
X138103852Y-95749905D01*
X138080000Y-95838922D01*
X138030369Y-95838922D01*
X137422116Y-95230669D01*
X137422116Y-95230670D01*
X137403669Y-95256060D01*
X137317914Y-95424362D01*
X137259548Y-95603997D01*
X137230000Y-95790552D01*
X123766700Y-95790552D01*
X123766700Y-86878303D01*
X124715000Y-86878303D01*
X124715000Y-87692500D01*
X126215000Y-87692500D01*
X126215000Y-88192500D01*
X124715001Y-88192500D01*
X124715001Y-89006697D01*
X124725400Y-89138832D01*
X124780377Y-89357019D01*
X124873428Y-89561874D01*
X124873431Y-89561880D01*
X125001559Y-89746823D01*
X125001569Y-89746835D01*
X125160664Y-89905930D01*
X125160676Y-89905940D01*
X125345619Y-90034068D01*
X125345625Y-90034071D01*
X125550480Y-90127122D01*
X125768667Y-90182099D01*
X125900810Y-90192499D01*
X126464999Y-90192499D01*
X126465000Y-90192498D01*
X126465000Y-89375512D01*
X126522007Y-89408425D01*
X126649174Y-89442500D01*
X126780826Y-89442500D01*
X126907993Y-89408425D01*
X126965000Y-89375512D01*
X126965000Y-90192499D01*
X127529182Y-90192499D01*
X127529197Y-90192498D01*
X127661332Y-90182099D01*
X127879519Y-90127122D01*
X128084374Y-90034071D01*
X128084380Y-90034068D01*
X128269323Y-89905940D01*
X128269335Y-89905930D01*
X128428430Y-89746835D01*
X128428440Y-89746823D01*
X128556568Y-89561880D01*
X128556571Y-89561874D01*
X128649622Y-89357019D01*
X128704599Y-89138832D01*
X128714999Y-89006696D01*
X128715000Y-89006684D01*
X128715000Y-88192500D01*
X127215000Y-88192500D01*
X127215000Y-87692500D01*
X128714999Y-87692500D01*
X128714999Y-86878317D01*
X128714998Y-86878302D01*
X128704599Y-86746167D01*
X128649622Y-86527980D01*
X128556571Y-86323125D01*
X128556568Y-86323119D01*
X128428440Y-86138176D01*
X128428430Y-86138164D01*
X128269335Y-85979069D01*
X128269323Y-85979059D01*
X128084380Y-85850931D01*
X128084374Y-85850928D01*
X127879519Y-85757877D01*
X127661332Y-85702900D01*
X127529196Y-85692500D01*
X126965000Y-85692500D01*
X126965000Y-86509488D01*
X126907993Y-86476575D01*
X126780826Y-86442500D01*
X126649174Y-86442500D01*
X126522007Y-86476575D01*
X126465000Y-86509488D01*
X126465000Y-85692500D01*
X125900817Y-85692500D01*
X125900802Y-85692501D01*
X125768667Y-85702900D01*
X125550480Y-85757877D01*
X125345625Y-85850928D01*
X125345619Y-85850931D01*
X125160676Y-85979059D01*
X125160664Y-85979069D01*
X125001569Y-86138164D01*
X125001559Y-86138176D01*
X124873431Y-86323119D01*
X124873428Y-86323125D01*
X124780377Y-86527980D01*
X124725400Y-86746167D01*
X124715000Y-86878303D01*
X123766700Y-86878303D01*
X123766700Y-80897458D01*
X123786385Y-80830419D01*
X123803019Y-80809777D01*
X123989777Y-80623019D01*
X124051100Y-80589534D01*
X124077458Y-80586700D01*
X127075922Y-80586700D01*
X127075924Y-80586700D01*
X127222598Y-80547399D01*
X127354102Y-80471475D01*
X128096475Y-79729102D01*
X128172399Y-79597598D01*
X128211700Y-79450924D01*
X128211700Y-79299076D01*
X128211700Y-77189499D01*
X128231385Y-77122460D01*
X128284189Y-77076705D01*
X128335700Y-77065499D01*
X128635371Y-77065499D01*
X128635372Y-77065499D01*
X128694983Y-77059091D01*
X128829831Y-77008796D01*
X128945046Y-76922546D01*
X129031296Y-76807331D01*
X129081591Y-76672483D01*
X129088000Y-76612873D01*
X129088000Y-76265700D01*
X129107685Y-76198661D01*
X129160489Y-76152906D01*
X129212000Y-76141700D01*
X129615922Y-76141700D01*
X129615924Y-76141700D01*
X129762598Y-76102399D01*
X129894102Y-76026475D01*
X130763475Y-75157102D01*
X130839399Y-75025598D01*
X130878700Y-74878924D01*
X130878700Y-74727076D01*
X130878700Y-71091728D01*
X130898385Y-71024689D01*
X130946405Y-70981243D01*
X130983610Y-70962287D01*
X131149219Y-70841966D01*
X131293966Y-70697219D01*
X131414287Y-70531610D01*
X131433243Y-70494405D01*
X131481217Y-70443609D01*
X131543728Y-70426700D01*
X137504761Y-70426700D01*
X137571800Y-70446385D01*
X137592442Y-70463019D01*
X137976981Y-70847558D01*
X138010466Y-70908881D01*
X138013300Y-70935239D01*
X138013300Y-74325500D01*
X138011533Y-74331514D01*
X138012701Y-74337675D01*
X138001806Y-74364641D01*
X137993615Y-74392539D01*
X137988877Y-74396643D01*
X137986529Y-74402458D01*
X137962782Y-74419255D01*
X137940811Y-74438294D01*
X137933314Y-74440100D01*
X137929488Y-74442807D01*
X137905493Y-74446803D01*
X137894811Y-74449377D01*
X137892033Y-74449500D01*
X137792128Y-74449501D01*
X137732517Y-74455909D01*
X137730422Y-74456690D01*
X137717701Y-74457256D01*
X137687401Y-74449804D01*
X137656683Y-74444262D01*
X137652450Y-74441209D01*
X137649853Y-74440571D01*
X137646159Y-74436673D01*
X137624509Y-74421060D01*
X137532654Y-74329205D01*
X137532649Y-74329201D01*
X137328848Y-74181132D01*
X137328847Y-74181131D01*
X137328845Y-74181130D01*
X137258747Y-74145413D01*
X137104383Y-74066760D01*
X136864785Y-73988910D01*
X136615962Y-73949500D01*
X136364038Y-73949500D01*
X136239626Y-73969205D01*
X136115214Y-73988910D01*
X135875616Y-74066760D01*
X135651151Y-74181132D01*
X135447350Y-74329201D01*
X135447345Y-74329205D01*
X135269205Y-74507345D01*
X135269201Y-74507350D01*
X135121132Y-74711151D01*
X135006760Y-74935616D01*
X134928910Y-75175214D01*
X134928910Y-75175215D01*
X134889500Y-75424038D01*
X134889500Y-76975962D01*
X134903681Y-77065498D01*
X134928910Y-77224785D01*
X135006760Y-77464383D01*
X135038999Y-77527654D01*
X135103286Y-77653825D01*
X135121132Y-77688848D01*
X135269201Y-77892649D01*
X135269205Y-77892654D01*
X135447345Y-78070794D01*
X135447350Y-78070798D01*
X135625117Y-78199952D01*
X135651155Y-78218870D01*
X135794184Y-78291747D01*
X135875616Y-78333239D01*
X135875618Y-78333239D01*
X135875621Y-78333241D01*
X136115215Y-78411090D01*
X136364038Y-78450500D01*
X136364039Y-78450500D01*
X136615961Y-78450500D01*
X136615962Y-78450500D01*
X136864785Y-78411090D01*
X137055982Y-78348965D01*
X137125823Y-78346971D01*
X137185656Y-78383051D01*
X137216484Y-78445752D01*
X137218300Y-78466897D01*
X137218300Y-80786915D01*
X137198615Y-80853954D01*
X137167186Y-80887233D01*
X137012925Y-80999311D01*
X136879312Y-81132924D01*
X136879312Y-81132925D01*
X136879310Y-81132927D01*
X136831610Y-81198579D01*
X136768240Y-81285800D01*
X136682454Y-81454163D01*
X136624059Y-81633881D01*
X136594500Y-81820513D01*
X136594500Y-82009486D01*
X136624059Y-82196118D01*
X136682454Y-82375836D01*
X136768240Y-82544199D01*
X136879310Y-82697073D01*
X137012927Y-82830690D01*
X137165801Y-82941760D01*
X137269102Y-82994394D01*
X137297404Y-83008815D01*
X137348200Y-83056790D01*
X137364995Y-83124611D01*
X137342458Y-83190745D01*
X137287743Y-83234197D01*
X137241109Y-83243300D01*
X133298924Y-83243300D01*
X133147075Y-83243300D01*
X133012425Y-83279379D01*
X133000398Y-83282602D01*
X132868901Y-83358522D01*
X132868895Y-83358527D01*
X132253527Y-83973895D01*
X132253522Y-83973901D01*
X132177602Y-84105398D01*
X132177602Y-84105399D01*
X132138300Y-84252076D01*
X132138300Y-85568000D01*
X132118615Y-85635039D01*
X132065811Y-85680794D01*
X132014300Y-85692000D01*
X130917129Y-85692000D01*
X130917123Y-85692001D01*
X130857516Y-85698408D01*
X130722671Y-85748702D01*
X130722664Y-85748706D01*
X130607455Y-85834952D01*
X130607452Y-85834955D01*
X130521206Y-85950164D01*
X130521202Y-85950171D01*
X130470908Y-86085017D01*
X130464501Y-86144616D01*
X130464501Y-86144623D01*
X130464500Y-86144635D01*
X130464500Y-89740370D01*
X130464501Y-89740376D01*
X130470908Y-89799983D01*
X130521202Y-89934828D01*
X130521206Y-89934835D01*
X130607452Y-90050044D01*
X130607455Y-90050047D01*
X130722664Y-90136293D01*
X130722673Y-90136298D01*
X130771506Y-90154511D01*
X130827440Y-90196381D01*
X130851858Y-90261845D01*
X130837007Y-90330118D01*
X130787603Y-90379524D01*
X130721598Y-90394518D01*
X130683625Y-90392501D01*
X130683579Y-90392500D01*
X129965000Y-90392500D01*
X129965000Y-92142500D01*
X129465000Y-92142500D01*
X129465000Y-90392500D01*
X128746423Y-90392500D01*
X128746411Y-90392501D01*
X128693808Y-90395294D01*
X128464012Y-90439737D01*
X128245024Y-90522379D01*
X128043158Y-90640839D01*
X128043151Y-90640844D01*
X127864213Y-90791711D01*
X127864211Y-90791713D01*
X127713344Y-90970651D01*
X127713339Y-90970658D01*
X127594879Y-91172524D01*
X127512237Y-91391512D01*
X127467794Y-91621308D01*
X127467794Y-91621309D01*
X127465001Y-91673882D01*
X127465000Y-91673921D01*
X127465000Y-92392500D01*
X128281988Y-92392500D01*
X128249075Y-92449507D01*
X128215000Y-92576674D01*
X128215000Y-92708326D01*
X128249075Y-92835493D01*
X128281988Y-92892500D01*
X127465001Y-92892500D01*
X127465001Y-93611088D01*
X127467794Y-93663691D01*
X127512237Y-93893487D01*
X127594879Y-94112475D01*
X127713339Y-94314341D01*
X127713344Y-94314348D01*
X127864211Y-94493286D01*
X127864213Y-94493288D01*
X128043151Y-94644155D01*
X128043158Y-94644160D01*
X128245024Y-94762620D01*
X128464012Y-94845262D01*
X128693809Y-94889705D01*
X128746382Y-94892498D01*
X128746421Y-94892499D01*
X129464999Y-94892499D01*
X129465000Y-94892498D01*
X129465000Y-93142500D01*
X129965000Y-93142500D01*
X129965000Y-94892499D01*
X130683576Y-94892499D01*
X130683588Y-94892498D01*
X130736191Y-94889705D01*
X130801283Y-94877116D01*
X137775669Y-94877116D01*
X138430000Y-95531446D01*
X138430001Y-95531446D01*
X139084328Y-94877116D01*
X139058933Y-94858666D01*
X138890637Y-94772914D01*
X138711002Y-94714548D01*
X138524447Y-94685000D01*
X138335553Y-94685000D01*
X138148997Y-94714548D01*
X137969362Y-94772914D01*
X137801060Y-94858669D01*
X137775670Y-94877116D01*
X137775669Y-94877116D01*
X130801283Y-94877116D01*
X130965987Y-94845262D01*
X131063770Y-94808361D01*
X131184975Y-94762620D01*
X131386841Y-94644160D01*
X131386848Y-94644155D01*
X131565786Y-94493288D01*
X131565788Y-94493286D01*
X131716655Y-94314348D01*
X131716660Y-94314341D01*
X131835120Y-94112475D01*
X131917762Y-93893487D01*
X131962205Y-93663691D01*
X131962205Y-93663690D01*
X131964998Y-93611117D01*
X131965000Y-93611078D01*
X131965000Y-92892500D01*
X131148012Y-92892500D01*
X131180925Y-92835493D01*
X131215000Y-92708326D01*
X131215000Y-92576674D01*
X131180925Y-92449507D01*
X131148012Y-92392500D01*
X131964999Y-92392500D01*
X131964999Y-91673923D01*
X131964998Y-91673911D01*
X131962205Y-91621308D01*
X131917762Y-91391512D01*
X131835120Y-91172524D01*
X131716660Y-90970658D01*
X131716655Y-90970651D01*
X131565788Y-90791713D01*
X131565786Y-90791711D01*
X131386848Y-90640844D01*
X131386841Y-90640839D01*
X131184975Y-90522379D01*
X130965984Y-90439736D01*
X130960840Y-90438741D01*
X130898760Y-90406680D01*
X130863869Y-90346146D01*
X130867244Y-90276358D01*
X130907814Y-90219473D01*
X130972697Y-90193552D01*
X130984374Y-90192999D01*
X134512872Y-90192999D01*
X134572483Y-90186591D01*
X134707331Y-90136296D01*
X134822546Y-90050046D01*
X134908796Y-89934831D01*
X134959091Y-89799983D01*
X134965500Y-89740373D01*
X134965499Y-87317155D01*
X137665000Y-87317155D01*
X137665000Y-88015000D01*
X138689722Y-88015000D01*
X138645667Y-88091306D01*
X138615000Y-88205756D01*
X138615000Y-88324244D01*
X138645667Y-88438694D01*
X138689722Y-88515000D01*
X137665000Y-88515000D01*
X137665000Y-89212844D01*
X137671401Y-89272372D01*
X137671403Y-89272379D01*
X137721645Y-89407086D01*
X137721649Y-89407093D01*
X137807809Y-89522187D01*
X137807812Y-89522190D01*
X137922906Y-89608350D01*
X137922913Y-89608354D01*
X138057620Y-89658596D01*
X138057627Y-89658598D01*
X138117155Y-89664999D01*
X138117172Y-89665000D01*
X138815000Y-89665000D01*
X138815000Y-88640277D01*
X138891306Y-88684333D01*
X139005756Y-88715000D01*
X139124244Y-88715000D01*
X139238694Y-88684333D01*
X139315000Y-88640277D01*
X139315000Y-89665000D01*
X140012828Y-89665000D01*
X140012844Y-89664999D01*
X140072372Y-89658598D01*
X140072379Y-89658596D01*
X140207086Y-89608354D01*
X140207093Y-89608350D01*
X140322187Y-89522190D01*
X140322190Y-89522187D01*
X140408350Y-89407093D01*
X140408354Y-89407086D01*
X140438213Y-89327031D01*
X140480084Y-89271097D01*
X140545548Y-89246680D01*
X140613821Y-89261531D01*
X140642076Y-89282683D01*
X140692636Y-89333243D01*
X140692641Y-89333247D01*
X140796116Y-89408425D01*
X140870978Y-89462815D01*
X140987501Y-89522187D01*
X141067393Y-89562895D01*
X141067396Y-89562896D01*
X141172221Y-89596955D01*
X141277049Y-89631015D01*
X141494778Y-89665500D01*
X141494779Y-89665500D01*
X141715221Y-89665500D01*
X141715222Y-89665500D01*
X141932951Y-89631015D01*
X142142606Y-89562895D01*
X142339022Y-89462815D01*
X142517365Y-89333242D01*
X142673242Y-89177365D01*
X142802815Y-88999022D01*
X142854948Y-88896704D01*
X142902923Y-88845909D01*
X142965433Y-88829000D01*
X145276830Y-88829000D01*
X145276832Y-88829000D01*
X145420275Y-88790565D01*
X145548883Y-88716313D01*
X145653892Y-88611304D01*
X145653892Y-88611302D01*
X145664096Y-88601099D01*
X145664100Y-88601094D01*
X146386094Y-87879100D01*
X146386099Y-87879096D01*
X146396302Y-87868892D01*
X146396304Y-87868892D01*
X146501313Y-87763883D01*
X146575565Y-87635275D01*
X146614000Y-87491831D01*
X146614000Y-82634255D01*
X146614001Y-82634242D01*
X146614001Y-82475750D01*
X146614001Y-82475748D01*
X146575565Y-82332304D01*
X146575563Y-82332301D01*
X146575563Y-82332299D01*
X146574088Y-82328738D01*
X146573738Y-82325490D01*
X146573461Y-82324454D01*
X146573622Y-82324410D01*
X146566618Y-82259269D01*
X146570715Y-82242973D01*
X146585940Y-82196118D01*
X146599077Y-82113168D01*
X146615500Y-82009486D01*
X146615500Y-81820513D01*
X146585940Y-81633881D01*
X146527545Y-81454163D01*
X146441759Y-81285800D01*
X146330690Y-81132927D01*
X146197073Y-80999310D01*
X146044199Y-80888240D01*
X146042223Y-80887233D01*
X145875836Y-80802454D01*
X145696118Y-80744059D01*
X145509486Y-80714500D01*
X145509481Y-80714500D01*
X145320519Y-80714500D01*
X145320514Y-80714500D01*
X145133881Y-80744059D01*
X144954163Y-80802454D01*
X144785800Y-80888240D01*
X144698579Y-80951610D01*
X144632927Y-80999310D01*
X144632925Y-80999312D01*
X144632924Y-80999312D01*
X144499312Y-81132924D01*
X144499312Y-81132925D01*
X144499310Y-81132927D01*
X144451610Y-81198579D01*
X144388240Y-81285800D01*
X144302454Y-81454163D01*
X144244059Y-81633881D01*
X144214500Y-81820513D01*
X144214500Y-82009486D01*
X144244059Y-82196118D01*
X144302454Y-82375836D01*
X144388240Y-82544199D01*
X144499310Y-82697073D01*
X144632927Y-82830690D01*
X144785801Y-82941760D01*
X144865347Y-82982290D01*
X144954163Y-83027545D01*
X144954165Y-83027545D01*
X144954168Y-83027547D01*
X145044168Y-83056790D01*
X145133881Y-83085940D01*
X145320514Y-83115500D01*
X145320519Y-83115500D01*
X145362000Y-83115500D01*
X145429039Y-83135185D01*
X145474794Y-83187989D01*
X145486000Y-83239500D01*
X145486000Y-87132601D01*
X145466315Y-87199640D01*
X145449681Y-87220282D01*
X145005282Y-87664681D01*
X144943959Y-87698166D01*
X144917601Y-87701000D01*
X142965433Y-87701000D01*
X142898394Y-87681315D01*
X142854948Y-87633295D01*
X142802815Y-87530978D01*
X142774373Y-87491831D01*
X142673247Y-87352641D01*
X142673243Y-87352636D01*
X142517363Y-87196756D01*
X142517358Y-87196752D01*
X142339025Y-87067187D01*
X142339024Y-87067186D01*
X142339022Y-87067185D01*
X142276096Y-87035122D01*
X142142606Y-86967104D01*
X142142603Y-86967103D01*
X141932952Y-86898985D01*
X141792085Y-86876674D01*
X141715222Y-86864500D01*
X141494778Y-86864500D01*
X141422201Y-86875995D01*
X141277047Y-86898985D01*
X141067396Y-86967103D01*
X141067393Y-86967104D01*
X140870974Y-87067187D01*
X140692641Y-87196752D01*
X140692636Y-87196756D01*
X140642075Y-87247317D01*
X140580752Y-87280801D01*
X140511060Y-87275816D01*
X140455127Y-87233945D01*
X140438213Y-87202968D01*
X140408354Y-87122913D01*
X140408350Y-87122906D01*
X140322190Y-87007812D01*
X140322187Y-87007809D01*
X140207093Y-86921649D01*
X140207086Y-86921645D01*
X140072379Y-86871403D01*
X140072372Y-86871401D01*
X140012844Y-86865000D01*
X139315000Y-86865000D01*
X139315000Y-87889722D01*
X139238694Y-87845667D01*
X139124244Y-87815000D01*
X139005756Y-87815000D01*
X138891306Y-87845667D01*
X138815000Y-87889722D01*
X138815000Y-86865000D01*
X138117155Y-86865000D01*
X138057627Y-86871401D01*
X138057620Y-86871403D01*
X137922913Y-86921645D01*
X137922906Y-86921649D01*
X137807812Y-87007809D01*
X137807809Y-87007812D01*
X137721649Y-87122906D01*
X137721645Y-87122913D01*
X137671403Y-87257620D01*
X137671401Y-87257627D01*
X137665000Y-87317155D01*
X134965499Y-87317155D01*
X134965499Y-86144628D01*
X134959091Y-86085017D01*
X134919571Y-85979059D01*
X134908797Y-85950171D01*
X134908793Y-85950164D01*
X134822547Y-85834955D01*
X134822544Y-85834952D01*
X134707335Y-85748706D01*
X134707328Y-85748702D01*
X134572482Y-85698408D01*
X134572483Y-85698408D01*
X134512883Y-85692001D01*
X134512881Y-85692000D01*
X134512873Y-85692000D01*
X134512865Y-85692000D01*
X133415700Y-85692000D01*
X133348661Y-85672315D01*
X133302906Y-85619511D01*
X133291700Y-85568000D01*
X133291700Y-84618239D01*
X133300344Y-84588798D01*
X133306868Y-84558812D01*
X133310622Y-84553796D01*
X133311385Y-84551200D01*
X133328019Y-84530558D01*
X133425558Y-84433019D01*
X133486881Y-84399534D01*
X133513239Y-84396700D01*
X140410922Y-84396700D01*
X140410924Y-84396700D01*
X140557598Y-84357399D01*
X140689102Y-84281475D01*
X141051475Y-83919102D01*
X141127399Y-83787598D01*
X141166700Y-83640925D01*
X141166700Y-83489076D01*
X141166700Y-77885612D01*
X141186385Y-77818574D01*
X141234412Y-77775125D01*
X141245402Y-77769526D01*
X141265738Y-77754751D01*
X141404646Y-77653828D01*
X141502319Y-77556155D01*
X141563642Y-77522670D01*
X141633334Y-77527654D01*
X141677681Y-77556155D01*
X141775354Y-77653828D01*
X141934595Y-77769524D01*
X141994938Y-77800270D01*
X142109970Y-77858882D01*
X142109972Y-77858882D01*
X142109975Y-77858884D01*
X142192235Y-77885612D01*
X142297173Y-77919709D01*
X142491578Y-77950500D01*
X142491583Y-77950500D01*
X142688422Y-77950500D01*
X142882826Y-77919709D01*
X142962574Y-77893797D01*
X143070025Y-77858884D01*
X143245405Y-77769524D01*
X143245409Y-77769520D01*
X143249087Y-77767647D01*
X143317756Y-77754751D01*
X143382497Y-77781027D01*
X143405699Y-77805245D01*
X143469207Y-77892656D01*
X143469209Y-77892658D01*
X143647345Y-78070794D01*
X143647350Y-78070798D01*
X143825117Y-78199952D01*
X143851155Y-78218870D01*
X143994184Y-78291747D01*
X144075616Y-78333239D01*
X144075618Y-78333239D01*
X144075621Y-78333241D01*
X144315215Y-78411090D01*
X144564038Y-78450500D01*
X144564039Y-78450500D01*
X144815961Y-78450500D01*
X144815962Y-78450500D01*
X145064785Y-78411090D01*
X145304379Y-78333241D01*
X145528845Y-78218870D01*
X145732656Y-78070793D01*
X145910793Y-77892656D01*
X146058870Y-77688845D01*
X146173241Y-77464379D01*
X146251090Y-77224785D01*
X146290500Y-76975962D01*
X146290500Y-75424038D01*
X146251090Y-75175215D01*
X146173241Y-74935621D01*
X146173239Y-74935618D01*
X146173239Y-74935616D01*
X146081700Y-74755962D01*
X146058870Y-74711155D01*
X146030351Y-74671902D01*
X145910798Y-74507350D01*
X145910794Y-74507345D01*
X145732654Y-74329205D01*
X145732649Y-74329201D01*
X145528848Y-74181132D01*
X145528847Y-74181131D01*
X145528845Y-74181130D01*
X145458747Y-74145413D01*
X145304383Y-74066760D01*
X145064785Y-73988910D01*
X144815962Y-73949500D01*
X144564038Y-73949500D01*
X144439626Y-73969205D01*
X144315214Y-73988910D01*
X144075616Y-74066760D01*
X143851151Y-74181132D01*
X143647350Y-74329201D01*
X143647345Y-74329205D01*
X143469209Y-74507341D01*
X143469202Y-74507350D01*
X143405699Y-74594753D01*
X143350369Y-74637419D01*
X143280756Y-74643397D01*
X143249087Y-74632352D01*
X143070029Y-74541117D01*
X142882826Y-74480290D01*
X142688422Y-74449500D01*
X142688417Y-74449500D01*
X142491583Y-74449500D01*
X142491578Y-74449500D01*
X142297173Y-74480290D01*
X142109970Y-74541117D01*
X141934594Y-74630476D01*
X141877577Y-74671902D01*
X141775354Y-74746172D01*
X141775352Y-74746174D01*
X141775351Y-74746174D01*
X141677681Y-74843845D01*
X141616358Y-74877330D01*
X141546666Y-74872346D01*
X141502319Y-74843845D01*
X141404648Y-74746174D01*
X141404646Y-74746172D01*
X141245405Y-74630476D01*
X141186460Y-74600442D01*
X141070029Y-74541117D01*
X140882826Y-74480290D01*
X140688422Y-74449500D01*
X140688417Y-74449500D01*
X140491583Y-74449500D01*
X140491578Y-74449500D01*
X140297173Y-74480290D01*
X140109970Y-74541117D01*
X139934595Y-74630475D01*
X139898385Y-74656784D01*
X139832578Y-74680263D01*
X139764524Y-74664437D01*
X139726235Y-74630778D01*
X139697546Y-74592454D01*
X139697544Y-74592452D01*
X139697543Y-74592451D01*
X139582335Y-74506206D01*
X139582328Y-74506202D01*
X139447482Y-74455908D01*
X139447483Y-74455908D01*
X139387883Y-74449501D01*
X139387881Y-74449500D01*
X139387873Y-74449500D01*
X139387865Y-74449500D01*
X139290700Y-74449500D01*
X139223661Y-74429815D01*
X139177906Y-74377011D01*
X139166700Y-74325500D01*
X139166700Y-70569078D01*
X139166700Y-70569076D01*
X139127399Y-70422402D01*
X139051475Y-70290898D01*
X138944102Y-70183525D01*
X138149102Y-69388525D01*
X138149100Y-69388524D01*
X138149098Y-69388522D01*
X138017600Y-69312602D01*
X138017599Y-69312601D01*
X138017598Y-69312601D01*
X137870924Y-69273300D01*
X137870923Y-69273300D01*
X131543728Y-69273300D01*
X131476689Y-69253615D01*
X131433243Y-69205594D01*
X131414416Y-69168644D01*
X131414287Y-69168390D01*
X131293966Y-69002781D01*
X131149219Y-68858034D01*
X131149213Y-68858028D01*
X130983613Y-68737715D01*
X130983612Y-68737714D01*
X130983610Y-68737713D01*
X130926653Y-68708691D01*
X130801223Y-68644781D01*
X130606534Y-68581522D01*
X130431995Y-68553878D01*
X130404352Y-68549500D01*
X130199648Y-68549500D01*
X130175329Y-68553351D01*
X129997465Y-68581522D01*
X129802776Y-68644781D01*
X129620386Y-68737715D01*
X129454786Y-68858028D01*
X129310028Y-69002786D01*
X129189714Y-69168386D01*
X129162203Y-69222379D01*
X129114227Y-69273174D01*
X129046406Y-69289968D01*
X128980272Y-69267429D01*
X128941234Y-69222376D01*
X128913861Y-69168652D01*
X128881474Y-69124077D01*
X128881474Y-69124076D01*
X128202000Y-69803551D01*
X128202000Y-69797339D01*
X128174741Y-69695606D01*
X128122080Y-69604394D01*
X128047606Y-69529920D01*
X127956394Y-69477259D01*
X127854661Y-69450000D01*
X127848446Y-69450000D01*
X128527922Y-68770524D01*
X128527921Y-68770523D01*
X128483359Y-68738147D01*
X128483350Y-68738141D01*
X128301031Y-68645244D01*
X128106417Y-68582009D01*
X127904317Y-68550000D01*
X127699683Y-68550000D01*
X127497582Y-68582009D01*
X127302968Y-68645244D01*
X127120644Y-68738143D01*
X127076077Y-68770523D01*
X127076077Y-68770524D01*
X127755554Y-69450000D01*
X127749339Y-69450000D01*
X127647606Y-69477259D01*
X127556394Y-69529920D01*
X127481920Y-69604394D01*
X127429259Y-69695606D01*
X127402000Y-69797339D01*
X127402000Y-69803553D01*
X126722524Y-69124077D01*
X126722523Y-69124077D01*
X126690143Y-69168644D01*
X126597244Y-69350968D01*
X126546431Y-69507354D01*
X126506993Y-69565029D01*
X126442634Y-69592227D01*
X126373788Y-69580312D01*
X126322312Y-69533067D01*
X126310569Y-69507354D01*
X126259755Y-69350968D01*
X126166859Y-69168650D01*
X126134474Y-69124077D01*
X126134474Y-69124076D01*
X125455000Y-69803551D01*
X125455000Y-69797339D01*
X125427741Y-69695606D01*
X125375080Y-69604394D01*
X125300606Y-69529920D01*
X125209394Y-69477259D01*
X125107661Y-69450000D01*
X125101446Y-69450000D01*
X125780922Y-68770524D01*
X125780921Y-68770523D01*
X125736359Y-68738147D01*
X125736350Y-68738141D01*
X125554031Y-68645244D01*
X125359417Y-68582009D01*
X125157317Y-68550000D01*
X124952683Y-68550000D01*
X124750582Y-68582009D01*
X124555968Y-68645244D01*
X124373644Y-68738143D01*
X124329077Y-68770523D01*
X124329077Y-68770524D01*
X125008554Y-69450000D01*
X125002339Y-69450000D01*
X124900606Y-69477259D01*
X124809394Y-69529920D01*
X124734920Y-69604394D01*
X124682259Y-69695606D01*
X124655000Y-69797339D01*
X124655000Y-69803553D01*
X123975524Y-69124077D01*
X123975523Y-69124077D01*
X123943143Y-69168644D01*
X123915765Y-69222378D01*
X123867790Y-69273174D01*
X123799969Y-69289969D01*
X123733834Y-69267431D01*
X123694795Y-69222378D01*
X123667416Y-69168644D01*
X123667287Y-69168390D01*
X123667285Y-69168387D01*
X123667284Y-69168385D01*
X123546971Y-69002786D01*
X123402213Y-68858028D01*
X123236610Y-68737712D01*
X123236607Y-68737710D01*
X123199403Y-68718753D01*
X123148608Y-68670778D01*
X123131700Y-68608270D01*
X123131700Y-67191995D01*
X137264500Y-67191995D01*
X137264500Y-67428004D01*
X137264501Y-67428020D01*
X137295306Y-67662010D01*
X137356394Y-67889993D01*
X137446714Y-68108045D01*
X137446719Y-68108056D01*
X137511948Y-68221034D01*
X137564727Y-68312450D01*
X137564729Y-68312453D01*
X137564730Y-68312454D01*
X137708406Y-68499697D01*
X137708412Y-68499704D01*
X137875295Y-68666587D01*
X137875302Y-68666593D01*
X137967988Y-68737713D01*
X138062550Y-68810273D01*
X138193918Y-68886118D01*
X138266943Y-68928280D01*
X138266948Y-68928282D01*
X138266951Y-68928284D01*
X138485007Y-69018606D01*
X138712986Y-69079693D01*
X138946989Y-69110500D01*
X138946996Y-69110500D01*
X139183004Y-69110500D01*
X139183011Y-69110500D01*
X139417014Y-69079693D01*
X139644993Y-69018606D01*
X139863049Y-68928284D01*
X140067450Y-68810273D01*
X140254699Y-68666592D01*
X140421592Y-68499699D01*
X140565273Y-68312450D01*
X140683284Y-68108049D01*
X140773606Y-67889993D01*
X140834693Y-67662014D01*
X140865500Y-67428011D01*
X140865500Y-67191989D01*
X140834693Y-66957986D01*
X140773606Y-66730007D01*
X140683284Y-66511951D01*
X140683282Y-66511948D01*
X140683280Y-66511943D01*
X140598971Y-66365917D01*
X140565273Y-66307550D01*
X140561684Y-66302873D01*
X140545936Y-66282349D01*
X140545935Y-66282348D01*
X140490431Y-66210013D01*
X142345000Y-66210013D01*
X142345000Y-67060000D01*
X143544999Y-67060000D01*
X143519979Y-67120402D01*
X143495000Y-67245981D01*
X143495000Y-67374019D01*
X143519979Y-67499598D01*
X143544999Y-67560000D01*
X142345001Y-67560000D01*
X142345001Y-68409986D01*
X142355494Y-68512697D01*
X142410641Y-68679119D01*
X142410643Y-68679124D01*
X142502684Y-68828345D01*
X142626654Y-68952315D01*
X142775875Y-69044356D01*
X142775880Y-69044358D01*
X142942302Y-69099505D01*
X142942309Y-69099506D01*
X143045019Y-69109999D01*
X143894999Y-69109999D01*
X143895000Y-69109998D01*
X143895000Y-67910001D01*
X143955402Y-67935021D01*
X144080981Y-67960000D01*
X144209019Y-67960000D01*
X144334598Y-67935021D01*
X144395000Y-67910001D01*
X144395000Y-69109999D01*
X145244972Y-69109999D01*
X145244986Y-69109998D01*
X145347697Y-69099505D01*
X145514119Y-69044358D01*
X145514124Y-69044356D01*
X145663345Y-68952315D01*
X145787315Y-68828345D01*
X145879356Y-68679124D01*
X145879358Y-68679119D01*
X145934505Y-68512697D01*
X145934506Y-68512690D01*
X145944999Y-68409986D01*
X145945000Y-68409973D01*
X145945000Y-67560000D01*
X144745001Y-67560000D01*
X144770021Y-67499598D01*
X144795000Y-67374019D01*
X144795000Y-67245981D01*
X144770021Y-67120402D01*
X144745001Y-67060000D01*
X145944999Y-67060000D01*
X145944999Y-66462113D01*
X149144500Y-66462113D01*
X149144500Y-66674686D01*
X149156284Y-66749091D01*
X149177754Y-66884643D01*
X149234731Y-67060000D01*
X149243444Y-67086814D01*
X149339951Y-67276220D01*
X149464890Y-67448186D01*
X149615213Y-67598509D01*
X149787179Y-67723448D01*
X149787181Y-67723449D01*
X149787184Y-67723451D01*
X149976588Y-67819957D01*
X150178757Y-67885646D01*
X150388713Y-67918900D01*
X150388714Y-67918900D01*
X150601286Y-67918900D01*
X150601287Y-67918900D01*
X150811243Y-67885646D01*
X151013412Y-67819957D01*
X151202816Y-67723451D01*
X151224789Y-67707486D01*
X151374786Y-67598509D01*
X151374788Y-67598506D01*
X151374792Y-67598504D01*
X151525104Y-67448192D01*
X151525106Y-67448188D01*
X151525109Y-67448186D01*
X151650048Y-67276220D01*
X151650047Y-67276220D01*
X151650051Y-67276216D01*
X151746557Y-67086812D01*
X151812246Y-66884643D01*
X151845500Y-66674687D01*
X151845500Y-66462113D01*
X151812246Y-66252157D01*
X151746557Y-66049988D01*
X151650051Y-65860584D01*
X151650049Y-65860581D01*
X151650048Y-65860579D01*
X151525109Y-65688613D01*
X151411181Y-65574685D01*
X151377696Y-65513362D01*
X151382680Y-65443670D01*
X151424552Y-65387737D01*
X151455529Y-65370822D01*
X151587086Y-65321754D01*
X151587093Y-65321750D01*
X151702187Y-65235590D01*
X151702190Y-65235587D01*
X151788350Y-65120493D01*
X151788354Y-65120486D01*
X151838596Y-64985779D01*
X151838598Y-64985772D01*
X151844999Y-64926244D01*
X151845000Y-64926227D01*
X151845000Y-64278400D01*
X150928012Y-64278400D01*
X150960925Y-64221393D01*
X150995000Y-64094226D01*
X150995000Y-63962574D01*
X150960925Y-63835407D01*
X150928012Y-63778400D01*
X151845000Y-63778400D01*
X151845000Y-63130572D01*
X151844999Y-63130555D01*
X151838598Y-63071027D01*
X151838596Y-63071020D01*
X151788354Y-62936313D01*
X151788350Y-62936306D01*
X151702190Y-62821212D01*
X151702187Y-62821209D01*
X151587093Y-62735049D01*
X151587086Y-62735045D01*
X151452379Y-62684803D01*
X151452372Y-62684801D01*
X151392844Y-62678400D01*
X150745000Y-62678400D01*
X150745000Y-63595388D01*
X150687993Y-63562475D01*
X150560826Y-63528400D01*
X150429174Y-63528400D01*
X150302007Y-63562475D01*
X150245000Y-63595388D01*
X150245000Y-62678400D01*
X149597155Y-62678400D01*
X149537627Y-62684801D01*
X149537620Y-62684803D01*
X149402913Y-62735045D01*
X149402906Y-62735049D01*
X149287812Y-62821209D01*
X149287809Y-62821212D01*
X149201649Y-62936306D01*
X149201645Y-62936313D01*
X149151403Y-63071020D01*
X149151401Y-63071027D01*
X149145000Y-63130555D01*
X149145000Y-63778400D01*
X150061988Y-63778400D01*
X150029075Y-63835407D01*
X149995000Y-63962574D01*
X149995000Y-64094226D01*
X150029075Y-64221393D01*
X150061988Y-64278400D01*
X149145000Y-64278400D01*
X149145000Y-64926244D01*
X149151401Y-64985772D01*
X149151403Y-64985779D01*
X149201645Y-65120486D01*
X149201649Y-65120493D01*
X149287809Y-65235587D01*
X149287812Y-65235590D01*
X149402906Y-65321750D01*
X149402913Y-65321754D01*
X149534470Y-65370822D01*
X149590404Y-65412693D01*
X149614821Y-65478158D01*
X149599969Y-65546431D01*
X149578819Y-65574685D01*
X149464889Y-65688615D01*
X149339951Y-65860579D01*
X149243444Y-66049985D01*
X149177753Y-66252160D01*
X149144500Y-66462113D01*
X145944999Y-66462113D01*
X145944999Y-66210028D01*
X145944998Y-66210013D01*
X145934505Y-66107302D01*
X145879358Y-65940880D01*
X145879356Y-65940875D01*
X145787315Y-65791654D01*
X145663345Y-65667684D01*
X145514124Y-65575643D01*
X145514119Y-65575641D01*
X145347697Y-65520494D01*
X145347690Y-65520493D01*
X145244986Y-65510000D01*
X144395000Y-65510000D01*
X144395000Y-66709998D01*
X144334598Y-66684979D01*
X144209019Y-66660000D01*
X144080981Y-66660000D01*
X143955402Y-66684979D01*
X143895000Y-66709998D01*
X143895000Y-65510000D01*
X143045028Y-65510000D01*
X143045012Y-65510001D01*
X142942302Y-65520494D01*
X142775880Y-65575641D01*
X142775875Y-65575643D01*
X142626654Y-65667684D01*
X142502684Y-65791654D01*
X142410643Y-65940875D01*
X142410641Y-65940880D01*
X142355494Y-66107302D01*
X142355493Y-66107309D01*
X142345000Y-66210013D01*
X140490431Y-66210013D01*
X140421593Y-66120302D01*
X140421587Y-66120295D01*
X140254704Y-65953412D01*
X140254697Y-65953406D01*
X140067454Y-65809730D01*
X140067453Y-65809729D01*
X140067450Y-65809727D01*
X139985957Y-65762677D01*
X139863056Y-65691719D01*
X139863045Y-65691714D01*
X139644993Y-65601394D01*
X139417010Y-65540306D01*
X139183020Y-65509501D01*
X139183017Y-65509500D01*
X139183011Y-65509500D01*
X138946989Y-65509500D01*
X138946983Y-65509500D01*
X138946979Y-65509501D01*
X138712989Y-65540306D01*
X138485006Y-65601394D01*
X138266954Y-65691714D01*
X138266943Y-65691719D01*
X138062545Y-65809730D01*
X137875302Y-65953406D01*
X137875295Y-65953412D01*
X137708412Y-66120295D01*
X137708406Y-66120302D01*
X137564730Y-66307545D01*
X137446719Y-66511943D01*
X137446714Y-66511954D01*
X137356394Y-66730006D01*
X137295306Y-66957989D01*
X137264501Y-67191979D01*
X137264500Y-67191995D01*
X123131700Y-67191995D01*
X123131700Y-66330239D01*
X123151385Y-66263200D01*
X123168019Y-66242558D01*
X123392558Y-66018019D01*
X123453881Y-65984534D01*
X123480239Y-65981700D01*
X126337155Y-65981700D01*
X126404194Y-66001385D01*
X126447640Y-66049406D01*
X126479949Y-66112817D01*
X126604890Y-66284786D01*
X126755213Y-66435109D01*
X126927179Y-66560048D01*
X126927181Y-66560049D01*
X126927184Y-66560051D01*
X127116588Y-66656557D01*
X127318757Y-66722246D01*
X127528713Y-66755500D01*
X127528714Y-66755500D01*
X127741286Y-66755500D01*
X127741287Y-66755500D01*
X127951243Y-66722246D01*
X128153412Y-66656557D01*
X128342816Y-66560051D01*
X128364789Y-66544086D01*
X128514786Y-66435109D01*
X128514788Y-66435106D01*
X128514792Y-66435104D01*
X128665104Y-66284792D01*
X128665106Y-66284788D01*
X128665109Y-66284786D01*
X128790048Y-66112820D01*
X128790050Y-66112817D01*
X128790051Y-66112816D01*
X128794514Y-66104054D01*
X128842488Y-66053259D01*
X128910308Y-66036463D01*
X128976444Y-66058999D01*
X129015484Y-66104054D01*
X129017143Y-66107309D01*
X129019951Y-66112820D01*
X129144890Y-66284786D01*
X129295213Y-66435109D01*
X129467179Y-66560048D01*
X129467181Y-66560049D01*
X129467184Y-66560051D01*
X129656588Y-66656557D01*
X129858757Y-66722246D01*
X130068713Y-66755500D01*
X130068714Y-66755500D01*
X130281286Y-66755500D01*
X130281287Y-66755500D01*
X130491243Y-66722246D01*
X130693412Y-66656557D01*
X130882816Y-66560051D01*
X131054792Y-66435104D01*
X131168329Y-66321566D01*
X131229648Y-66288084D01*
X131299340Y-66293068D01*
X131355274Y-66334939D01*
X131372189Y-66365917D01*
X131421202Y-66497328D01*
X131421206Y-66497335D01*
X131507452Y-66612544D01*
X131507455Y-66612547D01*
X131622664Y-66698793D01*
X131622671Y-66698797D01*
X131757517Y-66749091D01*
X131757516Y-66749091D01*
X131764444Y-66749835D01*
X131817127Y-66755500D01*
X133612872Y-66755499D01*
X133672483Y-66749091D01*
X133807331Y-66698796D01*
X133922546Y-66612546D01*
X134008796Y-66497331D01*
X134059091Y-66362483D01*
X134065500Y-66302873D01*
X134065499Y-64507128D01*
X134059091Y-64447517D01*
X134057810Y-64444083D01*
X134008797Y-64312671D01*
X134008793Y-64312664D01*
X133922547Y-64197455D01*
X133922544Y-64197452D01*
X133807335Y-64111206D01*
X133807328Y-64111202D01*
X133672482Y-64060908D01*
X133672483Y-64060908D01*
X133612883Y-64054501D01*
X133612881Y-64054500D01*
X133612873Y-64054500D01*
X133612864Y-64054500D01*
X131817129Y-64054500D01*
X131817123Y-64054501D01*
X131757516Y-64060908D01*
X131622671Y-64111202D01*
X131622664Y-64111206D01*
X131507455Y-64197452D01*
X131507452Y-64197455D01*
X131421206Y-64312664D01*
X131421203Y-64312669D01*
X131372189Y-64444083D01*
X131330317Y-64500016D01*
X131264853Y-64524433D01*
X131196580Y-64509581D01*
X131168326Y-64488430D01*
X131054786Y-64374890D01*
X130882820Y-64249951D01*
X130693414Y-64153444D01*
X130693413Y-64153443D01*
X130693412Y-64153443D01*
X130491243Y-64087754D01*
X130491241Y-64087753D01*
X130491240Y-64087753D01*
X130329957Y-64062208D01*
X130281287Y-64054500D01*
X130068713Y-64054500D01*
X130020042Y-64062208D01*
X129858760Y-64087753D01*
X129656585Y-64153444D01*
X129467179Y-64249951D01*
X129295213Y-64374890D01*
X129144890Y-64525213D01*
X129019949Y-64697182D01*
X129015484Y-64705946D01*
X128967509Y-64756742D01*
X128899688Y-64773536D01*
X128833553Y-64750998D01*
X128794516Y-64705946D01*
X128790050Y-64697182D01*
X128665109Y-64525213D01*
X128514786Y-64374890D01*
X128342820Y-64249951D01*
X128153414Y-64153444D01*
X128153413Y-64153443D01*
X128153412Y-64153443D01*
X127951243Y-64087754D01*
X127951241Y-64087753D01*
X127951240Y-64087753D01*
X127789957Y-64062208D01*
X127741287Y-64054500D01*
X127528713Y-64054500D01*
X127480042Y-64062208D01*
X127318760Y-64087753D01*
X127116585Y-64153444D01*
X126927179Y-64249951D01*
X126755213Y-64374890D01*
X126604890Y-64525213D01*
X126479949Y-64697182D01*
X126447640Y-64760594D01*
X126399666Y-64811391D01*
X126337155Y-64828300D01*
X123265924Y-64828300D01*
X123114076Y-64828300D01*
X122967402Y-64867601D01*
X122967401Y-64867601D01*
X122967399Y-64867602D01*
X122967398Y-64867602D01*
X122835901Y-64943522D01*
X122835895Y-64943527D01*
X122093527Y-65685895D01*
X122093522Y-65685901D01*
X122017602Y-65817398D01*
X122017602Y-65817399D01*
X122017601Y-65817401D01*
X122017601Y-65817402D01*
X122004405Y-65866650D01*
X121978300Y-65964076D01*
X121978300Y-68608270D01*
X121958615Y-68675309D01*
X121910597Y-68718753D01*
X121873392Y-68737710D01*
X121873389Y-68737712D01*
X121707786Y-68858028D01*
X121563028Y-69002786D01*
X121442715Y-69168386D01*
X121349781Y-69350776D01*
X121286522Y-69545465D01*
X121254500Y-69747648D01*
X121254500Y-69952351D01*
X121286522Y-70154534D01*
X121349781Y-70349223D01*
X121407764Y-70463019D01*
X121442585Y-70531359D01*
X121442715Y-70531613D01*
X121563028Y-70697213D01*
X121563034Y-70697219D01*
X121707781Y-70841966D01*
X121873390Y-70962287D01*
X121910594Y-70981243D01*
X121961391Y-71029217D01*
X121978300Y-71091728D01*
X121978300Y-74104615D01*
X121958615Y-74171654D01*
X121910595Y-74215099D01*
X121793466Y-74274779D01*
X121688523Y-74351026D01*
X121608434Y-74409214D01*
X121608432Y-74409216D01*
X121608431Y-74409216D01*
X121446716Y-74570931D01*
X121446716Y-74570932D01*
X121446714Y-74570934D01*
X121425275Y-74600442D01*
X121312283Y-74755961D01*
X121216566Y-74943817D01*
X121168591Y-74994613D01*
X121138176Y-75007296D01*
X121062403Y-75027600D01*
X121062398Y-75027602D01*
X120930901Y-75103522D01*
X120930895Y-75103527D01*
X120188527Y-75845895D01*
X120188522Y-75845901D01*
X120112602Y-75977398D01*
X120112602Y-75977399D01*
X120112601Y-75977401D01*
X120112601Y-75977402D01*
X120073300Y-76124076D01*
X120073300Y-111852272D01*
X120073300Y-112004120D01*
X120094297Y-112082483D01*
X120112602Y-112150796D01*
X120112602Y-112150797D01*
X120188522Y-112282294D01*
X120188524Y-112282296D01*
X120188525Y-112282298D01*
X121397702Y-113491475D01*
X121529206Y-113567399D01*
X121675880Y-113606700D01*
X121675882Y-113606700D01*
X132155922Y-113606700D01*
X132155924Y-113606700D01*
X132302598Y-113567399D01*
X132434102Y-113491475D01*
X133176475Y-112749102D01*
X133252399Y-112617598D01*
X133291700Y-112470924D01*
X133291700Y-112422844D01*
X133311385Y-112355805D01*
X133359404Y-112312360D01*
X133415629Y-112283713D01*
X149144500Y-112283713D01*
X149144500Y-112496287D01*
X149177754Y-112706243D01*
X149191680Y-112749104D01*
X149243444Y-112908414D01*
X149339951Y-113097820D01*
X149464890Y-113269786D01*
X149615213Y-113420109D01*
X149787179Y-113545048D01*
X149787181Y-113545049D01*
X149787184Y-113545051D01*
X149976588Y-113641557D01*
X150178757Y-113707246D01*
X150388713Y-113740500D01*
X150388714Y-113740500D01*
X150601286Y-113740500D01*
X150601287Y-113740500D01*
X150811243Y-113707246D01*
X151013412Y-113641557D01*
X151202816Y-113545051D01*
X151276562Y-113491472D01*
X151374786Y-113420109D01*
X151374788Y-113420106D01*
X151374792Y-113420104D01*
X151525104Y-113269792D01*
X151525106Y-113269788D01*
X151525109Y-113269786D01*
X151650048Y-113097820D01*
X151650047Y-113097820D01*
X151650051Y-113097816D01*
X151746557Y-112908412D01*
X151812246Y-112706243D01*
X151845500Y-112496287D01*
X151845500Y-112283713D01*
X151812246Y-112073757D01*
X151746557Y-111871588D01*
X151650051Y-111682184D01*
X151650049Y-111682181D01*
X151650048Y-111682179D01*
X151525109Y-111510213D01*
X151411181Y-111396285D01*
X151377696Y-111334962D01*
X151382680Y-111265270D01*
X151424552Y-111209337D01*
X151455529Y-111192422D01*
X151587086Y-111143354D01*
X151587093Y-111143350D01*
X151702187Y-111057190D01*
X151702190Y-111057187D01*
X151788350Y-110942093D01*
X151788354Y-110942086D01*
X151838596Y-110807379D01*
X151838598Y-110807372D01*
X151844999Y-110747844D01*
X151845000Y-110747827D01*
X151845000Y-110100000D01*
X150928012Y-110100000D01*
X150960925Y-110042993D01*
X150995000Y-109915826D01*
X150995000Y-109784174D01*
X150960925Y-109657007D01*
X150928012Y-109600000D01*
X151845000Y-109600000D01*
X151845000Y-108952172D01*
X151844999Y-108952155D01*
X151838598Y-108892627D01*
X151838596Y-108892620D01*
X151788354Y-108757913D01*
X151788350Y-108757906D01*
X151702190Y-108642812D01*
X151702187Y-108642809D01*
X151587093Y-108556649D01*
X151587086Y-108556645D01*
X151452379Y-108506403D01*
X151452372Y-108506401D01*
X151392844Y-108500000D01*
X150745000Y-108500000D01*
X150745000Y-109416988D01*
X150687993Y-109384075D01*
X150560826Y-109350000D01*
X150429174Y-109350000D01*
X150302007Y-109384075D01*
X150245000Y-109416988D01*
X150245000Y-108500000D01*
X149597155Y-108500000D01*
X149537627Y-108506401D01*
X149537620Y-108506403D01*
X149402913Y-108556645D01*
X149402906Y-108556649D01*
X149287812Y-108642809D01*
X149287809Y-108642812D01*
X149201649Y-108757906D01*
X149201645Y-108757913D01*
X149151403Y-108892620D01*
X149151401Y-108892627D01*
X149145000Y-108952155D01*
X149145000Y-109600000D01*
X150061988Y-109600000D01*
X150029075Y-109657007D01*
X149995000Y-109784174D01*
X149995000Y-109915826D01*
X150029075Y-110042993D01*
X150061988Y-110100000D01*
X149145000Y-110100000D01*
X149145000Y-110747844D01*
X149151401Y-110807372D01*
X149151403Y-110807379D01*
X149201645Y-110942086D01*
X149201649Y-110942093D01*
X149287809Y-111057187D01*
X149287812Y-111057190D01*
X149402906Y-111143350D01*
X149402913Y-111143354D01*
X149534470Y-111192422D01*
X149590404Y-111234293D01*
X149614821Y-111299758D01*
X149599969Y-111368031D01*
X149578819Y-111396285D01*
X149464889Y-111510215D01*
X149339951Y-111682179D01*
X149243444Y-111871585D01*
X149177753Y-112073760D01*
X149151481Y-112239634D01*
X149144500Y-112283713D01*
X133415629Y-112283713D01*
X133422816Y-112280051D01*
X133594792Y-112155104D01*
X133745104Y-112004792D01*
X133745106Y-112004788D01*
X133745109Y-112004786D01*
X133870048Y-111832820D01*
X133870047Y-111832820D01*
X133870051Y-111832816D01*
X133966557Y-111643412D01*
X134032246Y-111441243D01*
X134065500Y-111231287D01*
X134065500Y-111018713D01*
X134032246Y-110808757D01*
X133966557Y-110606588D01*
X133870051Y-110417184D01*
X133870049Y-110417181D01*
X133870048Y-110417179D01*
X133745109Y-110245213D01*
X133594786Y-110094890D01*
X133422820Y-109969951D01*
X133233414Y-109873444D01*
X133233413Y-109873443D01*
X133233412Y-109873443D01*
X133031243Y-109807754D01*
X133031241Y-109807753D01*
X133031240Y-109807753D01*
X132869957Y-109782208D01*
X132821287Y-109774500D01*
X132608713Y-109774500D01*
X132560042Y-109782208D01*
X132398760Y-109807753D01*
X132196585Y-109873444D01*
X132007179Y-109969951D01*
X131835213Y-110094890D01*
X131684890Y-110245213D01*
X131559949Y-110417182D01*
X131555484Y-110425946D01*
X131507509Y-110476742D01*
X131439688Y-110493536D01*
X131373553Y-110470998D01*
X131334516Y-110425946D01*
X131330050Y-110417182D01*
X131205109Y-110245213D01*
X131054786Y-110094890D01*
X130882820Y-109969951D01*
X130693414Y-109873444D01*
X130693413Y-109873443D01*
X130693412Y-109873443D01*
X130491243Y-109807754D01*
X130491241Y-109807753D01*
X130491240Y-109807753D01*
X130329957Y-109782208D01*
X130281287Y-109774500D01*
X130068713Y-109774500D01*
X130020042Y-109782208D01*
X129858760Y-109807753D01*
X129656585Y-109873444D01*
X129467179Y-109969951D01*
X129295215Y-110094889D01*
X129181673Y-110208431D01*
X129120350Y-110241915D01*
X129050658Y-110236931D01*
X128994725Y-110195059D01*
X128977810Y-110164082D01*
X128928797Y-110032671D01*
X128928793Y-110032664D01*
X128842547Y-109917455D01*
X128842544Y-109917452D01*
X128727335Y-109831206D01*
X128727328Y-109831202D01*
X128592482Y-109780908D01*
X128592483Y-109780908D01*
X128532883Y-109774501D01*
X128532881Y-109774500D01*
X128532873Y-109774500D01*
X128532864Y-109774500D01*
X126737129Y-109774500D01*
X126737123Y-109774501D01*
X126677516Y-109780908D01*
X126542671Y-109831202D01*
X126542664Y-109831206D01*
X126427455Y-109917452D01*
X126427452Y-109917455D01*
X126341206Y-110032664D01*
X126341202Y-110032671D01*
X126290908Y-110167517D01*
X126284501Y-110227116D01*
X126284500Y-110227135D01*
X126284500Y-112022870D01*
X126284501Y-112022876D01*
X126290908Y-112082483D01*
X126341202Y-112217328D01*
X126341206Y-112217335D01*
X126369394Y-112254989D01*
X126393812Y-112320453D01*
X126378961Y-112388726D01*
X126329556Y-112438132D01*
X126270128Y-112453300D01*
X122042043Y-112453300D01*
X121975004Y-112433615D01*
X121954362Y-112416981D01*
X121263019Y-111725638D01*
X121229534Y-111664315D01*
X121226700Y-111637957D01*
X121226700Y-107212648D01*
X126334500Y-107212648D01*
X126334500Y-107417352D01*
X126334920Y-107420001D01*
X126366522Y-107619534D01*
X126429781Y-107814223D01*
X126472021Y-107897122D01*
X126522585Y-107996359D01*
X126522715Y-107996613D01*
X126643028Y-108162213D01*
X126787786Y-108306971D01*
X126908226Y-108394474D01*
X126953390Y-108427287D01*
X127049986Y-108476505D01*
X127135776Y-108520218D01*
X127135778Y-108520218D01*
X127135781Y-108520220D01*
X127240137Y-108554127D01*
X127330465Y-108583477D01*
X127417676Y-108597290D01*
X127532648Y-108615500D01*
X127532649Y-108615500D01*
X127737351Y-108615500D01*
X127737352Y-108615500D01*
X127939534Y-108583477D01*
X128134219Y-108520220D01*
X128316610Y-108427287D01*
X128409590Y-108359732D01*
X128482213Y-108306971D01*
X128482215Y-108306968D01*
X128482219Y-108306966D01*
X128626966Y-108162219D01*
X128626968Y-108162215D01*
X128626971Y-108162213D01*
X128715093Y-108040921D01*
X128747287Y-107996610D01*
X128774795Y-107942621D01*
X128822769Y-107891826D01*
X128890589Y-107875030D01*
X128956725Y-107897567D01*
X128995765Y-107942621D01*
X129023141Y-107996350D01*
X129023147Y-107996359D01*
X129055523Y-108040921D01*
X129055524Y-108040922D01*
X129735000Y-107361446D01*
X129735000Y-107367661D01*
X129762259Y-107469394D01*
X129814920Y-107560606D01*
X129889394Y-107635080D01*
X129980606Y-107687741D01*
X130082339Y-107715000D01*
X130088553Y-107715000D01*
X129409076Y-108394474D01*
X129453650Y-108426859D01*
X129635968Y-108519755D01*
X129830582Y-108582990D01*
X130032683Y-108615000D01*
X130237317Y-108615000D01*
X130439417Y-108582990D01*
X130634031Y-108519755D01*
X130816349Y-108426859D01*
X130860921Y-108394474D01*
X130586460Y-108120013D01*
X137265000Y-108120013D01*
X137265000Y-108970000D01*
X138464999Y-108970000D01*
X138439979Y-109030402D01*
X138415000Y-109155981D01*
X138415000Y-109284019D01*
X138439979Y-109409598D01*
X138464999Y-109470000D01*
X137265001Y-109470000D01*
X137265001Y-110319986D01*
X137275494Y-110422697D01*
X137330641Y-110589119D01*
X137330643Y-110589124D01*
X137422684Y-110738345D01*
X137546654Y-110862315D01*
X137695875Y-110954356D01*
X137695880Y-110954358D01*
X137862302Y-111009505D01*
X137862309Y-111009506D01*
X137965019Y-111019999D01*
X138814999Y-111019999D01*
X138815000Y-111019998D01*
X138815000Y-109820001D01*
X138875402Y-109845021D01*
X139000981Y-109870000D01*
X139129019Y-109870000D01*
X139254598Y-109845021D01*
X139315000Y-109820001D01*
X139315000Y-111019999D01*
X140164972Y-111019999D01*
X140164986Y-111019998D01*
X140267697Y-111009505D01*
X140434119Y-110954358D01*
X140434124Y-110954356D01*
X140583345Y-110862315D01*
X140707315Y-110738345D01*
X140799356Y-110589124D01*
X140799358Y-110589119D01*
X140854505Y-110422697D01*
X140854506Y-110422690D01*
X140864999Y-110319986D01*
X140865000Y-110319973D01*
X140865000Y-109470000D01*
X139665001Y-109470000D01*
X139690021Y-109409598D01*
X139715000Y-109284019D01*
X139715000Y-109155981D01*
X139704262Y-109101995D01*
X142344500Y-109101995D01*
X142344500Y-109338004D01*
X142344501Y-109338020D01*
X142375306Y-109572010D01*
X142436394Y-109799993D01*
X142526714Y-110018045D01*
X142526719Y-110018056D01*
X142574030Y-110100000D01*
X142644727Y-110222450D01*
X142644729Y-110222453D01*
X142644730Y-110222454D01*
X142788406Y-110409697D01*
X142788412Y-110409704D01*
X142955295Y-110576587D01*
X142955302Y-110576593D01*
X143065306Y-110661001D01*
X143142550Y-110720273D01*
X143273918Y-110796118D01*
X143346943Y-110838280D01*
X143346948Y-110838282D01*
X143346951Y-110838284D01*
X143565007Y-110928606D01*
X143792986Y-110989693D01*
X144026989Y-111020500D01*
X144026996Y-111020500D01*
X144263004Y-111020500D01*
X144263011Y-111020500D01*
X144497014Y-110989693D01*
X144724993Y-110928606D01*
X144943049Y-110838284D01*
X145147450Y-110720273D01*
X145334699Y-110576592D01*
X145501592Y-110409699D01*
X145645273Y-110222450D01*
X145763284Y-110018049D01*
X145853606Y-109799993D01*
X145914693Y-109572014D01*
X145945500Y-109338011D01*
X145945500Y-109101989D01*
X145914693Y-108867986D01*
X145853606Y-108640007D01*
X145763284Y-108421951D01*
X145763282Y-108421948D01*
X145763280Y-108421943D01*
X145666884Y-108254982D01*
X145645273Y-108217550D01*
X145501592Y-108030301D01*
X145501587Y-108030295D01*
X145334704Y-107863412D01*
X145334697Y-107863406D01*
X145147454Y-107719730D01*
X145147453Y-107719729D01*
X145147450Y-107719727D01*
X145058814Y-107668553D01*
X144943056Y-107601719D01*
X144943045Y-107601714D01*
X144724993Y-107511394D01*
X144497010Y-107450306D01*
X144263020Y-107419501D01*
X144263017Y-107419500D01*
X144263011Y-107419500D01*
X144026989Y-107419500D01*
X144026983Y-107419500D01*
X144026979Y-107419501D01*
X143792989Y-107450306D01*
X143565006Y-107511394D01*
X143346954Y-107601714D01*
X143346943Y-107601719D01*
X143142545Y-107719730D01*
X142955302Y-107863406D01*
X142955295Y-107863412D01*
X142788412Y-108030295D01*
X142788406Y-108030302D01*
X142644730Y-108217545D01*
X142526719Y-108421943D01*
X142526714Y-108421954D01*
X142436394Y-108640006D01*
X142375306Y-108867989D01*
X142344501Y-109101979D01*
X142344500Y-109101995D01*
X139704262Y-109101995D01*
X139690021Y-109030402D01*
X139665001Y-108970000D01*
X140864999Y-108970000D01*
X140864999Y-108120028D01*
X140864998Y-108120013D01*
X140854505Y-108017302D01*
X140799358Y-107850880D01*
X140799356Y-107850875D01*
X140707315Y-107701654D01*
X140583345Y-107577684D01*
X140434124Y-107485643D01*
X140434119Y-107485641D01*
X140267697Y-107430494D01*
X140267690Y-107430493D01*
X140164986Y-107420000D01*
X139315000Y-107420000D01*
X139315000Y-108619998D01*
X139254598Y-108594979D01*
X139129019Y-108570000D01*
X139000981Y-108570000D01*
X138875402Y-108594979D01*
X138815000Y-108619998D01*
X138815000Y-107420000D01*
X137965028Y-107420000D01*
X137965012Y-107420001D01*
X137862302Y-107430494D01*
X137695880Y-107485641D01*
X137695875Y-107485643D01*
X137546654Y-107577684D01*
X137422684Y-107701654D01*
X137330643Y-107850875D01*
X137330641Y-107850880D01*
X137275494Y-108017302D01*
X137275493Y-108017309D01*
X137265000Y-108120013D01*
X130586460Y-108120013D01*
X130181447Y-107715000D01*
X130187661Y-107715000D01*
X130289394Y-107687741D01*
X130380606Y-107635080D01*
X130455080Y-107560606D01*
X130507741Y-107469394D01*
X130535000Y-107367661D01*
X130535000Y-107361448D01*
X131214474Y-108040922D01*
X131214474Y-108040921D01*
X131246859Y-107996349D01*
X131339755Y-107814031D01*
X131402990Y-107619417D01*
X131435000Y-107417317D01*
X131435000Y-107212682D01*
X131402990Y-107010582D01*
X131339755Y-106815968D01*
X131246859Y-106633650D01*
X131214474Y-106589077D01*
X131214474Y-106589076D01*
X130535000Y-107268551D01*
X130535000Y-107262339D01*
X130507741Y-107160606D01*
X130455080Y-107069394D01*
X130380606Y-106994920D01*
X130289394Y-106942259D01*
X130187661Y-106915000D01*
X130181446Y-106915000D01*
X130860922Y-106235524D01*
X130860921Y-106235523D01*
X130816359Y-106203147D01*
X130816350Y-106203141D01*
X130634031Y-106110244D01*
X130439417Y-106047009D01*
X130237317Y-106015000D01*
X130032683Y-106015000D01*
X129830582Y-106047009D01*
X129635968Y-106110244D01*
X129453644Y-106203143D01*
X129409077Y-106235523D01*
X129409077Y-106235524D01*
X130088554Y-106915000D01*
X130082339Y-106915000D01*
X129980606Y-106942259D01*
X129889394Y-106994920D01*
X129814920Y-107069394D01*
X129762259Y-107160606D01*
X129735000Y-107262339D01*
X129735000Y-107268553D01*
X129055524Y-106589077D01*
X129055523Y-106589077D01*
X129023143Y-106633644D01*
X128995765Y-106687378D01*
X128947790Y-106738174D01*
X128879969Y-106754969D01*
X128813834Y-106732431D01*
X128774795Y-106687378D01*
X128747284Y-106633385D01*
X128626971Y-106467786D01*
X128482213Y-106323028D01*
X128316613Y-106202715D01*
X128316612Y-106202714D01*
X128316610Y-106202713D01*
X128259653Y-106173691D01*
X128134223Y-106109781D01*
X127939534Y-106046522D01*
X127764995Y-106018878D01*
X127737352Y-106014500D01*
X127532648Y-106014500D01*
X127508329Y-106018351D01*
X127330465Y-106046522D01*
X127135776Y-106109781D01*
X126953386Y-106202715D01*
X126787786Y-106323028D01*
X126643028Y-106467786D01*
X126522715Y-106633386D01*
X126429781Y-106815776D01*
X126366522Y-107010465D01*
X126339263Y-107182575D01*
X126334500Y-107212648D01*
X121226700Y-107212648D01*
X121226700Y-76637578D01*
X121246385Y-76570539D01*
X121299189Y-76524784D01*
X121368347Y-76514840D01*
X121431903Y-76543865D01*
X121444997Y-76557054D01*
X121446708Y-76559057D01*
X121446714Y-76559066D01*
X121608434Y-76720786D01*
X121793462Y-76855217D01*
X121925599Y-76922544D01*
X121997244Y-76959049D01*
X122214751Y-77029721D01*
X122214752Y-77029721D01*
X122214755Y-77029722D01*
X122440646Y-77065500D01*
X122440647Y-77065500D01*
X122669353Y-77065500D01*
X122669354Y-77065500D01*
X122895245Y-77029722D01*
X122895248Y-77029721D01*
X122895249Y-77029721D01*
X123112755Y-76959049D01*
X123112755Y-76959048D01*
X123112758Y-76959048D01*
X123316538Y-76855217D01*
X123501566Y-76720786D01*
X123663286Y-76559066D01*
X123724992Y-76474134D01*
X123780319Y-76431470D01*
X123849932Y-76425491D01*
X123911727Y-76458096D01*
X123925626Y-76474135D01*
X123987097Y-76558741D01*
X123987097Y-76558742D01*
X124148757Y-76720402D01*
X124333723Y-76854788D01*
X124537429Y-76958582D01*
X124754871Y-77029234D01*
X124845000Y-77043509D01*
X124845000Y-76055747D01*
X124882708Y-76077518D01*
X125022591Y-76115000D01*
X125167409Y-76115000D01*
X125307292Y-76077518D01*
X125345000Y-76055747D01*
X125345000Y-77043508D01*
X125435128Y-77029234D01*
X125652570Y-76958582D01*
X125856276Y-76854788D01*
X126039059Y-76721988D01*
X126104865Y-76698508D01*
X126172919Y-76714333D01*
X126221614Y-76764439D01*
X126228127Y-76778974D01*
X126238701Y-76807326D01*
X126238706Y-76807335D01*
X126324952Y-76922544D01*
X126324955Y-76922547D01*
X126440164Y-77008793D01*
X126440171Y-77008797D01*
X126485118Y-77025561D01*
X126575017Y-77059091D01*
X126634627Y-77065500D01*
X126934300Y-77065499D01*
X127001339Y-77085183D01*
X127047094Y-77137987D01*
X127058300Y-77189499D01*
X127058300Y-79084761D01*
X127038615Y-79151800D01*
X127021981Y-79172442D01*
X126797442Y-79396981D01*
X126736119Y-79430466D01*
X126709761Y-79433300D01*
X123863143Y-79433300D01*
X123711295Y-79433300D01*
X123564621Y-79472601D01*
X123564620Y-79472601D01*
X123564618Y-79472602D01*
X123564617Y-79472602D01*
X123433120Y-79548522D01*
X123433114Y-79548527D01*
X122728527Y-80253114D01*
X122728522Y-80253120D01*
X122652602Y-80384617D01*
X122652602Y-80384618D01*
X122652601Y-80384620D01*
X122652601Y-80384621D01*
X122629329Y-80471475D01*
X122613300Y-80531295D01*
X122613300Y-98869615D01*
X122593615Y-98936654D01*
X122545595Y-98980099D01*
X122428466Y-99039779D01*
X122324190Y-99115541D01*
X122243434Y-99174214D01*
X122243432Y-99174216D01*
X122243431Y-99174216D01*
X122081716Y-99335931D01*
X122081716Y-99335932D01*
X122081714Y-99335934D01*
X122024770Y-99414310D01*
X121947283Y-99520961D01*
X121843450Y-99724744D01*
X121772778Y-99942250D01*
X121772778Y-99942253D01*
X121737000Y-100168146D01*
X121737000Y-100491853D01*
X121772778Y-100717746D01*
X121772778Y-100717749D01*
X121843450Y-100935255D01*
X121875579Y-100998311D01*
X121947283Y-101139038D01*
X122081714Y-101324066D01*
X122243434Y-101485786D01*
X122428462Y-101620217D01*
X122560599Y-101687544D01*
X122632244Y-101724049D01*
X122849751Y-101794721D01*
X122849752Y-101794721D01*
X122849755Y-101794722D01*
X123075646Y-101830500D01*
X123075647Y-101830500D01*
X123304353Y-101830500D01*
X123304354Y-101830500D01*
X123530245Y-101794722D01*
X123530248Y-101794721D01*
X123530249Y-101794721D01*
X123747755Y-101724049D01*
X123747755Y-101724048D01*
X123747758Y-101724048D01*
X123951538Y-101620217D01*
X124136566Y-101485786D01*
X124298286Y-101324066D01*
X124359683Y-101239559D01*
X124415012Y-101196896D01*
X124484625Y-101190917D01*
X124546420Y-101223523D01*
X124560314Y-101239556D01*
X124621714Y-101324066D01*
X124783434Y-101485786D01*
X124968462Y-101620217D01*
X125100599Y-101687544D01*
X125172244Y-101724049D01*
X125389751Y-101794721D01*
X125389752Y-101794721D01*
X125389755Y-101794722D01*
X125615646Y-101830500D01*
X125615647Y-101830500D01*
X125844353Y-101830500D01*
X125844354Y-101830500D01*
X126070245Y-101794722D01*
X126070248Y-101794721D01*
X126070249Y-101794721D01*
X126287755Y-101724049D01*
X126287755Y-101724048D01*
X126287758Y-101724048D01*
X126491538Y-101620217D01*
X126674245Y-101487472D01*
X126740046Y-101463994D01*
X126808100Y-101479819D01*
X126856795Y-101529924D01*
X126863308Y-101544459D01*
X126873702Y-101572328D01*
X126873706Y-101572335D01*
X126959952Y-101687544D01*
X126959955Y-101687547D01*
X127075164Y-101773793D01*
X127075171Y-101773797D01*
X127120118Y-101790561D01*
X127210017Y-101824091D01*
X127269627Y-101830500D01*
X127582000Y-101830499D01*
X127649039Y-101850183D01*
X127694794Y-101902987D01*
X127706000Y-101954499D01*
X127706000Y-102309252D01*
X127744435Y-102452696D01*
X127818687Y-102581304D01*
X127818689Y-102581306D01*
X127930761Y-102693378D01*
X127930766Y-102693382D01*
X128558696Y-103321313D01*
X128558697Y-103321314D01*
X128558699Y-103321315D01*
X128687300Y-103395563D01*
X128687301Y-103395563D01*
X128687304Y-103395565D01*
X128830748Y-103434001D01*
X128830751Y-103434001D01*
X128986849Y-103434001D01*
X128986865Y-103434000D01*
X145489251Y-103434000D01*
X145489253Y-103434000D01*
X145632696Y-103395565D01*
X145761304Y-103321313D01*
X145866313Y-103216304D01*
X145866313Y-103216302D01*
X145876517Y-103206099D01*
X145876520Y-103206094D01*
X146501313Y-102581304D01*
X146575565Y-102452696D01*
X146614001Y-102309252D01*
X146614001Y-102160747D01*
X146614001Y-102153152D01*
X146614000Y-102153134D01*
X146614000Y-101465967D01*
X146633685Y-101398928D01*
X146675922Y-101360722D01*
X146675051Y-101359301D01*
X146679193Y-101356762D01*
X146679199Y-101356760D01*
X146832073Y-101245690D01*
X146965690Y-101112073D01*
X147076760Y-100959199D01*
X147085515Y-100942015D01*
X147133489Y-100891220D01*
X147201310Y-100874425D01*
X147267445Y-100896962D01*
X147310897Y-100951677D01*
X147320000Y-100998311D01*
X147320000Y-107187999D01*
X147828001Y-107950000D01*
X147978744Y-107950000D01*
X148045783Y-107969685D01*
X148045784Y-107969685D01*
X148115357Y-108014397D01*
X148115373Y-108014406D01*
X148312678Y-108104512D01*
X148312682Y-108104513D01*
X148312684Y-108104514D01*
X148405908Y-108131887D01*
X148520820Y-108165629D01*
X148551691Y-108170067D01*
X148735538Y-108196500D01*
X148778108Y-108196500D01*
X151572108Y-108196500D01*
X151631039Y-108196500D01*
X151644922Y-108197280D01*
X151653353Y-108198230D01*
X151738831Y-108207861D01*
X151765892Y-108214037D01*
X151848481Y-108242937D01*
X151873491Y-108254980D01*
X151880738Y-108259534D01*
X151947581Y-108301534D01*
X151969290Y-108318847D01*
X152031152Y-108380709D01*
X152048465Y-108402418D01*
X152095017Y-108476505D01*
X152107064Y-108501522D01*
X152135960Y-108584101D01*
X152142139Y-108611172D01*
X152152720Y-108705077D01*
X152153500Y-108718961D01*
X152153500Y-113718481D01*
X152133815Y-113785520D01*
X152114829Y-113808453D01*
X151628723Y-114269470D01*
X151566534Y-114301320D01*
X151542343Y-114303494D01*
X121208745Y-114046430D01*
X121141875Y-114026178D01*
X121122115Y-114010115D01*
X118908319Y-111796319D01*
X118874834Y-111734996D01*
X118872000Y-111708638D01*
X118872000Y-64404745D01*
X118891685Y-64337706D01*
X118916617Y-64309486D01*
X119103868Y-64153444D01*
X120702550Y-62821209D01*
X121377511Y-62258741D01*
X121441614Y-62230945D01*
X121456894Y-62230000D01*
X151586638Y-62230000D01*
X151653677Y-62249685D01*
G37*
%TD.AperFunction*%
%TA.AperFunction,Conductor*%
G36*
X127402000Y-69902661D02*
G01*
X127429259Y-70004394D01*
X127481920Y-70095606D01*
X127556394Y-70170080D01*
X127647606Y-70222741D01*
X127749339Y-70250000D01*
X127755553Y-70250000D01*
X127076076Y-70929474D01*
X127120650Y-70961859D01*
X127302968Y-71054755D01*
X127497582Y-71117990D01*
X127699683Y-71150000D01*
X127904317Y-71150000D01*
X128106417Y-71117990D01*
X128301031Y-71054755D01*
X128483349Y-70961859D01*
X128527921Y-70929474D01*
X127848447Y-70250000D01*
X127854661Y-70250000D01*
X127956394Y-70222741D01*
X128047606Y-70170080D01*
X128122080Y-70095606D01*
X128174741Y-70004394D01*
X128202000Y-69902661D01*
X128202000Y-69896447D01*
X128881474Y-70575921D01*
X128913859Y-70531349D01*
X128941233Y-70477624D01*
X128989207Y-70426827D01*
X129057028Y-70410031D01*
X129123163Y-70432567D01*
X129162203Y-70477621D01*
X129189713Y-70531611D01*
X129310028Y-70697213D01*
X129310034Y-70697219D01*
X129454781Y-70841966D01*
X129620390Y-70962287D01*
X129657594Y-70981243D01*
X129708391Y-71029217D01*
X129725300Y-71091728D01*
X129725300Y-74512761D01*
X129705615Y-74579800D01*
X129688981Y-74600442D01*
X129337442Y-74951981D01*
X129310514Y-74966684D01*
X129284696Y-74983277D01*
X129278495Y-74984168D01*
X129276119Y-74985466D01*
X129249761Y-74988300D01*
X129211999Y-74988300D01*
X129144960Y-74968615D01*
X129099205Y-74915811D01*
X129087999Y-74864300D01*
X129087999Y-74517129D01*
X129087998Y-74517123D01*
X129087529Y-74512761D01*
X129081591Y-74457517D01*
X129080991Y-74455909D01*
X129031297Y-74322671D01*
X129031293Y-74322664D01*
X128945047Y-74207455D01*
X128945044Y-74207452D01*
X128829835Y-74121206D01*
X128829828Y-74121202D01*
X128694982Y-74070908D01*
X128694983Y-74070908D01*
X128635383Y-74064501D01*
X128635381Y-74064500D01*
X128635373Y-74064500D01*
X128635364Y-74064500D01*
X126634629Y-74064500D01*
X126634623Y-74064501D01*
X126575016Y-74070908D01*
X126440171Y-74121202D01*
X126440164Y-74121206D01*
X126324955Y-74207452D01*
X126324952Y-74207455D01*
X126238706Y-74322664D01*
X126238702Y-74322671D01*
X126228127Y-74351026D01*
X126186256Y-74406960D01*
X126120791Y-74431377D01*
X126052518Y-74416525D01*
X126039060Y-74408011D01*
X125856279Y-74275213D01*
X125652568Y-74171417D01*
X125435124Y-74100765D01*
X125345000Y-74086490D01*
X125345000Y-75074252D01*
X125307292Y-75052482D01*
X125167409Y-75015000D01*
X125022591Y-75015000D01*
X124882708Y-75052482D01*
X124845000Y-75074252D01*
X124845000Y-74086490D01*
X124844999Y-74086490D01*
X124754875Y-74100765D01*
X124537431Y-74171417D01*
X124333723Y-74275211D01*
X124148757Y-74409597D01*
X123987097Y-74571257D01*
X123925627Y-74655864D01*
X123870297Y-74698529D01*
X123800684Y-74704508D01*
X123738889Y-74671902D01*
X123724991Y-74655864D01*
X123663286Y-74570934D01*
X123501566Y-74409214D01*
X123317130Y-74275213D01*
X123316533Y-74274779D01*
X123199405Y-74215099D01*
X123148609Y-74167125D01*
X123131700Y-74104615D01*
X123131700Y-71091728D01*
X123151385Y-71024689D01*
X123199405Y-70981243D01*
X123236610Y-70962287D01*
X123402219Y-70841966D01*
X123546966Y-70697219D01*
X123546968Y-70697215D01*
X123546971Y-70697213D01*
X123667286Y-70531611D01*
X123667415Y-70531359D01*
X123694795Y-70477621D01*
X123742769Y-70426826D01*
X123810589Y-70410030D01*
X123876725Y-70432567D01*
X123915765Y-70477621D01*
X123943141Y-70531350D01*
X123943147Y-70531359D01*
X123975523Y-70575921D01*
X123975524Y-70575922D01*
X124655000Y-69896446D01*
X124655000Y-69902661D01*
X124682259Y-70004394D01*
X124734920Y-70095606D01*
X124809394Y-70170080D01*
X124900606Y-70222741D01*
X125002339Y-70250000D01*
X125008553Y-70250000D01*
X124329076Y-70929474D01*
X124373650Y-70961859D01*
X124555968Y-71054755D01*
X124750582Y-71117990D01*
X124952683Y-71150000D01*
X125157317Y-71150000D01*
X125359417Y-71117990D01*
X125554031Y-71054755D01*
X125736349Y-70961859D01*
X125780921Y-70929474D01*
X125101447Y-70250000D01*
X125107661Y-70250000D01*
X125209394Y-70222741D01*
X125300606Y-70170080D01*
X125375080Y-70095606D01*
X125427741Y-70004394D01*
X125455000Y-69902661D01*
X125455000Y-69896448D01*
X126134474Y-70575922D01*
X126134474Y-70575921D01*
X126166859Y-70531349D01*
X126259755Y-70349031D01*
X126310569Y-70192645D01*
X126350007Y-70134970D01*
X126414366Y-70107772D01*
X126483212Y-70119687D01*
X126534688Y-70166931D01*
X126546431Y-70192645D01*
X126597244Y-70349031D01*
X126690141Y-70531350D01*
X126690147Y-70531359D01*
X126722523Y-70575921D01*
X126722524Y-70575922D01*
X127402000Y-69896446D01*
X127402000Y-69902661D01*
G37*
%TD.AperFunction*%
%TD*%
M02*
