%TF.GenerationSoftware,KiCad,Pcbnew,9.0.2*%
%TF.CreationDate,2025-06-14T21:55:15+08:00*%
%TF.ProjectId,Tiny Solar Supply,54696e79-2053-46f6-9c61-722053757070,rev?*%
%TF.SameCoordinates,Original*%
%TF.FileFunction,Copper,L1,Top*%
%TF.FilePolarity,Positive*%
%FSLAX46Y46*%
G04 Gerber Fmt 4.6, Leading zero omitted, Abs format (unit mm)*
G04 Created by KiCad (PCBNEW 9.0.2) date 2025-06-14 21:55:15*
%MOMM*%
%LPD*%
G01*
G04 APERTURE LIST*
G04 Aperture macros list*
%AMRoundRect*
0 Rectangle with rounded corners*
0 $1 Rounding radius*
0 $2 $3 $4 $5 $6 $7 $8 $9 X,Y pos of 4 corners*
0 Add a 4 corners polygon primitive as box body*
4,1,4,$2,$3,$4,$5,$6,$7,$8,$9,$2,$3,0*
0 Add four circle primitives for the rounded corners*
1,1,$1+$1,$2,$3*
1,1,$1+$1,$4,$5*
1,1,$1+$1,$6,$7*
1,1,$1+$1,$8,$9*
0 Add four rect primitives between the rounded corners*
20,1,$1+$1,$2,$3,$4,$5,0*
20,1,$1+$1,$4,$5,$6,$7,0*
20,1,$1+$1,$6,$7,$8,$9,0*
20,1,$1+$1,$8,$9,$2,$3,0*%
G04 Aperture macros list end*
%TA.AperFunction,SMDPad,CuDef*%
%ADD10RoundRect,0.250000X0.262500X0.450000X-0.262500X0.450000X-0.262500X-0.450000X0.262500X-0.450000X0*%
%TD*%
%TA.AperFunction,ComponentPad*%
%ADD11RoundRect,0.250000X-0.550000X0.550000X-0.550000X-0.550000X0.550000X-0.550000X0.550000X0.550000X0*%
%TD*%
%TA.AperFunction,ComponentPad*%
%ADD12C,1.600000*%
%TD*%
%TA.AperFunction,ComponentPad*%
%ADD13R,1.700000X1.700000*%
%TD*%
%TA.AperFunction,ComponentPad*%
%ADD14C,1.700000*%
%TD*%
%TA.AperFunction,SMDPad,CuDef*%
%ADD15R,1.500000X2.120000*%
%TD*%
%TA.AperFunction,SMDPad,CuDef*%
%ADD16RoundRect,0.250000X-0.262500X-0.450000X0.262500X-0.450000X0.262500X0.450000X-0.262500X0.450000X0*%
%TD*%
%TA.AperFunction,SMDPad,CuDef*%
%ADD17RoundRect,0.250000X-0.450000X0.262500X-0.450000X-0.262500X0.450000X-0.262500X0.450000X0.262500X0*%
%TD*%
%TA.AperFunction,SMDPad,CuDef*%
%ADD18RoundRect,0.250000X0.250000X0.475000X-0.250000X0.475000X-0.250000X-0.475000X0.250000X-0.475000X0*%
%TD*%
%TA.AperFunction,SMDPad,CuDef*%
%ADD19R,0.558800X1.181100*%
%TD*%
%TA.AperFunction,SMDPad,CuDef*%
%ADD20RoundRect,0.150000X-0.150000X0.587500X-0.150000X-0.587500X0.150000X-0.587500X0.150000X0.587500X0*%
%TD*%
%TA.AperFunction,SMDPad,CuDef*%
%ADD21R,3.302000X2.667000*%
%TD*%
%TA.AperFunction,SMDPad,CuDef*%
%ADD22RoundRect,0.250000X0.325000X0.650000X-0.325000X0.650000X-0.325000X-0.650000X0.325000X-0.650000X0*%
%TD*%
%TA.AperFunction,SMDPad,CuDef*%
%ADD23RoundRect,0.250000X0.450000X-0.262500X0.450000X0.262500X-0.450000X0.262500X-0.450000X-0.262500X0*%
%TD*%
%TA.AperFunction,SMDPad,CuDef*%
%ADD24RoundRect,0.250000X-0.475000X0.250000X-0.475000X-0.250000X0.475000X-0.250000X0.475000X0.250000X0*%
%TD*%
%TA.AperFunction,SMDPad,CuDef*%
%ADD25R,2.120000X1.500000*%
%TD*%
%TA.AperFunction,ViaPad*%
%ADD26C,0.600000*%
%TD*%
%TA.AperFunction,Conductor*%
%ADD27C,0.200000*%
%TD*%
%TA.AperFunction,Conductor*%
%ADD28C,0.350000*%
%TD*%
G04 APERTURE END LIST*
D10*
%TO.P,R1,1*%
%TO.N,/OUT_P*%
X96162500Y-95250000D03*
%TO.P,R1,2*%
%TO.N,Net-(U1-FB)*%
X94337500Y-95250000D03*
%TD*%
D11*
%TO.P,J3,1,Pin_1*%
%TO.N,Net-(J3-Pin_1)*%
X88887500Y-87672500D03*
D12*
%TO.P,J3,2,Pin_2*%
%TO.N,/BAT_P*%
X88887500Y-95292500D03*
%TD*%
D13*
%TO.P,J2,1,Pin_1*%
%TO.N,GNDD*%
X78680000Y-100335000D03*
D14*
%TO.P,J2,2,Pin_2*%
%TO.N,/BAT_P*%
X78680000Y-97795000D03*
%TD*%
D13*
%TO.P,J1,1,Pin_1*%
%TO.N,GNDD*%
X108187800Y-93390800D03*
D14*
%TO.P,J1,2,Pin_2*%
%TO.N,/OUT_P*%
X108187800Y-95930800D03*
%TD*%
D15*
%TO.P,D2,C*%
%TO.N,/BAT_P*%
X82637500Y-96095000D03*
%TO.P,D2,A*%
%TO.N,/SOLAR_P*%
X82637500Y-91865000D03*
%TD*%
D16*
%TO.P,R2,2*%
%TO.N,GNDD*%
X96162500Y-100330000D03*
%TO.P,R2,1*%
%TO.N,Net-(U1-FB)*%
X94337500Y-100330000D03*
%TD*%
D17*
%TO.P,R3,2*%
%TO.N,Net-(Q1-D)*%
X87376000Y-100480500D03*
%TO.P,R3,1*%
%TO.N,Net-(J3-Pin_1)*%
X87376000Y-98655500D03*
%TD*%
D18*
%TO.P,C3,2*%
%TO.N,Net-(U1-FB)*%
X94300000Y-97790000D03*
%TO.P,C3,1*%
%TO.N,/OUT_P*%
X96200000Y-97790000D03*
%TD*%
D19*
%TO.P,U1,5,VIN*%
%TO.N,Net-(J3-Pin_1)*%
X96200001Y-91789250D03*
%TO.P,U1,4,SHDN*%
%TO.N,Net-(Q1-D)*%
X94299999Y-91789250D03*
%TO.P,U1,3,FB*%
%TO.N,Net-(U1-FB)*%
X94299999Y-89058750D03*
%TO.P,U1,2,GND*%
%TO.N,GNDD*%
X95250000Y-89058750D03*
%TO.P,U1,1,SW*%
%TO.N,Net-(U1-SW)*%
X96200001Y-89058750D03*
%TD*%
D20*
%TO.P,Q1,3,D*%
%TO.N,Net-(Q1-D)*%
X82550000Y-101013500D03*
%TO.P,Q1,2,S*%
%TO.N,GNDD*%
X81600000Y-99138500D03*
%TO.P,Q1,1,G*%
%TO.N,/SOLAR_P*%
X83500000Y-99138500D03*
%TD*%
D21*
%TO.P,L1,2,2*%
%TO.N,Net-(J3-Pin_1)*%
X102235000Y-93370400D03*
%TO.P,L1,1,1*%
%TO.N,Net-(U1-SW)*%
X102235000Y-88239600D03*
%TD*%
D22*
%TO.P,C2,2*%
%TO.N,GNDD*%
X100760000Y-100330000D03*
%TO.P,C2,1*%
%TO.N,/OUT_P*%
X103710000Y-100330000D03*
%TD*%
D14*
%TO.P,J4,2,Pin_2*%
%TO.N,/SOLAR_P*%
X78680000Y-88905000D03*
D13*
%TO.P,J4,1,Pin_1*%
%TO.N,GNDD*%
X78680000Y-91445000D03*
%TD*%
D23*
%TO.P,R4,2*%
%TO.N,GNDD*%
X82637500Y-87352500D03*
%TO.P,R4,1*%
%TO.N,/SOLAR_P*%
X82637500Y-89177500D03*
%TD*%
D24*
%TO.P,C1,2*%
%TO.N,GNDD*%
X90424000Y-100518000D03*
%TO.P,C1,1*%
%TO.N,Net-(J3-Pin_1)*%
X90424000Y-98618000D03*
%TD*%
D25*
%TO.P,D1,C*%
%TO.N,/OUT_P*%
X100495000Y-97155000D03*
%TO.P,D1,A*%
%TO.N,Net-(U1-SW)*%
X104725000Y-97155000D03*
%TD*%
D26*
%TO.N,Net-(Q1-D)*%
X85471000Y-99187000D03*
X91186000Y-97155000D03*
%TO.N,/BAT_P*%
X87884000Y-93980000D03*
X83439000Y-93980000D03*
%TO.N,GNDD*%
X84836000Y-85979000D03*
X98298000Y-100330000D03*
%TO.N,Net-(U1-FB)*%
X93091000Y-89027000D03*
X92837000Y-93091000D03*
%TD*%
D27*
%TO.N,Net-(Q1-D)*%
X85471000Y-99187000D02*
X85471000Y-100632500D01*
X85852000Y-101013500D02*
X86843000Y-101013500D01*
X91567000Y-97155000D02*
X91186000Y-97155000D01*
X91821000Y-96901000D02*
X91567000Y-97155000D01*
X91821000Y-92075000D02*
X91821000Y-96901000D01*
X92106750Y-91789250D02*
X91821000Y-92075000D01*
X85471000Y-100632500D02*
X85852000Y-101013500D01*
X92456000Y-91789250D02*
X92106750Y-91789250D01*
X82550000Y-101013500D02*
X85852000Y-101013500D01*
X86843000Y-101013500D02*
X87376000Y-100480500D01*
%TO.N,GNDD*%
X90424000Y-101219000D02*
X90424000Y-100518000D01*
X90678000Y-101473000D02*
X90424000Y-101219000D01*
X96162500Y-101195500D02*
X95885000Y-101473000D01*
X95885000Y-101473000D02*
X90678000Y-101473000D01*
X96162500Y-100330000D02*
X96162500Y-101195500D01*
D28*
%TO.N,/OUT_P*%
X103710000Y-100330000D02*
X103710000Y-98855000D01*
X103886000Y-98679000D02*
X107569000Y-98679000D01*
X103710000Y-98855000D02*
X103886000Y-98679000D01*
X108187800Y-98027800D02*
X108187800Y-95930800D01*
X108204000Y-98044000D02*
X108187800Y-98027800D01*
X107569000Y-98679000D02*
X108204000Y-98044000D01*
X100838000Y-98679000D02*
X103886000Y-98679000D01*
D27*
%TO.N,/BAT_P*%
X88887500Y-94348500D02*
X88887500Y-95292500D01*
X87884000Y-93980000D02*
X88519000Y-93980000D01*
X88519000Y-93980000D02*
X88887500Y-94348500D01*
X83058000Y-93980000D02*
X83439000Y-93980000D01*
X82637500Y-94400500D02*
X83058000Y-93980000D01*
X82637500Y-96095000D02*
X82637500Y-94400500D01*
D28*
%TO.N,GNDD*%
X77239500Y-87352500D02*
X82637500Y-87352500D01*
X76454000Y-91948000D02*
X76454000Y-88138000D01*
X76454000Y-88138000D02*
X77239500Y-87352500D01*
D27*
X79876500Y-99138500D02*
X78680000Y-100335000D01*
X81600000Y-99138500D02*
X79876500Y-99138500D01*
X84836000Y-85979000D02*
X83058000Y-85979000D01*
X82637500Y-86399500D02*
X82637500Y-87352500D01*
X94869000Y-85979000D02*
X84836000Y-85979000D01*
X83058000Y-85979000D02*
X82637500Y-86399500D01*
X95250000Y-86360000D02*
X94869000Y-85979000D01*
X95250000Y-89058750D02*
X95250000Y-86360000D01*
X81600000Y-99138500D02*
X81600000Y-98872000D01*
D28*
X77094000Y-100335000D02*
X78680000Y-100335000D01*
X76454000Y-91948000D02*
X76454000Y-99695000D01*
X76454000Y-99695000D02*
X77094000Y-100335000D01*
X76957000Y-91445000D02*
X76454000Y-91948000D01*
X78680000Y-91445000D02*
X76957000Y-91445000D01*
D27*
X90424000Y-100518000D02*
X90363000Y-100518000D01*
X98298000Y-100330000D02*
X100760000Y-100330000D01*
%TO.N,Net-(Q1-D)*%
X94299999Y-91789250D02*
X92456000Y-91789250D01*
%TO.N,Net-(J3-Pin_1)*%
X90678000Y-90424000D02*
X90424000Y-90678000D01*
X95758000Y-90424000D02*
X90678000Y-90424000D01*
X90424000Y-90678000D02*
X90424000Y-88138000D01*
X89958500Y-87672500D02*
X88887500Y-87672500D01*
X90424000Y-98618000D02*
X90424000Y-90678000D01*
X90424000Y-88138000D02*
X89958500Y-87672500D01*
X90386500Y-98655500D02*
X90424000Y-98618000D01*
X87376000Y-98655500D02*
X90386500Y-98655500D01*
%TO.N,Net-(U1-FB)*%
X93091000Y-89027000D02*
X94268249Y-89027000D01*
X94268249Y-89027000D02*
X94299999Y-89058750D01*
X92837000Y-94869000D02*
X92837000Y-93091000D01*
X93218000Y-95250000D02*
X92837000Y-94869000D01*
X94337500Y-95250000D02*
X93218000Y-95250000D01*
%TO.N,Net-(Q1-D)*%
X94268249Y-91821000D02*
X94299999Y-91789250D01*
%TO.N,Net-(J3-Pin_1)*%
X96200001Y-90866001D02*
X95758000Y-90424000D01*
X96200001Y-91789250D02*
X96200001Y-90866001D01*
D28*
%TO.N,/SOLAR_P*%
X84181500Y-91865000D02*
X82637500Y-91865000D01*
X84709000Y-98552000D02*
X84709000Y-92392500D01*
X84122500Y-99138500D02*
X84709000Y-98552000D01*
X84709000Y-92392500D02*
X84181500Y-91865000D01*
X83500000Y-99138500D02*
X84122500Y-99138500D01*
D27*
%TO.N,GNDD*%
X100838000Y-100408000D02*
X100760000Y-100330000D01*
X108233600Y-93345000D02*
X108187800Y-93390800D01*
%TO.N,Net-(U1-SW)*%
X102362000Y-88112600D02*
X102235000Y-88239600D01*
X102362000Y-85979000D02*
X102362000Y-88112600D01*
X106172000Y-85979000D02*
X102616000Y-85979000D01*
X102362000Y-85979000D02*
X96901000Y-85979000D01*
X102616000Y-85979000D02*
X102362000Y-85979000D01*
X106680000Y-86487000D02*
X106172000Y-85979000D01*
X106680000Y-96647000D02*
X106680000Y-86487000D01*
X106172000Y-97155000D02*
X106680000Y-96647000D01*
X104725000Y-97155000D02*
X106172000Y-97155000D01*
%TO.N,Net-(J3-Pin_1)*%
X97536000Y-92329000D02*
X96996250Y-91789250D01*
X97536000Y-94869000D02*
X97536000Y-92329000D01*
X96996250Y-91789250D02*
X96200001Y-91789250D01*
X98044000Y-95377000D02*
X97536000Y-94869000D01*
X101727000Y-95377000D02*
X98044000Y-95377000D01*
X102235000Y-93370400D02*
X102235000Y-94869000D01*
X102235000Y-94869000D02*
X101727000Y-95377000D01*
%TO.N,Net-(U1-SW)*%
X96901000Y-85979000D02*
X96200001Y-86679999D01*
X96200001Y-86679999D02*
X96200001Y-89058750D01*
D28*
%TO.N,/OUT_P*%
X100495000Y-98336000D02*
X100838000Y-98679000D01*
X100495000Y-97155000D02*
X100495000Y-98336000D01*
D27*
%TO.N,GNDD*%
X96162500Y-100330000D02*
X98298000Y-100330000D01*
D28*
%TO.N,/OUT_P*%
X96835000Y-97155000D02*
X96200000Y-97790000D01*
X100495000Y-97155000D02*
X96835000Y-97155000D01*
D27*
X96162500Y-95250000D02*
X96162500Y-97752500D01*
X96162500Y-97752500D02*
X96200000Y-97790000D01*
%TO.N,Net-(U1-FB)*%
X94234000Y-88992751D02*
X94299999Y-89058750D01*
X94337500Y-97752500D02*
X94337500Y-95250000D01*
X94300000Y-97790000D02*
X94337500Y-97752500D01*
X94337500Y-97827500D02*
X94300000Y-97790000D01*
X94337500Y-100330000D02*
X94337500Y-97827500D01*
X94234000Y-100330000D02*
X94107000Y-100203000D01*
X94337500Y-100330000D02*
X94234000Y-100330000D01*
%TO.N,/OUT_P*%
X96200000Y-95287500D02*
X96162500Y-95250000D01*
D28*
%TO.N,/SOLAR_P*%
X82720500Y-91948000D02*
X82637500Y-91865000D01*
D27*
%TO.N,Net-(J3-Pin_1)*%
X88930000Y-87630000D02*
X88887500Y-87672500D01*
X96266000Y-91855249D02*
X96200001Y-91789250D01*
%TO.N,/OUT_P*%
X96162500Y-97827500D02*
X96200000Y-97790000D01*
D28*
%TO.N,/SOLAR_P*%
X78952500Y-89177500D02*
X78680000Y-88905000D01*
X82637500Y-89177500D02*
X78952500Y-89177500D01*
X82637500Y-89177500D02*
X82637500Y-91865000D01*
D27*
%TO.N,/BAT_P*%
X78680000Y-96326000D02*
X78680000Y-97795000D01*
X78911000Y-96095000D02*
X78680000Y-96326000D01*
X82637500Y-96095000D02*
X78911000Y-96095000D01*
D28*
%TO.N,GNDD*%
X78685000Y-91440000D02*
X78680000Y-91445000D01*
%TD*%
M02*
