%TF.GenerationSoftware,KiCad,Pcbnew,9.0.2*%
%TF.CreationDate,2025-06-14T21:55:15+08:00*%
%TF.ProjectId,Tiny Solar Supply,54696e79-2053-46f6-9c61-722053757070,rev?*%
%TF.SameCoordinates,Original*%
%TF.FileFunction,Legend,Top*%
%TF.FilePolarity,Positive*%
%FSLAX46Y46*%
G04 Gerber Fmt 4.6, Leading zero omitted, Abs format (unit mm)*
G04 Created by KiCad (PCBNEW 9.0.2) date 2025-06-14 21:55:15*
%MOMM*%
%LPD*%
G01*
G04 APERTURE LIST*
%ADD10C,0.100000*%
%ADD11C,0.000000*%
%ADD12C,0.120000*%
%ADD13C,0.200000*%
%ADD14C,0.127000*%
%ADD15C,0.152400*%
G04 APERTURE END LIST*
D10*
X92576667Y-95614895D02*
X92310000Y-95233942D01*
X92119524Y-95614895D02*
X92119524Y-94814895D01*
X92119524Y-94814895D02*
X92424286Y-94814895D01*
X92424286Y-94814895D02*
X92500476Y-94852990D01*
X92500476Y-94852990D02*
X92538571Y-94891085D01*
X92538571Y-94891085D02*
X92576667Y-94967276D01*
X92576667Y-94967276D02*
X92576667Y-95081561D01*
X92576667Y-95081561D02*
X92538571Y-95157752D01*
X92538571Y-95157752D02*
X92500476Y-95195847D01*
X92500476Y-95195847D02*
X92424286Y-95233942D01*
X92424286Y-95233942D02*
X92119524Y-95233942D01*
X93338571Y-95614895D02*
X92881428Y-95614895D01*
X93110000Y-95614895D02*
X93110000Y-94814895D01*
X93110000Y-94814895D02*
X93033809Y-94929180D01*
X93033809Y-94929180D02*
X92957619Y-95005371D01*
X92957619Y-95005371D02*
X92881428Y-95043466D01*
X95021428Y-94090895D02*
X94564285Y-94090895D01*
X94792857Y-94090895D02*
X94792857Y-93290895D01*
X94792857Y-93290895D02*
X94716666Y-93405180D01*
X94716666Y-93405180D02*
X94640476Y-93481371D01*
X94640476Y-93481371D02*
X94564285Y-93519466D01*
X95364286Y-94090895D02*
X95364286Y-93290895D01*
X95364286Y-93290895D02*
X95630952Y-93862323D01*
X95630952Y-93862323D02*
X95897619Y-93290895D01*
X95897619Y-93290895D02*
X95897619Y-94090895D01*
X85061295Y-96024666D02*
X85632723Y-96024666D01*
X85632723Y-96024666D02*
X85747009Y-96062761D01*
X85747009Y-96062761D02*
X85823200Y-96138952D01*
X85823200Y-96138952D02*
X85861295Y-96253237D01*
X85861295Y-96253237D02*
X85861295Y-96329428D01*
X85061295Y-95719904D02*
X85061295Y-95224666D01*
X85061295Y-95224666D02*
X85366057Y-95491332D01*
X85366057Y-95491332D02*
X85366057Y-95377047D01*
X85366057Y-95377047D02*
X85404152Y-95300856D01*
X85404152Y-95300856D02*
X85442247Y-95262761D01*
X85442247Y-95262761D02*
X85518438Y-95224666D01*
X85518438Y-95224666D02*
X85708914Y-95224666D01*
X85708914Y-95224666D02*
X85785104Y-95262761D01*
X85785104Y-95262761D02*
X85823200Y-95300856D01*
X85823200Y-95300856D02*
X85861295Y-95377047D01*
X85861295Y-95377047D02*
X85861295Y-95605618D01*
X85861295Y-95605618D02*
X85823200Y-95681809D01*
X85823200Y-95681809D02*
X85785104Y-95719904D01*
X78473333Y-102434895D02*
X78473333Y-103006323D01*
X78473333Y-103006323D02*
X78435238Y-103120609D01*
X78435238Y-103120609D02*
X78359047Y-103196800D01*
X78359047Y-103196800D02*
X78244762Y-103234895D01*
X78244762Y-103234895D02*
X78168571Y-103234895D01*
X78816190Y-102511085D02*
X78854286Y-102472990D01*
X78854286Y-102472990D02*
X78930476Y-102434895D01*
X78930476Y-102434895D02*
X79120952Y-102434895D01*
X79120952Y-102434895D02*
X79197143Y-102472990D01*
X79197143Y-102472990D02*
X79235238Y-102511085D01*
X79235238Y-102511085D02*
X79273333Y-102587276D01*
X79273333Y-102587276D02*
X79273333Y-102663466D01*
X79273333Y-102663466D02*
X79235238Y-102777752D01*
X79235238Y-102777752D02*
X78778095Y-103234895D01*
X78778095Y-103234895D02*
X79273333Y-103234895D01*
X106921333Y-90496895D02*
X106921333Y-91068323D01*
X106921333Y-91068323D02*
X106883238Y-91182609D01*
X106883238Y-91182609D02*
X106807047Y-91258800D01*
X106807047Y-91258800D02*
X106692762Y-91296895D01*
X106692762Y-91296895D02*
X106616571Y-91296895D01*
X107721333Y-91296895D02*
X107264190Y-91296895D01*
X107492762Y-91296895D02*
X107492762Y-90496895D01*
X107492762Y-90496895D02*
X107416571Y-90611180D01*
X107416571Y-90611180D02*
X107340381Y-90687371D01*
X107340381Y-90687371D02*
X107264190Y-90725466D01*
X80882895Y-94824475D02*
X80082895Y-94824475D01*
X80082895Y-94824475D02*
X80082895Y-94633999D01*
X80082895Y-94633999D02*
X80120990Y-94519713D01*
X80120990Y-94519713D02*
X80197180Y-94443523D01*
X80197180Y-94443523D02*
X80273371Y-94405428D01*
X80273371Y-94405428D02*
X80425752Y-94367332D01*
X80425752Y-94367332D02*
X80540038Y-94367332D01*
X80540038Y-94367332D02*
X80692419Y-94405428D01*
X80692419Y-94405428D02*
X80768609Y-94443523D01*
X80768609Y-94443523D02*
X80844800Y-94519713D01*
X80844800Y-94519713D02*
X80882895Y-94633999D01*
X80882895Y-94633999D02*
X80882895Y-94824475D01*
X80159085Y-94062571D02*
X80120990Y-94024475D01*
X80120990Y-94024475D02*
X80082895Y-93948285D01*
X80082895Y-93948285D02*
X80082895Y-93757809D01*
X80082895Y-93757809D02*
X80120990Y-93681618D01*
X80120990Y-93681618D02*
X80159085Y-93643523D01*
X80159085Y-93643523D02*
X80235276Y-93605428D01*
X80235276Y-93605428D02*
X80311466Y-93605428D01*
X80311466Y-93605428D02*
X80425752Y-93643523D01*
X80425752Y-93643523D02*
X80882895Y-94100666D01*
X80882895Y-94100666D02*
X80882895Y-93605428D01*
X85416800Y-93319429D02*
X85454895Y-93205143D01*
X85454895Y-93205143D02*
X85454895Y-93014667D01*
X85454895Y-93014667D02*
X85416800Y-92938476D01*
X85416800Y-92938476D02*
X85378704Y-92900381D01*
X85378704Y-92900381D02*
X85302514Y-92862286D01*
X85302514Y-92862286D02*
X85226323Y-92862286D01*
X85226323Y-92862286D02*
X85150133Y-92900381D01*
X85150133Y-92900381D02*
X85112038Y-92938476D01*
X85112038Y-92938476D02*
X85073942Y-93014667D01*
X85073942Y-93014667D02*
X85035847Y-93167048D01*
X85035847Y-93167048D02*
X84997752Y-93243238D01*
X84997752Y-93243238D02*
X84959657Y-93281333D01*
X84959657Y-93281333D02*
X84883466Y-93319429D01*
X84883466Y-93319429D02*
X84807276Y-93319429D01*
X84807276Y-93319429D02*
X84731085Y-93281333D01*
X84731085Y-93281333D02*
X84692990Y-93243238D01*
X84692990Y-93243238D02*
X84654895Y-93167048D01*
X84654895Y-93167048D02*
X84654895Y-92976571D01*
X84654895Y-92976571D02*
X84692990Y-92862286D01*
X85416800Y-92557524D02*
X85454895Y-92443238D01*
X85454895Y-92443238D02*
X85454895Y-92252762D01*
X85454895Y-92252762D02*
X85416800Y-92176571D01*
X85416800Y-92176571D02*
X85378704Y-92138476D01*
X85378704Y-92138476D02*
X85302514Y-92100381D01*
X85302514Y-92100381D02*
X85226323Y-92100381D01*
X85226323Y-92100381D02*
X85150133Y-92138476D01*
X85150133Y-92138476D02*
X85112038Y-92176571D01*
X85112038Y-92176571D02*
X85073942Y-92252762D01*
X85073942Y-92252762D02*
X85035847Y-92405143D01*
X85035847Y-92405143D02*
X84997752Y-92481333D01*
X84997752Y-92481333D02*
X84959657Y-92519428D01*
X84959657Y-92519428D02*
X84883466Y-92557524D01*
X84883466Y-92557524D02*
X84807276Y-92557524D01*
X84807276Y-92557524D02*
X84731085Y-92519428D01*
X84731085Y-92519428D02*
X84692990Y-92481333D01*
X84692990Y-92481333D02*
X84654895Y-92405143D01*
X84654895Y-92405143D02*
X84654895Y-92214666D01*
X84654895Y-92214666D02*
X84692990Y-92100381D01*
X85454895Y-91338476D02*
X85454895Y-91795619D01*
X85454895Y-91567047D02*
X84654895Y-91567047D01*
X84654895Y-91567047D02*
X84769180Y-91643238D01*
X84769180Y-91643238D02*
X84845371Y-91719428D01*
X84845371Y-91719428D02*
X84883466Y-91795619D01*
X84921561Y-90652761D02*
X85454895Y-90652761D01*
X84616800Y-90843237D02*
X85188228Y-91033714D01*
X85188228Y-91033714D02*
X85188228Y-90538475D01*
X94100667Y-102472895D02*
X93834000Y-102091942D01*
X93643524Y-102472895D02*
X93643524Y-101672895D01*
X93643524Y-101672895D02*
X93948286Y-101672895D01*
X93948286Y-101672895D02*
X94024476Y-101710990D01*
X94024476Y-101710990D02*
X94062571Y-101749085D01*
X94062571Y-101749085D02*
X94100667Y-101825276D01*
X94100667Y-101825276D02*
X94100667Y-101939561D01*
X94100667Y-101939561D02*
X94062571Y-102015752D01*
X94062571Y-102015752D02*
X94024476Y-102053847D01*
X94024476Y-102053847D02*
X93948286Y-102091942D01*
X93948286Y-102091942D02*
X93643524Y-102091942D01*
X94405428Y-101749085D02*
X94443524Y-101710990D01*
X94443524Y-101710990D02*
X94519714Y-101672895D01*
X94519714Y-101672895D02*
X94710190Y-101672895D01*
X94710190Y-101672895D02*
X94786381Y-101710990D01*
X94786381Y-101710990D02*
X94824476Y-101749085D01*
X94824476Y-101749085D02*
X94862571Y-101825276D01*
X94862571Y-101825276D02*
X94862571Y-101901466D01*
X94862571Y-101901466D02*
X94824476Y-102015752D01*
X94824476Y-102015752D02*
X94367333Y-102472895D01*
X94367333Y-102472895D02*
X94862571Y-102472895D01*
X96272476Y-101672895D02*
X96120095Y-101672895D01*
X96120095Y-101672895D02*
X96043904Y-101710990D01*
X96043904Y-101710990D02*
X96005809Y-101749085D01*
X96005809Y-101749085D02*
X95929619Y-101863371D01*
X95929619Y-101863371D02*
X95891523Y-102015752D01*
X95891523Y-102015752D02*
X95891523Y-102320514D01*
X95891523Y-102320514D02*
X95929619Y-102396704D01*
X95929619Y-102396704D02*
X95967714Y-102434800D01*
X95967714Y-102434800D02*
X96043904Y-102472895D01*
X96043904Y-102472895D02*
X96196285Y-102472895D01*
X96196285Y-102472895D02*
X96272476Y-102434800D01*
X96272476Y-102434800D02*
X96310571Y-102396704D01*
X96310571Y-102396704D02*
X96348666Y-102320514D01*
X96348666Y-102320514D02*
X96348666Y-102130038D01*
X96348666Y-102130038D02*
X96310571Y-102053847D01*
X96310571Y-102053847D02*
X96272476Y-102015752D01*
X96272476Y-102015752D02*
X96196285Y-101977657D01*
X96196285Y-101977657D02*
X96043904Y-101977657D01*
X96043904Y-101977657D02*
X95967714Y-102015752D01*
X95967714Y-102015752D02*
X95929619Y-102053847D01*
X95929619Y-102053847D02*
X95891523Y-102130038D01*
X96843905Y-101672895D02*
X96920095Y-101672895D01*
X96920095Y-101672895D02*
X96996286Y-101710990D01*
X96996286Y-101710990D02*
X97034381Y-101749085D01*
X97034381Y-101749085D02*
X97072476Y-101825276D01*
X97072476Y-101825276D02*
X97110571Y-101977657D01*
X97110571Y-101977657D02*
X97110571Y-102168133D01*
X97110571Y-102168133D02*
X97072476Y-102320514D01*
X97072476Y-102320514D02*
X97034381Y-102396704D01*
X97034381Y-102396704D02*
X96996286Y-102434800D01*
X96996286Y-102434800D02*
X96920095Y-102472895D01*
X96920095Y-102472895D02*
X96843905Y-102472895D01*
X96843905Y-102472895D02*
X96767714Y-102434800D01*
X96767714Y-102434800D02*
X96729619Y-102396704D01*
X96729619Y-102396704D02*
X96691524Y-102320514D01*
X96691524Y-102320514D02*
X96653428Y-102168133D01*
X96653428Y-102168133D02*
X96653428Y-101977657D01*
X96653428Y-101977657D02*
X96691524Y-101825276D01*
X96691524Y-101825276D02*
X96729619Y-101749085D01*
X96729619Y-101749085D02*
X96767714Y-101710990D01*
X96767714Y-101710990D02*
X96843905Y-101672895D01*
X97796286Y-101939561D02*
X97796286Y-102472895D01*
X97605810Y-101634800D02*
X97415333Y-102206228D01*
X97415333Y-102206228D02*
X97910572Y-102206228D01*
X98215334Y-102472895D02*
X98215334Y-101672895D01*
X98672477Y-102472895D02*
X98329619Y-102015752D01*
X98672477Y-101672895D02*
X98215334Y-102130038D01*
X87740895Y-102241332D02*
X87359942Y-102507999D01*
X87740895Y-102698475D02*
X86940895Y-102698475D01*
X86940895Y-102698475D02*
X86940895Y-102393713D01*
X86940895Y-102393713D02*
X86978990Y-102317523D01*
X86978990Y-102317523D02*
X87017085Y-102279428D01*
X87017085Y-102279428D02*
X87093276Y-102241332D01*
X87093276Y-102241332D02*
X87207561Y-102241332D01*
X87207561Y-102241332D02*
X87283752Y-102279428D01*
X87283752Y-102279428D02*
X87321847Y-102317523D01*
X87321847Y-102317523D02*
X87359942Y-102393713D01*
X87359942Y-102393713D02*
X87359942Y-102698475D01*
X86940895Y-101974666D02*
X86940895Y-101479428D01*
X86940895Y-101479428D02*
X87245657Y-101746094D01*
X87245657Y-101746094D02*
X87245657Y-101631809D01*
X87245657Y-101631809D02*
X87283752Y-101555618D01*
X87283752Y-101555618D02*
X87321847Y-101517523D01*
X87321847Y-101517523D02*
X87398038Y-101479428D01*
X87398038Y-101479428D02*
X87588514Y-101479428D01*
X87588514Y-101479428D02*
X87664704Y-101517523D01*
X87664704Y-101517523D02*
X87702800Y-101555618D01*
X87702800Y-101555618D02*
X87740895Y-101631809D01*
X87740895Y-101631809D02*
X87740895Y-101860380D01*
X87740895Y-101860380D02*
X87702800Y-101936571D01*
X87702800Y-101936571D02*
X87664704Y-101974666D01*
X89264895Y-100120381D02*
X89264895Y-100577524D01*
X89264895Y-100348952D02*
X88464895Y-100348952D01*
X88464895Y-100348952D02*
X88579180Y-100425143D01*
X88579180Y-100425143D02*
X88655371Y-100501333D01*
X88655371Y-100501333D02*
X88693466Y-100577524D01*
X88464895Y-99625142D02*
X88464895Y-99548952D01*
X88464895Y-99548952D02*
X88502990Y-99472761D01*
X88502990Y-99472761D02*
X88541085Y-99434666D01*
X88541085Y-99434666D02*
X88617276Y-99396571D01*
X88617276Y-99396571D02*
X88769657Y-99358476D01*
X88769657Y-99358476D02*
X88960133Y-99358476D01*
X88960133Y-99358476D02*
X89112514Y-99396571D01*
X89112514Y-99396571D02*
X89188704Y-99434666D01*
X89188704Y-99434666D02*
X89226800Y-99472761D01*
X89226800Y-99472761D02*
X89264895Y-99548952D01*
X89264895Y-99548952D02*
X89264895Y-99625142D01*
X89264895Y-99625142D02*
X89226800Y-99701333D01*
X89226800Y-99701333D02*
X89188704Y-99739428D01*
X89188704Y-99739428D02*
X89112514Y-99777523D01*
X89112514Y-99777523D02*
X88960133Y-99815619D01*
X88960133Y-99815619D02*
X88769657Y-99815619D01*
X88769657Y-99815619D02*
X88617276Y-99777523D01*
X88617276Y-99777523D02*
X88541085Y-99739428D01*
X88541085Y-99739428D02*
X88502990Y-99701333D01*
X88502990Y-99701333D02*
X88464895Y-99625142D01*
X89264895Y-99015618D02*
X88464895Y-99015618D01*
X89264895Y-98558475D02*
X88807752Y-98901333D01*
X88464895Y-98558475D02*
X88922038Y-99015618D01*
X93252704Y-97923332D02*
X93290800Y-97961428D01*
X93290800Y-97961428D02*
X93328895Y-98075713D01*
X93328895Y-98075713D02*
X93328895Y-98151904D01*
X93328895Y-98151904D02*
X93290800Y-98266190D01*
X93290800Y-98266190D02*
X93214609Y-98342380D01*
X93214609Y-98342380D02*
X93138419Y-98380475D01*
X93138419Y-98380475D02*
X92986038Y-98418571D01*
X92986038Y-98418571D02*
X92871752Y-98418571D01*
X92871752Y-98418571D02*
X92719371Y-98380475D01*
X92719371Y-98380475D02*
X92643180Y-98342380D01*
X92643180Y-98342380D02*
X92566990Y-98266190D01*
X92566990Y-98266190D02*
X92528895Y-98151904D01*
X92528895Y-98151904D02*
X92528895Y-98075713D01*
X92528895Y-98075713D02*
X92566990Y-97961428D01*
X92566990Y-97961428D02*
X92605085Y-97923332D01*
X92528895Y-97656666D02*
X92528895Y-97161428D01*
X92528895Y-97161428D02*
X92833657Y-97428094D01*
X92833657Y-97428094D02*
X92833657Y-97313809D01*
X92833657Y-97313809D02*
X92871752Y-97237618D01*
X92871752Y-97237618D02*
X92909847Y-97199523D01*
X92909847Y-97199523D02*
X92986038Y-97161428D01*
X92986038Y-97161428D02*
X93176514Y-97161428D01*
X93176514Y-97161428D02*
X93252704Y-97199523D01*
X93252704Y-97199523D02*
X93290800Y-97237618D01*
X93290800Y-97237618D02*
X93328895Y-97313809D01*
X93328895Y-97313809D02*
X93328895Y-97542380D01*
X93328895Y-97542380D02*
X93290800Y-97618571D01*
X93290800Y-97618571D02*
X93252704Y-97656666D01*
X97900895Y-98647143D02*
X97900895Y-99104286D01*
X97900895Y-98875714D02*
X97100895Y-98875714D01*
X97100895Y-98875714D02*
X97215180Y-98951905D01*
X97215180Y-98951905D02*
X97291371Y-99028095D01*
X97291371Y-99028095D02*
X97329466Y-99104286D01*
X97100895Y-98151904D02*
X97100895Y-98075714D01*
X97100895Y-98075714D02*
X97138990Y-97999523D01*
X97138990Y-97999523D02*
X97177085Y-97961428D01*
X97177085Y-97961428D02*
X97253276Y-97923333D01*
X97253276Y-97923333D02*
X97405657Y-97885238D01*
X97405657Y-97885238D02*
X97596133Y-97885238D01*
X97596133Y-97885238D02*
X97748514Y-97923333D01*
X97748514Y-97923333D02*
X97824704Y-97961428D01*
X97824704Y-97961428D02*
X97862800Y-97999523D01*
X97862800Y-97999523D02*
X97900895Y-98075714D01*
X97900895Y-98075714D02*
X97900895Y-98151904D01*
X97900895Y-98151904D02*
X97862800Y-98228095D01*
X97862800Y-98228095D02*
X97824704Y-98266190D01*
X97824704Y-98266190D02*
X97748514Y-98304285D01*
X97748514Y-98304285D02*
X97596133Y-98342381D01*
X97596133Y-98342381D02*
X97405657Y-98342381D01*
X97405657Y-98342381D02*
X97253276Y-98304285D01*
X97253276Y-98304285D02*
X97177085Y-98266190D01*
X97177085Y-98266190D02*
X97138990Y-98228095D01*
X97138990Y-98228095D02*
X97100895Y-98151904D01*
X97367561Y-97542380D02*
X98167561Y-97542380D01*
X97405657Y-97542380D02*
X97367561Y-97466190D01*
X97367561Y-97466190D02*
X97367561Y-97313809D01*
X97367561Y-97313809D02*
X97405657Y-97237618D01*
X97405657Y-97237618D02*
X97443752Y-97199523D01*
X97443752Y-97199523D02*
X97519942Y-97161428D01*
X97519942Y-97161428D02*
X97748514Y-97161428D01*
X97748514Y-97161428D02*
X97824704Y-97199523D01*
X97824704Y-97199523D02*
X97862800Y-97237618D01*
X97862800Y-97237618D02*
X97900895Y-97313809D01*
X97900895Y-97313809D02*
X97900895Y-97466190D01*
X97900895Y-97466190D02*
X97862800Y-97542380D01*
X97481847Y-96551904D02*
X97481847Y-96818570D01*
X97900895Y-96818570D02*
X97100895Y-96818570D01*
X97100895Y-96818570D02*
X97100895Y-96437618D01*
X91846476Y-89988895D02*
X91846476Y-90636514D01*
X91846476Y-90636514D02*
X91884571Y-90712704D01*
X91884571Y-90712704D02*
X91922666Y-90750800D01*
X91922666Y-90750800D02*
X91998857Y-90788895D01*
X91998857Y-90788895D02*
X92151238Y-90788895D01*
X92151238Y-90788895D02*
X92227428Y-90750800D01*
X92227428Y-90750800D02*
X92265523Y-90712704D01*
X92265523Y-90712704D02*
X92303619Y-90636514D01*
X92303619Y-90636514D02*
X92303619Y-89988895D01*
X93103618Y-90788895D02*
X92646475Y-90788895D01*
X92875047Y-90788895D02*
X92875047Y-89988895D01*
X92875047Y-89988895D02*
X92798856Y-90103180D01*
X92798856Y-90103180D02*
X92722666Y-90179371D01*
X92722666Y-90179371D02*
X92646475Y-90217466D01*
X93135713Y-87766323D02*
X93516666Y-87766323D01*
X93059523Y-87994895D02*
X93326190Y-87194895D01*
X93326190Y-87194895D02*
X93592856Y-87994895D01*
X93859523Y-87994895D02*
X93859523Y-87194895D01*
X93859523Y-87194895D02*
X94164285Y-87194895D01*
X94164285Y-87194895D02*
X94240475Y-87232990D01*
X94240475Y-87232990D02*
X94278570Y-87271085D01*
X94278570Y-87271085D02*
X94316666Y-87347276D01*
X94316666Y-87347276D02*
X94316666Y-87461561D01*
X94316666Y-87461561D02*
X94278570Y-87537752D01*
X94278570Y-87537752D02*
X94240475Y-87575847D01*
X94240475Y-87575847D02*
X94164285Y-87613942D01*
X94164285Y-87613942D02*
X93859523Y-87613942D01*
X94583332Y-87194895D02*
X95078570Y-87194895D01*
X95078570Y-87194895D02*
X94811904Y-87499657D01*
X94811904Y-87499657D02*
X94926189Y-87499657D01*
X94926189Y-87499657D02*
X95002380Y-87537752D01*
X95002380Y-87537752D02*
X95040475Y-87575847D01*
X95040475Y-87575847D02*
X95078570Y-87652038D01*
X95078570Y-87652038D02*
X95078570Y-87842514D01*
X95078570Y-87842514D02*
X95040475Y-87918704D01*
X95040475Y-87918704D02*
X95002380Y-87956800D01*
X95002380Y-87956800D02*
X94926189Y-87994895D01*
X94926189Y-87994895D02*
X94697618Y-87994895D01*
X94697618Y-87994895D02*
X94621427Y-87956800D01*
X94621427Y-87956800D02*
X94583332Y-87918704D01*
X95573809Y-87194895D02*
X95649999Y-87194895D01*
X95649999Y-87194895D02*
X95726190Y-87232990D01*
X95726190Y-87232990D02*
X95764285Y-87271085D01*
X95764285Y-87271085D02*
X95802380Y-87347276D01*
X95802380Y-87347276D02*
X95840475Y-87499657D01*
X95840475Y-87499657D02*
X95840475Y-87690133D01*
X95840475Y-87690133D02*
X95802380Y-87842514D01*
X95802380Y-87842514D02*
X95764285Y-87918704D01*
X95764285Y-87918704D02*
X95726190Y-87956800D01*
X95726190Y-87956800D02*
X95649999Y-87994895D01*
X95649999Y-87994895D02*
X95573809Y-87994895D01*
X95573809Y-87994895D02*
X95497618Y-87956800D01*
X95497618Y-87956800D02*
X95459523Y-87918704D01*
X95459523Y-87918704D02*
X95421428Y-87842514D01*
X95421428Y-87842514D02*
X95383332Y-87690133D01*
X95383332Y-87690133D02*
X95383332Y-87499657D01*
X95383332Y-87499657D02*
X95421428Y-87347276D01*
X95421428Y-87347276D02*
X95459523Y-87271085D01*
X95459523Y-87271085D02*
X95497618Y-87232990D01*
X95497618Y-87232990D02*
X95573809Y-87194895D01*
X96602380Y-87994895D02*
X96145237Y-87994895D01*
X96373809Y-87994895D02*
X96373809Y-87194895D01*
X96373809Y-87194895D02*
X96297618Y-87309180D01*
X96297618Y-87309180D02*
X96221428Y-87385371D01*
X96221428Y-87385371D02*
X96145237Y-87423466D01*
X97326190Y-87194895D02*
X96945238Y-87194895D01*
X96945238Y-87194895D02*
X96907142Y-87575847D01*
X96907142Y-87575847D02*
X96945238Y-87537752D01*
X96945238Y-87537752D02*
X97021428Y-87499657D01*
X97021428Y-87499657D02*
X97211904Y-87499657D01*
X97211904Y-87499657D02*
X97288095Y-87537752D01*
X97288095Y-87537752D02*
X97326190Y-87575847D01*
X97326190Y-87575847D02*
X97364285Y-87652038D01*
X97364285Y-87652038D02*
X97364285Y-87842514D01*
X97364285Y-87842514D02*
X97326190Y-87918704D01*
X97326190Y-87918704D02*
X97288095Y-87956800D01*
X97288095Y-87956800D02*
X97211904Y-87994895D01*
X97211904Y-87994895D02*
X97021428Y-87994895D01*
X97021428Y-87994895D02*
X96945238Y-87956800D01*
X96945238Y-87956800D02*
X96907142Y-87918704D01*
X85267809Y-100517085D02*
X85191619Y-100478990D01*
X85191619Y-100478990D02*
X85115428Y-100402800D01*
X85115428Y-100402800D02*
X85001142Y-100288514D01*
X85001142Y-100288514D02*
X84924952Y-100250419D01*
X84924952Y-100250419D02*
X84848761Y-100250419D01*
X84886857Y-100440895D02*
X84810666Y-100402800D01*
X84810666Y-100402800D02*
X84734476Y-100326609D01*
X84734476Y-100326609D02*
X84696380Y-100174228D01*
X84696380Y-100174228D02*
X84696380Y-99907561D01*
X84696380Y-99907561D02*
X84734476Y-99755180D01*
X84734476Y-99755180D02*
X84810666Y-99678990D01*
X84810666Y-99678990D02*
X84886857Y-99640895D01*
X84886857Y-99640895D02*
X85039238Y-99640895D01*
X85039238Y-99640895D02*
X85115428Y-99678990D01*
X85115428Y-99678990D02*
X85191619Y-99755180D01*
X85191619Y-99755180D02*
X85229714Y-99907561D01*
X85229714Y-99907561D02*
X85229714Y-100174228D01*
X85229714Y-100174228D02*
X85191619Y-100326609D01*
X85191619Y-100326609D02*
X85115428Y-100402800D01*
X85115428Y-100402800D02*
X85039238Y-100440895D01*
X85039238Y-100440895D02*
X84886857Y-100440895D01*
X85991618Y-100440895D02*
X85534475Y-100440895D01*
X85763047Y-100440895D02*
X85763047Y-99640895D01*
X85763047Y-99640895D02*
X85686856Y-99755180D01*
X85686856Y-99755180D02*
X85610666Y-99831371D01*
X85610666Y-99831371D02*
X85534475Y-99869466D01*
X81394570Y-102511085D02*
X81432666Y-102472990D01*
X81432666Y-102472990D02*
X81508856Y-102434895D01*
X81508856Y-102434895D02*
X81699332Y-102434895D01*
X81699332Y-102434895D02*
X81775523Y-102472990D01*
X81775523Y-102472990D02*
X81813618Y-102511085D01*
X81813618Y-102511085D02*
X81851713Y-102587276D01*
X81851713Y-102587276D02*
X81851713Y-102663466D01*
X81851713Y-102663466D02*
X81813618Y-102777752D01*
X81813618Y-102777752D02*
X81356475Y-103234895D01*
X81356475Y-103234895D02*
X81851713Y-103234895D01*
X82194571Y-103234895D02*
X82194571Y-102434895D01*
X82194571Y-102434895D02*
X82651714Y-103234895D01*
X82651714Y-103234895D02*
X82651714Y-102434895D01*
X82956475Y-102434895D02*
X83489809Y-102434895D01*
X83489809Y-102434895D02*
X83146951Y-103234895D01*
X83946952Y-102434895D02*
X84023142Y-102434895D01*
X84023142Y-102434895D02*
X84099333Y-102472990D01*
X84099333Y-102472990D02*
X84137428Y-102511085D01*
X84137428Y-102511085D02*
X84175523Y-102587276D01*
X84175523Y-102587276D02*
X84213618Y-102739657D01*
X84213618Y-102739657D02*
X84213618Y-102930133D01*
X84213618Y-102930133D02*
X84175523Y-103082514D01*
X84175523Y-103082514D02*
X84137428Y-103158704D01*
X84137428Y-103158704D02*
X84099333Y-103196800D01*
X84099333Y-103196800D02*
X84023142Y-103234895D01*
X84023142Y-103234895D02*
X83946952Y-103234895D01*
X83946952Y-103234895D02*
X83870761Y-103196800D01*
X83870761Y-103196800D02*
X83832666Y-103158704D01*
X83832666Y-103158704D02*
X83794571Y-103082514D01*
X83794571Y-103082514D02*
X83756475Y-102930133D01*
X83756475Y-102930133D02*
X83756475Y-102739657D01*
X83756475Y-102739657D02*
X83794571Y-102587276D01*
X83794571Y-102587276D02*
X83832666Y-102511085D01*
X83832666Y-102511085D02*
X83870761Y-102472990D01*
X83870761Y-102472990D02*
X83946952Y-102434895D01*
X84708857Y-102434895D02*
X84785047Y-102434895D01*
X84785047Y-102434895D02*
X84861238Y-102472990D01*
X84861238Y-102472990D02*
X84899333Y-102511085D01*
X84899333Y-102511085D02*
X84937428Y-102587276D01*
X84937428Y-102587276D02*
X84975523Y-102739657D01*
X84975523Y-102739657D02*
X84975523Y-102930133D01*
X84975523Y-102930133D02*
X84937428Y-103082514D01*
X84937428Y-103082514D02*
X84899333Y-103158704D01*
X84899333Y-103158704D02*
X84861238Y-103196800D01*
X84861238Y-103196800D02*
X84785047Y-103234895D01*
X84785047Y-103234895D02*
X84708857Y-103234895D01*
X84708857Y-103234895D02*
X84632666Y-103196800D01*
X84632666Y-103196800D02*
X84594571Y-103158704D01*
X84594571Y-103158704D02*
X84556476Y-103082514D01*
X84556476Y-103082514D02*
X84518380Y-102930133D01*
X84518380Y-102930133D02*
X84518380Y-102739657D01*
X84518380Y-102739657D02*
X84556476Y-102587276D01*
X84556476Y-102587276D02*
X84594571Y-102511085D01*
X84594571Y-102511085D02*
X84632666Y-102472990D01*
X84632666Y-102472990D02*
X84708857Y-102434895D01*
X85280285Y-102511085D02*
X85318381Y-102472990D01*
X85318381Y-102472990D02*
X85394571Y-102434895D01*
X85394571Y-102434895D02*
X85585047Y-102434895D01*
X85585047Y-102434895D02*
X85661238Y-102472990D01*
X85661238Y-102472990D02*
X85699333Y-102511085D01*
X85699333Y-102511085D02*
X85737428Y-102587276D01*
X85737428Y-102587276D02*
X85737428Y-102663466D01*
X85737428Y-102663466D02*
X85699333Y-102777752D01*
X85699333Y-102777752D02*
X85242190Y-103234895D01*
X85242190Y-103234895D02*
X85737428Y-103234895D01*
X101870104Y-90671666D02*
X101870104Y-90290714D01*
X101870104Y-90290714D02*
X102670104Y-90290714D01*
X101870104Y-91357380D02*
X101870104Y-90900237D01*
X101870104Y-91128809D02*
X102670104Y-91128809D01*
X102670104Y-91128809D02*
X102555819Y-91052618D01*
X102555819Y-91052618D02*
X102479628Y-90976428D01*
X102479628Y-90976428D02*
X102441533Y-90900237D01*
X106315104Y-87458666D02*
X106315104Y-87001523D01*
X106315104Y-87230095D02*
X107115104Y-87230095D01*
X107115104Y-87230095D02*
X107000819Y-87153904D01*
X107000819Y-87153904D02*
X106924628Y-87077714D01*
X106924628Y-87077714D02*
X106886533Y-87001523D01*
X107115104Y-87953905D02*
X107115104Y-88030095D01*
X107115104Y-88030095D02*
X107077009Y-88106286D01*
X107077009Y-88106286D02*
X107038914Y-88144381D01*
X107038914Y-88144381D02*
X106962723Y-88182476D01*
X106962723Y-88182476D02*
X106810342Y-88220571D01*
X106810342Y-88220571D02*
X106619866Y-88220571D01*
X106619866Y-88220571D02*
X106467485Y-88182476D01*
X106467485Y-88182476D02*
X106391295Y-88144381D01*
X106391295Y-88144381D02*
X106353200Y-88106286D01*
X106353200Y-88106286D02*
X106315104Y-88030095D01*
X106315104Y-88030095D02*
X106315104Y-87953905D01*
X106315104Y-87953905D02*
X106353200Y-87877714D01*
X106353200Y-87877714D02*
X106391295Y-87839619D01*
X106391295Y-87839619D02*
X106467485Y-87801524D01*
X106467485Y-87801524D02*
X106619866Y-87763428D01*
X106619866Y-87763428D02*
X106810342Y-87763428D01*
X106810342Y-87763428D02*
X106962723Y-87801524D01*
X106962723Y-87801524D02*
X107038914Y-87839619D01*
X107038914Y-87839619D02*
X107077009Y-87877714D01*
X107077009Y-87877714D02*
X107115104Y-87953905D01*
X106848438Y-88906286D02*
X106315104Y-88906286D01*
X106848438Y-88563429D02*
X106429390Y-88563429D01*
X106429390Y-88563429D02*
X106353200Y-88601524D01*
X106353200Y-88601524D02*
X106315104Y-88677714D01*
X106315104Y-88677714D02*
X106315104Y-88792000D01*
X106315104Y-88792000D02*
X106353200Y-88868191D01*
X106353200Y-88868191D02*
X106391295Y-88906286D01*
X106315104Y-89287239D02*
X107115104Y-89287239D01*
X106734152Y-89287239D02*
X106734152Y-89744382D01*
X106315104Y-89744382D02*
X107115104Y-89744382D01*
X100704667Y-102396704D02*
X100666571Y-102434800D01*
X100666571Y-102434800D02*
X100552286Y-102472895D01*
X100552286Y-102472895D02*
X100476095Y-102472895D01*
X100476095Y-102472895D02*
X100361809Y-102434800D01*
X100361809Y-102434800D02*
X100285619Y-102358609D01*
X100285619Y-102358609D02*
X100247524Y-102282419D01*
X100247524Y-102282419D02*
X100209428Y-102130038D01*
X100209428Y-102130038D02*
X100209428Y-102015752D01*
X100209428Y-102015752D02*
X100247524Y-101863371D01*
X100247524Y-101863371D02*
X100285619Y-101787180D01*
X100285619Y-101787180D02*
X100361809Y-101710990D01*
X100361809Y-101710990D02*
X100476095Y-101672895D01*
X100476095Y-101672895D02*
X100552286Y-101672895D01*
X100552286Y-101672895D02*
X100666571Y-101710990D01*
X100666571Y-101710990D02*
X100704667Y-101749085D01*
X101009428Y-101749085D02*
X101047524Y-101710990D01*
X101047524Y-101710990D02*
X101123714Y-101672895D01*
X101123714Y-101672895D02*
X101314190Y-101672895D01*
X101314190Y-101672895D02*
X101390381Y-101710990D01*
X101390381Y-101710990D02*
X101428476Y-101749085D01*
X101428476Y-101749085D02*
X101466571Y-101825276D01*
X101466571Y-101825276D02*
X101466571Y-101901466D01*
X101466571Y-101901466D02*
X101428476Y-102015752D01*
X101428476Y-102015752D02*
X100971333Y-102472895D01*
X100971333Y-102472895D02*
X101466571Y-102472895D01*
X102063713Y-101749085D02*
X102101809Y-101710990D01*
X102101809Y-101710990D02*
X102177999Y-101672895D01*
X102177999Y-101672895D02*
X102368475Y-101672895D01*
X102368475Y-101672895D02*
X102444666Y-101710990D01*
X102444666Y-101710990D02*
X102482761Y-101749085D01*
X102482761Y-101749085D02*
X102520856Y-101825276D01*
X102520856Y-101825276D02*
X102520856Y-101901466D01*
X102520856Y-101901466D02*
X102482761Y-102015752D01*
X102482761Y-102015752D02*
X102025618Y-102472895D01*
X102025618Y-102472895D02*
X102520856Y-102472895D01*
X102825618Y-101749085D02*
X102863714Y-101710990D01*
X102863714Y-101710990D02*
X102939904Y-101672895D01*
X102939904Y-101672895D02*
X103130380Y-101672895D01*
X103130380Y-101672895D02*
X103206571Y-101710990D01*
X103206571Y-101710990D02*
X103244666Y-101749085D01*
X103244666Y-101749085D02*
X103282761Y-101825276D01*
X103282761Y-101825276D02*
X103282761Y-101901466D01*
X103282761Y-101901466D02*
X103244666Y-102015752D01*
X103244666Y-102015752D02*
X102787523Y-102472895D01*
X102787523Y-102472895D02*
X103282761Y-102472895D01*
X103968476Y-101939561D02*
X103968476Y-102472895D01*
X103625619Y-101939561D02*
X103625619Y-102358609D01*
X103625619Y-102358609D02*
X103663714Y-102434800D01*
X103663714Y-102434800D02*
X103739904Y-102472895D01*
X103739904Y-102472895D02*
X103854190Y-102472895D01*
X103854190Y-102472895D02*
X103930381Y-102434800D01*
X103930381Y-102434800D02*
X103968476Y-102396704D01*
X104616095Y-102053847D02*
X104349429Y-102053847D01*
X104349429Y-102472895D02*
X104349429Y-101672895D01*
X104349429Y-101672895D02*
X104730381Y-101672895D01*
X78473333Y-86077295D02*
X78473333Y-86648723D01*
X78473333Y-86648723D02*
X78435238Y-86763009D01*
X78435238Y-86763009D02*
X78359047Y-86839200D01*
X78359047Y-86839200D02*
X78244762Y-86877295D01*
X78244762Y-86877295D02*
X78168571Y-86877295D01*
X79197143Y-86343961D02*
X79197143Y-86877295D01*
X79006667Y-86039200D02*
X78816190Y-86610628D01*
X78816190Y-86610628D02*
X79311429Y-86610628D01*
X82914895Y-85731332D02*
X82533942Y-85997999D01*
X82914895Y-86188475D02*
X82114895Y-86188475D01*
X82114895Y-86188475D02*
X82114895Y-85883713D01*
X82114895Y-85883713D02*
X82152990Y-85807523D01*
X82152990Y-85807523D02*
X82191085Y-85769428D01*
X82191085Y-85769428D02*
X82267276Y-85731332D01*
X82267276Y-85731332D02*
X82381561Y-85731332D01*
X82381561Y-85731332D02*
X82457752Y-85769428D01*
X82457752Y-85769428D02*
X82495847Y-85807523D01*
X82495847Y-85807523D02*
X82533942Y-85883713D01*
X82533942Y-85883713D02*
X82533942Y-86188475D01*
X82381561Y-85045618D02*
X82914895Y-85045618D01*
X82076800Y-85236094D02*
X82648228Y-85426571D01*
X82648228Y-85426571D02*
X82648228Y-84931332D01*
X84652395Y-88493571D02*
X84652395Y-88950714D01*
X84652395Y-88722142D02*
X83852395Y-88722142D01*
X83852395Y-88722142D02*
X83966680Y-88798333D01*
X83966680Y-88798333D02*
X84042871Y-88874523D01*
X84042871Y-88874523D02*
X84080966Y-88950714D01*
X84652395Y-88150713D02*
X83852395Y-88150713D01*
X83852395Y-88150713D02*
X84423823Y-87884047D01*
X84423823Y-87884047D02*
X83852395Y-87617380D01*
X83852395Y-87617380D02*
X84652395Y-87617380D01*
X90712704Y-102241332D02*
X90750800Y-102279428D01*
X90750800Y-102279428D02*
X90788895Y-102393713D01*
X90788895Y-102393713D02*
X90788895Y-102469904D01*
X90788895Y-102469904D02*
X90750800Y-102584190D01*
X90750800Y-102584190D02*
X90674609Y-102660380D01*
X90674609Y-102660380D02*
X90598419Y-102698475D01*
X90598419Y-102698475D02*
X90446038Y-102736571D01*
X90446038Y-102736571D02*
X90331752Y-102736571D01*
X90331752Y-102736571D02*
X90179371Y-102698475D01*
X90179371Y-102698475D02*
X90103180Y-102660380D01*
X90103180Y-102660380D02*
X90026990Y-102584190D01*
X90026990Y-102584190D02*
X89988895Y-102469904D01*
X89988895Y-102469904D02*
X89988895Y-102393713D01*
X89988895Y-102393713D02*
X90026990Y-102279428D01*
X90026990Y-102279428D02*
X90065085Y-102241332D01*
X90788895Y-101479428D02*
X90788895Y-101936571D01*
X90788895Y-101707999D02*
X89988895Y-101707999D01*
X89988895Y-101707999D02*
X90103180Y-101784190D01*
X90103180Y-101784190D02*
X90179371Y-101860380D01*
X90179371Y-101860380D02*
X90217466Y-101936571D01*
X91779561Y-100691809D02*
X92312895Y-100691809D01*
X91474800Y-100882285D02*
X92046228Y-101072762D01*
X92046228Y-101072762D02*
X92046228Y-100577523D01*
X92236704Y-100272761D02*
X92274800Y-100234666D01*
X92274800Y-100234666D02*
X92312895Y-100272761D01*
X92312895Y-100272761D02*
X92274800Y-100310857D01*
X92274800Y-100310857D02*
X92236704Y-100272761D01*
X92236704Y-100272761D02*
X92312895Y-100272761D01*
X91512895Y-99968000D02*
X91512895Y-99434666D01*
X91512895Y-99434666D02*
X92312895Y-99777524D01*
X91779561Y-98787047D02*
X92312895Y-98787047D01*
X91779561Y-99129904D02*
X92198609Y-99129904D01*
X92198609Y-99129904D02*
X92274800Y-99091809D01*
X92274800Y-99091809D02*
X92312895Y-99015619D01*
X92312895Y-99015619D02*
X92312895Y-98901333D01*
X92312895Y-98901333D02*
X92274800Y-98825142D01*
X92274800Y-98825142D02*
X92236704Y-98787047D01*
X91893847Y-98139428D02*
X91893847Y-98406094D01*
X92312895Y-98406094D02*
X91512895Y-98406094D01*
X91512895Y-98406094D02*
X91512895Y-98025142D01*
X102025524Y-97646895D02*
X102025524Y-96846895D01*
X102025524Y-96846895D02*
X102216000Y-96846895D01*
X102216000Y-96846895D02*
X102330286Y-96884990D01*
X102330286Y-96884990D02*
X102406476Y-96961180D01*
X102406476Y-96961180D02*
X102444571Y-97037371D01*
X102444571Y-97037371D02*
X102482667Y-97189752D01*
X102482667Y-97189752D02*
X102482667Y-97304038D01*
X102482667Y-97304038D02*
X102444571Y-97456419D01*
X102444571Y-97456419D02*
X102406476Y-97532609D01*
X102406476Y-97532609D02*
X102330286Y-97608800D01*
X102330286Y-97608800D02*
X102216000Y-97646895D01*
X102216000Y-97646895D02*
X102025524Y-97646895D01*
X103244571Y-97646895D02*
X102787428Y-97646895D01*
X103016000Y-97646895D02*
X103016000Y-96846895D01*
X103016000Y-96846895D02*
X102939809Y-96961180D01*
X102939809Y-96961180D02*
X102863619Y-97037371D01*
X102863619Y-97037371D02*
X102787428Y-97075466D01*
X106324570Y-97608800D02*
X106438856Y-97646895D01*
X106438856Y-97646895D02*
X106629332Y-97646895D01*
X106629332Y-97646895D02*
X106705523Y-97608800D01*
X106705523Y-97608800D02*
X106743618Y-97570704D01*
X106743618Y-97570704D02*
X106781713Y-97494514D01*
X106781713Y-97494514D02*
X106781713Y-97418323D01*
X106781713Y-97418323D02*
X106743618Y-97342133D01*
X106743618Y-97342133D02*
X106705523Y-97304038D01*
X106705523Y-97304038D02*
X106629332Y-97265942D01*
X106629332Y-97265942D02*
X106476951Y-97227847D01*
X106476951Y-97227847D02*
X106400761Y-97189752D01*
X106400761Y-97189752D02*
X106362666Y-97151657D01*
X106362666Y-97151657D02*
X106324570Y-97075466D01*
X106324570Y-97075466D02*
X106324570Y-96999276D01*
X106324570Y-96999276D02*
X106362666Y-96923085D01*
X106362666Y-96923085D02*
X106400761Y-96884990D01*
X106400761Y-96884990D02*
X106476951Y-96846895D01*
X106476951Y-96846895D02*
X106667428Y-96846895D01*
X106667428Y-96846895D02*
X106781713Y-96884990D01*
X107086475Y-97608800D02*
X107200761Y-97646895D01*
X107200761Y-97646895D02*
X107391237Y-97646895D01*
X107391237Y-97646895D02*
X107467428Y-97608800D01*
X107467428Y-97608800D02*
X107505523Y-97570704D01*
X107505523Y-97570704D02*
X107543618Y-97494514D01*
X107543618Y-97494514D02*
X107543618Y-97418323D01*
X107543618Y-97418323D02*
X107505523Y-97342133D01*
X107505523Y-97342133D02*
X107467428Y-97304038D01*
X107467428Y-97304038D02*
X107391237Y-97265942D01*
X107391237Y-97265942D02*
X107238856Y-97227847D01*
X107238856Y-97227847D02*
X107162666Y-97189752D01*
X107162666Y-97189752D02*
X107124571Y-97151657D01*
X107124571Y-97151657D02*
X107086475Y-97075466D01*
X107086475Y-97075466D02*
X107086475Y-96999276D01*
X107086475Y-96999276D02*
X107124571Y-96923085D01*
X107124571Y-96923085D02*
X107162666Y-96884990D01*
X107162666Y-96884990D02*
X107238856Y-96846895D01*
X107238856Y-96846895D02*
X107429333Y-96846895D01*
X107429333Y-96846895D02*
X107543618Y-96884990D01*
X108305523Y-97646895D02*
X107848380Y-97646895D01*
X108076952Y-97646895D02*
X108076952Y-96846895D01*
X108076952Y-96846895D02*
X108000761Y-96961180D01*
X108000761Y-96961180D02*
X107924571Y-97037371D01*
X107924571Y-97037371D02*
X107848380Y-97075466D01*
X108991238Y-97113561D02*
X108991238Y-97646895D01*
X108800762Y-96808800D02*
X108610285Y-97380228D01*
X108610285Y-97380228D02*
X109105524Y-97380228D01*
D11*
%TO.C,G\u002A\u002A\u002A*%
G36*
X105511468Y-103915540D02*
G01*
X105573299Y-103924974D01*
X105667885Y-103928516D01*
X105784510Y-103925873D01*
X105820554Y-103923931D01*
X105931244Y-103918570D01*
X106005151Y-103918690D01*
X106049023Y-103924675D01*
X106069611Y-103936909D01*
X106070451Y-103938164D01*
X106069652Y-103973178D01*
X106048823Y-103995126D01*
X106028138Y-104013682D01*
X106022250Y-104036592D01*
X106031962Y-104075736D01*
X106058080Y-104142996D01*
X106058978Y-104145209D01*
X106085956Y-104209475D01*
X106106149Y-104253503D01*
X106114143Y-104266671D01*
X106124763Y-104248152D01*
X106146414Y-104200047D01*
X106169307Y-104145209D01*
X106195859Y-104077067D01*
X106205984Y-104037347D01*
X106200489Y-104014167D01*
X106180175Y-103995648D01*
X106179462Y-103995126D01*
X106152245Y-103962294D01*
X106165320Y-103936452D01*
X106215366Y-103920255D01*
X106278508Y-103916024D01*
X106357275Y-103922832D01*
X106398066Y-103942118D01*
X106399012Y-103972177D01*
X106371887Y-104001214D01*
X106350662Y-104019534D01*
X106331436Y-104041525D01*
X106310997Y-104073337D01*
X106286136Y-104121122D01*
X106253642Y-104191034D01*
X106210304Y-104289223D01*
X106155454Y-104415946D01*
X106108025Y-104521867D01*
X106062371Y-104616610D01*
X106023130Y-104691021D01*
X105994942Y-104735946D01*
X105990897Y-104740738D01*
X105931256Y-104786113D01*
X105868906Y-104806012D01*
X105813642Y-104801794D01*
X105775264Y-104774818D01*
X105763567Y-104726443D01*
X105766328Y-104709582D01*
X105782706Y-104651707D01*
X105799849Y-104629594D01*
X105825834Y-104635789D01*
X105838312Y-104643141D01*
X105894434Y-104657747D01*
X105945325Y-104629435D01*
X105979249Y-104580063D01*
X105991611Y-104551625D01*
X105995720Y-104522048D01*
X105989723Y-104482853D01*
X105971772Y-104425564D01*
X105940016Y-104341704D01*
X105911633Y-104270275D01*
X105857567Y-104144324D01*
X105811809Y-104056942D01*
X105775098Y-104009169D01*
X105748171Y-104002048D01*
X105735589Y-104021658D01*
X105709388Y-104043265D01*
X105684965Y-104047517D01*
X105654305Y-104058392D01*
X105643385Y-104098119D01*
X105642960Y-104114949D01*
X105622494Y-104192124D01*
X105566546Y-104257928D01*
X105483289Y-104304888D01*
X105416411Y-104322071D01*
X105346290Y-104336596D01*
X105318254Y-104351321D01*
X105330616Y-104364232D01*
X105381688Y-104373318D01*
X105462158Y-104376571D01*
X105582092Y-104384209D01*
X105665768Y-104407944D01*
X105718478Y-104449923D01*
X105738939Y-104488846D01*
X105742264Y-104556613D01*
X105716057Y-104633515D01*
X105667532Y-104704797D01*
X105610087Y-104752327D01*
X105509777Y-104789834D01*
X105392311Y-104804342D01*
X105278834Y-104794160D01*
X105237525Y-104782141D01*
X105183314Y-104762089D01*
X105150832Y-104750365D01*
X105147043Y-104749141D01*
X105137732Y-104731138D01*
X105119023Y-104687966D01*
X105117813Y-104685053D01*
X105106583Y-104626710D01*
X105107869Y-104618913D01*
X105248482Y-104618913D01*
X105268356Y-104665678D01*
X105326410Y-104694553D01*
X105414931Y-104704314D01*
X105497207Y-104692786D01*
X105542865Y-104662780D01*
X105576964Y-104609552D01*
X105569887Y-104570442D01*
X105521451Y-104545222D01*
X105438181Y-104533986D01*
X105340281Y-104536032D01*
X105279330Y-104555572D01*
X105251364Y-104594384D01*
X105248482Y-104618913D01*
X105107869Y-104618913D01*
X105115633Y-104571857D01*
X105140772Y-104535857D01*
X105160214Y-104529656D01*
X105170068Y-104510764D01*
X105169122Y-104464150D01*
X105167453Y-104452457D01*
X105167123Y-104380352D01*
X105190923Y-104335479D01*
X105213976Y-104303642D01*
X105205885Y-104278412D01*
X105182914Y-104255874D01*
X105149275Y-104203310D01*
X105144344Y-104165016D01*
X105317266Y-104165016D01*
X105335446Y-104207049D01*
X105376265Y-104220020D01*
X105396287Y-104218829D01*
X105433600Y-104210650D01*
X105451224Y-104189039D01*
X105456438Y-104141273D01*
X105456679Y-104113263D01*
X105454773Y-104052620D01*
X105443769Y-104023898D01*
X105415736Y-104015201D01*
X105390933Y-104014643D01*
X105345335Y-104019956D01*
X105325086Y-104044860D01*
X105318164Y-104087955D01*
X105317266Y-104165016D01*
X105144344Y-104165016D01*
X105138905Y-104122772D01*
X105145519Y-104053781D01*
X105171802Y-104005461D01*
X105203891Y-103974815D01*
X105297703Y-103922497D01*
X105408130Y-103902491D01*
X105511468Y-103915540D01*
G37*
G36*
X107335642Y-103922228D02*
G01*
X107416506Y-103967105D01*
X107471362Y-104036414D01*
X107500760Y-104136350D01*
X107502446Y-104242298D01*
X107479049Y-104342456D01*
X107433199Y-104425022D01*
X107373626Y-104475206D01*
X107297527Y-104502815D01*
X107209778Y-104518151D01*
X107130731Y-104518476D01*
X107100338Y-104511983D01*
X107009791Y-104465937D01*
X106951136Y-104398484D01*
X106920659Y-104303579D01*
X106914556Y-104215871D01*
X107097828Y-104215871D01*
X107108721Y-104302795D01*
X107131639Y-104373259D01*
X107132875Y-104375621D01*
X107173253Y-104410902D01*
X107229097Y-104418492D01*
X107280017Y-104395913D01*
X107282236Y-104393781D01*
X107297497Y-104355994D01*
X107306015Y-104289586D01*
X107307596Y-104209271D01*
X107302048Y-104129768D01*
X107289180Y-104065791D01*
X107286608Y-104058446D01*
X107252121Y-104015836D01*
X107202531Y-104005692D01*
X107151205Y-104027150D01*
X107116281Y-104069432D01*
X107100002Y-104131685D01*
X107097828Y-104215871D01*
X106914556Y-104215871D01*
X106914056Y-104208688D01*
X106917266Y-104125482D01*
X106930003Y-104069055D01*
X106956933Y-104022623D01*
X106970445Y-104005781D01*
X107046435Y-103944114D01*
X107139821Y-103910073D01*
X107239819Y-103902997D01*
X107335642Y-103922228D01*
G37*
G36*
X106864586Y-103912698D02*
G01*
X106888455Y-103959564D01*
X106892141Y-104002378D01*
X106886620Y-104072557D01*
X106869275Y-104102010D01*
X106838932Y-104092530D01*
X106835096Y-104089475D01*
X106792113Y-104073608D01*
X106756376Y-104073229D01*
X106730681Y-104080105D01*
X106714985Y-104098066D01*
X106706211Y-104136595D01*
X106701281Y-104205178D01*
X106699488Y-104248593D01*
X106697040Y-104333597D01*
X106699257Y-104384329D01*
X106708514Y-104410287D01*
X106727184Y-104420969D01*
X106743319Y-104423917D01*
X106782322Y-104441683D01*
X106793521Y-104463910D01*
X106784509Y-104481005D01*
X106752521Y-104492294D01*
X106690131Y-104499388D01*
X106612719Y-104503148D01*
X106523953Y-104505526D01*
X106470229Y-104503735D01*
X106442821Y-104495924D01*
X106433002Y-104480244D01*
X106431916Y-104464796D01*
X106446967Y-104427567D01*
X106475747Y-104420079D01*
X106496572Y-104416783D01*
X106509512Y-104401335D01*
X106516421Y-104365391D01*
X106519154Y-104300609D01*
X106519578Y-104222840D01*
X106518846Y-104129130D01*
X106515413Y-104070900D01*
X106507425Y-104039807D01*
X106493029Y-104027511D01*
X106475747Y-104025601D01*
X106438790Y-104009976D01*
X106431916Y-103986483D01*
X106442401Y-103961225D01*
X106479463Y-103942286D01*
X106551520Y-103925461D01*
X106555544Y-103924718D01*
X106626107Y-103913265D01*
X106664943Y-103912805D01*
X106683078Y-103924672D01*
X106689323Y-103940887D01*
X106699233Y-103964928D01*
X106718293Y-103963464D01*
X106758652Y-103935950D01*
X106820541Y-103904440D01*
X106864586Y-103912698D01*
G37*
G36*
X108103789Y-103925754D02*
G01*
X108144550Y-103953343D01*
X108167569Y-103981217D01*
X108181320Y-104015456D01*
X108187777Y-104066916D01*
X108188914Y-104146458D01*
X108188228Y-104193622D01*
X108187492Y-104287944D01*
X108190859Y-104348707D01*
X108200280Y-104386130D01*
X108217706Y-104410433D01*
X108231871Y-104422258D01*
X108264639Y-104458779D01*
X108255769Y-104485984D01*
X108206695Y-104502682D01*
X108129070Y-104507741D01*
X108009828Y-104507741D01*
X108009828Y-104312294D01*
X108008365Y-104199547D01*
X108002671Y-104123638D01*
X107990792Y-104077635D01*
X107970772Y-104054603D01*
X107940656Y-104047611D01*
X107935163Y-104047517D01*
X107887134Y-104056027D01*
X107856553Y-104086127D01*
X107840136Y-104144668D01*
X107834600Y-104238503D01*
X107834505Y-104257540D01*
X107835776Y-104340156D01*
X107841419Y-104389049D01*
X107854177Y-104414296D01*
X107876793Y-104425974D01*
X107880645Y-104427033D01*
X107913253Y-104447577D01*
X107917238Y-104467941D01*
X107891538Y-104485639D01*
X107826637Y-104497451D01*
X107739605Y-104503184D01*
X107654490Y-104505474D01*
X107604146Y-104503039D01*
X107579606Y-104493966D01*
X107571900Y-104476347D01*
X107571520Y-104467388D01*
X107590226Y-104427650D01*
X107615350Y-104413729D01*
X107636688Y-104404040D01*
X107649742Y-104382602D01*
X107656499Y-104340351D01*
X107658949Y-104268225D01*
X107659181Y-104213934D01*
X107658382Y-104122765D01*
X107654663Y-104066891D01*
X107646038Y-104037785D01*
X107630523Y-104026920D01*
X107615350Y-104025601D01*
X107578393Y-104009976D01*
X107571520Y-103986483D01*
X107582004Y-103961225D01*
X107619067Y-103942286D01*
X107691123Y-103925461D01*
X107695147Y-103924718D01*
X107765535Y-103913216D01*
X107804262Y-103912660D01*
X107822468Y-103924550D01*
X107829425Y-103942797D01*
X107839817Y-103970156D01*
X107857788Y-103966260D01*
X107882871Y-103944792D01*
X107947167Y-103912681D01*
X108027180Y-103906543D01*
X108103789Y-103925754D01*
G37*
G36*
X108558959Y-103914509D02*
G01*
X108559255Y-103940176D01*
X108559111Y-104000325D01*
X108558569Y-104085608D01*
X108557800Y-104173530D01*
X108557197Y-104280335D01*
X108558739Y-104350830D01*
X108563723Y-104392526D01*
X108573447Y-104412938D01*
X108589208Y-104419576D01*
X108600386Y-104420079D01*
X108637797Y-104434991D01*
X108645376Y-104463910D01*
X108641716Y-104485748D01*
X108624857Y-104498837D01*
X108585984Y-104505379D01*
X108516278Y-104507580D01*
X108470053Y-104507741D01*
X108382699Y-104506826D01*
X108330346Y-104502611D01*
X108304177Y-104492893D01*
X108295374Y-104475466D01*
X108294729Y-104463910D01*
X108310226Y-104427283D01*
X108338560Y-104420079D01*
X108359495Y-104416745D01*
X108372454Y-104401148D01*
X108379326Y-104364893D01*
X108382002Y-104299587D01*
X108382391Y-104225396D01*
X108381574Y-104131954D01*
X108377788Y-104073351D01*
X108369028Y-104040605D01*
X108353290Y-104024735D01*
X108336251Y-104018647D01*
X108300193Y-104000264D01*
X108303559Y-103977226D01*
X108342702Y-103952988D01*
X108413973Y-103931009D01*
X108433039Y-103926932D01*
X108499906Y-103915565D01*
X108545650Y-103911577D01*
X108558959Y-103914509D01*
G37*
G36*
X108895561Y-103914625D02*
G01*
X108929241Y-103941778D01*
X108970757Y-103998707D01*
X108978068Y-104009571D01*
X109033492Y-104092160D01*
X109092660Y-104002752D01*
X109134654Y-103947033D01*
X109170692Y-103922485D01*
X109210709Y-103920163D01*
X109256513Y-103937446D01*
X109276500Y-103967288D01*
X109266110Y-103996551D01*
X109241503Y-104008883D01*
X109203146Y-104032335D01*
X109156416Y-104078240D01*
X109139990Y-104098369D01*
X109080022Y-104176992D01*
X109152720Y-104298536D01*
X109194202Y-104361202D01*
X109230894Y-104405088D01*
X109253171Y-104420079D01*
X109275692Y-104438373D01*
X109280924Y-104463910D01*
X109274449Y-104491335D01*
X109247582Y-104504281D01*
X109189159Y-104507727D01*
X109182616Y-104507741D01*
X109120837Y-104504382D01*
X109080815Y-104487632D01*
X109045039Y-104447484D01*
X109024498Y-104417364D01*
X108964690Y-104326987D01*
X108903653Y-104400099D01*
X108866217Y-104448593D01*
X108844671Y-104483577D01*
X108842615Y-104490476D01*
X108823553Y-104502603D01*
X108777631Y-104507740D01*
X108776869Y-104507741D01*
X108728745Y-104500853D01*
X108711801Y-104475224D01*
X108711123Y-104463910D01*
X108722559Y-104428339D01*
X108738517Y-104420078D01*
X108767329Y-104403692D01*
X108810079Y-104362007D01*
X108856453Y-104306232D01*
X108894083Y-104251050D01*
X108892829Y-104216496D01*
X108869690Y-104163896D01*
X108833287Y-104106676D01*
X108792243Y-104058263D01*
X108755178Y-104032082D01*
X108753073Y-104031459D01*
X108714654Y-104009042D01*
X108713046Y-103977698D01*
X108744790Y-103945800D01*
X108797495Y-103923940D01*
X108856163Y-103910822D01*
X108895561Y-103914625D01*
G37*
G36*
X108491883Y-103598713D02*
G01*
X108524841Y-103618150D01*
X108570148Y-103666336D01*
X108574071Y-103719130D01*
X108536290Y-103768408D01*
X108530923Y-103772331D01*
X108490839Y-103797597D01*
X108470053Y-103806447D01*
X108444980Y-103795194D01*
X108409183Y-103772331D01*
X108367693Y-103723755D01*
X108367935Y-103670945D01*
X108409589Y-103622023D01*
X108415264Y-103618150D01*
X108458157Y-103594962D01*
X108491883Y-103598713D01*
G37*
G36*
X107530599Y-99855035D02*
G01*
X107614810Y-99986734D01*
X107690390Y-100105843D01*
X107754339Y-100207562D01*
X107803656Y-100287084D01*
X107835340Y-100339608D01*
X107846390Y-100360328D01*
X107846353Y-100360437D01*
X107825571Y-100354961D01*
X107775511Y-100335221D01*
X107706665Y-100305374D01*
X107700992Y-100302824D01*
X107541813Y-100241890D01*
X107383468Y-100205898D01*
X107208009Y-100191201D01*
X107147694Y-100190398D01*
X106919670Y-100207851D01*
X106711968Y-100261615D01*
X106519612Y-100353799D01*
X106337624Y-100486512D01*
X106244696Y-100572979D01*
X106107623Y-100726381D01*
X106005620Y-100880756D01*
X105931425Y-101048441D01*
X105895940Y-101165518D01*
X105873730Y-101292643D01*
X105863941Y-101443660D01*
X105866556Y-101600432D01*
X105881558Y-101744821D01*
X105896554Y-101818183D01*
X105974486Y-102036252D01*
X106086840Y-102231635D01*
X106229150Y-102401874D01*
X106396955Y-102544510D01*
X106585790Y-102657085D01*
X106791191Y-102737141D01*
X107008696Y-102782219D01*
X107233839Y-102789861D01*
X107462159Y-102757608D01*
X107556003Y-102732173D01*
X107752785Y-102649617D01*
X107938458Y-102530713D01*
X108104602Y-102382699D01*
X108242794Y-102212815D01*
X108325216Y-102070909D01*
X108402690Y-101910761D01*
X107715157Y-101904977D01*
X107027623Y-101899193D01*
X107162235Y-101494062D01*
X107296846Y-101088932D01*
X107812224Y-101089164D01*
X108327602Y-101089397D01*
X108716580Y-101689991D01*
X108810991Y-101836160D01*
X108897898Y-101971467D01*
X108974372Y-102091295D01*
X109037487Y-102191027D01*
X109084315Y-102266046D01*
X109111927Y-102311735D01*
X109118066Y-102323181D01*
X109115715Y-102369031D01*
X109087838Y-102440481D01*
X109038757Y-102531034D01*
X108972791Y-102634189D01*
X108894261Y-102743447D01*
X108807486Y-102852309D01*
X108716785Y-102954276D01*
X108661277Y-103010410D01*
X108429525Y-103207527D01*
X108181935Y-103365577D01*
X107912097Y-103488296D01*
X107746843Y-103543584D01*
X107639477Y-103567043D01*
X107501061Y-103585106D01*
X107343631Y-103597367D01*
X107179221Y-103603423D01*
X107019868Y-103602868D01*
X106877606Y-103595296D01*
X106764471Y-103580303D01*
X106749684Y-103577145D01*
X106445203Y-103486295D01*
X106165456Y-103359480D01*
X105911614Y-103197638D01*
X105684848Y-103001703D01*
X105486330Y-102772612D01*
X105317230Y-102511301D01*
X105248117Y-102377342D01*
X105181594Y-102228981D01*
X105132680Y-102094587D01*
X105098979Y-101962449D01*
X105078094Y-101820857D01*
X105067627Y-101658100D01*
X105065133Y-101483410D01*
X105065855Y-101344049D01*
X105068454Y-101238155D01*
X105074041Y-101155373D01*
X105083730Y-101085345D01*
X105098631Y-101017715D01*
X105119857Y-100942126D01*
X105125133Y-100924566D01*
X105222819Y-100652297D01*
X105343443Y-100411232D01*
X105492232Y-100192486D01*
X105674409Y-99987171D01*
X105678832Y-99982738D01*
X105905235Y-99785962D01*
X106154311Y-99624074D01*
X106421386Y-99499217D01*
X106701783Y-99413531D01*
X106990826Y-99369158D01*
X107023633Y-99366848D01*
X107209915Y-99355307D01*
X107530599Y-99855035D01*
G37*
G36*
X107630834Y-99405064D02*
G01*
X107687437Y-99419085D01*
X107765996Y-99442963D01*
X107857128Y-99473515D01*
X107951454Y-99507556D01*
X108039590Y-99541902D01*
X108112157Y-99573371D01*
X108130187Y-99582127D01*
X108390389Y-99737406D01*
X108624079Y-99926304D01*
X108828695Y-100145727D01*
X109001674Y-100392585D01*
X109140455Y-100663787D01*
X109228472Y-100907289D01*
X109262199Y-101054510D01*
X109286261Y-101229258D01*
X109299745Y-101416115D01*
X109301739Y-101599660D01*
X109291329Y-101764473D01*
X109282828Y-101825650D01*
X109262857Y-101927325D01*
X109238357Y-102028181D01*
X109212484Y-102117207D01*
X109188392Y-102183394D01*
X109171735Y-102213400D01*
X109158801Y-102197616D01*
X109126470Y-102146359D01*
X109076429Y-102062582D01*
X109010365Y-101949238D01*
X108929967Y-101809281D01*
X108836922Y-101645663D01*
X108732916Y-101461338D01*
X108619638Y-101259258D01*
X108498776Y-101042378D01*
X108376504Y-100821769D01*
X108250149Y-100592887D01*
X108130369Y-100375322D01*
X108018806Y-100172089D01*
X107917098Y-99986205D01*
X107826885Y-99820683D01*
X107749808Y-99678541D01*
X107687505Y-99562791D01*
X107641617Y-99476452D01*
X107613783Y-99422536D01*
X107605567Y-99404084D01*
X107630834Y-99405064D01*
G37*
G36*
X106575551Y-101090172D02*
G01*
X106605054Y-101093261D01*
X106606893Y-101094410D01*
X106600301Y-101115937D01*
X106582159Y-101172587D01*
X106554578Y-101257835D01*
X106519669Y-101365157D01*
X106479543Y-101488028D01*
X106477469Y-101494367D01*
X106348392Y-101888845D01*
X106255779Y-101895725D01*
X106196438Y-101896641D01*
X106173158Y-101886357D01*
X106173781Y-101873810D01*
X106183842Y-101844535D01*
X106205283Y-101780870D01*
X106235688Y-101690027D01*
X106272644Y-101579219D01*
X106309977Y-101466973D01*
X106435557Y-101088932D01*
X106521398Y-101088932D01*
X106575551Y-101090172D01*
G37*
G36*
X106859593Y-101092604D02*
G01*
X106888955Y-101101771D01*
X106890760Y-101105368D01*
X106883816Y-101130506D01*
X106865354Y-101190411D01*
X106837549Y-101278213D01*
X106802575Y-101387042D01*
X106764143Y-101505325D01*
X106638909Y-101888845D01*
X106546435Y-101895581D01*
X106489170Y-101898147D01*
X106466006Y-101890761D01*
X106467423Y-101867726D01*
X106473157Y-101851750D01*
X106486026Y-101814529D01*
X106509450Y-101743633D01*
X106540786Y-101647182D01*
X106577390Y-101533300D01*
X106605526Y-101445058D01*
X106718699Y-101088932D01*
X106805420Y-101088932D01*
X106859593Y-101092604D01*
G37*
G36*
X107153385Y-101094094D02*
G01*
X107173697Y-101110897D01*
X107173170Y-101118751D01*
X107164435Y-101148461D01*
X107144547Y-101212592D01*
X107115802Y-101303849D01*
X107080496Y-101414936D01*
X107045549Y-101524162D01*
X106925014Y-101899755D01*
X106842831Y-101899779D01*
X106790002Y-101894300D01*
X106762000Y-101880685D01*
X106760648Y-101876474D01*
X106767186Y-101849063D01*
X106785353Y-101787086D01*
X106812978Y-101697582D01*
X106847893Y-101587587D01*
X106885668Y-101471038D01*
X107010688Y-101088932D01*
X107095472Y-101088932D01*
X107153385Y-101094094D01*
G37*
D12*
%TO.C,R1*%
X95477064Y-95985000D02*
X95022936Y-95985000D01*
X95477064Y-94515000D02*
X95022936Y-94515000D01*
%TO.C,J3*%
X91547500Y-86292500D02*
X90164500Y-86292500D01*
X91547500Y-86292500D02*
X91547500Y-87675500D01*
X91307500Y-86532500D02*
X86467500Y-86532500D01*
X91307500Y-86532500D02*
X91307500Y-96432500D01*
X86467500Y-86532500D02*
X86467500Y-96432500D01*
X89522500Y-90805833D02*
X88252500Y-90805833D01*
X91307500Y-96432500D02*
X86467500Y-96432500D01*
X89522500Y-89452500D02*
X88252500Y-89452500D01*
X88252500Y-90805833D01*
X89522500Y-90805833D01*
X89522500Y-89452500D01*
G36*
X89522500Y-89452500D02*
G01*
X88252500Y-89452500D01*
X88252500Y-90805833D01*
X89522500Y-90805833D01*
X89522500Y-89452500D01*
G37*
X89522500Y-89452500D02*
X88252500Y-89452500D01*
X88252500Y-93512500D01*
X89522500Y-93512500D01*
X89522500Y-89452500D01*
%TO.C,J2*%
X79950000Y-101605000D02*
X78680000Y-101605000D01*
X79950000Y-100335000D02*
X79950000Y-101605000D01*
X77602642Y-98225000D02*
X77290000Y-98225000D01*
X77602642Y-97365000D02*
X77290000Y-97365000D01*
X77520000Y-100765000D02*
X77290000Y-100765000D01*
X77520000Y-99905000D02*
X77290000Y-99905000D01*
X77290000Y-101715000D02*
X77290000Y-96415000D01*
X77290000Y-99065000D02*
X74530000Y-99065000D01*
X77290000Y-96415000D02*
X74530000Y-96415000D01*
X74530000Y-101715000D02*
X77290000Y-101715000D01*
X74530000Y-98225000D02*
X68530000Y-98225000D01*
X74530000Y-96415000D02*
X74530000Y-101715000D01*
X68530000Y-98225000D02*
X68530000Y-97365000D01*
X68530000Y-97365000D02*
X74530000Y-97365000D01*
X74530000Y-100765000D02*
X68530000Y-100765000D01*
X68530000Y-99905000D01*
X74530000Y-99905000D01*
X74530000Y-100765000D01*
G36*
X74530000Y-100765000D02*
G01*
X68530000Y-100765000D01*
X68530000Y-99905000D01*
X74530000Y-99905000D01*
X74530000Y-100765000D01*
G37*
%TO.C,J1*%
X106917800Y-92120800D02*
X108187800Y-92120800D01*
X106917800Y-93390800D02*
X106917800Y-92120800D01*
X109265158Y-95500800D02*
X109577800Y-95500800D01*
X109265158Y-96360800D02*
X109577800Y-96360800D01*
X109347800Y-92960800D02*
X109577800Y-92960800D01*
X109347800Y-93820800D02*
X109577800Y-93820800D01*
X109577800Y-92010800D02*
X109577800Y-97310800D01*
X109577800Y-94660800D02*
X112337800Y-94660800D01*
X109577800Y-97310800D02*
X112337800Y-97310800D01*
X112337800Y-92010800D02*
X109577800Y-92010800D01*
X112337800Y-95500800D02*
X118337800Y-95500800D01*
X112337800Y-97310800D02*
X112337800Y-92010800D01*
X118337800Y-95500800D02*
X118337800Y-96360800D01*
X118337800Y-96360800D02*
X112337800Y-96360800D01*
X112337800Y-92960800D02*
X118337800Y-92960800D01*
X118337800Y-93820800D01*
X112337800Y-93820800D01*
X112337800Y-92960800D01*
G36*
X112337800Y-92960800D02*
G01*
X118337800Y-92960800D01*
X118337800Y-93820800D01*
X112337800Y-93820800D01*
X112337800Y-92960800D01*
G37*
D13*
%TO.C,D2*%
X82737500Y-97980000D02*
G75*
G02*
X82537500Y-97980000I-100000J0D01*
G01*
X82537500Y-97980000D02*
G75*
G02*
X82737500Y-97980000I100000J0D01*
G01*
D14*
X83917500Y-96145000D02*
X83917500Y-91815000D01*
X83917500Y-96145000D02*
X83707500Y-96145000D01*
X83917500Y-91815000D02*
X83707500Y-91815000D01*
X81567500Y-91815000D02*
X81357500Y-91815000D01*
X81357500Y-96145000D02*
X81567500Y-96145000D01*
X81357500Y-91815000D02*
X81357500Y-96145000D01*
D12*
%TO.C,R2*%
X95022936Y-99595000D02*
X95477064Y-99595000D01*
X95022936Y-101065000D02*
X95477064Y-101065000D01*
%TO.C,R3*%
X88111000Y-99340936D02*
X88111000Y-99795064D01*
X86641000Y-99340936D02*
X86641000Y-99795064D01*
%TO.C,C3*%
X95511252Y-97055000D02*
X94988748Y-97055000D01*
X95511252Y-98525000D02*
X94988748Y-98525000D01*
D15*
%TO.C,U1*%
X93675200Y-89522300D02*
X93675200Y-91325700D01*
X94912139Y-91325700D02*
X95587861Y-91325700D01*
X96824800Y-91325700D02*
X96824800Y-89522300D01*
D12*
%TO.C,Q1*%
X84390000Y-99153500D02*
X84060000Y-98913500D01*
X84390000Y-98673500D01*
X84390000Y-99153500D01*
G36*
X84390000Y-99153500D02*
G01*
X84060000Y-98913500D01*
X84390000Y-98673500D01*
X84390000Y-99153500D01*
G37*
X84110000Y-100076000D02*
X84110000Y-100726000D01*
X84110000Y-100076000D02*
X84110000Y-99426000D01*
X80990000Y-100076000D02*
X80990000Y-100726000D01*
X80990000Y-100076000D02*
X80990000Y-99426000D01*
D15*
%TO.C,L1*%
X102311200Y-85788500D02*
G75*
G02*
X102158800Y-85788500I-76200J0D01*
G01*
X102158800Y-85788500D02*
G75*
G02*
X102311200Y-85788500I76200J0D01*
G01*
X98679000Y-86931500D02*
X98679000Y-94678500D01*
X98679000Y-94678500D02*
X100251260Y-94678500D01*
X100251260Y-86931500D02*
X98679000Y-86931500D01*
X104218740Y-94678500D02*
X105791000Y-94678500D01*
X105791000Y-86931500D02*
X104218740Y-86931500D01*
X105791000Y-94678500D02*
X105791000Y-86931500D01*
D12*
%TO.C,C2*%
X102946252Y-101240000D02*
X101523748Y-101240000D01*
X102946252Y-99420000D02*
X101523748Y-99420000D01*
%TO.C,J4*%
X74530000Y-91875000D02*
X68530000Y-91875000D01*
X68530000Y-91015000D01*
X74530000Y-91015000D01*
X74530000Y-91875000D01*
G36*
X74530000Y-91875000D02*
G01*
X68530000Y-91875000D01*
X68530000Y-91015000D01*
X74530000Y-91015000D01*
X74530000Y-91875000D01*
G37*
X79950000Y-92715000D02*
X78680000Y-92715000D01*
X79950000Y-91445000D02*
X79950000Y-92715000D01*
X77602642Y-89335000D02*
X77290000Y-89335000D01*
X77602642Y-88475000D02*
X77290000Y-88475000D01*
X77520000Y-91875000D02*
X77290000Y-91875000D01*
X77520000Y-91015000D02*
X77290000Y-91015000D01*
X77290000Y-92825000D02*
X77290000Y-87525000D01*
X77290000Y-90175000D02*
X74530000Y-90175000D01*
X77290000Y-87525000D02*
X74530000Y-87525000D01*
X74530000Y-92825000D02*
X77290000Y-92825000D01*
X74530000Y-89335000D02*
X68530000Y-89335000D01*
X74530000Y-87525000D02*
X74530000Y-92825000D01*
X68530000Y-89335000D02*
X68530000Y-88475000D01*
X68530000Y-88475000D02*
X74530000Y-88475000D01*
%TO.C,R4*%
X83372500Y-88492064D02*
X83372500Y-88037936D01*
X81902500Y-88492064D02*
X81902500Y-88037936D01*
%TO.C,C1*%
X91159000Y-99306748D02*
X91159000Y-99829252D01*
X89689000Y-99306748D02*
X89689000Y-99829252D01*
D13*
%TO.C,D1*%
X98710000Y-97155000D02*
G75*
G02*
X98510000Y-97155000I-100000J0D01*
G01*
X98510000Y-97155000D02*
G75*
G02*
X98710000Y-97155000I100000J0D01*
G01*
D14*
X104775000Y-98435000D02*
X104775000Y-98225000D01*
X104775000Y-96085000D02*
X104775000Y-95875000D01*
X104775000Y-95875000D02*
X100445000Y-95875000D01*
X100445000Y-98435000D02*
X104775000Y-98435000D01*
X100445000Y-98435000D02*
X100445000Y-98225000D01*
X100445000Y-95875000D02*
X100445000Y-96085000D01*
%TD*%
M02*
