%TF.GenerationSoftware,KiCad,Pcbnew,9.0.2*%
%TF.CreationDate,2025-06-14T21:55:15+08:00*%
%TF.ProjectId,Tiny Solar Supply,54696e79-2053-46f6-9c61-722053757070,rev?*%
%TF.SameCoordinates,Original*%
%TF.FileFunction,Legend,Bot*%
%TF.FilePolarity,Positive*%
%FSLAX46Y46*%
G04 Gerber Fmt 4.6, Leading zero omitted, Abs format (unit mm)*
G04 Created by KiCad (PCBNEW 9.0.2) date 2025-06-14 21:55:15*
%MOMM*%
%LPD*%
G01*
G04 APERTURE LIST*
%ADD10C,0.152400*%
%ADD11C,0.010000*%
G04 APERTURE END LIST*
D10*
X103708327Y-88703241D02*
X103437394Y-89516041D01*
X103437394Y-89516041D02*
X103166460Y-88703241D01*
X102469774Y-89516041D02*
X102934231Y-89516041D01*
X102702003Y-89516041D02*
X102702003Y-88703241D01*
X102702003Y-88703241D02*
X102779412Y-88819356D01*
X102779412Y-88819356D02*
X102856822Y-88896765D01*
X102856822Y-88896765D02*
X102934231Y-88935470D01*
X102121432Y-89438632D02*
X102082727Y-89477337D01*
X102082727Y-89477337D02*
X102121432Y-89516041D01*
X102121432Y-89516041D02*
X102160136Y-89477337D01*
X102160136Y-89477337D02*
X102121432Y-89438632D01*
X102121432Y-89438632D02*
X102121432Y-89516041D01*
X101579565Y-88703241D02*
X101502155Y-88703241D01*
X101502155Y-88703241D02*
X101424746Y-88741946D01*
X101424746Y-88741946D02*
X101386041Y-88780651D01*
X101386041Y-88780651D02*
X101347336Y-88858060D01*
X101347336Y-88858060D02*
X101308631Y-89012879D01*
X101308631Y-89012879D02*
X101308631Y-89206403D01*
X101308631Y-89206403D02*
X101347336Y-89361222D01*
X101347336Y-89361222D02*
X101386041Y-89438632D01*
X101386041Y-89438632D02*
X101424746Y-89477337D01*
X101424746Y-89477337D02*
X101502155Y-89516041D01*
X101502155Y-89516041D02*
X101579565Y-89516041D01*
X101579565Y-89516041D02*
X101656974Y-89477337D01*
X101656974Y-89477337D02*
X101695679Y-89438632D01*
X101695679Y-89438632D02*
X101734384Y-89361222D01*
X101734384Y-89361222D02*
X101773088Y-89206403D01*
X101773088Y-89206403D02*
X101773088Y-89012879D01*
X101773088Y-89012879D02*
X101734384Y-88858060D01*
X101734384Y-88858060D02*
X101695679Y-88780651D01*
X101695679Y-88780651D02*
X101656974Y-88741946D01*
X101656974Y-88741946D02*
X101579565Y-88703241D01*
X103708327Y-90011803D02*
X103243870Y-90011803D01*
X103476098Y-90824603D02*
X103476098Y-90011803D01*
X102972937Y-90824603D02*
X102972937Y-90282737D01*
X102972937Y-90011803D02*
X103011641Y-90050508D01*
X103011641Y-90050508D02*
X102972937Y-90089213D01*
X102972937Y-90089213D02*
X102934232Y-90050508D01*
X102934232Y-90050508D02*
X102972937Y-90011803D01*
X102972937Y-90011803D02*
X102972937Y-90089213D01*
X102585889Y-90282737D02*
X102585889Y-90824603D01*
X102585889Y-90360146D02*
X102547184Y-90321441D01*
X102547184Y-90321441D02*
X102469774Y-90282737D01*
X102469774Y-90282737D02*
X102353660Y-90282737D01*
X102353660Y-90282737D02*
X102276251Y-90321441D01*
X102276251Y-90321441D02*
X102237546Y-90398851D01*
X102237546Y-90398851D02*
X102237546Y-90824603D01*
X101927908Y-90282737D02*
X101734384Y-90824603D01*
X101540861Y-90282737D02*
X101734384Y-90824603D01*
X101734384Y-90824603D02*
X101811794Y-91018127D01*
X101811794Y-91018127D02*
X101850499Y-91056832D01*
X101850499Y-91056832D02*
X101927908Y-91095537D01*
X100650651Y-90785899D02*
X100534537Y-90824603D01*
X100534537Y-90824603D02*
X100341013Y-90824603D01*
X100341013Y-90824603D02*
X100263604Y-90785899D01*
X100263604Y-90785899D02*
X100224899Y-90747194D01*
X100224899Y-90747194D02*
X100186194Y-90669784D01*
X100186194Y-90669784D02*
X100186194Y-90592375D01*
X100186194Y-90592375D02*
X100224899Y-90514965D01*
X100224899Y-90514965D02*
X100263604Y-90476260D01*
X100263604Y-90476260D02*
X100341013Y-90437556D01*
X100341013Y-90437556D02*
X100495832Y-90398851D01*
X100495832Y-90398851D02*
X100573242Y-90360146D01*
X100573242Y-90360146D02*
X100611947Y-90321441D01*
X100611947Y-90321441D02*
X100650651Y-90244032D01*
X100650651Y-90244032D02*
X100650651Y-90166622D01*
X100650651Y-90166622D02*
X100611947Y-90089213D01*
X100611947Y-90089213D02*
X100573242Y-90050508D01*
X100573242Y-90050508D02*
X100495832Y-90011803D01*
X100495832Y-90011803D02*
X100302309Y-90011803D01*
X100302309Y-90011803D02*
X100186194Y-90050508D01*
X99721737Y-90824603D02*
X99799147Y-90785899D01*
X99799147Y-90785899D02*
X99837852Y-90747194D01*
X99837852Y-90747194D02*
X99876556Y-90669784D01*
X99876556Y-90669784D02*
X99876556Y-90437556D01*
X99876556Y-90437556D02*
X99837852Y-90360146D01*
X99837852Y-90360146D02*
X99799147Y-90321441D01*
X99799147Y-90321441D02*
X99721737Y-90282737D01*
X99721737Y-90282737D02*
X99605623Y-90282737D01*
X99605623Y-90282737D02*
X99528214Y-90321441D01*
X99528214Y-90321441D02*
X99489509Y-90360146D01*
X99489509Y-90360146D02*
X99450804Y-90437556D01*
X99450804Y-90437556D02*
X99450804Y-90669784D01*
X99450804Y-90669784D02*
X99489509Y-90747194D01*
X99489509Y-90747194D02*
X99528214Y-90785899D01*
X99528214Y-90785899D02*
X99605623Y-90824603D01*
X99605623Y-90824603D02*
X99721737Y-90824603D01*
X98986347Y-90824603D02*
X99063757Y-90785899D01*
X99063757Y-90785899D02*
X99102462Y-90708489D01*
X99102462Y-90708489D02*
X99102462Y-90011803D01*
X98328367Y-90824603D02*
X98328367Y-90398851D01*
X98328367Y-90398851D02*
X98367072Y-90321441D01*
X98367072Y-90321441D02*
X98444481Y-90282737D01*
X98444481Y-90282737D02*
X98599300Y-90282737D01*
X98599300Y-90282737D02*
X98676710Y-90321441D01*
X98328367Y-90785899D02*
X98405776Y-90824603D01*
X98405776Y-90824603D02*
X98599300Y-90824603D01*
X98599300Y-90824603D02*
X98676710Y-90785899D01*
X98676710Y-90785899D02*
X98715414Y-90708489D01*
X98715414Y-90708489D02*
X98715414Y-90631079D01*
X98715414Y-90631079D02*
X98676710Y-90553670D01*
X98676710Y-90553670D02*
X98599300Y-90514965D01*
X98599300Y-90514965D02*
X98405776Y-90514965D01*
X98405776Y-90514965D02*
X98328367Y-90476260D01*
X97941320Y-90824603D02*
X97941320Y-90282737D01*
X97941320Y-90437556D02*
X97902615Y-90360146D01*
X97902615Y-90360146D02*
X97863910Y-90321441D01*
X97863910Y-90321441D02*
X97786501Y-90282737D01*
X97786501Y-90282737D02*
X97709091Y-90282737D01*
X96818882Y-90824603D02*
X96818882Y-90011803D01*
X96818882Y-90011803D02*
X96509244Y-90011803D01*
X96509244Y-90011803D02*
X96431834Y-90050508D01*
X96431834Y-90050508D02*
X96393129Y-90089213D01*
X96393129Y-90089213D02*
X96354425Y-90166622D01*
X96354425Y-90166622D02*
X96354425Y-90282737D01*
X96354425Y-90282737D02*
X96393129Y-90360146D01*
X96393129Y-90360146D02*
X96431834Y-90398851D01*
X96431834Y-90398851D02*
X96509244Y-90437556D01*
X96509244Y-90437556D02*
X96818882Y-90437556D01*
X95889967Y-90824603D02*
X95967377Y-90785899D01*
X95967377Y-90785899D02*
X96006082Y-90747194D01*
X96006082Y-90747194D02*
X96044786Y-90669784D01*
X96044786Y-90669784D02*
X96044786Y-90437556D01*
X96044786Y-90437556D02*
X96006082Y-90360146D01*
X96006082Y-90360146D02*
X95967377Y-90321441D01*
X95967377Y-90321441D02*
X95889967Y-90282737D01*
X95889967Y-90282737D02*
X95773853Y-90282737D01*
X95773853Y-90282737D02*
X95696444Y-90321441D01*
X95696444Y-90321441D02*
X95657739Y-90360146D01*
X95657739Y-90360146D02*
X95619034Y-90437556D01*
X95619034Y-90437556D02*
X95619034Y-90669784D01*
X95619034Y-90669784D02*
X95657739Y-90747194D01*
X95657739Y-90747194D02*
X95696444Y-90785899D01*
X95696444Y-90785899D02*
X95773853Y-90824603D01*
X95773853Y-90824603D02*
X95889967Y-90824603D01*
X95348101Y-90282737D02*
X95193282Y-90824603D01*
X95193282Y-90824603D02*
X95038463Y-90437556D01*
X95038463Y-90437556D02*
X94883644Y-90824603D01*
X94883644Y-90824603D02*
X94728825Y-90282737D01*
X94109549Y-90785899D02*
X94186958Y-90824603D01*
X94186958Y-90824603D02*
X94341777Y-90824603D01*
X94341777Y-90824603D02*
X94419187Y-90785899D01*
X94419187Y-90785899D02*
X94457891Y-90708489D01*
X94457891Y-90708489D02*
X94457891Y-90398851D01*
X94457891Y-90398851D02*
X94419187Y-90321441D01*
X94419187Y-90321441D02*
X94341777Y-90282737D01*
X94341777Y-90282737D02*
X94186958Y-90282737D01*
X94186958Y-90282737D02*
X94109549Y-90321441D01*
X94109549Y-90321441D02*
X94070844Y-90398851D01*
X94070844Y-90398851D02*
X94070844Y-90476260D01*
X94070844Y-90476260D02*
X94457891Y-90553670D01*
X93722501Y-90824603D02*
X93722501Y-90282737D01*
X93722501Y-90437556D02*
X93683796Y-90360146D01*
X93683796Y-90360146D02*
X93645091Y-90321441D01*
X93645091Y-90321441D02*
X93567682Y-90282737D01*
X93567682Y-90282737D02*
X93490272Y-90282737D01*
X92638767Y-90785899D02*
X92522653Y-90824603D01*
X92522653Y-90824603D02*
X92329129Y-90824603D01*
X92329129Y-90824603D02*
X92251720Y-90785899D01*
X92251720Y-90785899D02*
X92213015Y-90747194D01*
X92213015Y-90747194D02*
X92174310Y-90669784D01*
X92174310Y-90669784D02*
X92174310Y-90592375D01*
X92174310Y-90592375D02*
X92213015Y-90514965D01*
X92213015Y-90514965D02*
X92251720Y-90476260D01*
X92251720Y-90476260D02*
X92329129Y-90437556D01*
X92329129Y-90437556D02*
X92483948Y-90398851D01*
X92483948Y-90398851D02*
X92561358Y-90360146D01*
X92561358Y-90360146D02*
X92600063Y-90321441D01*
X92600063Y-90321441D02*
X92638767Y-90244032D01*
X92638767Y-90244032D02*
X92638767Y-90166622D01*
X92638767Y-90166622D02*
X92600063Y-90089213D01*
X92600063Y-90089213D02*
X92561358Y-90050508D01*
X92561358Y-90050508D02*
X92483948Y-90011803D01*
X92483948Y-90011803D02*
X92290425Y-90011803D01*
X92290425Y-90011803D02*
X92174310Y-90050508D01*
X91477625Y-90282737D02*
X91477625Y-90824603D01*
X91825968Y-90282737D02*
X91825968Y-90708489D01*
X91825968Y-90708489D02*
X91787263Y-90785899D01*
X91787263Y-90785899D02*
X91709853Y-90824603D01*
X91709853Y-90824603D02*
X91593739Y-90824603D01*
X91593739Y-90824603D02*
X91516330Y-90785899D01*
X91516330Y-90785899D02*
X91477625Y-90747194D01*
X91090578Y-90282737D02*
X91090578Y-91095537D01*
X91090578Y-90321441D02*
X91013168Y-90282737D01*
X91013168Y-90282737D02*
X90858349Y-90282737D01*
X90858349Y-90282737D02*
X90780940Y-90321441D01*
X90780940Y-90321441D02*
X90742235Y-90360146D01*
X90742235Y-90360146D02*
X90703530Y-90437556D01*
X90703530Y-90437556D02*
X90703530Y-90669784D01*
X90703530Y-90669784D02*
X90742235Y-90747194D01*
X90742235Y-90747194D02*
X90780940Y-90785899D01*
X90780940Y-90785899D02*
X90858349Y-90824603D01*
X90858349Y-90824603D02*
X91013168Y-90824603D01*
X91013168Y-90824603D02*
X91090578Y-90785899D01*
X90355188Y-90282737D02*
X90355188Y-91095537D01*
X90355188Y-90321441D02*
X90277778Y-90282737D01*
X90277778Y-90282737D02*
X90122959Y-90282737D01*
X90122959Y-90282737D02*
X90045550Y-90321441D01*
X90045550Y-90321441D02*
X90006845Y-90360146D01*
X90006845Y-90360146D02*
X89968140Y-90437556D01*
X89968140Y-90437556D02*
X89968140Y-90669784D01*
X89968140Y-90669784D02*
X90006845Y-90747194D01*
X90006845Y-90747194D02*
X90045550Y-90785899D01*
X90045550Y-90785899D02*
X90122959Y-90824603D01*
X90122959Y-90824603D02*
X90277778Y-90824603D01*
X90277778Y-90824603D02*
X90355188Y-90785899D01*
X89503683Y-90824603D02*
X89581093Y-90785899D01*
X89581093Y-90785899D02*
X89619798Y-90708489D01*
X89619798Y-90708489D02*
X89619798Y-90011803D01*
X89271455Y-90282737D02*
X89077931Y-90824603D01*
X88884408Y-90282737D02*
X89077931Y-90824603D01*
X89077931Y-90824603D02*
X89155341Y-91018127D01*
X89155341Y-91018127D02*
X89194046Y-91056832D01*
X89194046Y-91056832D02*
X89271455Y-91095537D01*
D11*
%TO.C,REF\u002A\u002A*%
X93391406Y-97270949D02*
X93417127Y-97286647D01*
X93443778Y-97308227D01*
X93443778Y-97955684D01*
X93417127Y-97977264D01*
X93385767Y-97994739D01*
X93349966Y-97995575D01*
X93318528Y-97975082D01*
X93314652Y-97970416D01*
X93309186Y-97960949D01*
X93304979Y-97947267D01*
X93301867Y-97926748D01*
X93299687Y-97896768D01*
X93298276Y-97854704D01*
X93297471Y-97797932D01*
X93297107Y-97723830D01*
X93297022Y-97629773D01*
X93297022Y-97308227D01*
X93323673Y-97286647D01*
X93347386Y-97271877D01*
X93370400Y-97265067D01*
X93391406Y-97270949D01*
G36*
X93391406Y-97270949D02*
G01*
X93417127Y-97286647D01*
X93443778Y-97308227D01*
X93443778Y-97955684D01*
X93417127Y-97977264D01*
X93385767Y-97994739D01*
X93349966Y-97995575D01*
X93318528Y-97975082D01*
X93314652Y-97970416D01*
X93309186Y-97960949D01*
X93304979Y-97947267D01*
X93301867Y-97926748D01*
X93299687Y-97896768D01*
X93298276Y-97854704D01*
X93297471Y-97797932D01*
X93297107Y-97723830D01*
X93297022Y-97629773D01*
X93297022Y-97308227D01*
X93323673Y-97286647D01*
X93347386Y-97271877D01*
X93370400Y-97265067D01*
X93391406Y-97270949D01*
G37*
X100522137Y-97269463D02*
X100556291Y-97292776D01*
X100584000Y-97320485D01*
X100584000Y-97633537D01*
X100583959Y-97717567D01*
X100583701Y-97791789D01*
X100583030Y-97848541D01*
X100581752Y-97890512D01*
X100579673Y-97920389D01*
X100576599Y-97940861D01*
X100572334Y-97954614D01*
X100566684Y-97964337D01*
X100559455Y-97972717D01*
X100527991Y-97994181D01*
X100492826Y-97995947D01*
X100459822Y-97976267D01*
X100454516Y-97970398D01*
X100449066Y-97961314D01*
X100444900Y-97947973D01*
X100441846Y-97927757D01*
X100439732Y-97898049D01*
X100438386Y-97856232D01*
X100437638Y-97799689D01*
X100437314Y-97725802D01*
X100437245Y-97631956D01*
X100437284Y-97556294D01*
X100437539Y-97478385D01*
X100438183Y-97418375D01*
X100439387Y-97373648D01*
X100441324Y-97341585D01*
X100444164Y-97319571D01*
X100448079Y-97304987D01*
X100453242Y-97295218D01*
X100459822Y-97287645D01*
X100489006Y-97268623D01*
X100522137Y-97269463D01*
G36*
X100522137Y-97269463D02*
G01*
X100556291Y-97292776D01*
X100584000Y-97320485D01*
X100584000Y-97633537D01*
X100583959Y-97717567D01*
X100583701Y-97791789D01*
X100583030Y-97848541D01*
X100581752Y-97890512D01*
X100579673Y-97920389D01*
X100576599Y-97940861D01*
X100572334Y-97954614D01*
X100566684Y-97964337D01*
X100559455Y-97972717D01*
X100527991Y-97994181D01*
X100492826Y-97995947D01*
X100459822Y-97976267D01*
X100454516Y-97970398D01*
X100449066Y-97961314D01*
X100444900Y-97947973D01*
X100441846Y-97927757D01*
X100439732Y-97898049D01*
X100438386Y-97856232D01*
X100437638Y-97799689D01*
X100437314Y-97725802D01*
X100437245Y-97631956D01*
X100437284Y-97556294D01*
X100437539Y-97478385D01*
X100438183Y-97418375D01*
X100439387Y-97373648D01*
X100441324Y-97341585D01*
X100444164Y-97319571D01*
X100448079Y-97304987D01*
X100453242Y-97295218D01*
X100459822Y-97287645D01*
X100489006Y-97268623D01*
X100522137Y-97269463D01*
G37*
X99990562Y-92028850D02*
X100073313Y-92056053D01*
X100148406Y-92101484D01*
X100220298Y-92167302D01*
X100258846Y-92211567D01*
X100298256Y-92269961D01*
X100323446Y-92330586D01*
X100336861Y-92399865D01*
X100340948Y-92484222D01*
X100340669Y-92530307D01*
X100338460Y-92571450D01*
X100332894Y-92603582D01*
X100322586Y-92634122D01*
X100306148Y-92670489D01*
X100292200Y-92697728D01*
X100233665Y-92783429D01*
X100161619Y-92852617D01*
X100077947Y-92903741D01*
X99984531Y-92935250D01*
X99951434Y-92942225D01*
X99910960Y-92949094D01*
X99877999Y-92950919D01*
X99843698Y-92947947D01*
X99799200Y-92940426D01*
X99747934Y-92928002D01*
X99657434Y-92890112D01*
X99578345Y-92835836D01*
X99512528Y-92767770D01*
X99461840Y-92688511D01*
X99428140Y-92600654D01*
X99413286Y-92506795D01*
X99419136Y-92409530D01*
X99445399Y-92313220D01*
X99490418Y-92224494D01*
X99551373Y-92149419D01*
X99626184Y-92089641D01*
X99712768Y-92046809D01*
X99809043Y-92022571D01*
X99912928Y-92018576D01*
X99990562Y-92028850D01*
G36*
X99990562Y-92028850D02*
G01*
X100073313Y-92056053D01*
X100148406Y-92101484D01*
X100220298Y-92167302D01*
X100258846Y-92211567D01*
X100298256Y-92269961D01*
X100323446Y-92330586D01*
X100336861Y-92399865D01*
X100340948Y-92484222D01*
X100340669Y-92530307D01*
X100338460Y-92571450D01*
X100332894Y-92603582D01*
X100322586Y-92634122D01*
X100306148Y-92670489D01*
X100292200Y-92697728D01*
X100233665Y-92783429D01*
X100161619Y-92852617D01*
X100077947Y-92903741D01*
X99984531Y-92935250D01*
X99951434Y-92942225D01*
X99910960Y-92949094D01*
X99877999Y-92950919D01*
X99843698Y-92947947D01*
X99799200Y-92940426D01*
X99747934Y-92928002D01*
X99657434Y-92890112D01*
X99578345Y-92835836D01*
X99512528Y-92767770D01*
X99461840Y-92688511D01*
X99428140Y-92600654D01*
X99413286Y-92506795D01*
X99419136Y-92409530D01*
X99445399Y-92313220D01*
X99490418Y-92224494D01*
X99551373Y-92149419D01*
X99626184Y-92089641D01*
X99712768Y-92046809D01*
X99809043Y-92022571D01*
X99912928Y-92018576D01*
X99990562Y-92028850D01*
G37*
X92691767Y-97265068D02*
X92785890Y-97265158D01*
X92860405Y-97265498D01*
X92917811Y-97266239D01*
X92960611Y-97267535D01*
X92991304Y-97269537D01*
X93012391Y-97272396D01*
X93026373Y-97276266D01*
X93035750Y-97281298D01*
X93043022Y-97287645D01*
X93061828Y-97320362D01*
X93063275Y-97357939D01*
X93046917Y-97391178D01*
X93045557Y-97392631D01*
X93034354Y-97400992D01*
X93017252Y-97406547D01*
X92990082Y-97409840D01*
X92948678Y-97411418D01*
X92888873Y-97411822D01*
X92749511Y-97411822D01*
X92749511Y-97675589D01*
X92749436Y-97751417D01*
X92749028Y-97818083D01*
X92748046Y-97867867D01*
X92746250Y-97903784D01*
X92743399Y-97928850D01*
X92739253Y-97946081D01*
X92733571Y-97958492D01*
X92726114Y-97969100D01*
X92723824Y-97971906D01*
X92692646Y-97994548D01*
X92658266Y-97996112D01*
X92625334Y-97976267D01*
X92618355Y-97968191D01*
X92612883Y-97957593D01*
X92608863Y-97941749D01*
X92606072Y-97917773D01*
X92604288Y-97882774D01*
X92603289Y-97833864D01*
X92602852Y-97768154D01*
X92602756Y-97682756D01*
X92602756Y-97411822D01*
X92456820Y-97411822D01*
X92445720Y-97411821D01*
X92389202Y-97411596D01*
X92350358Y-97410457D01*
X92324965Y-97407657D01*
X92308804Y-97402450D01*
X92297652Y-97394089D01*
X92287289Y-97381826D01*
X92271441Y-97351138D01*
X92274543Y-97317358D01*
X92300187Y-97284822D01*
X92305129Y-97281105D01*
X92315338Y-97276269D01*
X92330764Y-97272506D01*
X92353886Y-97269683D01*
X92387183Y-97267670D01*
X92433137Y-97266333D01*
X92494228Y-97265542D01*
X92572935Y-97265163D01*
X92671740Y-97265067D01*
X92691767Y-97265068D01*
G36*
X92691767Y-97265068D02*
G01*
X92785890Y-97265158D01*
X92860405Y-97265498D01*
X92917811Y-97266239D01*
X92960611Y-97267535D01*
X92991304Y-97269537D01*
X93012391Y-97272396D01*
X93026373Y-97276266D01*
X93035750Y-97281298D01*
X93043022Y-97287645D01*
X93061828Y-97320362D01*
X93063275Y-97357939D01*
X93046917Y-97391178D01*
X93045557Y-97392631D01*
X93034354Y-97400992D01*
X93017252Y-97406547D01*
X92990082Y-97409840D01*
X92948678Y-97411418D01*
X92888873Y-97411822D01*
X92749511Y-97411822D01*
X92749511Y-97675589D01*
X92749436Y-97751417D01*
X92749028Y-97818083D01*
X92748046Y-97867867D01*
X92746250Y-97903784D01*
X92743399Y-97928850D01*
X92739253Y-97946081D01*
X92733571Y-97958492D01*
X92726114Y-97969100D01*
X92723824Y-97971906D01*
X92692646Y-97994548D01*
X92658266Y-97996112D01*
X92625334Y-97976267D01*
X92618355Y-97968191D01*
X92612883Y-97957593D01*
X92608863Y-97941749D01*
X92606072Y-97917773D01*
X92604288Y-97882774D01*
X92603289Y-97833864D01*
X92602852Y-97768154D01*
X92602756Y-97682756D01*
X92602756Y-97411822D01*
X92456820Y-97411822D01*
X92445720Y-97411821D01*
X92389202Y-97411596D01*
X92350358Y-97410457D01*
X92324965Y-97407657D01*
X92308804Y-97402450D01*
X92297652Y-97394089D01*
X92287289Y-97381826D01*
X92271441Y-97351138D01*
X92274543Y-97317358D01*
X92300187Y-97284822D01*
X92305129Y-97281105D01*
X92315338Y-97276269D01*
X92330764Y-97272506D01*
X92353886Y-97269683D01*
X92387183Y-97267670D01*
X92433137Y-97266333D01*
X92494228Y-97265542D01*
X92572935Y-97265163D01*
X92671740Y-97265067D01*
X92691767Y-97265068D01*
G37*
X92015734Y-97287645D02*
X92021366Y-97293835D01*
X92026456Y-97302041D01*
X92030543Y-97313817D01*
X92033721Y-97331276D01*
X92036087Y-97356530D01*
X92037738Y-97391690D01*
X92038769Y-97438869D01*
X92039277Y-97500177D01*
X92039359Y-97577727D01*
X92039109Y-97673631D01*
X92038625Y-97790000D01*
X92038557Y-97804175D01*
X92037971Y-97865937D01*
X92036648Y-97909620D01*
X92034103Y-97939001D01*
X92029848Y-97957855D01*
X92023396Y-97969959D01*
X92014262Y-97979089D01*
X91980804Y-97996506D01*
X91945856Y-97993604D01*
X91914953Y-97969100D01*
X91905944Y-97955897D01*
X91898492Y-97937361D01*
X91894124Y-97911333D01*
X91892069Y-97872787D01*
X91891556Y-97816700D01*
X91891556Y-97694045D01*
X91394845Y-97694045D01*
X91394845Y-97828871D01*
X91394772Y-97864662D01*
X91394009Y-97910992D01*
X91391833Y-97941526D01*
X91387536Y-97960557D01*
X91380412Y-97972374D01*
X91369755Y-97981271D01*
X91337504Y-97996341D01*
X91302217Y-97993673D01*
X91271486Y-97969100D01*
X91266831Y-97962845D01*
X91260895Y-97952321D01*
X91256364Y-97938391D01*
X91253048Y-97918317D01*
X91250759Y-97889360D01*
X91249308Y-97848780D01*
X91248505Y-97793840D01*
X91248162Y-97721799D01*
X91248089Y-97629920D01*
X91248089Y-97320485D01*
X91275798Y-97292776D01*
X91307177Y-97270533D01*
X91340406Y-97267844D01*
X91372267Y-97287645D01*
X91380553Y-97297415D01*
X91387965Y-97313307D01*
X91392302Y-97337275D01*
X91394338Y-97374148D01*
X91394845Y-97428756D01*
X91394845Y-97547289D01*
X91891556Y-97547289D01*
X91891556Y-97431776D01*
X91891994Y-97380078D01*
X91893958Y-97345554D01*
X91898474Y-97322978D01*
X91906567Y-97307126D01*
X91919265Y-97292776D01*
X91950643Y-97270533D01*
X91983872Y-97267844D01*
X92015734Y-97287645D01*
G36*
X92015734Y-97287645D02*
G01*
X92021366Y-97293835D01*
X92026456Y-97302041D01*
X92030543Y-97313817D01*
X92033721Y-97331276D01*
X92036087Y-97356530D01*
X92037738Y-97391690D01*
X92038769Y-97438869D01*
X92039277Y-97500177D01*
X92039359Y-97577727D01*
X92039109Y-97673631D01*
X92038625Y-97790000D01*
X92038557Y-97804175D01*
X92037971Y-97865937D01*
X92036648Y-97909620D01*
X92034103Y-97939001D01*
X92029848Y-97957855D01*
X92023396Y-97969959D01*
X92014262Y-97979089D01*
X91980804Y-97996506D01*
X91945856Y-97993604D01*
X91914953Y-97969100D01*
X91905944Y-97955897D01*
X91898492Y-97937361D01*
X91894124Y-97911333D01*
X91892069Y-97872787D01*
X91891556Y-97816700D01*
X91891556Y-97694045D01*
X91394845Y-97694045D01*
X91394845Y-97828871D01*
X91394772Y-97864662D01*
X91394009Y-97910992D01*
X91391833Y-97941526D01*
X91387536Y-97960557D01*
X91380412Y-97972374D01*
X91369755Y-97981271D01*
X91337504Y-97996341D01*
X91302217Y-97993673D01*
X91271486Y-97969100D01*
X91266831Y-97962845D01*
X91260895Y-97952321D01*
X91256364Y-97938391D01*
X91253048Y-97918317D01*
X91250759Y-97889360D01*
X91249308Y-97848780D01*
X91248505Y-97793840D01*
X91248162Y-97721799D01*
X91248089Y-97629920D01*
X91248089Y-97320485D01*
X91275798Y-97292776D01*
X91307177Y-97270533D01*
X91340406Y-97267844D01*
X91372267Y-97287645D01*
X91380553Y-97297415D01*
X91387965Y-97313307D01*
X91392302Y-97337275D01*
X91394338Y-97374148D01*
X91394845Y-97428756D01*
X91394845Y-97547289D01*
X91891556Y-97547289D01*
X91891556Y-97431776D01*
X91891994Y-97380078D01*
X91893958Y-97345554D01*
X91898474Y-97322978D01*
X91906567Y-97307126D01*
X91919265Y-97292776D01*
X91950643Y-97270533D01*
X91983872Y-97267844D01*
X92015734Y-97287645D01*
G37*
X96721133Y-97876396D02*
X96719163Y-97909175D01*
X96716235Y-97932095D01*
X96712158Y-97947897D01*
X96706743Y-97959319D01*
X96699803Y-97969100D01*
X96676406Y-97998845D01*
X96510714Y-97998251D01*
X96475918Y-97997953D01*
X96377435Y-97994522D01*
X96296473Y-97986839D01*
X96229379Y-97974282D01*
X96172496Y-97956227D01*
X96122169Y-97932052D01*
X96118810Y-97930135D01*
X96060998Y-97893417D01*
X96018644Y-97856451D01*
X95985828Y-97812966D01*
X95956628Y-97756689D01*
X95952346Y-97747073D01*
X95929769Y-97683887D01*
X95924034Y-97638333D01*
X96073279Y-97638333D01*
X96078892Y-97663061D01*
X96084618Y-97678939D01*
X96117548Y-97738847D01*
X96164886Y-97784600D01*
X96228652Y-97817736D01*
X96310861Y-97839790D01*
X96313655Y-97840292D01*
X96359940Y-97846255D01*
X96416336Y-97850483D01*
X96471274Y-97852089D01*
X96565156Y-97852089D01*
X96565156Y-97411822D01*
X96477667Y-97412270D01*
X96410747Y-97414746D01*
X96318349Y-97425998D01*
X96239034Y-97445537D01*
X96177060Y-97472511D01*
X96146120Y-97493240D01*
X96118000Y-97523006D01*
X96094660Y-97565434D01*
X96087533Y-97581400D01*
X96075709Y-97613902D01*
X96073279Y-97638333D01*
X95924034Y-97638333D01*
X95922797Y-97628509D01*
X95931399Y-97573483D01*
X95955541Y-97511351D01*
X95956337Y-97509658D01*
X95996788Y-97440236D01*
X96047473Y-97383638D01*
X96110198Y-97339070D01*
X96186774Y-97305741D01*
X96279009Y-97282861D01*
X96388712Y-97269636D01*
X96517691Y-97265275D01*
X96521263Y-97265270D01*
X96581283Y-97265410D01*
X96623214Y-97266446D01*
X96651328Y-97269040D01*
X96669897Y-97273853D01*
X96683194Y-97281544D01*
X96695491Y-97292776D01*
X96723200Y-97320485D01*
X96723200Y-97629920D01*
X96723175Y-97691526D01*
X96722950Y-97770311D01*
X96722332Y-97831021D01*
X96721775Y-97852089D01*
X96721133Y-97876396D01*
G36*
X96721133Y-97876396D02*
G01*
X96719163Y-97909175D01*
X96716235Y-97932095D01*
X96712158Y-97947897D01*
X96706743Y-97959319D01*
X96699803Y-97969100D01*
X96676406Y-97998845D01*
X96510714Y-97998251D01*
X96475918Y-97997953D01*
X96377435Y-97994522D01*
X96296473Y-97986839D01*
X96229379Y-97974282D01*
X96172496Y-97956227D01*
X96122169Y-97932052D01*
X96118810Y-97930135D01*
X96060998Y-97893417D01*
X96018644Y-97856451D01*
X95985828Y-97812966D01*
X95956628Y-97756689D01*
X95952346Y-97747073D01*
X95929769Y-97683887D01*
X95924034Y-97638333D01*
X96073279Y-97638333D01*
X96078892Y-97663061D01*
X96084618Y-97678939D01*
X96117548Y-97738847D01*
X96164886Y-97784600D01*
X96228652Y-97817736D01*
X96310861Y-97839790D01*
X96313655Y-97840292D01*
X96359940Y-97846255D01*
X96416336Y-97850483D01*
X96471274Y-97852089D01*
X96565156Y-97852089D01*
X96565156Y-97411822D01*
X96477667Y-97412270D01*
X96410747Y-97414746D01*
X96318349Y-97425998D01*
X96239034Y-97445537D01*
X96177060Y-97472511D01*
X96146120Y-97493240D01*
X96118000Y-97523006D01*
X96094660Y-97565434D01*
X96087533Y-97581400D01*
X96075709Y-97613902D01*
X96073279Y-97638333D01*
X95924034Y-97638333D01*
X95922797Y-97628509D01*
X95931399Y-97573483D01*
X95955541Y-97511351D01*
X95956337Y-97509658D01*
X95996788Y-97440236D01*
X96047473Y-97383638D01*
X96110198Y-97339070D01*
X96186774Y-97305741D01*
X96279009Y-97282861D01*
X96388712Y-97269636D01*
X96517691Y-97265275D01*
X96521263Y-97265270D01*
X96581283Y-97265410D01*
X96623214Y-97266446D01*
X96651328Y-97269040D01*
X96669897Y-97273853D01*
X96683194Y-97281544D01*
X96695491Y-97292776D01*
X96723200Y-97320485D01*
X96723200Y-97629920D01*
X96723175Y-97691526D01*
X96722950Y-97770311D01*
X96722332Y-97831021D01*
X96721775Y-97852089D01*
X96721133Y-97876396D01*
G37*
X103812817Y-97450427D02*
X103812870Y-97531041D01*
X103812622Y-97631956D01*
X103812583Y-97707617D01*
X103812328Y-97785526D01*
X103811684Y-97845536D01*
X103810480Y-97890264D01*
X103808543Y-97922326D01*
X103805703Y-97944340D01*
X103801788Y-97958924D01*
X103796626Y-97968694D01*
X103790045Y-97976267D01*
X103783077Y-97982501D01*
X103770079Y-97989801D01*
X103750931Y-97994554D01*
X103721528Y-97997292D01*
X103677762Y-97998545D01*
X103615528Y-97998845D01*
X103566582Y-97998469D01*
X103459722Y-97994041D01*
X103370494Y-97983953D01*
X103295696Y-97967365D01*
X103232125Y-97943435D01*
X103176579Y-97911321D01*
X103125854Y-97870182D01*
X103119866Y-97864330D01*
X103082999Y-97815821D01*
X103051899Y-97755013D01*
X103030417Y-97690769D01*
X103025136Y-97652026D01*
X103172353Y-97652026D01*
X103190635Y-97702961D01*
X103220305Y-97748878D01*
X103267002Y-97791287D01*
X103328392Y-97821090D01*
X103407538Y-97840226D01*
X103409028Y-97840464D01*
X103457999Y-97846256D01*
X103516693Y-97850396D01*
X103572734Y-97852004D01*
X103665867Y-97852089D01*
X103665867Y-97411822D01*
X103589667Y-97411808D01*
X103586639Y-97411817D01*
X103535519Y-97413782D01*
X103475416Y-97418507D01*
X103418708Y-97425035D01*
X103368750Y-97434331D01*
X103293998Y-97460600D01*
X103236489Y-97499899D01*
X103194988Y-97552933D01*
X103173771Y-97604200D01*
X103172353Y-97652026D01*
X103025136Y-97652026D01*
X103022400Y-97631956D01*
X103023679Y-97610739D01*
X103035991Y-97553323D01*
X103058520Y-97493413D01*
X103087750Y-97439363D01*
X103120167Y-97399532D01*
X103139708Y-97382510D01*
X103194420Y-97343322D01*
X103254723Y-97313193D01*
X103323919Y-97291232D01*
X103405311Y-97276550D01*
X103502200Y-97268259D01*
X103617889Y-97265467D01*
X103657371Y-97265066D01*
X103703082Y-97264653D01*
X103738883Y-97266457D01*
X103765974Y-97272739D01*
X103785556Y-97285759D01*
X103798830Y-97307778D01*
X103806998Y-97341055D01*
X103811260Y-97387851D01*
X103811857Y-97411822D01*
X103812817Y-97450427D01*
G36*
X103812817Y-97450427D02*
G01*
X103812870Y-97531041D01*
X103812622Y-97631956D01*
X103812583Y-97707617D01*
X103812328Y-97785526D01*
X103811684Y-97845536D01*
X103810480Y-97890264D01*
X103808543Y-97922326D01*
X103805703Y-97944340D01*
X103801788Y-97958924D01*
X103796626Y-97968694D01*
X103790045Y-97976267D01*
X103783077Y-97982501D01*
X103770079Y-97989801D01*
X103750931Y-97994554D01*
X103721528Y-97997292D01*
X103677762Y-97998545D01*
X103615528Y-97998845D01*
X103566582Y-97998469D01*
X103459722Y-97994041D01*
X103370494Y-97983953D01*
X103295696Y-97967365D01*
X103232125Y-97943435D01*
X103176579Y-97911321D01*
X103125854Y-97870182D01*
X103119866Y-97864330D01*
X103082999Y-97815821D01*
X103051899Y-97755013D01*
X103030417Y-97690769D01*
X103025136Y-97652026D01*
X103172353Y-97652026D01*
X103190635Y-97702961D01*
X103220305Y-97748878D01*
X103267002Y-97791287D01*
X103328392Y-97821090D01*
X103407538Y-97840226D01*
X103409028Y-97840464D01*
X103457999Y-97846256D01*
X103516693Y-97850396D01*
X103572734Y-97852004D01*
X103665867Y-97852089D01*
X103665867Y-97411822D01*
X103589667Y-97411808D01*
X103586639Y-97411817D01*
X103535519Y-97413782D01*
X103475416Y-97418507D01*
X103418708Y-97425035D01*
X103368750Y-97434331D01*
X103293998Y-97460600D01*
X103236489Y-97499899D01*
X103194988Y-97552933D01*
X103173771Y-97604200D01*
X103172353Y-97652026D01*
X103025136Y-97652026D01*
X103022400Y-97631956D01*
X103023679Y-97610739D01*
X103035991Y-97553323D01*
X103058520Y-97493413D01*
X103087750Y-97439363D01*
X103120167Y-97399532D01*
X103139708Y-97382510D01*
X103194420Y-97343322D01*
X103254723Y-97313193D01*
X103323919Y-97291232D01*
X103405311Y-97276550D01*
X103502200Y-97268259D01*
X103617889Y-97265467D01*
X103657371Y-97265066D01*
X103703082Y-97264653D01*
X103738883Y-97266457D01*
X103765974Y-97272739D01*
X103785556Y-97285759D01*
X103798830Y-97307778D01*
X103806998Y-97341055D01*
X103811260Y-97387851D01*
X103811857Y-97411822D01*
X103812817Y-97450427D01*
G37*
X98867893Y-97263892D02*
X98879301Y-97270029D01*
X98889850Y-97280691D01*
X98901136Y-97294811D01*
X98905589Y-97300772D01*
X98911588Y-97311268D01*
X98916167Y-97325093D01*
X98919519Y-97344998D01*
X98921833Y-97373732D01*
X98923301Y-97414045D01*
X98924113Y-97468687D01*
X98924460Y-97540407D01*
X98924534Y-97631956D01*
X98924511Y-97690486D01*
X98924292Y-97769573D01*
X98923683Y-97830516D01*
X98922492Y-97876062D01*
X98920529Y-97908963D01*
X98917603Y-97931968D01*
X98913523Y-97947826D01*
X98908097Y-97959286D01*
X98901136Y-97969100D01*
X98870708Y-97993493D01*
X98835765Y-97996372D01*
X98798784Y-97977282D01*
X98794600Y-97973807D01*
X98786424Y-97965279D01*
X98780364Y-97953728D01*
X98775981Y-97935896D01*
X98772839Y-97908524D01*
X98770502Y-97868354D01*
X98768531Y-97812128D01*
X98766489Y-97736589D01*
X98760845Y-97517458D01*
X98495556Y-97758099D01*
X98421722Y-97824875D01*
X98356542Y-97882991D01*
X98304348Y-97927949D01*
X98263273Y-97960871D01*
X98231455Y-97982879D01*
X98207026Y-97995094D01*
X98188124Y-97998639D01*
X98172883Y-97994636D01*
X98159439Y-97984207D01*
X98145927Y-97968474D01*
X98139682Y-97959991D01*
X98134050Y-97949413D01*
X98129839Y-97935255D01*
X98126887Y-97914803D01*
X98125032Y-97885342D01*
X98124113Y-97844161D01*
X98123968Y-97788544D01*
X98124435Y-97715779D01*
X98125352Y-97623151D01*
X98128667Y-97308199D01*
X98155318Y-97286633D01*
X98181383Y-97270441D01*
X98214241Y-97267670D01*
X98248772Y-97286623D01*
X98253084Y-97290208D01*
X98261216Y-97298737D01*
X98267245Y-97310329D01*
X98271606Y-97328235D01*
X98274734Y-97355706D01*
X98277063Y-97395994D01*
X98279029Y-97452351D01*
X98281067Y-97528029D01*
X98286711Y-97747878D01*
X98467334Y-97584084D01*
X98554072Y-97505451D01*
X98629843Y-97437058D01*
X98691980Y-97381708D01*
X98742078Y-97338338D01*
X98781735Y-97305881D01*
X98812548Y-97283273D01*
X98836114Y-97269448D01*
X98854030Y-97263343D01*
X98867893Y-97263892D01*
G36*
X98867893Y-97263892D02*
G01*
X98879301Y-97270029D01*
X98889850Y-97280691D01*
X98901136Y-97294811D01*
X98905589Y-97300772D01*
X98911588Y-97311268D01*
X98916167Y-97325093D01*
X98919519Y-97344998D01*
X98921833Y-97373732D01*
X98923301Y-97414045D01*
X98924113Y-97468687D01*
X98924460Y-97540407D01*
X98924534Y-97631956D01*
X98924511Y-97690486D01*
X98924292Y-97769573D01*
X98923683Y-97830516D01*
X98922492Y-97876062D01*
X98920529Y-97908963D01*
X98917603Y-97931968D01*
X98913523Y-97947826D01*
X98908097Y-97959286D01*
X98901136Y-97969100D01*
X98870708Y-97993493D01*
X98835765Y-97996372D01*
X98798784Y-97977282D01*
X98794600Y-97973807D01*
X98786424Y-97965279D01*
X98780364Y-97953728D01*
X98775981Y-97935896D01*
X98772839Y-97908524D01*
X98770502Y-97868354D01*
X98768531Y-97812128D01*
X98766489Y-97736589D01*
X98760845Y-97517458D01*
X98495556Y-97758099D01*
X98421722Y-97824875D01*
X98356542Y-97882991D01*
X98304348Y-97927949D01*
X98263273Y-97960871D01*
X98231455Y-97982879D01*
X98207026Y-97995094D01*
X98188124Y-97998639D01*
X98172883Y-97994636D01*
X98159439Y-97984207D01*
X98145927Y-97968474D01*
X98139682Y-97959991D01*
X98134050Y-97949413D01*
X98129839Y-97935255D01*
X98126887Y-97914803D01*
X98125032Y-97885342D01*
X98124113Y-97844161D01*
X98123968Y-97788544D01*
X98124435Y-97715779D01*
X98125352Y-97623151D01*
X98128667Y-97308199D01*
X98155318Y-97286633D01*
X98181383Y-97270441D01*
X98214241Y-97267670D01*
X98248772Y-97286623D01*
X98253084Y-97290208D01*
X98261216Y-97298737D01*
X98267245Y-97310329D01*
X98271606Y-97328235D01*
X98274734Y-97355706D01*
X98277063Y-97395994D01*
X98279029Y-97452351D01*
X98281067Y-97528029D01*
X98286711Y-97747878D01*
X98467334Y-97584084D01*
X98554072Y-97505451D01*
X98629843Y-97437058D01*
X98691980Y-97381708D01*
X98742078Y-97338338D01*
X98781735Y-97305881D01*
X98812548Y-97283273D01*
X98836114Y-97269448D01*
X98854030Y-97263343D01*
X98867893Y-97263892D01*
G37*
X99665150Y-97270179D02*
X99771157Y-97286494D01*
X99864969Y-97314545D01*
X99943765Y-97353452D01*
X100004719Y-97402334D01*
X100030789Y-97435195D01*
X100060297Y-97484394D01*
X100085568Y-97538252D01*
X100103218Y-97589419D01*
X100109858Y-97630544D01*
X100108298Y-97650259D01*
X100095357Y-97701592D01*
X100072194Y-97758118D01*
X100042302Y-97812035D01*
X100009173Y-97855539D01*
X99998977Y-97865887D01*
X99931892Y-97917662D01*
X99851766Y-97957554D01*
X99765556Y-97981956D01*
X99710592Y-97990068D01*
X99617139Y-97996673D01*
X99527358Y-97994586D01*
X99444869Y-97984340D01*
X99373286Y-97966470D01*
X99316228Y-97941508D01*
X99277311Y-97909988D01*
X99275936Y-97908012D01*
X99268848Y-97882786D01*
X99264609Y-97835535D01*
X99263200Y-97766071D01*
X99264060Y-97703838D01*
X99268780Y-97656456D01*
X99280470Y-97624353D01*
X99302239Y-97604800D01*
X99337198Y-97595070D01*
X99388456Y-97592433D01*
X99459123Y-97594161D01*
X99507743Y-97597173D01*
X99557939Y-97605366D01*
X99590433Y-97619419D01*
X99607892Y-97640654D01*
X99612983Y-97670394D01*
X99612877Y-97674936D01*
X99604175Y-97709730D01*
X99580165Y-97733147D01*
X99538900Y-97746347D01*
X99478431Y-97750489D01*
X99409956Y-97750489D01*
X99409956Y-97788841D01*
X99410006Y-97797976D01*
X99412227Y-97815227D01*
X99421494Y-97825521D01*
X99442875Y-97832459D01*
X99481436Y-97839641D01*
X99486910Y-97840575D01*
X99583860Y-97850478D01*
X99673852Y-97847559D01*
X99754760Y-97832829D01*
X99824459Y-97807299D01*
X99880824Y-97771978D01*
X99921729Y-97727879D01*
X99945051Y-97676012D01*
X99948663Y-97617388D01*
X99943145Y-97588494D01*
X99916461Y-97532604D01*
X99870273Y-97486945D01*
X99805291Y-97452108D01*
X99722229Y-97428690D01*
X99697555Y-97424241D01*
X99608226Y-97413742D01*
X99528419Y-97414971D01*
X99450326Y-97427906D01*
X99415183Y-97434696D01*
X99369745Y-97435713D01*
X99338430Y-97423182D01*
X99318277Y-97396395D01*
X99311893Y-97368148D01*
X99321379Y-97336924D01*
X99330708Y-97323499D01*
X99364943Y-97299967D01*
X99417565Y-97282095D01*
X99486081Y-97270599D01*
X99568000Y-97266192D01*
X99665150Y-97270179D01*
G36*
X99665150Y-97270179D02*
G01*
X99771157Y-97286494D01*
X99864969Y-97314545D01*
X99943765Y-97353452D01*
X100004719Y-97402334D01*
X100030789Y-97435195D01*
X100060297Y-97484394D01*
X100085568Y-97538252D01*
X100103218Y-97589419D01*
X100109858Y-97630544D01*
X100108298Y-97650259D01*
X100095357Y-97701592D01*
X100072194Y-97758118D01*
X100042302Y-97812035D01*
X100009173Y-97855539D01*
X99998977Y-97865887D01*
X99931892Y-97917662D01*
X99851766Y-97957554D01*
X99765556Y-97981956D01*
X99710592Y-97990068D01*
X99617139Y-97996673D01*
X99527358Y-97994586D01*
X99444869Y-97984340D01*
X99373286Y-97966470D01*
X99316228Y-97941508D01*
X99277311Y-97909988D01*
X99275936Y-97908012D01*
X99268848Y-97882786D01*
X99264609Y-97835535D01*
X99263200Y-97766071D01*
X99264060Y-97703838D01*
X99268780Y-97656456D01*
X99280470Y-97624353D01*
X99302239Y-97604800D01*
X99337198Y-97595070D01*
X99388456Y-97592433D01*
X99459123Y-97594161D01*
X99507743Y-97597173D01*
X99557939Y-97605366D01*
X99590433Y-97619419D01*
X99607892Y-97640654D01*
X99612983Y-97670394D01*
X99612877Y-97674936D01*
X99604175Y-97709730D01*
X99580165Y-97733147D01*
X99538900Y-97746347D01*
X99478431Y-97750489D01*
X99409956Y-97750489D01*
X99409956Y-97788841D01*
X99410006Y-97797976D01*
X99412227Y-97815227D01*
X99421494Y-97825521D01*
X99442875Y-97832459D01*
X99481436Y-97839641D01*
X99486910Y-97840575D01*
X99583860Y-97850478D01*
X99673852Y-97847559D01*
X99754760Y-97832829D01*
X99824459Y-97807299D01*
X99880824Y-97771978D01*
X99921729Y-97727879D01*
X99945051Y-97676012D01*
X99948663Y-97617388D01*
X99943145Y-97588494D01*
X99916461Y-97532604D01*
X99870273Y-97486945D01*
X99805291Y-97452108D01*
X99722229Y-97428690D01*
X99697555Y-97424241D01*
X99608226Y-97413742D01*
X99528419Y-97414971D01*
X99450326Y-97427906D01*
X99415183Y-97434696D01*
X99369745Y-97435713D01*
X99338430Y-97423182D01*
X99318277Y-97396395D01*
X99311893Y-97368148D01*
X99321379Y-97336924D01*
X99330708Y-97323499D01*
X99364943Y-97299967D01*
X99417565Y-97282095D01*
X99486081Y-97270599D01*
X99568000Y-97266192D01*
X99665150Y-97270179D01*
G37*
X97715803Y-97294811D02*
X97720752Y-97301495D01*
X97726596Y-97312066D01*
X97731057Y-97326153D01*
X97734321Y-97346478D01*
X97736574Y-97375765D01*
X97738002Y-97416737D01*
X97738792Y-97472117D01*
X97739129Y-97544628D01*
X97739200Y-97636994D01*
X97739171Y-97702911D01*
X97738939Y-97781228D01*
X97738319Y-97841496D01*
X97737126Y-97886393D01*
X97735179Y-97918602D01*
X97732294Y-97940800D01*
X97728288Y-97955669D01*
X97722979Y-97965889D01*
X97716183Y-97974138D01*
X97711668Y-97978795D01*
X97703438Y-97985282D01*
X97692078Y-97990194D01*
X97674810Y-97993749D01*
X97648855Y-97996167D01*
X97611436Y-97997667D01*
X97559773Y-97998467D01*
X97491089Y-97998787D01*
X97402606Y-97998845D01*
X97382931Y-97998838D01*
X97295906Y-97998572D01*
X97228254Y-97997806D01*
X97177299Y-97996392D01*
X97140367Y-97994180D01*
X97114783Y-97991022D01*
X97097871Y-97986769D01*
X97086957Y-97981271D01*
X97076464Y-97971285D01*
X97063203Y-97940168D01*
X97064386Y-97904280D01*
X97080550Y-97872733D01*
X97082739Y-97870457D01*
X97091427Y-97864189D01*
X97104769Y-97859523D01*
X97125752Y-97856227D01*
X97157363Y-97854068D01*
X97202590Y-97852814D01*
X97264420Y-97852231D01*
X97345839Y-97852089D01*
X97592445Y-97852089D01*
X97592445Y-97694045D01*
X97430006Y-97694045D01*
X97394338Y-97693964D01*
X97338568Y-97693167D01*
X97299430Y-97691162D01*
X97272976Y-97687521D01*
X97255259Y-97681812D01*
X97242329Y-97673607D01*
X97238686Y-97670423D01*
X97220278Y-97639448D01*
X97219644Y-97603112D01*
X97237183Y-97569493D01*
X97237245Y-97569424D01*
X97246916Y-97560798D01*
X97260209Y-97554742D01*
X97280917Y-97550811D01*
X97312828Y-97548556D01*
X97359734Y-97547531D01*
X97425424Y-97547289D01*
X97593571Y-97547289D01*
X97590186Y-97482378D01*
X97586800Y-97417467D01*
X97344723Y-97414414D01*
X97319707Y-97414086D01*
X97238087Y-97412606D01*
X97175768Y-97410222D01*
X97130154Y-97406227D01*
X97098652Y-97399913D01*
X97078667Y-97390574D01*
X97067604Y-97377503D01*
X97062869Y-97359992D01*
X97061867Y-97337335D01*
X97061873Y-97334970D01*
X97063027Y-97314939D01*
X97067824Y-97299146D01*
X97078632Y-97287090D01*
X97097817Y-97278267D01*
X97127745Y-97272175D01*
X97170783Y-97268311D01*
X97229299Y-97266174D01*
X97305657Y-97265260D01*
X97402226Y-97265067D01*
X97692406Y-97265067D01*
X97715803Y-97294811D01*
G36*
X97715803Y-97294811D02*
G01*
X97720752Y-97301495D01*
X97726596Y-97312066D01*
X97731057Y-97326153D01*
X97734321Y-97346478D01*
X97736574Y-97375765D01*
X97738002Y-97416737D01*
X97738792Y-97472117D01*
X97739129Y-97544628D01*
X97739200Y-97636994D01*
X97739171Y-97702911D01*
X97738939Y-97781228D01*
X97738319Y-97841496D01*
X97737126Y-97886393D01*
X97735179Y-97918602D01*
X97732294Y-97940800D01*
X97728288Y-97955669D01*
X97722979Y-97965889D01*
X97716183Y-97974138D01*
X97711668Y-97978795D01*
X97703438Y-97985282D01*
X97692078Y-97990194D01*
X97674810Y-97993749D01*
X97648855Y-97996167D01*
X97611436Y-97997667D01*
X97559773Y-97998467D01*
X97491089Y-97998787D01*
X97402606Y-97998845D01*
X97382931Y-97998838D01*
X97295906Y-97998572D01*
X97228254Y-97997806D01*
X97177299Y-97996392D01*
X97140367Y-97994180D01*
X97114783Y-97991022D01*
X97097871Y-97986769D01*
X97086957Y-97981271D01*
X97076464Y-97971285D01*
X97063203Y-97940168D01*
X97064386Y-97904280D01*
X97080550Y-97872733D01*
X97082739Y-97870457D01*
X97091427Y-97864189D01*
X97104769Y-97859523D01*
X97125752Y-97856227D01*
X97157363Y-97854068D01*
X97202590Y-97852814D01*
X97264420Y-97852231D01*
X97345839Y-97852089D01*
X97592445Y-97852089D01*
X97592445Y-97694045D01*
X97430006Y-97694045D01*
X97394338Y-97693964D01*
X97338568Y-97693167D01*
X97299430Y-97691162D01*
X97272976Y-97687521D01*
X97255259Y-97681812D01*
X97242329Y-97673607D01*
X97238686Y-97670423D01*
X97220278Y-97639448D01*
X97219644Y-97603112D01*
X97237183Y-97569493D01*
X97237245Y-97569424D01*
X97246916Y-97560798D01*
X97260209Y-97554742D01*
X97280917Y-97550811D01*
X97312828Y-97548556D01*
X97359734Y-97547531D01*
X97425424Y-97547289D01*
X97593571Y-97547289D01*
X97590186Y-97482378D01*
X97586800Y-97417467D01*
X97344723Y-97414414D01*
X97319707Y-97414086D01*
X97238087Y-97412606D01*
X97175768Y-97410222D01*
X97130154Y-97406227D01*
X97098652Y-97399913D01*
X97078667Y-97390574D01*
X97067604Y-97377503D01*
X97062869Y-97359992D01*
X97061867Y-97337335D01*
X97061873Y-97334970D01*
X97063027Y-97314939D01*
X97067824Y-97299146D01*
X97078632Y-97287090D01*
X97097817Y-97278267D01*
X97127745Y-97272175D01*
X97170783Y-97268311D01*
X97229299Y-97266174D01*
X97305657Y-97265260D01*
X97402226Y-97265067D01*
X97692406Y-97265067D01*
X97715803Y-97294811D01*
G37*
X102392734Y-97265083D02*
X102469831Y-97265275D01*
X102528777Y-97265860D01*
X102572364Y-97267051D01*
X102603383Y-97269064D01*
X102624625Y-97272112D01*
X102638882Y-97276409D01*
X102648945Y-97282172D01*
X102657606Y-97289612D01*
X102659391Y-97291293D01*
X102666635Y-97298832D01*
X102672277Y-97307850D01*
X102676517Y-97320984D01*
X102679556Y-97340872D01*
X102681594Y-97370151D01*
X102682830Y-97411458D01*
X102683465Y-97467431D01*
X102683700Y-97540707D01*
X102683734Y-97633923D01*
X102683697Y-97706713D01*
X102683448Y-97784889D01*
X102682812Y-97845103D01*
X102681615Y-97889982D01*
X102679684Y-97922152D01*
X102676846Y-97944239D01*
X102672927Y-97958870D01*
X102667755Y-97968670D01*
X102661156Y-97976267D01*
X102657822Y-97979444D01*
X102649300Y-97985554D01*
X102637298Y-97990229D01*
X102619087Y-97993659D01*
X102591940Y-97996036D01*
X102553129Y-97997552D01*
X102499924Y-97998398D01*
X102429598Y-97998765D01*
X102339422Y-97998845D01*
X102297314Y-97998833D01*
X102216167Y-97998651D01*
X102153675Y-97998098D01*
X102107109Y-97996982D01*
X102073741Y-97995113D01*
X102050844Y-97992298D01*
X102035688Y-97988346D01*
X102025546Y-97983066D01*
X102017689Y-97976267D01*
X102002963Y-97954667D01*
X101995111Y-97925467D01*
X102000610Y-97901560D01*
X102017689Y-97874667D01*
X102022668Y-97870059D01*
X102032443Y-97863772D01*
X102046559Y-97859146D01*
X102068054Y-97855930D01*
X102099968Y-97853870D01*
X102145342Y-97852712D01*
X102207213Y-97852202D01*
X102288622Y-97852089D01*
X102536978Y-97852089D01*
X102536978Y-97694045D01*
X102375801Y-97694045D01*
X102339983Y-97693899D01*
X102274359Y-97692176D01*
X102227118Y-97687741D01*
X102195383Y-97679637D01*
X102176277Y-97666906D01*
X102166923Y-97648592D01*
X102164445Y-97623738D01*
X102165242Y-97603482D01*
X102170494Y-97581656D01*
X102183288Y-97566304D01*
X102206628Y-97556309D01*
X102243517Y-97550553D01*
X102296959Y-97547919D01*
X102369958Y-97547289D01*
X102538105Y-97547289D01*
X102534719Y-97482378D01*
X102531334Y-97417467D01*
X102283617Y-97414418D01*
X102221026Y-97413539D01*
X102152565Y-97412095D01*
X102101661Y-97410164D01*
X102065408Y-97407514D01*
X102040901Y-97403910D01*
X102025235Y-97399121D01*
X102015506Y-97392913D01*
X102009491Y-97386510D01*
X101996482Y-97354828D01*
X102000043Y-97319142D01*
X102019818Y-97288084D01*
X102023069Y-97285161D01*
X102032049Y-97278810D01*
X102044153Y-97273957D01*
X102062159Y-97270403D01*
X102088847Y-97267946D01*
X102126997Y-97266385D01*
X102179386Y-97265518D01*
X102248794Y-97265146D01*
X102338001Y-97265067D01*
X102392734Y-97265083D01*
G36*
X102392734Y-97265083D02*
G01*
X102469831Y-97265275D01*
X102528777Y-97265860D01*
X102572364Y-97267051D01*
X102603383Y-97269064D01*
X102624625Y-97272112D01*
X102638882Y-97276409D01*
X102648945Y-97282172D01*
X102657606Y-97289612D01*
X102659391Y-97291293D01*
X102666635Y-97298832D01*
X102672277Y-97307850D01*
X102676517Y-97320984D01*
X102679556Y-97340872D01*
X102681594Y-97370151D01*
X102682830Y-97411458D01*
X102683465Y-97467431D01*
X102683700Y-97540707D01*
X102683734Y-97633923D01*
X102683697Y-97706713D01*
X102683448Y-97784889D01*
X102682812Y-97845103D01*
X102681615Y-97889982D01*
X102679684Y-97922152D01*
X102676846Y-97944239D01*
X102672927Y-97958870D01*
X102667755Y-97968670D01*
X102661156Y-97976267D01*
X102657822Y-97979444D01*
X102649300Y-97985554D01*
X102637298Y-97990229D01*
X102619087Y-97993659D01*
X102591940Y-97996036D01*
X102553129Y-97997552D01*
X102499924Y-97998398D01*
X102429598Y-97998765D01*
X102339422Y-97998845D01*
X102297314Y-97998833D01*
X102216167Y-97998651D01*
X102153675Y-97998098D01*
X102107109Y-97996982D01*
X102073741Y-97995113D01*
X102050844Y-97992298D01*
X102035688Y-97988346D01*
X102025546Y-97983066D01*
X102017689Y-97976267D01*
X102002963Y-97954667D01*
X101995111Y-97925467D01*
X102000610Y-97901560D01*
X102017689Y-97874667D01*
X102022668Y-97870059D01*
X102032443Y-97863772D01*
X102046559Y-97859146D01*
X102068054Y-97855930D01*
X102099968Y-97853870D01*
X102145342Y-97852712D01*
X102207213Y-97852202D01*
X102288622Y-97852089D01*
X102536978Y-97852089D01*
X102536978Y-97694045D01*
X102375801Y-97694045D01*
X102339983Y-97693899D01*
X102274359Y-97692176D01*
X102227118Y-97687741D01*
X102195383Y-97679637D01*
X102176277Y-97666906D01*
X102166923Y-97648592D01*
X102164445Y-97623738D01*
X102165242Y-97603482D01*
X102170494Y-97581656D01*
X102183288Y-97566304D01*
X102206628Y-97556309D01*
X102243517Y-97550553D01*
X102296959Y-97547919D01*
X102369958Y-97547289D01*
X102538105Y-97547289D01*
X102534719Y-97482378D01*
X102531334Y-97417467D01*
X102283617Y-97414418D01*
X102221026Y-97413539D01*
X102152565Y-97412095D01*
X102101661Y-97410164D01*
X102065408Y-97407514D01*
X102040901Y-97403910D01*
X102025235Y-97399121D01*
X102015506Y-97392913D01*
X102009491Y-97386510D01*
X101996482Y-97354828D01*
X102000043Y-97319142D01*
X102019818Y-97288084D01*
X102023069Y-97285161D01*
X102032049Y-97278810D01*
X102044153Y-97273957D01*
X102062159Y-97270403D01*
X102088847Y-97267946D01*
X102126997Y-97266385D01*
X102179386Y-97265518D01*
X102248794Y-97265146D01*
X102338001Y-97265067D01*
X102392734Y-97265083D01*
G37*
X93825702Y-97274478D02*
X93843663Y-97292989D01*
X93864263Y-97324071D01*
X93889095Y-97369756D01*
X93919750Y-97432078D01*
X93957820Y-97513071D01*
X93972454Y-97544454D01*
X94002203Y-97607638D01*
X94028297Y-97662244D01*
X94049292Y-97705290D01*
X94063739Y-97733793D01*
X94070191Y-97744770D01*
X94071550Y-97744189D01*
X94081542Y-97730242D01*
X94098833Y-97700704D01*
X94121430Y-97659087D01*
X94147338Y-97608903D01*
X94163311Y-97577414D01*
X94192261Y-97522061D01*
X94214749Y-97483044D01*
X94232965Y-97457566D01*
X94249096Y-97442831D01*
X94265330Y-97436042D01*
X94283857Y-97434400D01*
X94294360Y-97434875D01*
X94310476Y-97439082D01*
X94325790Y-97449946D01*
X94342388Y-97470219D01*
X94362357Y-97502654D01*
X94387783Y-97550004D01*
X94420752Y-97615022D01*
X94430485Y-97634277D01*
X94454943Y-97680946D01*
X94475178Y-97717109D01*
X94489311Y-97739497D01*
X94495460Y-97744845D01*
X94496827Y-97741573D01*
X94506202Y-97720664D01*
X94523062Y-97683725D01*
X94545979Y-97633874D01*
X94573520Y-97574226D01*
X94604255Y-97507898D01*
X94630970Y-97450677D01*
X94660593Y-97388688D01*
X94683664Y-97342949D01*
X94701643Y-97310908D01*
X94715990Y-97290014D01*
X94728166Y-97277718D01*
X94739632Y-97271466D01*
X94749042Y-97268574D01*
X94774147Y-97268425D01*
X94801290Y-97283768D01*
X94802590Y-97284753D01*
X94824674Y-97307388D01*
X94835723Y-97329613D01*
X94835769Y-97330253D01*
X94831228Y-97347915D01*
X94818364Y-97382481D01*
X94798605Y-97430826D01*
X94773381Y-97489825D01*
X94744119Y-97556355D01*
X94712250Y-97627291D01*
X94679201Y-97699507D01*
X94646401Y-97769880D01*
X94615280Y-97835285D01*
X94587265Y-97892597D01*
X94563786Y-97938692D01*
X94546272Y-97970446D01*
X94536151Y-97984733D01*
X94501743Y-97998102D01*
X94460046Y-97991741D01*
X94454681Y-97987044D01*
X94438852Y-97964893D01*
X94416650Y-97928132D01*
X94390233Y-97880415D01*
X94361760Y-97825393D01*
X94281986Y-97666150D01*
X94208799Y-97812742D01*
X94199103Y-97832032D01*
X94172125Y-97884380D01*
X94148096Y-97929170D01*
X94129332Y-97962154D01*
X94118146Y-97979089D01*
X94117000Y-97980332D01*
X94088879Y-97995619D01*
X94053817Y-97997302D01*
X94022776Y-97984733D01*
X94020350Y-97981884D01*
X94008090Y-97961259D01*
X93988352Y-97923708D01*
X93962448Y-97871880D01*
X93931685Y-97808423D01*
X93897375Y-97735985D01*
X93860825Y-97657216D01*
X93840585Y-97613093D01*
X93803812Y-97532365D01*
X93775355Y-97468687D01*
X93754331Y-97419752D01*
X93739854Y-97383257D01*
X93731039Y-97356895D01*
X93727004Y-97338361D01*
X93726862Y-97325352D01*
X93729730Y-97315561D01*
X93744387Y-97294678D01*
X93770990Y-97274377D01*
X93771745Y-97274035D01*
X93791335Y-97267034D01*
X93808790Y-97266504D01*
X93825702Y-97274478D01*
G36*
X93825702Y-97274478D02*
G01*
X93843663Y-97292989D01*
X93864263Y-97324071D01*
X93889095Y-97369756D01*
X93919750Y-97432078D01*
X93957820Y-97513071D01*
X93972454Y-97544454D01*
X94002203Y-97607638D01*
X94028297Y-97662244D01*
X94049292Y-97705290D01*
X94063739Y-97733793D01*
X94070191Y-97744770D01*
X94071550Y-97744189D01*
X94081542Y-97730242D01*
X94098833Y-97700704D01*
X94121430Y-97659087D01*
X94147338Y-97608903D01*
X94163311Y-97577414D01*
X94192261Y-97522061D01*
X94214749Y-97483044D01*
X94232965Y-97457566D01*
X94249096Y-97442831D01*
X94265330Y-97436042D01*
X94283857Y-97434400D01*
X94294360Y-97434875D01*
X94310476Y-97439082D01*
X94325790Y-97449946D01*
X94342388Y-97470219D01*
X94362357Y-97502654D01*
X94387783Y-97550004D01*
X94420752Y-97615022D01*
X94430485Y-97634277D01*
X94454943Y-97680946D01*
X94475178Y-97717109D01*
X94489311Y-97739497D01*
X94495460Y-97744845D01*
X94496827Y-97741573D01*
X94506202Y-97720664D01*
X94523062Y-97683725D01*
X94545979Y-97633874D01*
X94573520Y-97574226D01*
X94604255Y-97507898D01*
X94630970Y-97450677D01*
X94660593Y-97388688D01*
X94683664Y-97342949D01*
X94701643Y-97310908D01*
X94715990Y-97290014D01*
X94728166Y-97277718D01*
X94739632Y-97271466D01*
X94749042Y-97268574D01*
X94774147Y-97268425D01*
X94801290Y-97283768D01*
X94802590Y-97284753D01*
X94824674Y-97307388D01*
X94835723Y-97329613D01*
X94835769Y-97330253D01*
X94831228Y-97347915D01*
X94818364Y-97382481D01*
X94798605Y-97430826D01*
X94773381Y-97489825D01*
X94744119Y-97556355D01*
X94712250Y-97627291D01*
X94679201Y-97699507D01*
X94646401Y-97769880D01*
X94615280Y-97835285D01*
X94587265Y-97892597D01*
X94563786Y-97938692D01*
X94546272Y-97970446D01*
X94536151Y-97984733D01*
X94501743Y-97998102D01*
X94460046Y-97991741D01*
X94454681Y-97987044D01*
X94438852Y-97964893D01*
X94416650Y-97928132D01*
X94390233Y-97880415D01*
X94361760Y-97825393D01*
X94281986Y-97666150D01*
X94208799Y-97812742D01*
X94199103Y-97832032D01*
X94172125Y-97884380D01*
X94148096Y-97929170D01*
X94129332Y-97962154D01*
X94118146Y-97979089D01*
X94117000Y-97980332D01*
X94088879Y-97995619D01*
X94053817Y-97997302D01*
X94022776Y-97984733D01*
X94020350Y-97981884D01*
X94008090Y-97961259D01*
X93988352Y-97923708D01*
X93962448Y-97871880D01*
X93931685Y-97808423D01*
X93897375Y-97735985D01*
X93860825Y-97657216D01*
X93840585Y-97613093D01*
X93803812Y-97532365D01*
X93775355Y-97468687D01*
X93754331Y-97419752D01*
X93739854Y-97383257D01*
X93731039Y-97356895D01*
X93727004Y-97338361D01*
X93726862Y-97325352D01*
X93729730Y-97315561D01*
X93744387Y-97294678D01*
X93770990Y-97274377D01*
X93771745Y-97274035D01*
X93791335Y-97267034D01*
X93808790Y-97266504D01*
X93825702Y-97274478D01*
G37*
X101376853Y-97265936D02*
X101443100Y-97271366D01*
X101498400Y-97280964D01*
X101549283Y-97295825D01*
X101620595Y-97328958D01*
X101671752Y-97371640D01*
X101702575Y-97423705D01*
X101712889Y-97484983D01*
X101711952Y-97516232D01*
X101706160Y-97541029D01*
X101691353Y-97562699D01*
X101663380Y-97590049D01*
X101655402Y-97597378D01*
X101631692Y-97618281D01*
X101609298Y-97635251D01*
X101585265Y-97649205D01*
X101556637Y-97661056D01*
X101520460Y-97671720D01*
X101473780Y-97682111D01*
X101413641Y-97693146D01*
X101337090Y-97705738D01*
X101241171Y-97720804D01*
X101222808Y-97723838D01*
X101160478Y-97737458D01*
X101115260Y-97753192D01*
X101088976Y-97770263D01*
X101083447Y-97787897D01*
X101086068Y-97792168D01*
X101104000Y-97807233D01*
X101132126Y-97823867D01*
X101144926Y-97829857D01*
X101166224Y-97837050D01*
X101192610Y-97841827D01*
X101228454Y-97844646D01*
X101278128Y-97845964D01*
X101346000Y-97846237D01*
X101363785Y-97846164D01*
X101431406Y-97845053D01*
X101496345Y-97842828D01*
X101551970Y-97839762D01*
X101591651Y-97836127D01*
X101627162Y-97832059D01*
X101656415Y-97831276D01*
X101675315Y-97835876D01*
X101690429Y-97846551D01*
X101694085Y-97850144D01*
X101710427Y-97881918D01*
X101709107Y-97917572D01*
X101690150Y-97948190D01*
X101669780Y-97959796D01*
X101633796Y-97972491D01*
X101591372Y-97982541D01*
X101587922Y-97983140D01*
X101545252Y-97988356D01*
X101487866Y-97992730D01*
X101422849Y-97995818D01*
X101357289Y-97997177D01*
X101341057Y-97997218D01*
X101242744Y-97994741D01*
X101162692Y-97986735D01*
X101097513Y-97972203D01*
X101043817Y-97950149D01*
X100998216Y-97919576D01*
X100957323Y-97879486D01*
X100937202Y-97853259D01*
X100925576Y-97823712D01*
X100922667Y-97783995D01*
X100922808Y-97772026D01*
X100926681Y-97739345D01*
X100939065Y-97712819D01*
X100964230Y-97681971D01*
X100985442Y-97659831D01*
X101011838Y-97637285D01*
X101041555Y-97618917D01*
X101077785Y-97603661D01*
X101123717Y-97590449D01*
X101182544Y-97578214D01*
X101257456Y-97565889D01*
X101351645Y-97552406D01*
X101396957Y-97545396D01*
X101464911Y-97530837D01*
X101514047Y-97514337D01*
X101543614Y-97496439D01*
X101552864Y-97477685D01*
X101541048Y-97458615D01*
X101507416Y-97439771D01*
X101504370Y-97438557D01*
X101458011Y-97426479D01*
X101395361Y-97418279D01*
X101321927Y-97414119D01*
X101243217Y-97414161D01*
X101164739Y-97418569D01*
X101092000Y-97427505D01*
X101088073Y-97428154D01*
X101039257Y-97435861D01*
X101007005Y-97439473D01*
X100986008Y-97438876D01*
X100970954Y-97433954D01*
X100956534Y-97424596D01*
X100955364Y-97423725D01*
X100930847Y-97393351D01*
X100926054Y-97357850D01*
X100941860Y-97323269D01*
X100946406Y-97318813D01*
X100976020Y-97303673D01*
X101023002Y-97290550D01*
X101083306Y-97279750D01*
X101152888Y-97271581D01*
X101227703Y-97266351D01*
X101303706Y-97264367D01*
X101376853Y-97265936D01*
G36*
X101376853Y-97265936D02*
G01*
X101443100Y-97271366D01*
X101498400Y-97280964D01*
X101549283Y-97295825D01*
X101620595Y-97328958D01*
X101671752Y-97371640D01*
X101702575Y-97423705D01*
X101712889Y-97484983D01*
X101711952Y-97516232D01*
X101706160Y-97541029D01*
X101691353Y-97562699D01*
X101663380Y-97590049D01*
X101655402Y-97597378D01*
X101631692Y-97618281D01*
X101609298Y-97635251D01*
X101585265Y-97649205D01*
X101556637Y-97661056D01*
X101520460Y-97671720D01*
X101473780Y-97682111D01*
X101413641Y-97693146D01*
X101337090Y-97705738D01*
X101241171Y-97720804D01*
X101222808Y-97723838D01*
X101160478Y-97737458D01*
X101115260Y-97753192D01*
X101088976Y-97770263D01*
X101083447Y-97787897D01*
X101086068Y-97792168D01*
X101104000Y-97807233D01*
X101132126Y-97823867D01*
X101144926Y-97829857D01*
X101166224Y-97837050D01*
X101192610Y-97841827D01*
X101228454Y-97844646D01*
X101278128Y-97845964D01*
X101346000Y-97846237D01*
X101363785Y-97846164D01*
X101431406Y-97845053D01*
X101496345Y-97842828D01*
X101551970Y-97839762D01*
X101591651Y-97836127D01*
X101627162Y-97832059D01*
X101656415Y-97831276D01*
X101675315Y-97835876D01*
X101690429Y-97846551D01*
X101694085Y-97850144D01*
X101710427Y-97881918D01*
X101709107Y-97917572D01*
X101690150Y-97948190D01*
X101669780Y-97959796D01*
X101633796Y-97972491D01*
X101591372Y-97982541D01*
X101587922Y-97983140D01*
X101545252Y-97988356D01*
X101487866Y-97992730D01*
X101422849Y-97995818D01*
X101357289Y-97997177D01*
X101341057Y-97997218D01*
X101242744Y-97994741D01*
X101162692Y-97986735D01*
X101097513Y-97972203D01*
X101043817Y-97950149D01*
X100998216Y-97919576D01*
X100957323Y-97879486D01*
X100937202Y-97853259D01*
X100925576Y-97823712D01*
X100922667Y-97783995D01*
X100922808Y-97772026D01*
X100926681Y-97739345D01*
X100939065Y-97712819D01*
X100964230Y-97681971D01*
X100985442Y-97659831D01*
X101011838Y-97637285D01*
X101041555Y-97618917D01*
X101077785Y-97603661D01*
X101123717Y-97590449D01*
X101182544Y-97578214D01*
X101257456Y-97565889D01*
X101351645Y-97552406D01*
X101396957Y-97545396D01*
X101464911Y-97530837D01*
X101514047Y-97514337D01*
X101543614Y-97496439D01*
X101552864Y-97477685D01*
X101541048Y-97458615D01*
X101507416Y-97439771D01*
X101504370Y-97438557D01*
X101458011Y-97426479D01*
X101395361Y-97418279D01*
X101321927Y-97414119D01*
X101243217Y-97414161D01*
X101164739Y-97418569D01*
X101092000Y-97427505D01*
X101088073Y-97428154D01*
X101039257Y-97435861D01*
X101007005Y-97439473D01*
X100986008Y-97438876D01*
X100970954Y-97433954D01*
X100956534Y-97424596D01*
X100955364Y-97423725D01*
X100930847Y-97393351D01*
X100926054Y-97357850D01*
X100941860Y-97323269D01*
X100946406Y-97318813D01*
X100976020Y-97303673D01*
X101023002Y-97290550D01*
X101083306Y-97279750D01*
X101152888Y-97271581D01*
X101227703Y-97266351D01*
X101303706Y-97264367D01*
X101376853Y-97265936D01*
G37*
X97524711Y-92958033D02*
X97620268Y-92975523D01*
X97784558Y-93020564D01*
X97938589Y-93083656D01*
X98084509Y-93165915D01*
X98224466Y-93268457D01*
X98360608Y-93392399D01*
X98404473Y-93437661D01*
X98516758Y-93569865D01*
X98609972Y-93707832D01*
X98686719Y-93855750D01*
X98749603Y-94017803D01*
X98753420Y-94029391D01*
X98803507Y-94215392D01*
X98836899Y-94411521D01*
X98853584Y-94613568D01*
X98853551Y-94817325D01*
X98836791Y-95018581D01*
X98803292Y-95213128D01*
X98753044Y-95396756D01*
X98709190Y-95514053D01*
X98631348Y-95676951D01*
X98537828Y-95830866D01*
X98430822Y-95972671D01*
X98312519Y-96099239D01*
X98185111Y-96207441D01*
X98107606Y-96260120D01*
X97980725Y-96329750D01*
X97843243Y-96388468D01*
X97701716Y-96433587D01*
X97562702Y-96462422D01*
X97548597Y-96464106D01*
X97505153Y-96467434D01*
X97447723Y-96470275D01*
X97382122Y-96472373D01*
X97314167Y-96473468D01*
X97187378Y-96471140D01*
X97039673Y-96458136D01*
X96901779Y-96433133D01*
X96768014Y-96395318D01*
X96744562Y-96386889D01*
X96696612Y-96367408D01*
X96640140Y-96342473D01*
X96578379Y-96313722D01*
X96514563Y-96282790D01*
X96451926Y-96251315D01*
X96393703Y-96220934D01*
X96343127Y-96193283D01*
X96303433Y-96169999D01*
X96277854Y-96152718D01*
X96269625Y-96143079D01*
X96271076Y-96139984D01*
X96282250Y-96120079D01*
X96303134Y-96084420D01*
X96332265Y-96035459D01*
X96368181Y-95975646D01*
X96409420Y-95907433D01*
X96454517Y-95833271D01*
X96635785Y-95536008D01*
X96682315Y-95580539D01*
X96773723Y-95658865D01*
X96887334Y-95733439D01*
X97005122Y-95787474D01*
X97125559Y-95820290D01*
X97247117Y-95831211D01*
X97288585Y-95829868D01*
X97406080Y-95811612D01*
X97516089Y-95772617D01*
X97617430Y-95713670D01*
X97708921Y-95635557D01*
X97789380Y-95539064D01*
X97857627Y-95424978D01*
X97873908Y-95390724D01*
X97919982Y-95267240D01*
X97955106Y-95128918D01*
X97979197Y-94979561D01*
X97992173Y-94822973D01*
X97993949Y-94662956D01*
X97984443Y-94503314D01*
X97963572Y-94347850D01*
X97931252Y-94200366D01*
X97887399Y-94064667D01*
X97849982Y-93978076D01*
X97785185Y-93864688D01*
X97709772Y-93771070D01*
X97623418Y-93696959D01*
X97525795Y-93642094D01*
X97416577Y-93606212D01*
X97295439Y-93589051D01*
X97226038Y-93587880D01*
X97103168Y-93602141D01*
X96987664Y-93637241D01*
X96880953Y-93692682D01*
X96784464Y-93767964D01*
X96768720Y-93782440D01*
X96738150Y-93808962D01*
X96715809Y-93826138D01*
X96705691Y-93830787D01*
X96703706Y-93828597D01*
X96689241Y-93809721D01*
X96665400Y-93776397D01*
X96634029Y-93731380D01*
X96596974Y-93677425D01*
X96556083Y-93617285D01*
X96513202Y-93553718D01*
X96470178Y-93489476D01*
X96428857Y-93427315D01*
X96391086Y-93369991D01*
X96358712Y-93320257D01*
X96333582Y-93280868D01*
X96317542Y-93254580D01*
X96312439Y-93244147D01*
X96317050Y-93239941D01*
X96336267Y-93234933D01*
X96345838Y-93232386D01*
X96373809Y-93221249D01*
X96415448Y-93202802D01*
X96466995Y-93178725D01*
X96524690Y-93150699D01*
X96535957Y-93145154D01*
X96713687Y-93065889D01*
X96883490Y-93006385D01*
X97047430Y-92966245D01*
X97207571Y-92945071D01*
X97365977Y-92942466D01*
X97524711Y-92958033D01*
G36*
X97524711Y-92958033D02*
G01*
X97620268Y-92975523D01*
X97784558Y-93020564D01*
X97938589Y-93083656D01*
X98084509Y-93165915D01*
X98224466Y-93268457D01*
X98360608Y-93392399D01*
X98404473Y-93437661D01*
X98516758Y-93569865D01*
X98609972Y-93707832D01*
X98686719Y-93855750D01*
X98749603Y-94017803D01*
X98753420Y-94029391D01*
X98803507Y-94215392D01*
X98836899Y-94411521D01*
X98853584Y-94613568D01*
X98853551Y-94817325D01*
X98836791Y-95018581D01*
X98803292Y-95213128D01*
X98753044Y-95396756D01*
X98709190Y-95514053D01*
X98631348Y-95676951D01*
X98537828Y-95830866D01*
X98430822Y-95972671D01*
X98312519Y-96099239D01*
X98185111Y-96207441D01*
X98107606Y-96260120D01*
X97980725Y-96329750D01*
X97843243Y-96388468D01*
X97701716Y-96433587D01*
X97562702Y-96462422D01*
X97548597Y-96464106D01*
X97505153Y-96467434D01*
X97447723Y-96470275D01*
X97382122Y-96472373D01*
X97314167Y-96473468D01*
X97187378Y-96471140D01*
X97039673Y-96458136D01*
X96901779Y-96433133D01*
X96768014Y-96395318D01*
X96744562Y-96386889D01*
X96696612Y-96367408D01*
X96640140Y-96342473D01*
X96578379Y-96313722D01*
X96514563Y-96282790D01*
X96451926Y-96251315D01*
X96393703Y-96220934D01*
X96343127Y-96193283D01*
X96303433Y-96169999D01*
X96277854Y-96152718D01*
X96269625Y-96143079D01*
X96271076Y-96139984D01*
X96282250Y-96120079D01*
X96303134Y-96084420D01*
X96332265Y-96035459D01*
X96368181Y-95975646D01*
X96409420Y-95907433D01*
X96454517Y-95833271D01*
X96635785Y-95536008D01*
X96682315Y-95580539D01*
X96773723Y-95658865D01*
X96887334Y-95733439D01*
X97005122Y-95787474D01*
X97125559Y-95820290D01*
X97247117Y-95831211D01*
X97288585Y-95829868D01*
X97406080Y-95811612D01*
X97516089Y-95772617D01*
X97617430Y-95713670D01*
X97708921Y-95635557D01*
X97789380Y-95539064D01*
X97857627Y-95424978D01*
X97873908Y-95390724D01*
X97919982Y-95267240D01*
X97955106Y-95128918D01*
X97979197Y-94979561D01*
X97992173Y-94822973D01*
X97993949Y-94662956D01*
X97984443Y-94503314D01*
X97963572Y-94347850D01*
X97931252Y-94200366D01*
X97887399Y-94064667D01*
X97849982Y-93978076D01*
X97785185Y-93864688D01*
X97709772Y-93771070D01*
X97623418Y-93696959D01*
X97525795Y-93642094D01*
X97416577Y-93606212D01*
X97295439Y-93589051D01*
X97226038Y-93587880D01*
X97103168Y-93602141D01*
X96987664Y-93637241D01*
X96880953Y-93692682D01*
X96784464Y-93767964D01*
X96768720Y-93782440D01*
X96738150Y-93808962D01*
X96715809Y-93826138D01*
X96705691Y-93830787D01*
X96703706Y-93828597D01*
X96689241Y-93809721D01*
X96665400Y-93776397D01*
X96634029Y-93731380D01*
X96596974Y-93677425D01*
X96556083Y-93617285D01*
X96513202Y-93553718D01*
X96470178Y-93489476D01*
X96428857Y-93427315D01*
X96391086Y-93369991D01*
X96358712Y-93320257D01*
X96333582Y-93280868D01*
X96317542Y-93254580D01*
X96312439Y-93244147D01*
X96317050Y-93239941D01*
X96336267Y-93234933D01*
X96345838Y-93232386D01*
X96373809Y-93221249D01*
X96415448Y-93202802D01*
X96466995Y-93178725D01*
X96524690Y-93150699D01*
X96535957Y-93145154D01*
X96713687Y-93065889D01*
X96883490Y-93006385D01*
X97047430Y-92966245D01*
X97207571Y-92945071D01*
X97365977Y-92942466D01*
X97524711Y-92958033D01*
G37*
X93721994Y-95238711D02*
X93721268Y-95316158D01*
X93712689Y-95467594D01*
X93693833Y-95604283D01*
X93663837Y-95730276D01*
X93621836Y-95849625D01*
X93566969Y-95966381D01*
X93500167Y-96077179D01*
X93409363Y-96190739D01*
X93305708Y-96286211D01*
X93189887Y-96363073D01*
X93062586Y-96420797D01*
X92924489Y-96458858D01*
X92886793Y-96464666D01*
X92807752Y-96470396D01*
X92719629Y-96470583D01*
X92630236Y-96465539D01*
X92547384Y-96455578D01*
X92478887Y-96441012D01*
X92448035Y-96431364D01*
X92370730Y-96401123D01*
X92293679Y-96363617D01*
X92224200Y-96322614D01*
X92169615Y-96281879D01*
X92146916Y-96262505D01*
X92124201Y-96244662D01*
X92112779Y-96237778D01*
X92111537Y-96239424D01*
X92108728Y-96257205D01*
X92106776Y-96290370D01*
X92106045Y-96333733D01*
X92106045Y-96429689D01*
X91247896Y-96429689D01*
X91282161Y-96368974D01*
X91287355Y-96359868D01*
X91295715Y-96345249D01*
X91303288Y-96331173D01*
X91310112Y-96316540D01*
X91316227Y-96300249D01*
X91321673Y-96281198D01*
X91326487Y-96258286D01*
X91330708Y-96230413D01*
X91334377Y-96196478D01*
X91337531Y-96155379D01*
X91340211Y-96106015D01*
X91342454Y-96047286D01*
X91344299Y-95978090D01*
X91345787Y-95897326D01*
X91346955Y-95803894D01*
X91347844Y-95696692D01*
X91348491Y-95574620D01*
X91348936Y-95436576D01*
X91349218Y-95281459D01*
X91349375Y-95108168D01*
X91349448Y-94915603D01*
X91349474Y-94702662D01*
X91349485Y-94566530D01*
X92151200Y-94566530D01*
X92151200Y-95716721D01*
X92221756Y-95763089D01*
X92262417Y-95786791D01*
X92316546Y-95812639D01*
X92365689Y-95830829D01*
X92429165Y-95846551D01*
X92525331Y-95857541D01*
X92609900Y-95849365D01*
X92683219Y-95821805D01*
X92745637Y-95774642D01*
X92797502Y-95707658D01*
X92839160Y-95620633D01*
X92870962Y-95513350D01*
X92873545Y-95501009D01*
X92882000Y-95439772D01*
X92887663Y-95362692D01*
X92890576Y-95275002D01*
X92890783Y-95181934D01*
X92888330Y-95088720D01*
X92883261Y-95000594D01*
X92875619Y-94922788D01*
X92865448Y-94860533D01*
X92864167Y-94854666D01*
X92835126Y-94744121D01*
X92800610Y-94653575D01*
X92759456Y-94580953D01*
X92710499Y-94524181D01*
X92652574Y-94481184D01*
X92620620Y-94465615D01*
X92547784Y-94446722D01*
X92466443Y-94443465D01*
X92381319Y-94455389D01*
X92297133Y-94482040D01*
X92218608Y-94522962D01*
X92151200Y-94566530D01*
X91349485Y-94566530D01*
X91349493Y-94468245D01*
X91349689Y-92783378D01*
X92255017Y-92783378D01*
X92230585Y-92820067D01*
X92224318Y-92829647D01*
X92198208Y-92875981D01*
X92180469Y-92923102D01*
X92168908Y-92978251D01*
X92161331Y-93048667D01*
X92160839Y-93055650D01*
X92159062Y-93093641D01*
X92157444Y-93147576D01*
X92155999Y-93214703D01*
X92154740Y-93292271D01*
X92153680Y-93377528D01*
X92152829Y-93467724D01*
X92152203Y-93560107D01*
X92151812Y-93651925D01*
X92151670Y-93740427D01*
X92151790Y-93822862D01*
X92152183Y-93896479D01*
X92152862Y-93958526D01*
X92153841Y-94006251D01*
X92155132Y-94036904D01*
X92156747Y-94047733D01*
X92164957Y-94043333D01*
X92186647Y-94028362D01*
X92216014Y-94006448D01*
X92264879Y-93972236D01*
X92353125Y-93925714D01*
X92451916Y-93892046D01*
X92564510Y-93870231D01*
X92694164Y-93859265D01*
X92786670Y-93858219D01*
X92908011Y-93868014D01*
X93018099Y-93892174D01*
X93121389Y-93931785D01*
X93222338Y-93987932D01*
X93267503Y-94018883D01*
X93372911Y-94110115D01*
X93464538Y-94219106D01*
X93542332Y-94345726D01*
X93606241Y-94489845D01*
X93656214Y-94651332D01*
X93692198Y-94830059D01*
X93714143Y-95025895D01*
X93719900Y-95181934D01*
X93721994Y-95238711D01*
G36*
X93721994Y-95238711D02*
G01*
X93721268Y-95316158D01*
X93712689Y-95467594D01*
X93693833Y-95604283D01*
X93663837Y-95730276D01*
X93621836Y-95849625D01*
X93566969Y-95966381D01*
X93500167Y-96077179D01*
X93409363Y-96190739D01*
X93305708Y-96286211D01*
X93189887Y-96363073D01*
X93062586Y-96420797D01*
X92924489Y-96458858D01*
X92886793Y-96464666D01*
X92807752Y-96470396D01*
X92719629Y-96470583D01*
X92630236Y-96465539D01*
X92547384Y-96455578D01*
X92478887Y-96441012D01*
X92448035Y-96431364D01*
X92370730Y-96401123D01*
X92293679Y-96363617D01*
X92224200Y-96322614D01*
X92169615Y-96281879D01*
X92146916Y-96262505D01*
X92124201Y-96244662D01*
X92112779Y-96237778D01*
X92111537Y-96239424D01*
X92108728Y-96257205D01*
X92106776Y-96290370D01*
X92106045Y-96333733D01*
X92106045Y-96429689D01*
X91247896Y-96429689D01*
X91282161Y-96368974D01*
X91287355Y-96359868D01*
X91295715Y-96345249D01*
X91303288Y-96331173D01*
X91310112Y-96316540D01*
X91316227Y-96300249D01*
X91321673Y-96281198D01*
X91326487Y-96258286D01*
X91330708Y-96230413D01*
X91334377Y-96196478D01*
X91337531Y-96155379D01*
X91340211Y-96106015D01*
X91342454Y-96047286D01*
X91344299Y-95978090D01*
X91345787Y-95897326D01*
X91346955Y-95803894D01*
X91347844Y-95696692D01*
X91348491Y-95574620D01*
X91348936Y-95436576D01*
X91349218Y-95281459D01*
X91349375Y-95108168D01*
X91349448Y-94915603D01*
X91349474Y-94702662D01*
X91349485Y-94566530D01*
X92151200Y-94566530D01*
X92151200Y-95716721D01*
X92221756Y-95763089D01*
X92262417Y-95786791D01*
X92316546Y-95812639D01*
X92365689Y-95830829D01*
X92429165Y-95846551D01*
X92525331Y-95857541D01*
X92609900Y-95849365D01*
X92683219Y-95821805D01*
X92745637Y-95774642D01*
X92797502Y-95707658D01*
X92839160Y-95620633D01*
X92870962Y-95513350D01*
X92873545Y-95501009D01*
X92882000Y-95439772D01*
X92887663Y-95362692D01*
X92890576Y-95275002D01*
X92890783Y-95181934D01*
X92888330Y-95088720D01*
X92883261Y-95000594D01*
X92875619Y-94922788D01*
X92865448Y-94860533D01*
X92864167Y-94854666D01*
X92835126Y-94744121D01*
X92800610Y-94653575D01*
X92759456Y-94580953D01*
X92710499Y-94524181D01*
X92652574Y-94481184D01*
X92620620Y-94465615D01*
X92547784Y-94446722D01*
X92466443Y-94443465D01*
X92381319Y-94455389D01*
X92297133Y-94482040D01*
X92218608Y-94522962D01*
X92151200Y-94566530D01*
X91349485Y-94566530D01*
X91349493Y-94468245D01*
X91349689Y-92783378D01*
X92255017Y-92783378D01*
X92230585Y-92820067D01*
X92224318Y-92829647D01*
X92198208Y-92875981D01*
X92180469Y-92923102D01*
X92168908Y-92978251D01*
X92161331Y-93048667D01*
X92160839Y-93055650D01*
X92159062Y-93093641D01*
X92157444Y-93147576D01*
X92155999Y-93214703D01*
X92154740Y-93292271D01*
X92153680Y-93377528D01*
X92152829Y-93467724D01*
X92152203Y-93560107D01*
X92151812Y-93651925D01*
X92151670Y-93740427D01*
X92151790Y-93822862D01*
X92152183Y-93896479D01*
X92152862Y-93958526D01*
X92153841Y-94006251D01*
X92155132Y-94036904D01*
X92156747Y-94047733D01*
X92164957Y-94043333D01*
X92186647Y-94028362D01*
X92216014Y-94006448D01*
X92264879Y-93972236D01*
X92353125Y-93925714D01*
X92451916Y-93892046D01*
X92564510Y-93870231D01*
X92694164Y-93859265D01*
X92786670Y-93858219D01*
X92908011Y-93868014D01*
X93018099Y-93892174D01*
X93121389Y-93931785D01*
X93222338Y-93987932D01*
X93267503Y-94018883D01*
X93372911Y-94110115D01*
X93464538Y-94219106D01*
X93542332Y-94345726D01*
X93606241Y-94489845D01*
X93656214Y-94651332D01*
X93692198Y-94830059D01*
X93714143Y-95025895D01*
X93719900Y-95181934D01*
X93721994Y-95238711D01*
G37*
X96263755Y-95639467D02*
X96263261Y-95673363D01*
X96259632Y-95748202D01*
X96252022Y-95810401D01*
X96239688Y-95866984D01*
X96195313Y-95993076D01*
X96132400Y-96107679D01*
X96052238Y-96208568D01*
X95955740Y-96294924D01*
X95843822Y-96365932D01*
X95717397Y-96420776D01*
X95577378Y-96458638D01*
X95541149Y-96464351D01*
X95462155Y-96470313D01*
X95373841Y-96470646D01*
X95284075Y-96465659D01*
X95200722Y-96455666D01*
X95131651Y-96440978D01*
X95045187Y-96410749D01*
X94935286Y-96356057D01*
X94837956Y-96288543D01*
X94775867Y-96237556D01*
X94772605Y-96333622D01*
X94769343Y-96429689D01*
X94346450Y-96429689D01*
X94335543Y-96429686D01*
X94241056Y-96429380D01*
X94154331Y-96428616D01*
X94077837Y-96427451D01*
X94014043Y-96425942D01*
X93965418Y-96424147D01*
X93934433Y-96422121D01*
X93923556Y-96419922D01*
X93923578Y-96419463D01*
X93930614Y-96403910D01*
X93946434Y-96381071D01*
X93950734Y-96375638D01*
X93961777Y-96361606D01*
X93971311Y-96348186D01*
X93979461Y-96333722D01*
X93986352Y-96316556D01*
X93992111Y-96295034D01*
X93996862Y-96267498D01*
X94000731Y-96232292D01*
X94003844Y-96187760D01*
X94006325Y-96132246D01*
X94008300Y-96064093D01*
X94009894Y-95981645D01*
X94011234Y-95883246D01*
X94012444Y-95767239D01*
X94013649Y-95631968D01*
X94014595Y-95520586D01*
X94815378Y-95520586D01*
X94815378Y-95716462D01*
X94860048Y-95772973D01*
X94872785Y-95788212D01*
X94919604Y-95830844D01*
X94980255Y-95866672D01*
X94990897Y-95871850D01*
X95029676Y-95888745D01*
X95064692Y-95898909D01*
X95104722Y-95904325D01*
X95158541Y-95906978D01*
X95176648Y-95907383D01*
X95252011Y-95904540D01*
X95312743Y-95892620D01*
X95364452Y-95870037D01*
X95412746Y-95835211D01*
X95417803Y-95830798D01*
X95466272Y-95775160D01*
X95494459Y-95711333D01*
X95503752Y-95636282D01*
X95496520Y-95564693D01*
X95471796Y-95501645D01*
X95427249Y-95443758D01*
X95372319Y-95396808D01*
X95299894Y-95356961D01*
X95213340Y-95329263D01*
X95110670Y-95313096D01*
X94989894Y-95307842D01*
X94981007Y-95307857D01*
X94925660Y-95308655D01*
X94878736Y-95310488D01*
X94844953Y-95313111D01*
X94829028Y-95316274D01*
X94824943Y-95322741D01*
X94820572Y-95344875D01*
X94817604Y-95383988D01*
X94815914Y-95441939D01*
X94815378Y-95520586D01*
X94014595Y-95520586D01*
X94014975Y-95475778D01*
X94016228Y-95333012D01*
X94017651Y-95187942D01*
X94019176Y-95062027D01*
X94020933Y-94953436D01*
X94023051Y-94860334D01*
X94025660Y-94780891D01*
X94028890Y-94713273D01*
X94032869Y-94655649D01*
X94037728Y-94606185D01*
X94043597Y-94563050D01*
X94050604Y-94524410D01*
X94058880Y-94488434D01*
X94068554Y-94453289D01*
X94079756Y-94417142D01*
X94092616Y-94378161D01*
X94108090Y-94335091D01*
X94150994Y-94242871D01*
X94204735Y-94163099D01*
X94273576Y-94088965D01*
X94351185Y-94025405D01*
X94455761Y-93963725D01*
X94575244Y-93916202D01*
X94710508Y-93882567D01*
X94862426Y-93862552D01*
X95031872Y-93855889D01*
X95089890Y-93856287D01*
X95155398Y-93858335D01*
X95216693Y-93862704D01*
X95278097Y-93870035D01*
X95343932Y-93880969D01*
X95418520Y-93896147D01*
X95506184Y-93916209D01*
X95611245Y-93941797D01*
X95639806Y-93948820D01*
X95715054Y-93966776D01*
X95785388Y-93982820D01*
X95846567Y-93996028D01*
X95894354Y-94005474D01*
X95924511Y-94010231D01*
X95952783Y-94013910D01*
X95979060Y-94019187D01*
X95989059Y-94023942D01*
X95985952Y-94032781D01*
X95975194Y-94060072D01*
X95957864Y-94102906D01*
X95935126Y-94158425D01*
X95908147Y-94223772D01*
X95878090Y-94296089D01*
X95871493Y-94311879D01*
X95832907Y-94402484D01*
X95801768Y-94472217D01*
X95777917Y-94521405D01*
X95761198Y-94550374D01*
X95751454Y-94559452D01*
X95743766Y-94557405D01*
X95717415Y-94547760D01*
X95678982Y-94532190D01*
X95633822Y-94512815D01*
X95539293Y-94474814D01*
X95402480Y-94433780D01*
X95261289Y-94408612D01*
X95223314Y-94404611D01*
X95120059Y-94402447D01*
X95032952Y-94415622D01*
X94961129Y-94444756D01*
X94903731Y-94490466D01*
X94859896Y-94553372D01*
X94828762Y-94634092D01*
X94809470Y-94733245D01*
X94802050Y-94792224D01*
X94963936Y-94785445D01*
X95090495Y-94783813D01*
X95241951Y-94790194D01*
X95390396Y-94804777D01*
X95526578Y-94826882D01*
X95591245Y-94841821D01*
X95723490Y-94884741D01*
X95845762Y-94941340D01*
X95955685Y-95010017D01*
X96050883Y-95089170D01*
X96128980Y-95177196D01*
X96187599Y-95272493D01*
X96211595Y-95324864D01*
X96237232Y-95395590D01*
X96253478Y-95466812D01*
X96261822Y-95545712D01*
X96263690Y-95636282D01*
X96263755Y-95639467D01*
G36*
X96263755Y-95639467D02*
G01*
X96263261Y-95673363D01*
X96259632Y-95748202D01*
X96252022Y-95810401D01*
X96239688Y-95866984D01*
X96195313Y-95993076D01*
X96132400Y-96107679D01*
X96052238Y-96208568D01*
X95955740Y-96294924D01*
X95843822Y-96365932D01*
X95717397Y-96420776D01*
X95577378Y-96458638D01*
X95541149Y-96464351D01*
X95462155Y-96470313D01*
X95373841Y-96470646D01*
X95284075Y-96465659D01*
X95200722Y-96455666D01*
X95131651Y-96440978D01*
X95045187Y-96410749D01*
X94935286Y-96356057D01*
X94837956Y-96288543D01*
X94775867Y-96237556D01*
X94772605Y-96333622D01*
X94769343Y-96429689D01*
X94346450Y-96429689D01*
X94335543Y-96429686D01*
X94241056Y-96429380D01*
X94154331Y-96428616D01*
X94077837Y-96427451D01*
X94014043Y-96425942D01*
X93965418Y-96424147D01*
X93934433Y-96422121D01*
X93923556Y-96419922D01*
X93923578Y-96419463D01*
X93930614Y-96403910D01*
X93946434Y-96381071D01*
X93950734Y-96375638D01*
X93961777Y-96361606D01*
X93971311Y-96348186D01*
X93979461Y-96333722D01*
X93986352Y-96316556D01*
X93992111Y-96295034D01*
X93996862Y-96267498D01*
X94000731Y-96232292D01*
X94003844Y-96187760D01*
X94006325Y-96132246D01*
X94008300Y-96064093D01*
X94009894Y-95981645D01*
X94011234Y-95883246D01*
X94012444Y-95767239D01*
X94013649Y-95631968D01*
X94014595Y-95520586D01*
X94815378Y-95520586D01*
X94815378Y-95716462D01*
X94860048Y-95772973D01*
X94872785Y-95788212D01*
X94919604Y-95830844D01*
X94980255Y-95866672D01*
X94990897Y-95871850D01*
X95029676Y-95888745D01*
X95064692Y-95898909D01*
X95104722Y-95904325D01*
X95158541Y-95906978D01*
X95176648Y-95907383D01*
X95252011Y-95904540D01*
X95312743Y-95892620D01*
X95364452Y-95870037D01*
X95412746Y-95835211D01*
X95417803Y-95830798D01*
X95466272Y-95775160D01*
X95494459Y-95711333D01*
X95503752Y-95636282D01*
X95496520Y-95564693D01*
X95471796Y-95501645D01*
X95427249Y-95443758D01*
X95372319Y-95396808D01*
X95299894Y-95356961D01*
X95213340Y-95329263D01*
X95110670Y-95313096D01*
X94989894Y-95307842D01*
X94981007Y-95307857D01*
X94925660Y-95308655D01*
X94878736Y-95310488D01*
X94844953Y-95313111D01*
X94829028Y-95316274D01*
X94824943Y-95322741D01*
X94820572Y-95344875D01*
X94817604Y-95383988D01*
X94815914Y-95441939D01*
X94815378Y-95520586D01*
X94014595Y-95520586D01*
X94014975Y-95475778D01*
X94016228Y-95333012D01*
X94017651Y-95187942D01*
X94019176Y-95062027D01*
X94020933Y-94953436D01*
X94023051Y-94860334D01*
X94025660Y-94780891D01*
X94028890Y-94713273D01*
X94032869Y-94655649D01*
X94037728Y-94606185D01*
X94043597Y-94563050D01*
X94050604Y-94524410D01*
X94058880Y-94488434D01*
X94068554Y-94453289D01*
X94079756Y-94417142D01*
X94092616Y-94378161D01*
X94108090Y-94335091D01*
X94150994Y-94242871D01*
X94204735Y-94163099D01*
X94273576Y-94088965D01*
X94351185Y-94025405D01*
X94455761Y-93963725D01*
X94575244Y-93916202D01*
X94710508Y-93882567D01*
X94862426Y-93862552D01*
X95031872Y-93855889D01*
X95089890Y-93856287D01*
X95155398Y-93858335D01*
X95216693Y-93862704D01*
X95278097Y-93870035D01*
X95343932Y-93880969D01*
X95418520Y-93896147D01*
X95506184Y-93916209D01*
X95611245Y-93941797D01*
X95639806Y-93948820D01*
X95715054Y-93966776D01*
X95785388Y-93982820D01*
X95846567Y-93996028D01*
X95894354Y-94005474D01*
X95924511Y-94010231D01*
X95952783Y-94013910D01*
X95979060Y-94019187D01*
X95989059Y-94023942D01*
X95985952Y-94032781D01*
X95975194Y-94060072D01*
X95957864Y-94102906D01*
X95935126Y-94158425D01*
X95908147Y-94223772D01*
X95878090Y-94296089D01*
X95871493Y-94311879D01*
X95832907Y-94402484D01*
X95801768Y-94472217D01*
X95777917Y-94521405D01*
X95761198Y-94550374D01*
X95751454Y-94559452D01*
X95743766Y-94557405D01*
X95717415Y-94547760D01*
X95678982Y-94532190D01*
X95633822Y-94512815D01*
X95539293Y-94474814D01*
X95402480Y-94433780D01*
X95261289Y-94408612D01*
X95223314Y-94404611D01*
X95120059Y-94402447D01*
X95032952Y-94415622D01*
X94961129Y-94444756D01*
X94903731Y-94490466D01*
X94859896Y-94553372D01*
X94828762Y-94634092D01*
X94809470Y-94733245D01*
X94802050Y-94792224D01*
X94963936Y-94785445D01*
X95090495Y-94783813D01*
X95241951Y-94790194D01*
X95390396Y-94804777D01*
X95526578Y-94826882D01*
X95591245Y-94841821D01*
X95723490Y-94884741D01*
X95845762Y-94941340D01*
X95955685Y-95010017D01*
X96050883Y-95089170D01*
X96128980Y-95177196D01*
X96187599Y-95272493D01*
X96211595Y-95324864D01*
X96237232Y-95395590D01*
X96253478Y-95466812D01*
X96261822Y-95545712D01*
X96263690Y-95636282D01*
X96263755Y-95639467D01*
G37*
X103811614Y-93107792D02*
X103812059Y-93239011D01*
X103812362Y-93386216D01*
X103812548Y-93550349D01*
X103812642Y-93732352D01*
X103812671Y-93933165D01*
X103812661Y-94153732D01*
X103812636Y-94394992D01*
X103812622Y-94657889D01*
X103812622Y-94700040D01*
X103812646Y-94960668D01*
X103812685Y-95199796D01*
X103812708Y-95418360D01*
X103812687Y-95617295D01*
X103812593Y-95797535D01*
X103812395Y-95960015D01*
X103812063Y-96105670D01*
X103811569Y-96235434D01*
X103810883Y-96350243D01*
X103809976Y-96451030D01*
X103808817Y-96538730D01*
X103807378Y-96614279D01*
X103805629Y-96678611D01*
X103803540Y-96732661D01*
X103801083Y-96777363D01*
X103798227Y-96813652D01*
X103794943Y-96842463D01*
X103791202Y-96864731D01*
X103786974Y-96881390D01*
X103782229Y-96893375D01*
X103776939Y-96901621D01*
X103771073Y-96907062D01*
X103764602Y-96910634D01*
X103757497Y-96913270D01*
X103749728Y-96915906D01*
X103741266Y-96919477D01*
X103736908Y-96921145D01*
X103728395Y-96923111D01*
X103715694Y-96924911D01*
X103697885Y-96926555D01*
X103674049Y-96928047D01*
X103643266Y-96929397D01*
X103604617Y-96930611D01*
X103557182Y-96931697D01*
X103500043Y-96932661D01*
X103432279Y-96933511D01*
X103352971Y-96934253D01*
X103261199Y-96934897D01*
X103156044Y-96935447D01*
X103036587Y-96935913D01*
X102901908Y-96936300D01*
X102751088Y-96936616D01*
X102583206Y-96936869D01*
X102397345Y-96937066D01*
X102192583Y-96937213D01*
X101968002Y-96937318D01*
X101722682Y-96937389D01*
X101455704Y-96937432D01*
X101417321Y-96937437D01*
X101151922Y-96937480D01*
X100908050Y-96937525D01*
X100684783Y-96937548D01*
X100481196Y-96937524D01*
X100296367Y-96937430D01*
X100129373Y-96937243D01*
X99979290Y-96936939D01*
X99845196Y-96936494D01*
X99726166Y-96935885D01*
X99621279Y-96935089D01*
X99529610Y-96934080D01*
X99450237Y-96932837D01*
X99382237Y-96931335D01*
X99324686Y-96929551D01*
X99276662Y-96927461D01*
X99237240Y-96925042D01*
X99205499Y-96922270D01*
X99180514Y-96919121D01*
X99161364Y-96915572D01*
X99147123Y-96911598D01*
X99136871Y-96907178D01*
X99129682Y-96902286D01*
X99124635Y-96896900D01*
X99120805Y-96890996D01*
X99117271Y-96884549D01*
X99113108Y-96877537D01*
X99112025Y-96875687D01*
X99109813Y-96870180D01*
X99107786Y-96861868D01*
X99105938Y-96849809D01*
X99104261Y-96833063D01*
X99102745Y-96810687D01*
X99101383Y-96781740D01*
X99100167Y-96745280D01*
X99099089Y-96700367D01*
X99098140Y-96646057D01*
X99097312Y-96581410D01*
X99096597Y-96505484D01*
X99095987Y-96417338D01*
X99095942Y-96408493D01*
X99387378Y-96408493D01*
X99391260Y-96409765D01*
X99414520Y-96411791D01*
X99456874Y-96413626D01*
X99516132Y-96415227D01*
X99590107Y-96416549D01*
X99676610Y-96417548D01*
X99773452Y-96418180D01*
X99878445Y-96418400D01*
X100576651Y-96418400D01*
X101731090Y-96418400D01*
X101730456Y-96342200D01*
X101731574Y-96300160D01*
X101737304Y-96264334D01*
X101749890Y-96226772D01*
X101771568Y-96178577D01*
X101774789Y-96171897D01*
X101800188Y-96122359D01*
X101826996Y-96074369D01*
X101849917Y-96037466D01*
X101854485Y-96030834D01*
X101876516Y-95999593D01*
X101908693Y-95954654D01*
X101949457Y-95898147D01*
X101997245Y-95832204D01*
X102050498Y-95758957D01*
X102107655Y-95680536D01*
X102167155Y-95599072D01*
X102227437Y-95516698D01*
X102286940Y-95435544D01*
X102344105Y-95357742D01*
X102397370Y-95285423D01*
X102445174Y-95220718D01*
X102485957Y-95165759D01*
X102518158Y-95122676D01*
X102540216Y-95093602D01*
X102550571Y-95080667D01*
X102555044Y-95076351D01*
X102559236Y-95074312D01*
X102562643Y-95076926D01*
X102565325Y-95085986D01*
X102567341Y-95103285D01*
X102568748Y-95130614D01*
X102569605Y-95169765D01*
X102569970Y-95222533D01*
X102569903Y-95290707D01*
X102569460Y-95376082D01*
X102568702Y-95480449D01*
X102567685Y-95605600D01*
X102567308Y-95650300D01*
X102566169Y-95771395D01*
X102564972Y-95872688D01*
X102563636Y-95956262D01*
X102562077Y-96024204D01*
X102560215Y-96078599D01*
X102557966Y-96121532D01*
X102555248Y-96155089D01*
X102551979Y-96181355D01*
X102548078Y-96202416D01*
X102543461Y-96220357D01*
X102535192Y-96246770D01*
X102511583Y-96308772D01*
X102485685Y-96361573D01*
X102460535Y-96398645D01*
X102459339Y-96400075D01*
X102457168Y-96404424D01*
X102459328Y-96408026D01*
X102467644Y-96410951D01*
X102483940Y-96413269D01*
X102510041Y-96415051D01*
X102547771Y-96416367D01*
X102598956Y-96417286D01*
X102665420Y-96417878D01*
X102748987Y-96418215D01*
X102851483Y-96418365D01*
X102974732Y-96418400D01*
X103506296Y-96418400D01*
X103467523Y-96360783D01*
X103461432Y-96351893D01*
X103450976Y-96337069D01*
X103441579Y-96323422D01*
X103433183Y-96309765D01*
X103425733Y-96294911D01*
X103419173Y-96277670D01*
X103413446Y-96256855D01*
X103408495Y-96231280D01*
X103404266Y-96199755D01*
X103400701Y-96161093D01*
X103397744Y-96114107D01*
X103395340Y-96057608D01*
X103393431Y-95990409D01*
X103391962Y-95911322D01*
X103390876Y-95819160D01*
X103390118Y-95712734D01*
X103389630Y-95590857D01*
X103389358Y-95452341D01*
X103389243Y-95295999D01*
X103389231Y-95120642D01*
X103389265Y-94925082D01*
X103389289Y-94708133D01*
X103389280Y-94585513D01*
X103389243Y-94380447D01*
X103389227Y-94196116D01*
X103389288Y-94031334D01*
X103389484Y-93884916D01*
X103389870Y-93755674D01*
X103390505Y-93642422D01*
X103391444Y-93543975D01*
X103392745Y-93459144D01*
X103394464Y-93386744D01*
X103396659Y-93325589D01*
X103399385Y-93274492D01*
X103402701Y-93232267D01*
X103406662Y-93197727D01*
X103411325Y-93169686D01*
X103416747Y-93146958D01*
X103422986Y-93128356D01*
X103430097Y-93112693D01*
X103438138Y-93098784D01*
X103447166Y-93085441D01*
X103457236Y-93071479D01*
X103468407Y-93055711D01*
X103508197Y-92997867D01*
X102448314Y-92997867D01*
X102486311Y-93060966D01*
X102500993Y-93086005D01*
X102515531Y-93113586D01*
X102527627Y-93141700D01*
X102537532Y-93172551D01*
X102545494Y-93208344D01*
X102551761Y-93251283D01*
X102556582Y-93303574D01*
X102560206Y-93367419D01*
X102562881Y-93445025D01*
X102564857Y-93538594D01*
X102566382Y-93650333D01*
X102567704Y-93782445D01*
X102568613Y-93902434D01*
X102569020Y-94019063D01*
X102568767Y-94114531D01*
X102567857Y-94188556D01*
X102566293Y-94240855D01*
X102564079Y-94271149D01*
X102561220Y-94279156D01*
X102558161Y-94275858D01*
X102540006Y-94254408D01*
X102510275Y-94217889D01*
X102470639Y-94168442D01*
X102422771Y-94108207D01*
X102368343Y-94039327D01*
X102309027Y-93963943D01*
X102246495Y-93884196D01*
X102182421Y-93802228D01*
X102118475Y-93720180D01*
X102056331Y-93640194D01*
X101997661Y-93564411D01*
X101944137Y-93494973D01*
X101897430Y-93434021D01*
X101859214Y-93383696D01*
X101831161Y-93346140D01*
X101814943Y-93323495D01*
X101769635Y-93251212D01*
X101729661Y-93171463D01*
X101708130Y-93103188D01*
X101704827Y-93045844D01*
X101710116Y-92997867D01*
X100578356Y-92998117D01*
X100617867Y-93028722D01*
X100627248Y-93036089D01*
X100690183Y-93090438D01*
X100758997Y-93158259D01*
X100835596Y-93241516D01*
X100921888Y-93342178D01*
X100939052Y-93362847D01*
X100979833Y-93412409D01*
X101029588Y-93473326D01*
X101086955Y-93543898D01*
X101150569Y-93622424D01*
X101219069Y-93707204D01*
X101291090Y-93796537D01*
X101365270Y-93888722D01*
X101380517Y-93907702D01*
X101440246Y-93982060D01*
X101514653Y-94074848D01*
X101587131Y-94165388D01*
X101656314Y-94251978D01*
X101720841Y-94332918D01*
X101779347Y-94406506D01*
X101830470Y-94471044D01*
X101872847Y-94524829D01*
X101905115Y-94566162D01*
X101925910Y-94593342D01*
X101933869Y-94604668D01*
X101932111Y-94608771D01*
X101919230Y-94629334D01*
X101894885Y-94665561D01*
X101860247Y-94715824D01*
X101816486Y-94778492D01*
X101764775Y-94851936D01*
X101706284Y-94934527D01*
X101642184Y-95024636D01*
X101573646Y-95120631D01*
X101501843Y-95220885D01*
X101427944Y-95323768D01*
X101353121Y-95427650D01*
X101278545Y-95530901D01*
X101205387Y-95631892D01*
X101134819Y-95728994D01*
X101068011Y-95820577D01*
X101006135Y-95905011D01*
X100950361Y-95980667D01*
X100901862Y-96045916D01*
X100861807Y-96099128D01*
X100831369Y-96138673D01*
X100810944Y-96164026D01*
X100764899Y-96218295D01*
X100714612Y-96274775D01*
X100667815Y-96324669D01*
X100576651Y-96418400D01*
X99878445Y-96418400D01*
X99947356Y-96418349D01*
X100045607Y-96418091D01*
X100135030Y-96417637D01*
X100213333Y-96417010D01*
X100278223Y-96416235D01*
X100327411Y-96415335D01*
X100358604Y-96414334D01*
X100369511Y-96413257D01*
X100368322Y-96410037D01*
X100358176Y-96392452D01*
X100341040Y-96366158D01*
X100332540Y-96353691D01*
X100323329Y-96339622D01*
X100315233Y-96325351D01*
X100308185Y-96309479D01*
X100302117Y-96290609D01*
X100296961Y-96267341D01*
X100292651Y-96238278D01*
X100289119Y-96202021D01*
X100286297Y-96157170D01*
X100284118Y-96102328D01*
X100282514Y-96036097D01*
X100281419Y-95957077D01*
X100280765Y-95863871D01*
X100280484Y-95755079D01*
X100280509Y-95629303D01*
X100280772Y-95485145D01*
X100281206Y-95321207D01*
X100281745Y-95136089D01*
X100282279Y-94957232D01*
X100282805Y-94798374D01*
X100283350Y-94659316D01*
X100283945Y-94538665D01*
X100284619Y-94435028D01*
X100285403Y-94347011D01*
X100286326Y-94273223D01*
X100287419Y-94212269D01*
X100288712Y-94162757D01*
X100290235Y-94123293D01*
X100292019Y-94092484D01*
X100294092Y-94068938D01*
X100296486Y-94051260D01*
X100299230Y-94038059D01*
X100302356Y-94027940D01*
X100305892Y-94019511D01*
X100309791Y-94011375D01*
X100329438Y-93974544D01*
X100348225Y-93944391D01*
X100349272Y-93942908D01*
X100363602Y-93920659D01*
X100369511Y-93907702D01*
X100368504Y-93907249D01*
X100351305Y-93905803D01*
X100314656Y-93904480D01*
X100260962Y-93903316D01*
X100192630Y-93902347D01*
X100112064Y-93901611D01*
X100021670Y-93901142D01*
X99923853Y-93900978D01*
X99478195Y-93900978D01*
X99475120Y-95077845D01*
X99472045Y-96254711D01*
X99445407Y-96313622D01*
X99433485Y-96338183D01*
X99416246Y-96368434D01*
X99403074Y-96385560D01*
X99395076Y-96393591D01*
X99387378Y-96408493D01*
X99095942Y-96408493D01*
X99095474Y-96316029D01*
X99095050Y-96200617D01*
X99094706Y-96070160D01*
X99094434Y-95923716D01*
X99094227Y-95760344D01*
X99094076Y-95579101D01*
X99093972Y-95379048D01*
X99093908Y-95159241D01*
X99093876Y-94918739D01*
X99093867Y-94656602D01*
X99093867Y-92465031D01*
X99132249Y-92426649D01*
X99159355Y-92402911D01*
X99186253Y-92391111D01*
X99222560Y-92388267D01*
X99274489Y-92388267D01*
X99274489Y-92476206D01*
X99276427Y-92526102D01*
X99295199Y-92636523D01*
X99332217Y-92737987D01*
X99385369Y-92829152D01*
X99452546Y-92908673D01*
X99531638Y-92975205D01*
X99620534Y-93027406D01*
X99717125Y-93063930D01*
X99819300Y-93083434D01*
X99924950Y-93084573D01*
X100031964Y-93066005D01*
X100138232Y-93026384D01*
X100235219Y-92968516D01*
X100320293Y-92893684D01*
X100389015Y-92805615D01*
X100439918Y-92706616D01*
X100471535Y-92598993D01*
X100482400Y-92485054D01*
X100482400Y-92388267D01*
X102102753Y-92388267D01*
X102313897Y-92388280D01*
X102518020Y-92388330D01*
X102701686Y-92388430D01*
X102865991Y-92388592D01*
X103012029Y-92388829D01*
X103140894Y-92389153D01*
X103253683Y-92389575D01*
X103351488Y-92390109D01*
X103435404Y-92390767D01*
X103506527Y-92391561D01*
X103565950Y-92392504D01*
X103614768Y-92393608D01*
X103654077Y-92394884D01*
X103684969Y-92396347D01*
X103708541Y-92398007D01*
X103725886Y-92399878D01*
X103738099Y-92401972D01*
X103746275Y-92404300D01*
X103751508Y-92406876D01*
X103757504Y-92410445D01*
X103764279Y-92413978D01*
X103770478Y-92417488D01*
X103776126Y-92421918D01*
X103781247Y-92428208D01*
X103785869Y-92437301D01*
X103790015Y-92450139D01*
X103793713Y-92467662D01*
X103796987Y-92490813D01*
X103799863Y-92520534D01*
X103802367Y-92557765D01*
X103804524Y-92603449D01*
X103806360Y-92658527D01*
X103807900Y-92723941D01*
X103809170Y-92800633D01*
X103810195Y-92889544D01*
X103811001Y-92991617D01*
X103811034Y-92997867D01*
X103811614Y-93107792D01*
G36*
X103811614Y-93107792D02*
G01*
X103812059Y-93239011D01*
X103812362Y-93386216D01*
X103812548Y-93550349D01*
X103812642Y-93732352D01*
X103812671Y-93933165D01*
X103812661Y-94153732D01*
X103812636Y-94394992D01*
X103812622Y-94657889D01*
X103812622Y-94700040D01*
X103812646Y-94960668D01*
X103812685Y-95199796D01*
X103812708Y-95418360D01*
X103812687Y-95617295D01*
X103812593Y-95797535D01*
X103812395Y-95960015D01*
X103812063Y-96105670D01*
X103811569Y-96235434D01*
X103810883Y-96350243D01*
X103809976Y-96451030D01*
X103808817Y-96538730D01*
X103807378Y-96614279D01*
X103805629Y-96678611D01*
X103803540Y-96732661D01*
X103801083Y-96777363D01*
X103798227Y-96813652D01*
X103794943Y-96842463D01*
X103791202Y-96864731D01*
X103786974Y-96881390D01*
X103782229Y-96893375D01*
X103776939Y-96901621D01*
X103771073Y-96907062D01*
X103764602Y-96910634D01*
X103757497Y-96913270D01*
X103749728Y-96915906D01*
X103741266Y-96919477D01*
X103736908Y-96921145D01*
X103728395Y-96923111D01*
X103715694Y-96924911D01*
X103697885Y-96926555D01*
X103674049Y-96928047D01*
X103643266Y-96929397D01*
X103604617Y-96930611D01*
X103557182Y-96931697D01*
X103500043Y-96932661D01*
X103432279Y-96933511D01*
X103352971Y-96934253D01*
X103261199Y-96934897D01*
X103156044Y-96935447D01*
X103036587Y-96935913D01*
X102901908Y-96936300D01*
X102751088Y-96936616D01*
X102583206Y-96936869D01*
X102397345Y-96937066D01*
X102192583Y-96937213D01*
X101968002Y-96937318D01*
X101722682Y-96937389D01*
X101455704Y-96937432D01*
X101417321Y-96937437D01*
X101151922Y-96937480D01*
X100908050Y-96937525D01*
X100684783Y-96937548D01*
X100481196Y-96937524D01*
X100296367Y-96937430D01*
X100129373Y-96937243D01*
X99979290Y-96936939D01*
X99845196Y-96936494D01*
X99726166Y-96935885D01*
X99621279Y-96935089D01*
X99529610Y-96934080D01*
X99450237Y-96932837D01*
X99382237Y-96931335D01*
X99324686Y-96929551D01*
X99276662Y-96927461D01*
X99237240Y-96925042D01*
X99205499Y-96922270D01*
X99180514Y-96919121D01*
X99161364Y-96915572D01*
X99147123Y-96911598D01*
X99136871Y-96907178D01*
X99129682Y-96902286D01*
X99124635Y-96896900D01*
X99120805Y-96890996D01*
X99117271Y-96884549D01*
X99113108Y-96877537D01*
X99112025Y-96875687D01*
X99109813Y-96870180D01*
X99107786Y-96861868D01*
X99105938Y-96849809D01*
X99104261Y-96833063D01*
X99102745Y-96810687D01*
X99101383Y-96781740D01*
X99100167Y-96745280D01*
X99099089Y-96700367D01*
X99098140Y-96646057D01*
X99097312Y-96581410D01*
X99096597Y-96505484D01*
X99095987Y-96417338D01*
X99095942Y-96408493D01*
X99387378Y-96408493D01*
X99391260Y-96409765D01*
X99414520Y-96411791D01*
X99456874Y-96413626D01*
X99516132Y-96415227D01*
X99590107Y-96416549D01*
X99676610Y-96417548D01*
X99773452Y-96418180D01*
X99878445Y-96418400D01*
X100576651Y-96418400D01*
X101731090Y-96418400D01*
X101730456Y-96342200D01*
X101731574Y-96300160D01*
X101737304Y-96264334D01*
X101749890Y-96226772D01*
X101771568Y-96178577D01*
X101774789Y-96171897D01*
X101800188Y-96122359D01*
X101826996Y-96074369D01*
X101849917Y-96037466D01*
X101854485Y-96030834D01*
X101876516Y-95999593D01*
X101908693Y-95954654D01*
X101949457Y-95898147D01*
X101997245Y-95832204D01*
X102050498Y-95758957D01*
X102107655Y-95680536D01*
X102167155Y-95599072D01*
X102227437Y-95516698D01*
X102286940Y-95435544D01*
X102344105Y-95357742D01*
X102397370Y-95285423D01*
X102445174Y-95220718D01*
X102485957Y-95165759D01*
X102518158Y-95122676D01*
X102540216Y-95093602D01*
X102550571Y-95080667D01*
X102555044Y-95076351D01*
X102559236Y-95074312D01*
X102562643Y-95076926D01*
X102565325Y-95085986D01*
X102567341Y-95103285D01*
X102568748Y-95130614D01*
X102569605Y-95169765D01*
X102569970Y-95222533D01*
X102569903Y-95290707D01*
X102569460Y-95376082D01*
X102568702Y-95480449D01*
X102567685Y-95605600D01*
X102567308Y-95650300D01*
X102566169Y-95771395D01*
X102564972Y-95872688D01*
X102563636Y-95956262D01*
X102562077Y-96024204D01*
X102560215Y-96078599D01*
X102557966Y-96121532D01*
X102555248Y-96155089D01*
X102551979Y-96181355D01*
X102548078Y-96202416D01*
X102543461Y-96220357D01*
X102535192Y-96246770D01*
X102511583Y-96308772D01*
X102485685Y-96361573D01*
X102460535Y-96398645D01*
X102459339Y-96400075D01*
X102457168Y-96404424D01*
X102459328Y-96408026D01*
X102467644Y-96410951D01*
X102483940Y-96413269D01*
X102510041Y-96415051D01*
X102547771Y-96416367D01*
X102598956Y-96417286D01*
X102665420Y-96417878D01*
X102748987Y-96418215D01*
X102851483Y-96418365D01*
X102974732Y-96418400D01*
X103506296Y-96418400D01*
X103467523Y-96360783D01*
X103461432Y-96351893D01*
X103450976Y-96337069D01*
X103441579Y-96323422D01*
X103433183Y-96309765D01*
X103425733Y-96294911D01*
X103419173Y-96277670D01*
X103413446Y-96256855D01*
X103408495Y-96231280D01*
X103404266Y-96199755D01*
X103400701Y-96161093D01*
X103397744Y-96114107D01*
X103395340Y-96057608D01*
X103393431Y-95990409D01*
X103391962Y-95911322D01*
X103390876Y-95819160D01*
X103390118Y-95712734D01*
X103389630Y-95590857D01*
X103389358Y-95452341D01*
X103389243Y-95295999D01*
X103389231Y-95120642D01*
X103389265Y-94925082D01*
X103389289Y-94708133D01*
X103389280Y-94585513D01*
X103389243Y-94380447D01*
X103389227Y-94196116D01*
X103389288Y-94031334D01*
X103389484Y-93884916D01*
X103389870Y-93755674D01*
X103390505Y-93642422D01*
X103391444Y-93543975D01*
X103392745Y-93459144D01*
X103394464Y-93386744D01*
X103396659Y-93325589D01*
X103399385Y-93274492D01*
X103402701Y-93232267D01*
X103406662Y-93197727D01*
X103411325Y-93169686D01*
X103416747Y-93146958D01*
X103422986Y-93128356D01*
X103430097Y-93112693D01*
X103438138Y-93098784D01*
X103447166Y-93085441D01*
X103457236Y-93071479D01*
X103468407Y-93055711D01*
X103508197Y-92997867D01*
X102448314Y-92997867D01*
X102486311Y-93060966D01*
X102500993Y-93086005D01*
X102515531Y-93113586D01*
X102527627Y-93141700D01*
X102537532Y-93172551D01*
X102545494Y-93208344D01*
X102551761Y-93251283D01*
X102556582Y-93303574D01*
X102560206Y-93367419D01*
X102562881Y-93445025D01*
X102564857Y-93538594D01*
X102566382Y-93650333D01*
X102567704Y-93782445D01*
X102568613Y-93902434D01*
X102569020Y-94019063D01*
X102568767Y-94114531D01*
X102567857Y-94188556D01*
X102566293Y-94240855D01*
X102564079Y-94271149D01*
X102561220Y-94279156D01*
X102558161Y-94275858D01*
X102540006Y-94254408D01*
X102510275Y-94217889D01*
X102470639Y-94168442D01*
X102422771Y-94108207D01*
X102368343Y-94039327D01*
X102309027Y-93963943D01*
X102246495Y-93884196D01*
X102182421Y-93802228D01*
X102118475Y-93720180D01*
X102056331Y-93640194D01*
X101997661Y-93564411D01*
X101944137Y-93494973D01*
X101897430Y-93434021D01*
X101859214Y-93383696D01*
X101831161Y-93346140D01*
X101814943Y-93323495D01*
X101769635Y-93251212D01*
X101729661Y-93171463D01*
X101708130Y-93103188D01*
X101704827Y-93045844D01*
X101710116Y-92997867D01*
X100578356Y-92998117D01*
X100617867Y-93028722D01*
X100627248Y-93036089D01*
X100690183Y-93090438D01*
X100758997Y-93158259D01*
X100835596Y-93241516D01*
X100921888Y-93342178D01*
X100939052Y-93362847D01*
X100979833Y-93412409D01*
X101029588Y-93473326D01*
X101086955Y-93543898D01*
X101150569Y-93622424D01*
X101219069Y-93707204D01*
X101291090Y-93796537D01*
X101365270Y-93888722D01*
X101380517Y-93907702D01*
X101440246Y-93982060D01*
X101514653Y-94074848D01*
X101587131Y-94165388D01*
X101656314Y-94251978D01*
X101720841Y-94332918D01*
X101779347Y-94406506D01*
X101830470Y-94471044D01*
X101872847Y-94524829D01*
X101905115Y-94566162D01*
X101925910Y-94593342D01*
X101933869Y-94604668D01*
X101932111Y-94608771D01*
X101919230Y-94629334D01*
X101894885Y-94665561D01*
X101860247Y-94715824D01*
X101816486Y-94778492D01*
X101764775Y-94851936D01*
X101706284Y-94934527D01*
X101642184Y-95024636D01*
X101573646Y-95120631D01*
X101501843Y-95220885D01*
X101427944Y-95323768D01*
X101353121Y-95427650D01*
X101278545Y-95530901D01*
X101205387Y-95631892D01*
X101134819Y-95728994D01*
X101068011Y-95820577D01*
X101006135Y-95905011D01*
X100950361Y-95980667D01*
X100901862Y-96045916D01*
X100861807Y-96099128D01*
X100831369Y-96138673D01*
X100810944Y-96164026D01*
X100764899Y-96218295D01*
X100714612Y-96274775D01*
X100667815Y-96324669D01*
X100576651Y-96418400D01*
X99878445Y-96418400D01*
X99947356Y-96418349D01*
X100045607Y-96418091D01*
X100135030Y-96417637D01*
X100213333Y-96417010D01*
X100278223Y-96416235D01*
X100327411Y-96415335D01*
X100358604Y-96414334D01*
X100369511Y-96413257D01*
X100368322Y-96410037D01*
X100358176Y-96392452D01*
X100341040Y-96366158D01*
X100332540Y-96353691D01*
X100323329Y-96339622D01*
X100315233Y-96325351D01*
X100308185Y-96309479D01*
X100302117Y-96290609D01*
X100296961Y-96267341D01*
X100292651Y-96238278D01*
X100289119Y-96202021D01*
X100286297Y-96157170D01*
X100284118Y-96102328D01*
X100282514Y-96036097D01*
X100281419Y-95957077D01*
X100280765Y-95863871D01*
X100280484Y-95755079D01*
X100280509Y-95629303D01*
X100280772Y-95485145D01*
X100281206Y-95321207D01*
X100281745Y-95136089D01*
X100282279Y-94957232D01*
X100282805Y-94798374D01*
X100283350Y-94659316D01*
X100283945Y-94538665D01*
X100284619Y-94435028D01*
X100285403Y-94347011D01*
X100286326Y-94273223D01*
X100287419Y-94212269D01*
X100288712Y-94162757D01*
X100290235Y-94123293D01*
X100292019Y-94092484D01*
X100294092Y-94068938D01*
X100296486Y-94051260D01*
X100299230Y-94038059D01*
X100302356Y-94027940D01*
X100305892Y-94019511D01*
X100309791Y-94011375D01*
X100329438Y-93974544D01*
X100348225Y-93944391D01*
X100349272Y-93942908D01*
X100363602Y-93920659D01*
X100369511Y-93907702D01*
X100368504Y-93907249D01*
X100351305Y-93905803D01*
X100314656Y-93904480D01*
X100260962Y-93903316D01*
X100192630Y-93902347D01*
X100112064Y-93901611D01*
X100021670Y-93901142D01*
X99923853Y-93900978D01*
X99478195Y-93900978D01*
X99475120Y-95077845D01*
X99472045Y-96254711D01*
X99445407Y-96313622D01*
X99433485Y-96338183D01*
X99416246Y-96368434D01*
X99403074Y-96385560D01*
X99395076Y-96393591D01*
X99387378Y-96408493D01*
X99095942Y-96408493D01*
X99095474Y-96316029D01*
X99095050Y-96200617D01*
X99094706Y-96070160D01*
X99094434Y-95923716D01*
X99094227Y-95760344D01*
X99094076Y-95579101D01*
X99093972Y-95379048D01*
X99093908Y-95159241D01*
X99093876Y-94918739D01*
X99093867Y-94656602D01*
X99093867Y-92465031D01*
X99132249Y-92426649D01*
X99159355Y-92402911D01*
X99186253Y-92391111D01*
X99222560Y-92388267D01*
X99274489Y-92388267D01*
X99274489Y-92476206D01*
X99276427Y-92526102D01*
X99295199Y-92636523D01*
X99332217Y-92737987D01*
X99385369Y-92829152D01*
X99452546Y-92908673D01*
X99531638Y-92975205D01*
X99620534Y-93027406D01*
X99717125Y-93063930D01*
X99819300Y-93083434D01*
X99924950Y-93084573D01*
X100031964Y-93066005D01*
X100138232Y-93026384D01*
X100235219Y-92968516D01*
X100320293Y-92893684D01*
X100389015Y-92805615D01*
X100439918Y-92706616D01*
X100471535Y-92598993D01*
X100482400Y-92485054D01*
X100482400Y-92388267D01*
X102102753Y-92388267D01*
X102313897Y-92388280D01*
X102518020Y-92388330D01*
X102701686Y-92388430D01*
X102865991Y-92388592D01*
X103012029Y-92388829D01*
X103140894Y-92389153D01*
X103253683Y-92389575D01*
X103351488Y-92390109D01*
X103435404Y-92390767D01*
X103506527Y-92391561D01*
X103565950Y-92392504D01*
X103614768Y-92393608D01*
X103654077Y-92394884D01*
X103684969Y-92396347D01*
X103708541Y-92398007D01*
X103725886Y-92399878D01*
X103738099Y-92401972D01*
X103746275Y-92404300D01*
X103751508Y-92406876D01*
X103757504Y-92410445D01*
X103764279Y-92413978D01*
X103770478Y-92417488D01*
X103776126Y-92421918D01*
X103781247Y-92428208D01*
X103785869Y-92437301D01*
X103790015Y-92450139D01*
X103793713Y-92467662D01*
X103796987Y-92490813D01*
X103799863Y-92520534D01*
X103802367Y-92557765D01*
X103804524Y-92603449D01*
X103806360Y-92658527D01*
X103807900Y-92723941D01*
X103809170Y-92800633D01*
X103810195Y-92889544D01*
X103811001Y-92991617D01*
X103811034Y-92997867D01*
X103811614Y-93107792D01*
G37*
%TD*%
M02*
