%TF.GenerationSoftware,KiCad,Pcbnew,9.0.2*%
%TF.CreationDate,2025-06-14T21:55:15+08:00*%
%TF.ProjectId,Tiny Solar Supply,54696e79-2053-46f6-9c61-722053757070,rev?*%
%TF.SameCoordinates,Original*%
%TF.FileFunction,Copper,L2,Bot*%
%TF.FilePolarity,Positive*%
%FSLAX46Y46*%
G04 Gerber Fmt 4.6, Leading zero omitted, Abs format (unit mm)*
G04 Created by KiCad (PCBNEW 9.0.2) date 2025-06-14 21:55:15*
%MOMM*%
%LPD*%
G01*
G04 APERTURE LIST*
G04 Aperture macros list*
%AMRoundRect*
0 Rectangle with rounded corners*
0 $1 Rounding radius*
0 $2 $3 $4 $5 $6 $7 $8 $9 X,Y pos of 4 corners*
0 Add a 4 corners polygon primitive as box body*
4,1,4,$2,$3,$4,$5,$6,$7,$8,$9,$2,$3,0*
0 Add four circle primitives for the rounded corners*
1,1,$1+$1,$2,$3*
1,1,$1+$1,$4,$5*
1,1,$1+$1,$6,$7*
1,1,$1+$1,$8,$9*
0 Add four rect primitives between the rounded corners*
20,1,$1+$1,$2,$3,$4,$5,0*
20,1,$1+$1,$4,$5,$6,$7,0*
20,1,$1+$1,$6,$7,$8,$9,0*
20,1,$1+$1,$8,$9,$2,$3,0*%
G04 Aperture macros list end*
%TA.AperFunction,ComponentPad*%
%ADD10RoundRect,0.250000X-0.550000X0.550000X-0.550000X-0.550000X0.550000X-0.550000X0.550000X0.550000X0*%
%TD*%
%TA.AperFunction,ComponentPad*%
%ADD11C,1.600000*%
%TD*%
%TA.AperFunction,ComponentPad*%
%ADD12R,1.700000X1.700000*%
%TD*%
%TA.AperFunction,ComponentPad*%
%ADD13C,1.700000*%
%TD*%
%TA.AperFunction,ViaPad*%
%ADD14C,0.600000*%
%TD*%
%TA.AperFunction,Conductor*%
%ADD15C,0.200000*%
%TD*%
G04 APERTURE END LIST*
D10*
%TO.P,J3,1,Pin_1*%
%TO.N,Net-(J3-Pin_1)*%
X88887500Y-87672500D03*
D11*
%TO.P,J3,2,Pin_2*%
%TO.N,/BAT_P*%
X88887500Y-95292500D03*
%TD*%
D12*
%TO.P,J2,1,Pin_1*%
%TO.N,GNDD*%
X78680000Y-100335000D03*
D13*
%TO.P,J2,2,Pin_2*%
%TO.N,/BAT_P*%
X78680000Y-97795000D03*
%TD*%
D12*
%TO.P,J1,1,Pin_1*%
%TO.N,GNDD*%
X108187800Y-93390800D03*
D13*
%TO.P,J1,2,Pin_2*%
%TO.N,/OUT_P*%
X108187800Y-95930800D03*
%TD*%
%TO.P,J4,2,Pin_2*%
%TO.N,/SOLAR_P*%
X78680000Y-88905000D03*
D12*
%TO.P,J4,1,Pin_1*%
%TO.N,GNDD*%
X78680000Y-91445000D03*
%TD*%
D14*
%TO.N,Net-(Q1-D)*%
X85471000Y-99187000D03*
X91186000Y-97155000D03*
%TO.N,/BAT_P*%
X87884000Y-93980000D03*
X83439000Y-93980000D03*
%TO.N,GNDD*%
X84836000Y-85979000D03*
X98298000Y-100330000D03*
%TO.N,Net-(U1-FB)*%
X93091000Y-89027000D03*
X92837000Y-93091000D03*
%TD*%
D15*
%TO.N,Net-(Q1-D)*%
X85471000Y-97536000D02*
X85471000Y-99187000D01*
X91186000Y-97155000D02*
X85852000Y-97155000D01*
X85852000Y-97155000D02*
X85471000Y-97536000D01*
%TO.N,/BAT_P*%
X83439000Y-93980000D02*
X87884000Y-93980000D01*
%TO.N,Net-(U1-FB)*%
X92837000Y-93091000D02*
X92837000Y-89281000D01*
X92837000Y-89281000D02*
X93091000Y-89027000D01*
%TD*%
%TA.AperFunction,Conductor*%
%TO.N,GNDD*%
G36*
X109742424Y-84093685D02*
G01*
X109788179Y-84146489D01*
X109798123Y-84215647D01*
X109769098Y-84279203D01*
X109731681Y-84308484D01*
X109719569Y-84314655D01*
X109624028Y-84384070D01*
X109528490Y-84453483D01*
X109528488Y-84453485D01*
X109528487Y-84453485D01*
X109361485Y-84620487D01*
X109361485Y-84620488D01*
X109361483Y-84620490D01*
X109301862Y-84702550D01*
X109222657Y-84811566D01*
X109115433Y-85022003D01*
X109042446Y-85246631D01*
X109005500Y-85479902D01*
X109005500Y-85716097D01*
X109042446Y-85949368D01*
X109115433Y-86173996D01*
X109207704Y-86355087D01*
X109222657Y-86384433D01*
X109361483Y-86575510D01*
X109528490Y-86742517D01*
X109719567Y-86881343D01*
X109818991Y-86932002D01*
X109930003Y-86988566D01*
X109930005Y-86988566D01*
X109930008Y-86988568D01*
X110050412Y-87027689D01*
X110154631Y-87061553D01*
X110387903Y-87098500D01*
X110387908Y-87098500D01*
X110624097Y-87098500D01*
X110857368Y-87061553D01*
X111081992Y-86988568D01*
X111292433Y-86881343D01*
X111483510Y-86742517D01*
X111650517Y-86575510D01*
X111789343Y-86384433D01*
X111789343Y-86384431D01*
X111789682Y-86383966D01*
X111845012Y-86341301D01*
X111914626Y-86335322D01*
X111976421Y-86367928D01*
X112010778Y-86428767D01*
X112014000Y-86456852D01*
X112014000Y-102773147D01*
X111994315Y-102840186D01*
X111941511Y-102885941D01*
X111872353Y-102895885D01*
X111808797Y-102866860D01*
X111789682Y-102846033D01*
X111757243Y-102801385D01*
X111650517Y-102654490D01*
X111483510Y-102487483D01*
X111292433Y-102348657D01*
X111081996Y-102241433D01*
X110857368Y-102168446D01*
X110624097Y-102131500D01*
X110624092Y-102131500D01*
X110387908Y-102131500D01*
X110387903Y-102131500D01*
X110154631Y-102168446D01*
X109930003Y-102241433D01*
X109719566Y-102348657D01*
X109610550Y-102427862D01*
X109528490Y-102487483D01*
X109528488Y-102487485D01*
X109528487Y-102487485D01*
X109361485Y-102654487D01*
X109361485Y-102654488D01*
X109361483Y-102654490D01*
X109334054Y-102692243D01*
X109222657Y-102845566D01*
X109115433Y-103056003D01*
X109042446Y-103280631D01*
X109005500Y-103513902D01*
X109005500Y-103750097D01*
X109042446Y-103983368D01*
X109115433Y-104207996D01*
X109206541Y-104386804D01*
X109222657Y-104418433D01*
X109361483Y-104609510D01*
X109528490Y-104776517D01*
X109719567Y-104915343D01*
X109719569Y-104915344D01*
X109731681Y-104921516D01*
X109782477Y-104969491D01*
X109799271Y-105037312D01*
X109776733Y-105103447D01*
X109722017Y-105146898D01*
X109675385Y-105156000D01*
X77030615Y-105156000D01*
X76963576Y-105136315D01*
X76917821Y-105083511D01*
X76907877Y-105014353D01*
X76936902Y-104950797D01*
X76974319Y-104921516D01*
X76980813Y-104918206D01*
X76986433Y-104915343D01*
X77177510Y-104776517D01*
X77344517Y-104609510D01*
X77483343Y-104418433D01*
X77590568Y-104207992D01*
X77663553Y-103983368D01*
X77671043Y-103936076D01*
X77700500Y-103750097D01*
X77700500Y-103513902D01*
X77663553Y-103280631D01*
X77595606Y-103071513D01*
X77590568Y-103056008D01*
X77590566Y-103056005D01*
X77590566Y-103056003D01*
X77515397Y-102908477D01*
X77483343Y-102845567D01*
X77365231Y-102683000D01*
X78516290Y-102683000D01*
X78520118Y-102692243D01*
X78521891Y-102696774D01*
X78532075Y-102724383D01*
X78533668Y-102728977D01*
X78618768Y-102990883D01*
X78620182Y-102995546D01*
X78628185Y-103023925D01*
X78629416Y-103028644D01*
X78638564Y-103066763D01*
X78639606Y-103071513D01*
X78645346Y-103100375D01*
X78646201Y-103105164D01*
X78689281Y-103377154D01*
X78689949Y-103381984D01*
X78693412Y-103411256D01*
X78693889Y-103416100D01*
X78696963Y-103455180D01*
X78697250Y-103460039D01*
X78698405Y-103489453D01*
X78698500Y-103494318D01*
X78698500Y-103769682D01*
X78698405Y-103774547D01*
X78697250Y-103803961D01*
X78696963Y-103808820D01*
X78693889Y-103847900D01*
X78693412Y-103852744D01*
X78689949Y-103882016D01*
X78689281Y-103886846D01*
X78666290Y-104032000D01*
X80926000Y-104032000D01*
X81924000Y-104032000D01*
X84426000Y-104032000D01*
X85424000Y-104032000D01*
X87926000Y-104032000D01*
X88924000Y-104032000D01*
X91426000Y-104032000D01*
X92424000Y-104032000D01*
X94926000Y-104032000D01*
X95924000Y-104032000D01*
X98426000Y-104032000D01*
X99424000Y-104032000D01*
X101926000Y-104032000D01*
X102924000Y-104032000D01*
X105426000Y-104032000D01*
X106424000Y-104032000D01*
X108039710Y-104032000D01*
X108016719Y-103886846D01*
X108016051Y-103882016D01*
X108012588Y-103852744D01*
X108012111Y-103847900D01*
X108009037Y-103808820D01*
X108008750Y-103803961D01*
X108007595Y-103774547D01*
X108007500Y-103769682D01*
X108007500Y-103494318D01*
X108007595Y-103489453D01*
X108008750Y-103460039D01*
X108009037Y-103455180D01*
X108012111Y-103416100D01*
X108012588Y-103411256D01*
X108016051Y-103381984D01*
X108016719Y-103377154D01*
X108059799Y-103105164D01*
X108060654Y-103100375D01*
X108066394Y-103071513D01*
X108067436Y-103066763D01*
X108076584Y-103028644D01*
X108077815Y-103023925D01*
X108085818Y-102995546D01*
X108087232Y-102990883D01*
X108172332Y-102728977D01*
X108173925Y-102724383D01*
X108184109Y-102696774D01*
X108185882Y-102692243D01*
X108200880Y-102656027D01*
X108202834Y-102651560D01*
X108215177Y-102624784D01*
X108217303Y-102620400D01*
X108342330Y-102375022D01*
X108344625Y-102370729D01*
X108359015Y-102345033D01*
X108361477Y-102340832D01*
X108381959Y-102307408D01*
X108384584Y-102303307D01*
X108400952Y-102278810D01*
X108403737Y-102274814D01*
X108565607Y-102052020D01*
X108568547Y-102048137D01*
X108586785Y-102025003D01*
X108589873Y-102021240D01*
X108615331Y-101991433D01*
X108618566Y-101987793D01*
X108638559Y-101966165D01*
X108641933Y-101962656D01*
X108782589Y-101822000D01*
X106424000Y-101822000D01*
X106424000Y-104032000D01*
X105426000Y-104032000D01*
X105426000Y-101822000D01*
X102924000Y-101822000D01*
X102924000Y-104032000D01*
X101926000Y-104032000D01*
X101926000Y-101822000D01*
X99424000Y-101822000D01*
X99424000Y-104032000D01*
X98426000Y-104032000D01*
X98426000Y-101822000D01*
X95924000Y-101822000D01*
X95924000Y-104032000D01*
X94926000Y-104032000D01*
X94926000Y-101822000D01*
X92424000Y-101822000D01*
X92424000Y-104032000D01*
X91426000Y-104032000D01*
X91426000Y-101822000D01*
X88924000Y-101822000D01*
X88924000Y-104032000D01*
X87926000Y-104032000D01*
X87926000Y-101822000D01*
X85424000Y-101822000D01*
X85424000Y-104032000D01*
X84426000Y-104032000D01*
X84426000Y-101822000D01*
X81924000Y-101822000D01*
X81924000Y-104032000D01*
X80926000Y-104032000D01*
X80926000Y-101822000D01*
X80890499Y-101822000D01*
X80870323Y-101866177D01*
X80866362Y-101874091D01*
X80832185Y-101936681D01*
X80827667Y-101944295D01*
X80798703Y-101989362D01*
X80793655Y-101996632D01*
X80664757Y-102168816D01*
X80659204Y-102175707D01*
X80624124Y-102216192D01*
X80618092Y-102222671D01*
X80567671Y-102273092D01*
X80561192Y-102279124D01*
X80520707Y-102314204D01*
X80513816Y-102319757D01*
X80341632Y-102448655D01*
X80334362Y-102453703D01*
X80289295Y-102482667D01*
X80281681Y-102487185D01*
X80219091Y-102521362D01*
X80211177Y-102525323D01*
X80162441Y-102547581D01*
X80154261Y-102550970D01*
X79956904Y-102624579D01*
X79949564Y-102627058D01*
X79904695Y-102640668D01*
X79897212Y-102642685D01*
X79836501Y-102657028D01*
X79828916Y-102658572D01*
X79782738Y-102666478D01*
X79775069Y-102667545D01*
X79671217Y-102678711D01*
X79667905Y-102679023D01*
X79647856Y-102680636D01*
X79644542Y-102680858D01*
X79617855Y-102682287D01*
X79614539Y-102682420D01*
X79594491Y-102682956D01*
X79591177Y-102683000D01*
X78729454Y-102683000D01*
X78682000Y-102673561D01*
X78680000Y-102672732D01*
X78678000Y-102673561D01*
X78630546Y-102683000D01*
X78516290Y-102683000D01*
X77365231Y-102683000D01*
X77344517Y-102654490D01*
X77177510Y-102487483D01*
X76986433Y-102348657D01*
X76775996Y-102241433D01*
X76551368Y-102168446D01*
X76318097Y-102131500D01*
X76318092Y-102131500D01*
X76081908Y-102131500D01*
X76081903Y-102131500D01*
X75848631Y-102168446D01*
X75624003Y-102241433D01*
X75413566Y-102348657D01*
X75304550Y-102427862D01*
X75222490Y-102487483D01*
X75222488Y-102487485D01*
X75222487Y-102487485D01*
X75055485Y-102654487D01*
X75055485Y-102654488D01*
X75055483Y-102654490D01*
X75028054Y-102692243D01*
X74916655Y-102845569D01*
X74910484Y-102857681D01*
X74862509Y-102908477D01*
X74794688Y-102925271D01*
X74728553Y-102902733D01*
X74685102Y-102848017D01*
X74676000Y-102801385D01*
X74676000Y-97688713D01*
X77329500Y-97688713D01*
X77329500Y-97901286D01*
X77362753Y-98111239D01*
X77428444Y-98313414D01*
X77524951Y-98502820D01*
X77649890Y-98674786D01*
X77763818Y-98788714D01*
X77797303Y-98850037D01*
X77792319Y-98919729D01*
X77750447Y-98975662D01*
X77719471Y-98992577D01*
X77587912Y-99041646D01*
X77587906Y-99041649D01*
X77472812Y-99127809D01*
X77472809Y-99127812D01*
X77386649Y-99242906D01*
X77386645Y-99242913D01*
X77336403Y-99377620D01*
X77336401Y-99377627D01*
X77330000Y-99437155D01*
X77330000Y-100085000D01*
X78246988Y-100085000D01*
X78214075Y-100142007D01*
X78180000Y-100269174D01*
X78180000Y-100400826D01*
X78214075Y-100527993D01*
X78246988Y-100585000D01*
X77330000Y-100585000D01*
X77330000Y-101232844D01*
X77336401Y-101292372D01*
X77336403Y-101292379D01*
X77386645Y-101427086D01*
X77386649Y-101427093D01*
X77472809Y-101542187D01*
X77472812Y-101542190D01*
X77587906Y-101628350D01*
X77587913Y-101628354D01*
X77722620Y-101678596D01*
X77722627Y-101678598D01*
X77782155Y-101684999D01*
X77782172Y-101685000D01*
X78430000Y-101685000D01*
X78430000Y-100768012D01*
X78487007Y-100800925D01*
X78614174Y-100835000D01*
X78745826Y-100835000D01*
X78872993Y-100800925D01*
X78930000Y-100768012D01*
X78930000Y-101685000D01*
X79577828Y-101685000D01*
X79577844Y-101684999D01*
X79637372Y-101678598D01*
X79637379Y-101678596D01*
X79772086Y-101628354D01*
X79772093Y-101628350D01*
X79887187Y-101542190D01*
X79887190Y-101542187D01*
X79973350Y-101427093D01*
X79973354Y-101427086D01*
X80023596Y-101292379D01*
X80023598Y-101292372D01*
X80029999Y-101232844D01*
X80030000Y-101232827D01*
X80030000Y-100824000D01*
X81924000Y-100824000D01*
X84426000Y-100824000D01*
X86218640Y-100824000D01*
X87926000Y-100824000D01*
X88924000Y-100824000D01*
X91426000Y-100824000D01*
X91426000Y-98940665D01*
X91393080Y-98945549D01*
X91387039Y-98946294D01*
X91338267Y-98951097D01*
X91332197Y-98951545D01*
X91295425Y-98953351D01*
X91289342Y-98953500D01*
X91082658Y-98953500D01*
X91076575Y-98953351D01*
X91039803Y-98951545D01*
X91033733Y-98951097D01*
X90984961Y-98946294D01*
X90978920Y-98945549D01*
X90942489Y-98940145D01*
X90936492Y-98939104D01*
X90733765Y-98898779D01*
X90727823Y-98897445D01*
X90692097Y-98888495D01*
X90686233Y-98886872D01*
X90639338Y-98872646D01*
X90633560Y-98870737D01*
X90598899Y-98858335D01*
X90593222Y-98856145D01*
X90402272Y-98777052D01*
X90396708Y-98774586D01*
X90363426Y-98758845D01*
X90357991Y-98756109D01*
X90353110Y-98753500D01*
X88924000Y-98753500D01*
X88924000Y-100824000D01*
X87926000Y-100824000D01*
X87926000Y-98753500D01*
X87218506Y-98753500D01*
X87255104Y-98937492D01*
X87256145Y-98943489D01*
X87261549Y-98979920D01*
X87262294Y-98985961D01*
X87267097Y-99034733D01*
X87267545Y-99040803D01*
X87269351Y-99077575D01*
X87269500Y-99083658D01*
X87269500Y-99290342D01*
X87269351Y-99296425D01*
X87267545Y-99333197D01*
X87267097Y-99339267D01*
X87262294Y-99388039D01*
X87261549Y-99394080D01*
X87256145Y-99430511D01*
X87255104Y-99436508D01*
X87214779Y-99639235D01*
X87213445Y-99645177D01*
X87204495Y-99680903D01*
X87202872Y-99686767D01*
X87188646Y-99733662D01*
X87186737Y-99739440D01*
X87174335Y-99774101D01*
X87172145Y-99779778D01*
X87093052Y-99970728D01*
X87090586Y-99976292D01*
X87074845Y-100009574D01*
X87072109Y-100015009D01*
X87049008Y-100058230D01*
X87046009Y-100063525D01*
X87027074Y-100095118D01*
X87023816Y-100100263D01*
X86908983Y-100272122D01*
X86905478Y-100277098D01*
X86883545Y-100306671D01*
X86879801Y-100311469D01*
X86848712Y-100349351D01*
X86844738Y-100353958D01*
X86820007Y-100381245D01*
X86815809Y-100385654D01*
X86669654Y-100531809D01*
X86665245Y-100536007D01*
X86637958Y-100560738D01*
X86633351Y-100564712D01*
X86595469Y-100595801D01*
X86590671Y-100599545D01*
X86561098Y-100621478D01*
X86556122Y-100624983D01*
X86384263Y-100739816D01*
X86379118Y-100743074D01*
X86347525Y-100762009D01*
X86342230Y-100765008D01*
X86299009Y-100788109D01*
X86293574Y-100790845D01*
X86260292Y-100806586D01*
X86254728Y-100809052D01*
X86218640Y-100824000D01*
X84426000Y-100824000D01*
X84426000Y-100651790D01*
X84385879Y-100624983D01*
X84380902Y-100621478D01*
X84351329Y-100599545D01*
X84346531Y-100595801D01*
X84308649Y-100564712D01*
X84304042Y-100560738D01*
X84276755Y-100536007D01*
X84272346Y-100531809D01*
X84126191Y-100385654D01*
X84121993Y-100381245D01*
X84097262Y-100353958D01*
X84093288Y-100349351D01*
X84062199Y-100311469D01*
X84058455Y-100306671D01*
X84036522Y-100277098D01*
X84033017Y-100272122D01*
X83918184Y-100100263D01*
X83914926Y-100095118D01*
X83895991Y-100063525D01*
X83892992Y-100058230D01*
X83869891Y-100015009D01*
X83867155Y-100009574D01*
X83851414Y-99976292D01*
X83848948Y-99970728D01*
X83769855Y-99779778D01*
X83767665Y-99774101D01*
X83755263Y-99739440D01*
X83753354Y-99733662D01*
X83739128Y-99686767D01*
X83737505Y-99680903D01*
X83728555Y-99645177D01*
X83727221Y-99639235D01*
X83686896Y-99436508D01*
X83685855Y-99430511D01*
X83680451Y-99394080D01*
X83679706Y-99388039D01*
X83674903Y-99339267D01*
X83674455Y-99333197D01*
X83672649Y-99296425D01*
X83672500Y-99290342D01*
X83672500Y-99083658D01*
X83672649Y-99077575D01*
X83674455Y-99040803D01*
X83674903Y-99034733D01*
X83679706Y-98985961D01*
X83680451Y-98979920D01*
X83685855Y-98943489D01*
X83686896Y-98937492D01*
X83727221Y-98734765D01*
X83728555Y-98728823D01*
X83737505Y-98693097D01*
X83739128Y-98687233D01*
X83753354Y-98640338D01*
X83755263Y-98634560D01*
X83767665Y-98599899D01*
X83769855Y-98594222D01*
X83848948Y-98403272D01*
X83851414Y-98397708D01*
X83867155Y-98364426D01*
X83869890Y-98358992D01*
X83872500Y-98354108D01*
X83872500Y-98322000D01*
X81924000Y-98322000D01*
X81924000Y-100824000D01*
X80030000Y-100824000D01*
X80030000Y-100585000D01*
X79113012Y-100585000D01*
X79145925Y-100527993D01*
X79180000Y-100400826D01*
X79180000Y-100269174D01*
X79145925Y-100142007D01*
X79113012Y-100085000D01*
X80030000Y-100085000D01*
X80030000Y-99437172D01*
X80029999Y-99437155D01*
X80023598Y-99377627D01*
X80023596Y-99377620D01*
X79973354Y-99242913D01*
X79973350Y-99242906D01*
X79887190Y-99127812D01*
X79887187Y-99127809D01*
X79772093Y-99041649D01*
X79772088Y-99041646D01*
X79640528Y-98992577D01*
X79584595Y-98950705D01*
X79560178Y-98885241D01*
X79575030Y-98816968D01*
X79596175Y-98788720D01*
X79710104Y-98674792D01*
X79835051Y-98502816D01*
X79931557Y-98313412D01*
X79997246Y-98111243D01*
X80030500Y-97901287D01*
X80030500Y-97688713D01*
X79997246Y-97478757D01*
X79946962Y-97324000D01*
X81924000Y-97324000D01*
X83881390Y-97324000D01*
X83885306Y-97294259D01*
X83886628Y-97286255D01*
X83896207Y-97238102D01*
X83898049Y-97230201D01*
X83955886Y-97014352D01*
X83958241Y-97006589D01*
X83974020Y-96960104D01*
X83976877Y-96952513D01*
X84001887Y-96892126D01*
X84005237Y-96884731D01*
X84026963Y-96840674D01*
X84030789Y-96833516D01*
X84076071Y-96755087D01*
X84142526Y-96639982D01*
X84146812Y-96633090D01*
X84174100Y-96592251D01*
X84178829Y-96585652D01*
X84218620Y-96533799D01*
X84223766Y-96527529D01*
X84256137Y-96490618D01*
X84261683Y-96484697D01*
X84426000Y-96320380D01*
X84426000Y-95578500D01*
X84271890Y-95578500D01*
X84267009Y-95581109D01*
X84261574Y-95583845D01*
X84228292Y-95599586D01*
X84222728Y-95602052D01*
X84031778Y-95681145D01*
X84026101Y-95683335D01*
X83991440Y-95695737D01*
X83985662Y-95697646D01*
X83938767Y-95711872D01*
X83932903Y-95713495D01*
X83897177Y-95722445D01*
X83891235Y-95723779D01*
X83688508Y-95764104D01*
X83682511Y-95765145D01*
X83646080Y-95770549D01*
X83640039Y-95771294D01*
X83591267Y-95776097D01*
X83585197Y-95776545D01*
X83548425Y-95778351D01*
X83542342Y-95778500D01*
X83335658Y-95778500D01*
X83329575Y-95778351D01*
X83292803Y-95776545D01*
X83286733Y-95776097D01*
X83237961Y-95771294D01*
X83231920Y-95770549D01*
X83195489Y-95765145D01*
X83189492Y-95764104D01*
X82986765Y-95723779D01*
X82980823Y-95722445D01*
X82945097Y-95713495D01*
X82939233Y-95711872D01*
X82892338Y-95697646D01*
X82886560Y-95695737D01*
X82851899Y-95683335D01*
X82846222Y-95681145D01*
X82655272Y-95602052D01*
X82649708Y-95599586D01*
X82616426Y-95583845D01*
X82610991Y-95581109D01*
X82567770Y-95558008D01*
X82562475Y-95555009D01*
X82530882Y-95536074D01*
X82525737Y-95532816D01*
X82353878Y-95417983D01*
X82348902Y-95414478D01*
X82319329Y-95392545D01*
X82314531Y-95388801D01*
X82276649Y-95357712D01*
X82272042Y-95353738D01*
X82244755Y-95329007D01*
X82240346Y-95324809D01*
X82094191Y-95178654D01*
X82089993Y-95174245D01*
X82065262Y-95146958D01*
X82061288Y-95142351D01*
X82030199Y-95104469D01*
X82026455Y-95099671D01*
X82004522Y-95070098D01*
X82001017Y-95065122D01*
X81924000Y-94949858D01*
X81924000Y-97324000D01*
X79946962Y-97324000D01*
X79931557Y-97276588D01*
X79835051Y-97087184D01*
X79835049Y-97087181D01*
X79835048Y-97087179D01*
X79710109Y-96915213D01*
X79559786Y-96764890D01*
X79387820Y-96639951D01*
X79198414Y-96543444D01*
X79198413Y-96543443D01*
X79198412Y-96543443D01*
X78996243Y-96477754D01*
X78996241Y-96477753D01*
X78996240Y-96477753D01*
X78834957Y-96452208D01*
X78786287Y-96444500D01*
X78573713Y-96444500D01*
X78525042Y-96452208D01*
X78363760Y-96477753D01*
X78161585Y-96543444D01*
X77972179Y-96639951D01*
X77800213Y-96764890D01*
X77649890Y-96915213D01*
X77524951Y-97087179D01*
X77428444Y-97276585D01*
X77362753Y-97478760D01*
X77329500Y-97688713D01*
X74676000Y-97688713D01*
X74676000Y-97324000D01*
X75800000Y-97324000D01*
X76376825Y-97324000D01*
X76380108Y-97303272D01*
X76380964Y-97298477D01*
X76386713Y-97269577D01*
X76387758Y-97264817D01*
X76396911Y-97226700D01*
X76398138Y-97221995D01*
X76406131Y-97193653D01*
X76407545Y-97188993D01*
X76485342Y-96949560D01*
X76486936Y-96944963D01*
X76497121Y-96917353D01*
X76498893Y-96912825D01*
X76513891Y-96876608D01*
X76515846Y-96872139D01*
X76528189Y-96845364D01*
X76530314Y-96840981D01*
X76644622Y-96616639D01*
X76646917Y-96612346D01*
X76661307Y-96586650D01*
X76663769Y-96582450D01*
X76684250Y-96549027D01*
X76686874Y-96544927D01*
X76703240Y-96520432D01*
X76706026Y-96516435D01*
X76854025Y-96312731D01*
X76856968Y-96308843D01*
X76875227Y-96285684D01*
X76878317Y-96281919D01*
X76903778Y-96252112D01*
X76907012Y-96248473D01*
X76926986Y-96226868D01*
X76930356Y-96223364D01*
X77108364Y-96045356D01*
X77111868Y-96041986D01*
X77133473Y-96022012D01*
X77137112Y-96018778D01*
X77166919Y-95993317D01*
X77170684Y-95990227D01*
X77193843Y-95971968D01*
X77197731Y-95969025D01*
X77401435Y-95821026D01*
X77405432Y-95818240D01*
X77426000Y-95804497D01*
X77426000Y-95457772D01*
X78424000Y-95457772D01*
X78436942Y-95455723D01*
X78441764Y-95455056D01*
X78470997Y-95451596D01*
X78475835Y-95451119D01*
X78514914Y-95448041D01*
X78519779Y-95447754D01*
X78549231Y-95446596D01*
X78554103Y-95446500D01*
X78805897Y-95446500D01*
X78810769Y-95446596D01*
X78840221Y-95447754D01*
X78845086Y-95448041D01*
X78884165Y-95451119D01*
X78889003Y-95451596D01*
X78918236Y-95455056D01*
X78923059Y-95455723D01*
X79171728Y-95495108D01*
X79176523Y-95495964D01*
X79205423Y-95501713D01*
X79210183Y-95502758D01*
X79248300Y-95511911D01*
X79253005Y-95513138D01*
X79281347Y-95521131D01*
X79286007Y-95522545D01*
X79525440Y-95600342D01*
X79530037Y-95601936D01*
X79557647Y-95612121D01*
X79562175Y-95613893D01*
X79598392Y-95628891D01*
X79602861Y-95630846D01*
X79629636Y-95643189D01*
X79634019Y-95645314D01*
X79858361Y-95759622D01*
X79862654Y-95761917D01*
X79888350Y-95776307D01*
X79892550Y-95778769D01*
X79925973Y-95799250D01*
X79930073Y-95801874D01*
X79954568Y-95818240D01*
X79958565Y-95821026D01*
X80162269Y-95969025D01*
X80166157Y-95971968D01*
X80189316Y-95990227D01*
X80193081Y-95993317D01*
X80222888Y-96018778D01*
X80226527Y-96022012D01*
X80248132Y-96041986D01*
X80251636Y-96045356D01*
X80429644Y-96223364D01*
X80433014Y-96226868D01*
X80452988Y-96248473D01*
X80456222Y-96252112D01*
X80481683Y-96281919D01*
X80484773Y-96285684D01*
X80503032Y-96308843D01*
X80505975Y-96312731D01*
X80653974Y-96516435D01*
X80656760Y-96520432D01*
X80673126Y-96544927D01*
X80675750Y-96549027D01*
X80696231Y-96582450D01*
X80698693Y-96586650D01*
X80713083Y-96612346D01*
X80715378Y-96616639D01*
X80829686Y-96840981D01*
X80831811Y-96845364D01*
X80844154Y-96872139D01*
X80846109Y-96876608D01*
X80861107Y-96912825D01*
X80862879Y-96917353D01*
X80873064Y-96944963D01*
X80874658Y-96949560D01*
X80926000Y-97107573D01*
X80926000Y-94822000D01*
X78424000Y-94822000D01*
X78424000Y-95457772D01*
X77426000Y-95457772D01*
X77426000Y-94822000D01*
X75800000Y-94822000D01*
X75800000Y-97324000D01*
X74676000Y-97324000D01*
X74676000Y-93901153D01*
X82638500Y-93901153D01*
X82638500Y-94058846D01*
X82669261Y-94213489D01*
X82669264Y-94213501D01*
X82729602Y-94359172D01*
X82729609Y-94359185D01*
X82817210Y-94490288D01*
X82817213Y-94490292D01*
X82928707Y-94601786D01*
X82928711Y-94601789D01*
X83059814Y-94689390D01*
X83059827Y-94689397D01*
X83205498Y-94749735D01*
X83205503Y-94749737D01*
X83360153Y-94780499D01*
X83360156Y-94780500D01*
X83360158Y-94780500D01*
X83517844Y-94780500D01*
X83517845Y-94780499D01*
X83672497Y-94749737D01*
X83818179Y-94689394D01*
X83833371Y-94679243D01*
X83949875Y-94601398D01*
X84016553Y-94580520D01*
X84018766Y-94580500D01*
X87304234Y-94580500D01*
X87371273Y-94600185D01*
X87373125Y-94601398D01*
X87504814Y-94689390D01*
X87504818Y-94689392D01*
X87504821Y-94689394D01*
X87585082Y-94722639D01*
X87639483Y-94766478D01*
X87661549Y-94832772D01*
X87655559Y-94875517D01*
X87619023Y-94987961D01*
X87619023Y-94987964D01*
X87587000Y-95190148D01*
X87587000Y-95394852D01*
X87590109Y-95414478D01*
X87619022Y-95597034D01*
X87682281Y-95791723D01*
X87746191Y-95917153D01*
X87768408Y-95960755D01*
X87775215Y-95974113D01*
X87895528Y-96139713D01*
X88040286Y-96284471D01*
X88103203Y-96330182D01*
X88145869Y-96385511D01*
X88151848Y-96455125D01*
X88119243Y-96516920D01*
X88058404Y-96551277D01*
X88030318Y-96554500D01*
X85772941Y-96554500D01*
X85748769Y-96560976D01*
X85748770Y-96560977D01*
X85620214Y-96595423D01*
X85620209Y-96595426D01*
X85483290Y-96674475D01*
X85483282Y-96674481D01*
X84990481Y-97167282D01*
X84990479Y-97167285D01*
X84977946Y-97188993D01*
X84943853Y-97248046D01*
X84940361Y-97254094D01*
X84940359Y-97254096D01*
X84911425Y-97304209D01*
X84911424Y-97304210D01*
X84895544Y-97363472D01*
X84870499Y-97456943D01*
X84870499Y-97456945D01*
X84870499Y-97625046D01*
X84870500Y-97625059D01*
X84870500Y-98607234D01*
X84850815Y-98674273D01*
X84849602Y-98676125D01*
X84761609Y-98807814D01*
X84761602Y-98807827D01*
X84701264Y-98953498D01*
X84701261Y-98953510D01*
X84670500Y-99108153D01*
X84670500Y-99265846D01*
X84701261Y-99420489D01*
X84701264Y-99420501D01*
X84761602Y-99566172D01*
X84761609Y-99566185D01*
X84849210Y-99697288D01*
X84849213Y-99697292D01*
X84960707Y-99808786D01*
X84960711Y-99808789D01*
X85091814Y-99896390D01*
X85091827Y-99896397D01*
X85237498Y-99956735D01*
X85237503Y-99956737D01*
X85372386Y-99983567D01*
X85392153Y-99987499D01*
X85392156Y-99987500D01*
X85392158Y-99987500D01*
X85549844Y-99987500D01*
X85549845Y-99987499D01*
X85704497Y-99956737D01*
X85850179Y-99896394D01*
X85981289Y-99808789D01*
X86092789Y-99697289D01*
X86180394Y-99566179D01*
X86240737Y-99420497D01*
X86271500Y-99265842D01*
X86271500Y-99108158D01*
X86271500Y-99108155D01*
X86271499Y-99108153D01*
X86256895Y-99034733D01*
X86240737Y-98953503D01*
X86228573Y-98924137D01*
X86180397Y-98807827D01*
X86180390Y-98807814D01*
X86092398Y-98676125D01*
X86071520Y-98609447D01*
X86071500Y-98607234D01*
X86071500Y-98460463D01*
X92424000Y-98460463D01*
X92424000Y-100824000D01*
X94926000Y-100824000D01*
X95924000Y-100824000D01*
X96944626Y-100824000D01*
X96896679Y-100676433D01*
X96892137Y-100657513D01*
X96859738Y-100452953D01*
X96858211Y-100433555D01*
X96858211Y-100226445D01*
X96859738Y-100207047D01*
X96892137Y-100002487D01*
X96896679Y-99983567D01*
X96960679Y-99786594D01*
X96968125Y-99768617D01*
X97062151Y-99584081D01*
X97072318Y-99567491D01*
X97172000Y-99430290D01*
X99424000Y-99430290D01*
X99523682Y-99567491D01*
X99533849Y-99584081D01*
X99627875Y-99768617D01*
X99635321Y-99786594D01*
X99699321Y-99983567D01*
X99703863Y-100002487D01*
X99736262Y-100207047D01*
X99737789Y-100226445D01*
X99737789Y-100433555D01*
X99736262Y-100452953D01*
X99703863Y-100657513D01*
X99699321Y-100676433D01*
X99651374Y-100824000D01*
X101926000Y-100824000D01*
X102924000Y-100824000D01*
X105426000Y-100824000D01*
X106424000Y-100824000D01*
X108926000Y-100824000D01*
X109924000Y-100824000D01*
X110890000Y-100824000D01*
X110890000Y-98322000D01*
X109924000Y-98322000D01*
X109924000Y-100824000D01*
X108926000Y-100824000D01*
X108926000Y-98322000D01*
X106424000Y-98322000D01*
X106424000Y-100824000D01*
X105426000Y-100824000D01*
X105426000Y-98322000D01*
X102924000Y-98322000D01*
X102924000Y-100824000D01*
X101926000Y-100824000D01*
X101926000Y-98322000D01*
X99424000Y-98322000D01*
X99424000Y-99430290D01*
X97172000Y-99430290D01*
X97194054Y-99399936D01*
X97206691Y-99385140D01*
X97353140Y-99238691D01*
X97367936Y-99226054D01*
X97535491Y-99104318D01*
X97552081Y-99094151D01*
X97736617Y-99000125D01*
X97754594Y-98992679D01*
X97951567Y-98928679D01*
X97970487Y-98924137D01*
X98175047Y-98891738D01*
X98194445Y-98890211D01*
X98401555Y-98890211D01*
X98420953Y-98891738D01*
X98426000Y-98892537D01*
X98426000Y-98322000D01*
X95924000Y-98322000D01*
X95924000Y-100824000D01*
X94926000Y-100824000D01*
X94926000Y-98322000D01*
X92559700Y-98322000D01*
X92535007Y-98349245D01*
X92530809Y-98353654D01*
X92424000Y-98460463D01*
X86071500Y-98460463D01*
X86071500Y-97879500D01*
X86091185Y-97812461D01*
X86143989Y-97766706D01*
X86195500Y-97755500D01*
X90606234Y-97755500D01*
X90673273Y-97775185D01*
X90675125Y-97776398D01*
X90806814Y-97864390D01*
X90806827Y-97864397D01*
X90895889Y-97901287D01*
X90952503Y-97924737D01*
X91107153Y-97955499D01*
X91107156Y-97955500D01*
X91107158Y-97955500D01*
X91264844Y-97955500D01*
X91264845Y-97955499D01*
X91419497Y-97924737D01*
X91565179Y-97864394D01*
X91696289Y-97776789D01*
X91807789Y-97665289D01*
X91895394Y-97534179D01*
X91955737Y-97388497D01*
X91986500Y-97233842D01*
X91986500Y-97076158D01*
X91986500Y-97076155D01*
X91986499Y-97076153D01*
X91961318Y-96949560D01*
X91955737Y-96921503D01*
X91953130Y-96915208D01*
X91895397Y-96775827D01*
X91895390Y-96775814D01*
X91807789Y-96644711D01*
X91807786Y-96644707D01*
X91696292Y-96533213D01*
X91696288Y-96533210D01*
X91565185Y-96445609D01*
X91565172Y-96445602D01*
X91419501Y-96385264D01*
X91419489Y-96385261D01*
X91264845Y-96354500D01*
X91264842Y-96354500D01*
X91107158Y-96354500D01*
X91107155Y-96354500D01*
X90952510Y-96385261D01*
X90952498Y-96385264D01*
X90806827Y-96445602D01*
X90806814Y-96445609D01*
X90675125Y-96533602D01*
X90608447Y-96554480D01*
X90606234Y-96554500D01*
X89744682Y-96554500D01*
X89677643Y-96534815D01*
X89631888Y-96482011D01*
X89621944Y-96412853D01*
X89650969Y-96349297D01*
X89671797Y-96330182D01*
X89734713Y-96284471D01*
X89734715Y-96284468D01*
X89734719Y-96284466D01*
X89879466Y-96139719D01*
X89879468Y-96139715D01*
X89879471Y-96139713D01*
X89948024Y-96045356D01*
X89999787Y-95974110D01*
X90092720Y-95791719D01*
X90155977Y-95597034D01*
X90188000Y-95394852D01*
X90188000Y-95190148D01*
X90155977Y-94987965D01*
X90108739Y-94842583D01*
X92424000Y-94842583D01*
X92424000Y-95849537D01*
X92530809Y-95956346D01*
X92535007Y-95960755D01*
X92559738Y-95988042D01*
X92563712Y-95992649D01*
X92594801Y-96030531D01*
X92598545Y-96035329D01*
X92620478Y-96064902D01*
X92623983Y-96069878D01*
X92738816Y-96241737D01*
X92742074Y-96246882D01*
X92761009Y-96278475D01*
X92764008Y-96283770D01*
X92787109Y-96326991D01*
X92789845Y-96332426D01*
X92805586Y-96365708D01*
X92808052Y-96371272D01*
X92887145Y-96562222D01*
X92889335Y-96567899D01*
X92901737Y-96602560D01*
X92903646Y-96608338D01*
X92917872Y-96655233D01*
X92919495Y-96661097D01*
X92928445Y-96696823D01*
X92929779Y-96702765D01*
X92970104Y-96905492D01*
X92971145Y-96911489D01*
X92976549Y-96947920D01*
X92977294Y-96953961D01*
X92982097Y-97002733D01*
X92982545Y-97008803D01*
X92984351Y-97045575D01*
X92984500Y-97051658D01*
X92984500Y-97258342D01*
X92984351Y-97264425D01*
X92982545Y-97301197D01*
X92982097Y-97307267D01*
X92980449Y-97324000D01*
X94926000Y-97324000D01*
X95924000Y-97324000D01*
X98426000Y-97324000D01*
X99424000Y-97324000D01*
X101926000Y-97324000D01*
X102924000Y-97324000D01*
X105426000Y-97324000D01*
X105426000Y-95824513D01*
X106837300Y-95824513D01*
X106837300Y-96037087D01*
X106842494Y-96069878D01*
X106869713Y-96241737D01*
X106870554Y-96247043D01*
X106935072Y-96445609D01*
X106936244Y-96449214D01*
X107032751Y-96638620D01*
X107157690Y-96810586D01*
X107308013Y-96960909D01*
X107479979Y-97085848D01*
X107479981Y-97085849D01*
X107479984Y-97085851D01*
X107669388Y-97182357D01*
X107871557Y-97248046D01*
X108081513Y-97281300D01*
X108081514Y-97281300D01*
X108294086Y-97281300D01*
X108294087Y-97281300D01*
X108504043Y-97248046D01*
X108706212Y-97182357D01*
X108895616Y-97085851D01*
X108917589Y-97069886D01*
X109067586Y-96960909D01*
X109067588Y-96960906D01*
X109067592Y-96960904D01*
X109217904Y-96810592D01*
X109217906Y-96810588D01*
X109217909Y-96810586D01*
X109338426Y-96644707D01*
X109342851Y-96638616D01*
X109439357Y-96449212D01*
X109505046Y-96247043D01*
X109538300Y-96037087D01*
X109538300Y-95824513D01*
X109505046Y-95614557D01*
X109439357Y-95412388D01*
X109342851Y-95222984D01*
X109342849Y-95222981D01*
X109342848Y-95222979D01*
X109217909Y-95051013D01*
X109103981Y-94937085D01*
X109070496Y-94875762D01*
X109075480Y-94806070D01*
X109117352Y-94750137D01*
X109148329Y-94733222D01*
X109279886Y-94684154D01*
X109279893Y-94684150D01*
X109394987Y-94597990D01*
X109394990Y-94597987D01*
X109481150Y-94482893D01*
X109481154Y-94482886D01*
X109531396Y-94348179D01*
X109531398Y-94348172D01*
X109537799Y-94288644D01*
X109537800Y-94288627D01*
X109537800Y-93640800D01*
X108620812Y-93640800D01*
X108653725Y-93583793D01*
X108687800Y-93456626D01*
X108687800Y-93324974D01*
X108653725Y-93197807D01*
X108620812Y-93140800D01*
X109537800Y-93140800D01*
X109537800Y-92492972D01*
X109537799Y-92492955D01*
X109531398Y-92433427D01*
X109531396Y-92433420D01*
X109481154Y-92298713D01*
X109481150Y-92298706D01*
X109394990Y-92183612D01*
X109394987Y-92183609D01*
X109279893Y-92097449D01*
X109279886Y-92097445D01*
X109145179Y-92047203D01*
X109145172Y-92047201D01*
X109085644Y-92040800D01*
X108437800Y-92040800D01*
X108437800Y-92957788D01*
X108380793Y-92924875D01*
X108253626Y-92890800D01*
X108121974Y-92890800D01*
X107994807Y-92924875D01*
X107937800Y-92957788D01*
X107937800Y-92040800D01*
X107289955Y-92040800D01*
X107230427Y-92047201D01*
X107230420Y-92047203D01*
X107095713Y-92097445D01*
X107095706Y-92097449D01*
X106980612Y-92183609D01*
X106980609Y-92183612D01*
X106894449Y-92298706D01*
X106894445Y-92298713D01*
X106844203Y-92433420D01*
X106844201Y-92433427D01*
X106837800Y-92492955D01*
X106837800Y-93140800D01*
X107754788Y-93140800D01*
X107721875Y-93197807D01*
X107687800Y-93324974D01*
X107687800Y-93456626D01*
X107721875Y-93583793D01*
X107754788Y-93640800D01*
X106837800Y-93640800D01*
X106837800Y-94288644D01*
X106844201Y-94348172D01*
X106844203Y-94348179D01*
X106894445Y-94482886D01*
X106894449Y-94482893D01*
X106980609Y-94597987D01*
X106980612Y-94597990D01*
X107095706Y-94684150D01*
X107095713Y-94684154D01*
X107227270Y-94733222D01*
X107283204Y-94775093D01*
X107307621Y-94840558D01*
X107292769Y-94908831D01*
X107271619Y-94937085D01*
X107157689Y-95051015D01*
X107032751Y-95222979D01*
X106936244Y-95412385D01*
X106936243Y-95412387D01*
X106936243Y-95412388D01*
X106922379Y-95455056D01*
X106870553Y-95614560D01*
X106853466Y-95722445D01*
X106837300Y-95824513D01*
X105426000Y-95824513D01*
X105426000Y-94822000D01*
X102924000Y-94822000D01*
X102924000Y-97324000D01*
X101926000Y-97324000D01*
X101926000Y-94822000D01*
X99424000Y-94822000D01*
X99424000Y-97324000D01*
X98426000Y-97324000D01*
X98426000Y-94822000D01*
X95924000Y-94822000D01*
X95924000Y-97324000D01*
X94926000Y-97324000D01*
X94926000Y-94822000D01*
X93339641Y-94822000D01*
X93336767Y-94822872D01*
X93330903Y-94824495D01*
X93295177Y-94833445D01*
X93289235Y-94834779D01*
X93086508Y-94875104D01*
X93080511Y-94876145D01*
X93044080Y-94881549D01*
X93038039Y-94882294D01*
X92989267Y-94887097D01*
X92983197Y-94887545D01*
X92946425Y-94889351D01*
X92940342Y-94889500D01*
X92733658Y-94889500D01*
X92727575Y-94889351D01*
X92690803Y-94887545D01*
X92684733Y-94887097D01*
X92635961Y-94882294D01*
X92629920Y-94881549D01*
X92593489Y-94876145D01*
X92587492Y-94875104D01*
X92424000Y-94842583D01*
X90108739Y-94842583D01*
X90108081Y-94840558D01*
X90092720Y-94793281D01*
X90092718Y-94793278D01*
X90092718Y-94793276D01*
X90039786Y-94689392D01*
X89999787Y-94610890D01*
X89990415Y-94597990D01*
X89879471Y-94445286D01*
X89734713Y-94300528D01*
X89569113Y-94180215D01*
X89569112Y-94180214D01*
X89569110Y-94180213D01*
X89512153Y-94151191D01*
X89386723Y-94087281D01*
X89192034Y-94024022D01*
X89017495Y-93996378D01*
X88989852Y-93992000D01*
X88804334Y-93992000D01*
X88737295Y-93972315D01*
X88691540Y-93919511D01*
X88682717Y-93892191D01*
X88653738Y-93746510D01*
X88653737Y-93746503D01*
X88625404Y-93678101D01*
X88593397Y-93600827D01*
X88593390Y-93600814D01*
X88505789Y-93469711D01*
X88505786Y-93469707D01*
X88394292Y-93358213D01*
X88394288Y-93358210D01*
X88263185Y-93270609D01*
X88263172Y-93270602D01*
X88117501Y-93210264D01*
X88117489Y-93210261D01*
X87962845Y-93179500D01*
X87962842Y-93179500D01*
X87805158Y-93179500D01*
X87805155Y-93179500D01*
X87650510Y-93210261D01*
X87650498Y-93210264D01*
X87504827Y-93270602D01*
X87504814Y-93270609D01*
X87373125Y-93358602D01*
X87306447Y-93379480D01*
X87304234Y-93379500D01*
X84018766Y-93379500D01*
X83951727Y-93359815D01*
X83949875Y-93358602D01*
X83818185Y-93270609D01*
X83818172Y-93270602D01*
X83672501Y-93210264D01*
X83672489Y-93210261D01*
X83517845Y-93179500D01*
X83517842Y-93179500D01*
X83360158Y-93179500D01*
X83360155Y-93179500D01*
X83205510Y-93210261D01*
X83205498Y-93210264D01*
X83059827Y-93270602D01*
X83059814Y-93270609D01*
X82928711Y-93358210D01*
X82928707Y-93358213D01*
X82817213Y-93469707D01*
X82817210Y-93469711D01*
X82729609Y-93600814D01*
X82729602Y-93600827D01*
X82669264Y-93746498D01*
X82669261Y-93746510D01*
X82638500Y-93901153D01*
X74676000Y-93901153D01*
X74676000Y-93824000D01*
X75800000Y-93824000D01*
X77426000Y-93824000D01*
X77426000Y-93741778D01*
X77410436Y-93737058D01*
X77403096Y-93734579D01*
X77205739Y-93660970D01*
X77197559Y-93657581D01*
X77148823Y-93635323D01*
X77140909Y-93631362D01*
X77078319Y-93597185D01*
X77070705Y-93592667D01*
X77025638Y-93563703D01*
X77018368Y-93558655D01*
X76846184Y-93429757D01*
X76839293Y-93424204D01*
X76798808Y-93389124D01*
X76792329Y-93383092D01*
X76741908Y-93332671D01*
X76735876Y-93326192D01*
X76700796Y-93285707D01*
X76695243Y-93278816D01*
X76566345Y-93106632D01*
X76561297Y-93099362D01*
X76532333Y-93054295D01*
X76527815Y-93046681D01*
X76507862Y-93010141D01*
X81924000Y-93010141D01*
X82001017Y-92894878D01*
X82004522Y-92889902D01*
X82026455Y-92860329D01*
X82030199Y-92855531D01*
X82061288Y-92817649D01*
X82065262Y-92813042D01*
X82089993Y-92785755D01*
X82094191Y-92781346D01*
X82240346Y-92635191D01*
X82244755Y-92630993D01*
X82272042Y-92606262D01*
X82276649Y-92602288D01*
X82314531Y-92571199D01*
X82319329Y-92567455D01*
X82348902Y-92545522D01*
X82353878Y-92542017D01*
X82399000Y-92511867D01*
X88924000Y-92511867D01*
X88969122Y-92542017D01*
X88974098Y-92545522D01*
X89003671Y-92567455D01*
X89008469Y-92571199D01*
X89046351Y-92602288D01*
X89050958Y-92606262D01*
X89078245Y-92630993D01*
X89082654Y-92635191D01*
X89228809Y-92781346D01*
X89233007Y-92785755D01*
X89257738Y-92813042D01*
X89261712Y-92817649D01*
X89292801Y-92855531D01*
X89296545Y-92860329D01*
X89318478Y-92889902D01*
X89321983Y-92894878D01*
X89428614Y-93054462D01*
X89444022Y-93058160D01*
X89448741Y-93059391D01*
X89477120Y-93067394D01*
X89481783Y-93068808D01*
X89713750Y-93144180D01*
X89718344Y-93145773D01*
X89745953Y-93155957D01*
X89750484Y-93157730D01*
X89786700Y-93172728D01*
X89791167Y-93174682D01*
X89817943Y-93187025D01*
X89822327Y-93189151D01*
X90039655Y-93299886D01*
X90043948Y-93302181D01*
X90069644Y-93316571D01*
X90073844Y-93319033D01*
X90107267Y-93339514D01*
X90111369Y-93342139D01*
X90135863Y-93358505D01*
X90139858Y-93361290D01*
X90337196Y-93504663D01*
X90341084Y-93507606D01*
X90364243Y-93525865D01*
X90368008Y-93528955D01*
X90397815Y-93554416D01*
X90401454Y-93557650D01*
X90423059Y-93577624D01*
X90426563Y-93580994D01*
X90599006Y-93753437D01*
X90602376Y-93756941D01*
X90622350Y-93778546D01*
X90625584Y-93782185D01*
X90651045Y-93811992D01*
X90654135Y-93815757D01*
X90660634Y-93824000D01*
X91193936Y-93824000D01*
X91135855Y-93683778D01*
X91133665Y-93678101D01*
X91121263Y-93643440D01*
X91119354Y-93637662D01*
X91105128Y-93590767D01*
X91103505Y-93584903D01*
X91094555Y-93549177D01*
X91093221Y-93543235D01*
X91052896Y-93340508D01*
X91051855Y-93334511D01*
X91046451Y-93298080D01*
X91045706Y-93292039D01*
X91040903Y-93243267D01*
X91040455Y-93237197D01*
X91038649Y-93200425D01*
X91038500Y-93194342D01*
X91038500Y-93012153D01*
X92036500Y-93012153D01*
X92036500Y-93169846D01*
X92067261Y-93324489D01*
X92067264Y-93324501D01*
X92127602Y-93470172D01*
X92127609Y-93470185D01*
X92215210Y-93601288D01*
X92215213Y-93601292D01*
X92326707Y-93712786D01*
X92326711Y-93712789D01*
X92457814Y-93800390D01*
X92457827Y-93800397D01*
X92514811Y-93824000D01*
X92603503Y-93860737D01*
X92754639Y-93890800D01*
X92758153Y-93891499D01*
X92758156Y-93891500D01*
X92758158Y-93891500D01*
X92915844Y-93891500D01*
X92915845Y-93891499D01*
X93070497Y-93860737D01*
X93159189Y-93824000D01*
X95924000Y-93824000D01*
X98426000Y-93824000D01*
X99424000Y-93824000D01*
X101926000Y-93824000D01*
X102924000Y-93824000D01*
X105426000Y-93824000D01*
X105426000Y-91322000D01*
X102924000Y-91322000D01*
X102924000Y-93824000D01*
X101926000Y-93824000D01*
X101926000Y-91322000D01*
X99424000Y-91322000D01*
X99424000Y-93824000D01*
X98426000Y-93824000D01*
X98426000Y-91322000D01*
X95924000Y-91322000D01*
X95924000Y-93824000D01*
X93159189Y-93824000D01*
X93216179Y-93800394D01*
X93347289Y-93712789D01*
X93458789Y-93601289D01*
X93546394Y-93470179D01*
X93606737Y-93324497D01*
X93637500Y-93169842D01*
X93637500Y-93012158D01*
X93637500Y-93012155D01*
X93637499Y-93012153D01*
X93622895Y-92938733D01*
X93606737Y-92857503D01*
X93578195Y-92788596D01*
X93546397Y-92711827D01*
X93546390Y-92711814D01*
X93458398Y-92580125D01*
X93437520Y-92513447D01*
X93437500Y-92511234D01*
X93437500Y-90324000D01*
X95924000Y-90324000D01*
X98426000Y-90324000D01*
X99424000Y-90324000D01*
X101926000Y-90324000D01*
X102924000Y-90324000D01*
X105426000Y-90324000D01*
X106424000Y-90324000D01*
X108926000Y-90324000D01*
X109924000Y-90324000D01*
X110890000Y-90324000D01*
X110890000Y-88066824D01*
X110760846Y-88087281D01*
X110756016Y-88087949D01*
X110726744Y-88091412D01*
X110721900Y-88091889D01*
X110682820Y-88094963D01*
X110677961Y-88095250D01*
X110648547Y-88096405D01*
X110643682Y-88096500D01*
X110368318Y-88096500D01*
X110363453Y-88096405D01*
X110334039Y-88095250D01*
X110329180Y-88094963D01*
X110290100Y-88091889D01*
X110285256Y-88091412D01*
X110255984Y-88087949D01*
X110251154Y-88087281D01*
X109979164Y-88044201D01*
X109974375Y-88043346D01*
X109945513Y-88037606D01*
X109940763Y-88036564D01*
X109924000Y-88032541D01*
X109924000Y-90324000D01*
X108926000Y-90324000D01*
X108926000Y-87822000D01*
X106424000Y-87822000D01*
X106424000Y-90324000D01*
X105426000Y-90324000D01*
X105426000Y-87822000D01*
X102924000Y-87822000D01*
X102924000Y-90324000D01*
X101926000Y-90324000D01*
X101926000Y-87822000D01*
X99424000Y-87822000D01*
X99424000Y-90324000D01*
X98426000Y-90324000D01*
X98426000Y-87822000D01*
X95924000Y-87822000D01*
X95924000Y-90324000D01*
X93437500Y-90324000D01*
X93437500Y-89824508D01*
X93457185Y-89757469D01*
X93492606Y-89721408D01*
X93601289Y-89648789D01*
X93712789Y-89537289D01*
X93800394Y-89406179D01*
X93860737Y-89260497D01*
X93891500Y-89105842D01*
X93891500Y-88948158D01*
X93891500Y-88948155D01*
X93891499Y-88948153D01*
X93888017Y-88930646D01*
X93860737Y-88793503D01*
X93854105Y-88777492D01*
X93800397Y-88647827D01*
X93800390Y-88647814D01*
X93712789Y-88516711D01*
X93712786Y-88516707D01*
X93601292Y-88405213D01*
X93601288Y-88405210D01*
X93470185Y-88317609D01*
X93470172Y-88317602D01*
X93324501Y-88257264D01*
X93324489Y-88257261D01*
X93169845Y-88226500D01*
X93169842Y-88226500D01*
X93012158Y-88226500D01*
X93012155Y-88226500D01*
X92857510Y-88257261D01*
X92857498Y-88257264D01*
X92711827Y-88317602D01*
X92711814Y-88317609D01*
X92580711Y-88405210D01*
X92580707Y-88405213D01*
X92469213Y-88516707D01*
X92469210Y-88516711D01*
X92381609Y-88647814D01*
X92381602Y-88647827D01*
X92321264Y-88793498D01*
X92321261Y-88793510D01*
X92290500Y-88948153D01*
X92290500Y-88993338D01*
X92277845Y-89040587D01*
X92280535Y-89041701D01*
X92277424Y-89049210D01*
X92277423Y-89049215D01*
X92236499Y-89201943D01*
X92236499Y-89201945D01*
X92236499Y-89370046D01*
X92236500Y-89370059D01*
X92236500Y-92511234D01*
X92216815Y-92578273D01*
X92215602Y-92580125D01*
X92127609Y-92711814D01*
X92127602Y-92711827D01*
X92067264Y-92857498D01*
X92067261Y-92857510D01*
X92036500Y-93012153D01*
X91038500Y-93012153D01*
X91038500Y-92987658D01*
X91038649Y-92981575D01*
X91040455Y-92944803D01*
X91040903Y-92938733D01*
X91045706Y-92889961D01*
X91046451Y-92883920D01*
X91051855Y-92847489D01*
X91052896Y-92841492D01*
X91093221Y-92638765D01*
X91094555Y-92632823D01*
X91103505Y-92597097D01*
X91105128Y-92591233D01*
X91119354Y-92544338D01*
X91121263Y-92538560D01*
X91133665Y-92503899D01*
X91135855Y-92498222D01*
X91214948Y-92307272D01*
X91217414Y-92301708D01*
X91233155Y-92268426D01*
X91235890Y-92262992D01*
X91238500Y-92258108D01*
X91238500Y-91322000D01*
X88924000Y-91322000D01*
X88924000Y-92511867D01*
X82399000Y-92511867D01*
X82525737Y-92427184D01*
X82530882Y-92423926D01*
X82562475Y-92404991D01*
X82567770Y-92401992D01*
X82610991Y-92378891D01*
X82616426Y-92376155D01*
X82649708Y-92360414D01*
X82655272Y-92357948D01*
X82846222Y-92278855D01*
X82851899Y-92276665D01*
X82886560Y-92264263D01*
X82892338Y-92262354D01*
X82939233Y-92248128D01*
X82945097Y-92246505D01*
X82980823Y-92237555D01*
X82986765Y-92236221D01*
X83189492Y-92195896D01*
X83195489Y-92194855D01*
X83231920Y-92189451D01*
X83237961Y-92188706D01*
X83286733Y-92183903D01*
X83292803Y-92183455D01*
X83329575Y-92181649D01*
X83335658Y-92181500D01*
X83542342Y-92181500D01*
X83548425Y-92181649D01*
X83585197Y-92183455D01*
X83591267Y-92183903D01*
X83640039Y-92188706D01*
X83646080Y-92189451D01*
X83682511Y-92194855D01*
X83688508Y-92195896D01*
X83891235Y-92236221D01*
X83897177Y-92237555D01*
X83932903Y-92246505D01*
X83938767Y-92248128D01*
X83985662Y-92262354D01*
X83991440Y-92264263D01*
X84026101Y-92276665D01*
X84031778Y-92278855D01*
X84222728Y-92357948D01*
X84228292Y-92360414D01*
X84261574Y-92376155D01*
X84267009Y-92378891D01*
X84271890Y-92381500D01*
X84426000Y-92381500D01*
X85424000Y-92381500D01*
X87051110Y-92381500D01*
X87055991Y-92378891D01*
X87061426Y-92376155D01*
X87094708Y-92360414D01*
X87100272Y-92357948D01*
X87291222Y-92278855D01*
X87296899Y-92276665D01*
X87331560Y-92264263D01*
X87337338Y-92262354D01*
X87384233Y-92248128D01*
X87390097Y-92246505D01*
X87425823Y-92237555D01*
X87431765Y-92236221D01*
X87634492Y-92195896D01*
X87640489Y-92194855D01*
X87676920Y-92189451D01*
X87682961Y-92188706D01*
X87731733Y-92183903D01*
X87737803Y-92183455D01*
X87774575Y-92181649D01*
X87780658Y-92181500D01*
X87926000Y-92181500D01*
X87926000Y-91322000D01*
X85424000Y-91322000D01*
X85424000Y-92381500D01*
X84426000Y-92381500D01*
X84426000Y-91322000D01*
X81924000Y-91322000D01*
X81924000Y-93010141D01*
X76507862Y-93010141D01*
X76493638Y-92984091D01*
X76489677Y-92976177D01*
X76467419Y-92927441D01*
X76464030Y-92919261D01*
X76390421Y-92721904D01*
X76387942Y-92714564D01*
X76374332Y-92669695D01*
X76372315Y-92662212D01*
X76357972Y-92601501D01*
X76356428Y-92593916D01*
X76348522Y-92547738D01*
X76347455Y-92540069D01*
X76336289Y-92436217D01*
X76335977Y-92432905D01*
X76334364Y-92412856D01*
X76334142Y-92409542D01*
X76332713Y-92382855D01*
X76332580Y-92379539D01*
X76332044Y-92359491D01*
X76332000Y-92356177D01*
X76332000Y-91494454D01*
X76341439Y-91447002D01*
X76342268Y-91445000D01*
X76341439Y-91442998D01*
X76332000Y-91395546D01*
X76332000Y-91322000D01*
X75800000Y-91322000D01*
X75800000Y-93824000D01*
X74676000Y-93824000D01*
X74676000Y-88798713D01*
X77329500Y-88798713D01*
X77329500Y-89011287D01*
X77335507Y-89049215D01*
X77353235Y-89161146D01*
X77362754Y-89221243D01*
X77422841Y-89406172D01*
X77428444Y-89423414D01*
X77524951Y-89612820D01*
X77649890Y-89784786D01*
X77763818Y-89898714D01*
X77797303Y-89960037D01*
X77792319Y-90029729D01*
X77750447Y-90085662D01*
X77719471Y-90102577D01*
X77587912Y-90151646D01*
X77587906Y-90151649D01*
X77472812Y-90237809D01*
X77472809Y-90237812D01*
X77386649Y-90352906D01*
X77386645Y-90352913D01*
X77336403Y-90487620D01*
X77336401Y-90487627D01*
X77330000Y-90547155D01*
X77330000Y-91195000D01*
X78246988Y-91195000D01*
X78214075Y-91252007D01*
X78180000Y-91379174D01*
X78180000Y-91510826D01*
X78214075Y-91637993D01*
X78246988Y-91695000D01*
X77330000Y-91695000D01*
X77330000Y-92342844D01*
X77336401Y-92402372D01*
X77336403Y-92402379D01*
X77386645Y-92537086D01*
X77386649Y-92537093D01*
X77472809Y-92652187D01*
X77472812Y-92652190D01*
X77587906Y-92738350D01*
X77587913Y-92738354D01*
X77722620Y-92788596D01*
X77722627Y-92788598D01*
X77782155Y-92794999D01*
X77782172Y-92795000D01*
X78430000Y-92795000D01*
X78430000Y-91878012D01*
X78487007Y-91910925D01*
X78614174Y-91945000D01*
X78745826Y-91945000D01*
X78872993Y-91910925D01*
X78930000Y-91878012D01*
X78930000Y-92795000D01*
X79577828Y-92795000D01*
X79577844Y-92794999D01*
X79637372Y-92788598D01*
X79637379Y-92788596D01*
X79772086Y-92738354D01*
X79772093Y-92738350D01*
X79887187Y-92652190D01*
X79887190Y-92652187D01*
X79973350Y-92537093D01*
X79973354Y-92537086D01*
X80023596Y-92402379D01*
X80023598Y-92402372D01*
X80029999Y-92342844D01*
X80030000Y-92342827D01*
X80030000Y-91695000D01*
X79113012Y-91695000D01*
X79145925Y-91637993D01*
X79180000Y-91510826D01*
X79180000Y-91379174D01*
X79145925Y-91252007D01*
X79113012Y-91195000D01*
X80030000Y-91195000D01*
X80030000Y-90547172D01*
X80029999Y-90547155D01*
X80023598Y-90487627D01*
X80023596Y-90487620D01*
X79973354Y-90352913D01*
X79973350Y-90352906D01*
X79951711Y-90324000D01*
X81924000Y-90324000D01*
X84426000Y-90324000D01*
X85424000Y-90324000D01*
X87926000Y-90324000D01*
X87926000Y-89970999D01*
X88924000Y-89970999D01*
X88924000Y-90324000D01*
X91238500Y-90324000D01*
X91238500Y-89401060D01*
X91238499Y-89401036D01*
X91238499Y-89169258D01*
X91238765Y-89161146D01*
X91241978Y-89112136D01*
X91242773Y-89104059D01*
X91251306Y-89039259D01*
X91252628Y-89031255D01*
X91262207Y-88983102D01*
X91264049Y-88975201D01*
X91297188Y-88851522D01*
X91299706Y-88825961D01*
X91300451Y-88819920D01*
X91305855Y-88783489D01*
X91306896Y-88777492D01*
X91347221Y-88574765D01*
X91348555Y-88568823D01*
X91357505Y-88533097D01*
X91359128Y-88527233D01*
X91373354Y-88480338D01*
X91375263Y-88474560D01*
X91387665Y-88439899D01*
X91389855Y-88434222D01*
X91426000Y-88346958D01*
X91426000Y-87822000D01*
X91186000Y-87822000D01*
X91186000Y-88285204D01*
X91185960Y-88288357D01*
X91185475Y-88307427D01*
X91185355Y-88310580D01*
X91184063Y-88335951D01*
X91183862Y-88339102D01*
X91182405Y-88358151D01*
X91182124Y-88361296D01*
X91167564Y-88503819D01*
X91166693Y-88510528D01*
X91160319Y-88550957D01*
X91159084Y-88557608D01*
X91147682Y-88610859D01*
X91146087Y-88617426D01*
X91135356Y-88656900D01*
X91133405Y-88663375D01*
X91060523Y-88883318D01*
X91058056Y-88890096D01*
X91041946Y-88930647D01*
X91039091Y-88937266D01*
X91014544Y-88989912D01*
X91011306Y-88996360D01*
X90990588Y-89034785D01*
X90986981Y-89041032D01*
X90864379Y-89239803D01*
X90860413Y-89245833D01*
X90835372Y-89281593D01*
X90831066Y-89287377D01*
X90795036Y-89332944D01*
X90790398Y-89338471D01*
X90761387Y-89371069D01*
X90756439Y-89376313D01*
X90591313Y-89541439D01*
X90586069Y-89546387D01*
X90553471Y-89575398D01*
X90547944Y-89580036D01*
X90502377Y-89616066D01*
X90496593Y-89620372D01*
X90460833Y-89645413D01*
X90454803Y-89649379D01*
X90256032Y-89771981D01*
X90249785Y-89775588D01*
X90211360Y-89796306D01*
X90204913Y-89799544D01*
X90152268Y-89824091D01*
X90145646Y-89826947D01*
X90105096Y-89843056D01*
X90098320Y-89845522D01*
X89878363Y-89918409D01*
X89871886Y-89920361D01*
X89832384Y-89931099D01*
X89825809Y-89932695D01*
X89772555Y-89944093D01*
X89765911Y-89945327D01*
X89725506Y-89951696D01*
X89718799Y-89952566D01*
X89576287Y-89967124D01*
X89573139Y-89967405D01*
X89554095Y-89968861D01*
X89550949Y-89969062D01*
X89525580Y-89970354D01*
X89522426Y-89970474D01*
X89503356Y-89970959D01*
X89500203Y-89970999D01*
X88924000Y-89970999D01*
X87926000Y-89970999D01*
X87926000Y-89926581D01*
X87903100Y-89920356D01*
X87896625Y-89918405D01*
X87676682Y-89845523D01*
X87669904Y-89843056D01*
X87629353Y-89826946D01*
X87622734Y-89824091D01*
X87570088Y-89799544D01*
X87563640Y-89796306D01*
X87525215Y-89775588D01*
X87518968Y-89771981D01*
X87320197Y-89649379D01*
X87314167Y-89645413D01*
X87278407Y-89620372D01*
X87272623Y-89616066D01*
X87227056Y-89580036D01*
X87221529Y-89575398D01*
X87188931Y-89546387D01*
X87183687Y-89541439D01*
X87018561Y-89376313D01*
X87013613Y-89371069D01*
X86984602Y-89338471D01*
X86979964Y-89332944D01*
X86943934Y-89287377D01*
X86939628Y-89281593D01*
X86914587Y-89245833D01*
X86910621Y-89239803D01*
X86788019Y-89041032D01*
X86784412Y-89034785D01*
X86763694Y-88996360D01*
X86760456Y-88989913D01*
X86735909Y-88937268D01*
X86733053Y-88930646D01*
X86716944Y-88890096D01*
X86714478Y-88883320D01*
X86641591Y-88663363D01*
X86639639Y-88656886D01*
X86628901Y-88617384D01*
X86627305Y-88610809D01*
X86615907Y-88557555D01*
X86614673Y-88550911D01*
X86608304Y-88510506D01*
X86607434Y-88503799D01*
X86592876Y-88361287D01*
X86592595Y-88358139D01*
X86591139Y-88339095D01*
X86590938Y-88335949D01*
X86589646Y-88310580D01*
X86589526Y-88307426D01*
X86589041Y-88288356D01*
X86589001Y-88285203D01*
X86589001Y-87822000D01*
X85424000Y-87822000D01*
X85424000Y-90324000D01*
X84426000Y-90324000D01*
X84426000Y-87822000D01*
X81924000Y-87822000D01*
X81924000Y-90324000D01*
X79951711Y-90324000D01*
X79887190Y-90237812D01*
X79887187Y-90237809D01*
X79772093Y-90151649D01*
X79772088Y-90151646D01*
X79640528Y-90102577D01*
X79584595Y-90060705D01*
X79560178Y-89995241D01*
X79575030Y-89926968D01*
X79596175Y-89898720D01*
X79710104Y-89784792D01*
X79835051Y-89612816D01*
X79931557Y-89423412D01*
X79997246Y-89221243D01*
X80030500Y-89011287D01*
X80030500Y-88798713D01*
X79997246Y-88588757D01*
X79931557Y-88386588D01*
X79835051Y-88197184D01*
X79835049Y-88197181D01*
X79835048Y-88197179D01*
X79710109Y-88025213D01*
X79559786Y-87874890D01*
X79387820Y-87749951D01*
X79198414Y-87653444D01*
X79198413Y-87653443D01*
X79198412Y-87653443D01*
X78996243Y-87587754D01*
X78996241Y-87587753D01*
X78996240Y-87587753D01*
X78834957Y-87562208D01*
X78786287Y-87554500D01*
X78573713Y-87554500D01*
X78525042Y-87562208D01*
X78363760Y-87587753D01*
X78161585Y-87653444D01*
X77972179Y-87749951D01*
X77800213Y-87874890D01*
X77649890Y-88025213D01*
X77524951Y-88197179D01*
X77428444Y-88386585D01*
X77362753Y-88588760D01*
X77346535Y-88691156D01*
X77329500Y-88798713D01*
X74676000Y-88798713D01*
X74676000Y-86428614D01*
X74695685Y-86361575D01*
X74748489Y-86315820D01*
X74817647Y-86305876D01*
X74881203Y-86334901D01*
X74910485Y-86372320D01*
X74916655Y-86384431D01*
X74933586Y-86407734D01*
X75055483Y-86575510D01*
X75222490Y-86742517D01*
X75413567Y-86881343D01*
X75512991Y-86932002D01*
X75624003Y-86988566D01*
X75624005Y-86988566D01*
X75624008Y-86988568D01*
X75744412Y-87027689D01*
X75848631Y-87061553D01*
X76081903Y-87098500D01*
X76081908Y-87098500D01*
X76318097Y-87098500D01*
X76482360Y-87072483D01*
X87587000Y-87072483D01*
X87587000Y-88272501D01*
X87587001Y-88272518D01*
X87597500Y-88375296D01*
X87597501Y-88375299D01*
X87632308Y-88480338D01*
X87652686Y-88541834D01*
X87744788Y-88691156D01*
X87868844Y-88815212D01*
X88018166Y-88907314D01*
X88184703Y-88962499D01*
X88287491Y-88973000D01*
X89487508Y-88972999D01*
X89590297Y-88962499D01*
X89756834Y-88907314D01*
X89906156Y-88815212D01*
X90030212Y-88691156D01*
X90122314Y-88541834D01*
X90177499Y-88375297D01*
X90188000Y-88272509D01*
X90187999Y-87072492D01*
X90177499Y-86969703D01*
X90122314Y-86803166D01*
X90030212Y-86653844D01*
X89906156Y-86529788D01*
X89756834Y-86437686D01*
X89590297Y-86382501D01*
X89590295Y-86382500D01*
X89487510Y-86372000D01*
X88287498Y-86372000D01*
X88287481Y-86372001D01*
X88184703Y-86382500D01*
X88184700Y-86382501D01*
X88018168Y-86437685D01*
X88018163Y-86437687D01*
X87868842Y-86529789D01*
X87744789Y-86653842D01*
X87652687Y-86803163D01*
X87652686Y-86803166D01*
X87597501Y-86969703D01*
X87597501Y-86969704D01*
X87597500Y-86969704D01*
X87587000Y-87072483D01*
X76482360Y-87072483D01*
X76551368Y-87061553D01*
X76775992Y-86988568D01*
X76986433Y-86881343D01*
X77177510Y-86742517D01*
X77344517Y-86575510D01*
X77357020Y-86558301D01*
X78511610Y-86558301D01*
X78514914Y-86558041D01*
X78519779Y-86557754D01*
X78549231Y-86556596D01*
X78554103Y-86556500D01*
X78805897Y-86556500D01*
X78810769Y-86556596D01*
X78840221Y-86557754D01*
X78845086Y-86558041D01*
X78884165Y-86561119D01*
X78889003Y-86561596D01*
X78918236Y-86565056D01*
X78923059Y-86565723D01*
X79171728Y-86605108D01*
X79176523Y-86605964D01*
X79205423Y-86611713D01*
X79210183Y-86612758D01*
X79248300Y-86621911D01*
X79253005Y-86623138D01*
X79281347Y-86631131D01*
X79286007Y-86632545D01*
X79525440Y-86710342D01*
X79530037Y-86711936D01*
X79557647Y-86722121D01*
X79562175Y-86723893D01*
X79598392Y-86738891D01*
X79602861Y-86740846D01*
X79629636Y-86753189D01*
X79634019Y-86755314D01*
X79768822Y-86824000D01*
X80926000Y-86824000D01*
X81924000Y-86824000D01*
X83670251Y-86824000D01*
X86001749Y-86824000D01*
X86609958Y-86824000D01*
X86614681Y-86794043D01*
X86615916Y-86787392D01*
X86627318Y-86734141D01*
X86628913Y-86727574D01*
X86639644Y-86688100D01*
X86641595Y-86681625D01*
X86714477Y-86461682D01*
X86716944Y-86454904D01*
X86733054Y-86414353D01*
X86735909Y-86407734D01*
X86760456Y-86355088D01*
X86763694Y-86348640D01*
X86784412Y-86310215D01*
X86788019Y-86303968D01*
X86910621Y-86105197D01*
X86914587Y-86099167D01*
X86939628Y-86063407D01*
X86943934Y-86057623D01*
X86979964Y-86012056D01*
X86984602Y-86006529D01*
X87013613Y-85973931D01*
X87018561Y-85968687D01*
X87183687Y-85803561D01*
X87188931Y-85798613D01*
X87221529Y-85769602D01*
X87227056Y-85764964D01*
X87272623Y-85728934D01*
X87278407Y-85724628D01*
X87314167Y-85699587D01*
X87320197Y-85695621D01*
X87518968Y-85573019D01*
X87525215Y-85569412D01*
X87563640Y-85548694D01*
X87570087Y-85545456D01*
X87622732Y-85520909D01*
X87629354Y-85518053D01*
X87669904Y-85501944D01*
X87676680Y-85499478D01*
X87896637Y-85426591D01*
X87903114Y-85424639D01*
X87926000Y-85418417D01*
X87926000Y-85374000D01*
X88924000Y-85374000D01*
X89500204Y-85374000D01*
X89503357Y-85374040D01*
X89522427Y-85374525D01*
X89525580Y-85374645D01*
X89550951Y-85375937D01*
X89554102Y-85376138D01*
X89573151Y-85377595D01*
X89576296Y-85377876D01*
X89718819Y-85392436D01*
X89725528Y-85393307D01*
X89765957Y-85399681D01*
X89772608Y-85400916D01*
X89825859Y-85412318D01*
X89832426Y-85413913D01*
X89871900Y-85424644D01*
X89878375Y-85426595D01*
X90098318Y-85499477D01*
X90105096Y-85501944D01*
X90145647Y-85518054D01*
X90152266Y-85520909D01*
X90204912Y-85545456D01*
X90211360Y-85548694D01*
X90249785Y-85569412D01*
X90256032Y-85573019D01*
X90454803Y-85695621D01*
X90460833Y-85699587D01*
X90496593Y-85724628D01*
X90502377Y-85728934D01*
X90547944Y-85764964D01*
X90553471Y-85769602D01*
X90586069Y-85798613D01*
X90591313Y-85803561D01*
X90756439Y-85968687D01*
X90761387Y-85973931D01*
X90790398Y-86006529D01*
X90795036Y-86012056D01*
X90831066Y-86057623D01*
X90835372Y-86063407D01*
X90860413Y-86099167D01*
X90864379Y-86105197D01*
X90986981Y-86303968D01*
X90990588Y-86310215D01*
X91011306Y-86348640D01*
X91014544Y-86355087D01*
X91039091Y-86407732D01*
X91041947Y-86414354D01*
X91058056Y-86454904D01*
X91060522Y-86461680D01*
X91133409Y-86681637D01*
X91135361Y-86688114D01*
X91146099Y-86727616D01*
X91147695Y-86734191D01*
X91159093Y-86787445D01*
X91160327Y-86794089D01*
X91165042Y-86824000D01*
X91426000Y-86824000D01*
X92424000Y-86824000D01*
X94926000Y-86824000D01*
X95924000Y-86824000D01*
X98426000Y-86824000D01*
X99424000Y-86824000D01*
X101926000Y-86824000D01*
X102924000Y-86824000D01*
X105426000Y-86824000D01*
X106424000Y-86824000D01*
X108326546Y-86824000D01*
X108217303Y-86609600D01*
X108215177Y-86605216D01*
X108202834Y-86578440D01*
X108200880Y-86573973D01*
X108185882Y-86537757D01*
X108184109Y-86533226D01*
X108173925Y-86505617D01*
X108172332Y-86501023D01*
X108087232Y-86239117D01*
X108085818Y-86234454D01*
X108077815Y-86206075D01*
X108076584Y-86201356D01*
X108067436Y-86163237D01*
X108066394Y-86158487D01*
X108060654Y-86129625D01*
X108059799Y-86124836D01*
X108016719Y-85852846D01*
X108016051Y-85848016D01*
X108012588Y-85818744D01*
X108012111Y-85813900D01*
X108009037Y-85774820D01*
X108008750Y-85769961D01*
X108007595Y-85740547D01*
X108007500Y-85735682D01*
X108007500Y-85460318D01*
X108007595Y-85455453D01*
X108008750Y-85426039D01*
X108009037Y-85421180D01*
X108012111Y-85382100D01*
X108012588Y-85377256D01*
X108016051Y-85347984D01*
X108016719Y-85343154D01*
X108039710Y-85198000D01*
X106424000Y-85198000D01*
X106424000Y-86824000D01*
X105426000Y-86824000D01*
X105426000Y-85198000D01*
X102924000Y-85198000D01*
X102924000Y-86824000D01*
X101926000Y-86824000D01*
X101926000Y-85198000D01*
X99424000Y-85198000D01*
X99424000Y-86824000D01*
X98426000Y-86824000D01*
X98426000Y-85198000D01*
X95924000Y-85198000D01*
X95924000Y-86824000D01*
X94926000Y-86824000D01*
X94926000Y-85198000D01*
X92424000Y-85198000D01*
X92424000Y-86824000D01*
X91426000Y-86824000D01*
X91426000Y-85198000D01*
X88924000Y-85198000D01*
X88924000Y-85374000D01*
X87926000Y-85374000D01*
X87926000Y-85198000D01*
X86048247Y-85198000D01*
X86061682Y-85216491D01*
X86071849Y-85233081D01*
X86165875Y-85417617D01*
X86173321Y-85435594D01*
X86237321Y-85632567D01*
X86241863Y-85651487D01*
X86274262Y-85856047D01*
X86275789Y-85875445D01*
X86275789Y-86082555D01*
X86274262Y-86101953D01*
X86241863Y-86306513D01*
X86237321Y-86325433D01*
X86173321Y-86522406D01*
X86165875Y-86540383D01*
X86071849Y-86724919D01*
X86061682Y-86741509D01*
X86001749Y-86824000D01*
X83670251Y-86824000D01*
X83610318Y-86741509D01*
X83600151Y-86724919D01*
X83506125Y-86540383D01*
X83498679Y-86522406D01*
X83434679Y-86325433D01*
X83430137Y-86306513D01*
X83397738Y-86101953D01*
X83396211Y-86082555D01*
X83396211Y-85875445D01*
X83397738Y-85856047D01*
X83430137Y-85651487D01*
X83434679Y-85632567D01*
X83498679Y-85435594D01*
X83506125Y-85417617D01*
X83600151Y-85233081D01*
X83610318Y-85216491D01*
X83623753Y-85198000D01*
X81924000Y-85198000D01*
X81924000Y-86824000D01*
X80926000Y-86824000D01*
X80926000Y-85198000D01*
X78666290Y-85198000D01*
X78689281Y-85343154D01*
X78689949Y-85347984D01*
X78693412Y-85377256D01*
X78693889Y-85382100D01*
X78696963Y-85421180D01*
X78697250Y-85426039D01*
X78698405Y-85455453D01*
X78698500Y-85460318D01*
X78698500Y-85735682D01*
X78698405Y-85740547D01*
X78697250Y-85769961D01*
X78696963Y-85774820D01*
X78693889Y-85813900D01*
X78693412Y-85818744D01*
X78689949Y-85848016D01*
X78689281Y-85852846D01*
X78646201Y-86124836D01*
X78645346Y-86129625D01*
X78639606Y-86158487D01*
X78638564Y-86163237D01*
X78629416Y-86201356D01*
X78628185Y-86206075D01*
X78620182Y-86234454D01*
X78618768Y-86239117D01*
X78533668Y-86501023D01*
X78532075Y-86505617D01*
X78521891Y-86533226D01*
X78520118Y-86537757D01*
X78511610Y-86558301D01*
X77357020Y-86558301D01*
X77483343Y-86384433D01*
X77590568Y-86173992D01*
X77663553Y-85949368D01*
X77700500Y-85716097D01*
X77700500Y-85479902D01*
X77663553Y-85246631D01*
X77590566Y-85022003D01*
X77534002Y-84910991D01*
X77483343Y-84811567D01*
X77344517Y-84620490D01*
X77177510Y-84453483D01*
X76986433Y-84314657D01*
X76986432Y-84314656D01*
X76986430Y-84314655D01*
X76974319Y-84308484D01*
X76923523Y-84260509D01*
X76906729Y-84192688D01*
X76929267Y-84126553D01*
X76983983Y-84083102D01*
X77030615Y-84074000D01*
X109675385Y-84074000D01*
X109742424Y-84093685D01*
G37*
%TD.AperFunction*%
%TD*%
M02*
