%TF.GenerationSoftware,KiCad,Pcbnew,9.0.2*%
%TF.CreationDate,2025-06-14T21:55:15+08:00*%
%TF.ProjectId,Tiny Solar Supply,54696e79-2053-46f6-9c61-722053757070,rev?*%
%TF.SameCoordinates,Original*%
%TF.FileFunction,Soldermask,Top*%
%TF.FilePolarity,Negative*%
%FSLAX46Y46*%
G04 Gerber Fmt 4.6, Leading zero omitted, Abs format (unit mm)*
G04 Created by KiCad (PCBNEW 9.0.2) date 2025-06-14 21:55:15*
%MOMM*%
%LPD*%
G01*
G04 APERTURE LIST*
G04 APERTURE END LIST*
G36*
X82757403Y-100287418D02*
G01*
X82806066Y-100319934D01*
X82838582Y-100368597D01*
X82850000Y-100426000D01*
X82850000Y-101601000D01*
X82838582Y-101658403D01*
X82806066Y-101707066D01*
X82757403Y-101739582D01*
X82700000Y-101751000D01*
X82400000Y-101751000D01*
X82342597Y-101739582D01*
X82293934Y-101707066D01*
X82261418Y-101658403D01*
X82250000Y-101601000D01*
X82250000Y-100426000D01*
X82261418Y-100368597D01*
X82293934Y-100319934D01*
X82342597Y-100287418D01*
X82400000Y-100276000D01*
X82700000Y-100276000D01*
X82757403Y-100287418D01*
G37*
G36*
X101089850Y-99430964D02*
G01*
X101140040Y-99436787D01*
X101157189Y-99444359D01*
X101180671Y-99449030D01*
X101205810Y-99465827D01*
X101225696Y-99474608D01*
X101239277Y-99488189D01*
X101261777Y-99503223D01*
X101276810Y-99525722D01*
X101290391Y-99539303D01*
X101299170Y-99559186D01*
X101315970Y-99584329D01*
X101320641Y-99607812D01*
X101328212Y-99624959D01*
X101334033Y-99675139D01*
X101335000Y-99680000D01*
X101335000Y-100980000D01*
X101334032Y-100984863D01*
X101328212Y-101035040D01*
X101320641Y-101052185D01*
X101315970Y-101075671D01*
X101299169Y-101100815D01*
X101290391Y-101120696D01*
X101276812Y-101134274D01*
X101261777Y-101156777D01*
X101239274Y-101171812D01*
X101225696Y-101185391D01*
X101205815Y-101194169D01*
X101180671Y-101210970D01*
X101157185Y-101215641D01*
X101140040Y-101223212D01*
X101089861Y-101229032D01*
X101085000Y-101230000D01*
X100435000Y-101230000D01*
X100430138Y-101229032D01*
X100379959Y-101223212D01*
X100362812Y-101215641D01*
X100339329Y-101210970D01*
X100314186Y-101194170D01*
X100294303Y-101185391D01*
X100280722Y-101171810D01*
X100258223Y-101156777D01*
X100243189Y-101134277D01*
X100229608Y-101120696D01*
X100220827Y-101100810D01*
X100204030Y-101075671D01*
X100199359Y-101052189D01*
X100191787Y-101035040D01*
X100185964Y-100984849D01*
X100185000Y-100980000D01*
X100185000Y-99680000D01*
X100185964Y-99675150D01*
X100191787Y-99624959D01*
X100199359Y-99607808D01*
X100204030Y-99584329D01*
X100220826Y-99559191D01*
X100229608Y-99539303D01*
X100243191Y-99525719D01*
X100258223Y-99503223D01*
X100280719Y-99488191D01*
X100294303Y-99474608D01*
X100314191Y-99465826D01*
X100339329Y-99449030D01*
X100362808Y-99444359D01*
X100379959Y-99436787D01*
X100430151Y-99430964D01*
X100435000Y-99430000D01*
X101085000Y-99430000D01*
X101089850Y-99430964D01*
G37*
G36*
X104039850Y-99430964D02*
G01*
X104090040Y-99436787D01*
X104107189Y-99444359D01*
X104130671Y-99449030D01*
X104155810Y-99465827D01*
X104175696Y-99474608D01*
X104189277Y-99488189D01*
X104211777Y-99503223D01*
X104226810Y-99525722D01*
X104240391Y-99539303D01*
X104249170Y-99559186D01*
X104265970Y-99584329D01*
X104270641Y-99607812D01*
X104278212Y-99624959D01*
X104284033Y-99675139D01*
X104285000Y-99680000D01*
X104285000Y-100980000D01*
X104284032Y-100984863D01*
X104278212Y-101035040D01*
X104270641Y-101052185D01*
X104265970Y-101075671D01*
X104249169Y-101100815D01*
X104240391Y-101120696D01*
X104226812Y-101134274D01*
X104211777Y-101156777D01*
X104189274Y-101171812D01*
X104175696Y-101185391D01*
X104155815Y-101194169D01*
X104130671Y-101210970D01*
X104107185Y-101215641D01*
X104090040Y-101223212D01*
X104039861Y-101229032D01*
X104035000Y-101230000D01*
X103385000Y-101230000D01*
X103380138Y-101229032D01*
X103329959Y-101223212D01*
X103312812Y-101215641D01*
X103289329Y-101210970D01*
X103264186Y-101194170D01*
X103244303Y-101185391D01*
X103230722Y-101171810D01*
X103208223Y-101156777D01*
X103193189Y-101134277D01*
X103179608Y-101120696D01*
X103170827Y-101100810D01*
X103154030Y-101075671D01*
X103149359Y-101052189D01*
X103141787Y-101035040D01*
X103135964Y-100984849D01*
X103135000Y-100980000D01*
X103135000Y-99680000D01*
X103135964Y-99675150D01*
X103141787Y-99624959D01*
X103149359Y-99607808D01*
X103154030Y-99584329D01*
X103170826Y-99559191D01*
X103179608Y-99539303D01*
X103193191Y-99525719D01*
X103208223Y-99503223D01*
X103230719Y-99488191D01*
X103244303Y-99474608D01*
X103264191Y-99465826D01*
X103289329Y-99449030D01*
X103312808Y-99444359D01*
X103329959Y-99436787D01*
X103380151Y-99430964D01*
X103385000Y-99430000D01*
X104035000Y-99430000D01*
X104039850Y-99430964D01*
G37*
G36*
X79530000Y-101185000D02*
G01*
X77830000Y-101185000D01*
X77830000Y-99485000D01*
X79530000Y-99485000D01*
X79530000Y-101185000D01*
G37*
G36*
X94604850Y-99630964D02*
G01*
X94655040Y-99636787D01*
X94672189Y-99644359D01*
X94695671Y-99649030D01*
X94720810Y-99665827D01*
X94740696Y-99674608D01*
X94754277Y-99688189D01*
X94776777Y-99703223D01*
X94791810Y-99725722D01*
X94805391Y-99739303D01*
X94814170Y-99759186D01*
X94830970Y-99784329D01*
X94835641Y-99807812D01*
X94843212Y-99824959D01*
X94849033Y-99875139D01*
X94850000Y-99880000D01*
X94850000Y-100780000D01*
X94849032Y-100784863D01*
X94843212Y-100835040D01*
X94835641Y-100852185D01*
X94830970Y-100875671D01*
X94814169Y-100900815D01*
X94805391Y-100920696D01*
X94791812Y-100934274D01*
X94776777Y-100956777D01*
X94754274Y-100971812D01*
X94740696Y-100985391D01*
X94720815Y-100994169D01*
X94695671Y-101010970D01*
X94672185Y-101015641D01*
X94655040Y-101023212D01*
X94604861Y-101029032D01*
X94600000Y-101030000D01*
X94075000Y-101030000D01*
X94070138Y-101029032D01*
X94019959Y-101023212D01*
X94002812Y-101015641D01*
X93979329Y-101010970D01*
X93954186Y-100994170D01*
X93934303Y-100985391D01*
X93920722Y-100971810D01*
X93898223Y-100956777D01*
X93883189Y-100934277D01*
X93869608Y-100920696D01*
X93860827Y-100900810D01*
X93844030Y-100875671D01*
X93839359Y-100852189D01*
X93831787Y-100835040D01*
X93825964Y-100784849D01*
X93825000Y-100780000D01*
X93825000Y-99880000D01*
X93825964Y-99875150D01*
X93831787Y-99824959D01*
X93839359Y-99807808D01*
X93844030Y-99784329D01*
X93860826Y-99759191D01*
X93869608Y-99739303D01*
X93883191Y-99725719D01*
X93898223Y-99703223D01*
X93920719Y-99688191D01*
X93934303Y-99674608D01*
X93954191Y-99665826D01*
X93979329Y-99649030D01*
X94002808Y-99644359D01*
X94019959Y-99636787D01*
X94070151Y-99630964D01*
X94075000Y-99630000D01*
X94600000Y-99630000D01*
X94604850Y-99630964D01*
G37*
G36*
X96429850Y-99630964D02*
G01*
X96480040Y-99636787D01*
X96497189Y-99644359D01*
X96520671Y-99649030D01*
X96545810Y-99665827D01*
X96565696Y-99674608D01*
X96579277Y-99688189D01*
X96601777Y-99703223D01*
X96616810Y-99725722D01*
X96630391Y-99739303D01*
X96639170Y-99759186D01*
X96655970Y-99784329D01*
X96660641Y-99807812D01*
X96668212Y-99824959D01*
X96674033Y-99875139D01*
X96675000Y-99880000D01*
X96675000Y-100780000D01*
X96674032Y-100784863D01*
X96668212Y-100835040D01*
X96660641Y-100852185D01*
X96655970Y-100875671D01*
X96639169Y-100900815D01*
X96630391Y-100920696D01*
X96616812Y-100934274D01*
X96601777Y-100956777D01*
X96579274Y-100971812D01*
X96565696Y-100985391D01*
X96545815Y-100994169D01*
X96520671Y-101010970D01*
X96497185Y-101015641D01*
X96480040Y-101023212D01*
X96429861Y-101029032D01*
X96425000Y-101030000D01*
X95900000Y-101030000D01*
X95895138Y-101029032D01*
X95844959Y-101023212D01*
X95827812Y-101015641D01*
X95804329Y-101010970D01*
X95779186Y-100994170D01*
X95759303Y-100985391D01*
X95745722Y-100971810D01*
X95723223Y-100956777D01*
X95708189Y-100934277D01*
X95694608Y-100920696D01*
X95685827Y-100900810D01*
X95669030Y-100875671D01*
X95664359Y-100852189D01*
X95656787Y-100835040D01*
X95650964Y-100784849D01*
X95650000Y-100780000D01*
X95650000Y-99880000D01*
X95650964Y-99875150D01*
X95656787Y-99824959D01*
X95664359Y-99807808D01*
X95669030Y-99784329D01*
X95685826Y-99759191D01*
X95694608Y-99739303D01*
X95708191Y-99725719D01*
X95723223Y-99703223D01*
X95745719Y-99688191D01*
X95759303Y-99674608D01*
X95779191Y-99665826D01*
X95804329Y-99649030D01*
X95827808Y-99644359D01*
X95844959Y-99636787D01*
X95895151Y-99630964D01*
X95900000Y-99630000D01*
X96425000Y-99630000D01*
X96429850Y-99630964D01*
G37*
G36*
X90903850Y-100018964D02*
G01*
X90954040Y-100024787D01*
X90971189Y-100032359D01*
X90994671Y-100037030D01*
X91019810Y-100053827D01*
X91039696Y-100062608D01*
X91053277Y-100076189D01*
X91075777Y-100091223D01*
X91090810Y-100113722D01*
X91104391Y-100127303D01*
X91113170Y-100147186D01*
X91129970Y-100172329D01*
X91134641Y-100195812D01*
X91142212Y-100212959D01*
X91148033Y-100263139D01*
X91149000Y-100268000D01*
X91149000Y-100768000D01*
X91148032Y-100772863D01*
X91142212Y-100823040D01*
X91134641Y-100840185D01*
X91129970Y-100863671D01*
X91113169Y-100888815D01*
X91104391Y-100908696D01*
X91090812Y-100922274D01*
X91075777Y-100944777D01*
X91053274Y-100959812D01*
X91039696Y-100973391D01*
X91019815Y-100982169D01*
X90994671Y-100998970D01*
X90971185Y-101003641D01*
X90954040Y-101011212D01*
X90903861Y-101017032D01*
X90899000Y-101018000D01*
X89949000Y-101018000D01*
X89944138Y-101017032D01*
X89893959Y-101011212D01*
X89876812Y-101003641D01*
X89853329Y-100998970D01*
X89828186Y-100982170D01*
X89808303Y-100973391D01*
X89794722Y-100959810D01*
X89772223Y-100944777D01*
X89757189Y-100922277D01*
X89743608Y-100908696D01*
X89734827Y-100888810D01*
X89718030Y-100863671D01*
X89713359Y-100840189D01*
X89705787Y-100823040D01*
X89699964Y-100772849D01*
X89699000Y-100768000D01*
X89699000Y-100268000D01*
X89699964Y-100263150D01*
X89705787Y-100212959D01*
X89713359Y-100195808D01*
X89718030Y-100172329D01*
X89734826Y-100147191D01*
X89743608Y-100127303D01*
X89757191Y-100113719D01*
X89772223Y-100091223D01*
X89794719Y-100076191D01*
X89808303Y-100062608D01*
X89828191Y-100053826D01*
X89853329Y-100037030D01*
X89876808Y-100032359D01*
X89893959Y-100024787D01*
X89944151Y-100018964D01*
X89949000Y-100018000D01*
X90899000Y-100018000D01*
X90903850Y-100018964D01*
G37*
G36*
X87830850Y-99968964D02*
G01*
X87881040Y-99974787D01*
X87898189Y-99982359D01*
X87921671Y-99987030D01*
X87946810Y-100003827D01*
X87966696Y-100012608D01*
X87980277Y-100026189D01*
X88002777Y-100041223D01*
X88017810Y-100063722D01*
X88031391Y-100077303D01*
X88040170Y-100097186D01*
X88056970Y-100122329D01*
X88061641Y-100145812D01*
X88069212Y-100162959D01*
X88075033Y-100213139D01*
X88076000Y-100218000D01*
X88076000Y-100743000D01*
X88075032Y-100747863D01*
X88069212Y-100798040D01*
X88061641Y-100815185D01*
X88056970Y-100838671D01*
X88040169Y-100863815D01*
X88031391Y-100883696D01*
X88017812Y-100897274D01*
X88002777Y-100919777D01*
X87980274Y-100934812D01*
X87966696Y-100948391D01*
X87946815Y-100957169D01*
X87921671Y-100973970D01*
X87898185Y-100978641D01*
X87881040Y-100986212D01*
X87830861Y-100992032D01*
X87826000Y-100993000D01*
X86926000Y-100993000D01*
X86921138Y-100992032D01*
X86870959Y-100986212D01*
X86853812Y-100978641D01*
X86830329Y-100973970D01*
X86805186Y-100957170D01*
X86785303Y-100948391D01*
X86771722Y-100934810D01*
X86749223Y-100919777D01*
X86734189Y-100897277D01*
X86720608Y-100883696D01*
X86711827Y-100863810D01*
X86695030Y-100838671D01*
X86690359Y-100815189D01*
X86682787Y-100798040D01*
X86676964Y-100747849D01*
X86676000Y-100743000D01*
X86676000Y-100218000D01*
X86676964Y-100213150D01*
X86682787Y-100162959D01*
X86690359Y-100145808D01*
X86695030Y-100122329D01*
X86711826Y-100097191D01*
X86720608Y-100077303D01*
X86734191Y-100063719D01*
X86749223Y-100041223D01*
X86771719Y-100026191D01*
X86785303Y-100012608D01*
X86805191Y-100003826D01*
X86830329Y-99987030D01*
X86853808Y-99982359D01*
X86870959Y-99974787D01*
X86921151Y-99968964D01*
X86926000Y-99968000D01*
X87826000Y-99968000D01*
X87830850Y-99968964D01*
G37*
G36*
X81807403Y-98412418D02*
G01*
X81856066Y-98444934D01*
X81888582Y-98493597D01*
X81900000Y-98551000D01*
X81900000Y-99726000D01*
X81888582Y-99783403D01*
X81856066Y-99832066D01*
X81807403Y-99864582D01*
X81750000Y-99876000D01*
X81450000Y-99876000D01*
X81392597Y-99864582D01*
X81343934Y-99832066D01*
X81311418Y-99783403D01*
X81300000Y-99726000D01*
X81300000Y-98551000D01*
X81311418Y-98493597D01*
X81343934Y-98444934D01*
X81392597Y-98412418D01*
X81450000Y-98401000D01*
X81750000Y-98401000D01*
X81807403Y-98412418D01*
G37*
G36*
X83707403Y-98412418D02*
G01*
X83756066Y-98444934D01*
X83788582Y-98493597D01*
X83800000Y-98551000D01*
X83800000Y-99726000D01*
X83788582Y-99783403D01*
X83756066Y-99832066D01*
X83707403Y-99864582D01*
X83650000Y-99876000D01*
X83350000Y-99876000D01*
X83292597Y-99864582D01*
X83243934Y-99832066D01*
X83211418Y-99783403D01*
X83200000Y-99726000D01*
X83200000Y-98551000D01*
X83211418Y-98493597D01*
X83243934Y-98444934D01*
X83292597Y-98412418D01*
X83350000Y-98401000D01*
X83650000Y-98401000D01*
X83707403Y-98412418D01*
G37*
G36*
X87830850Y-98143964D02*
G01*
X87881040Y-98149787D01*
X87898189Y-98157359D01*
X87921671Y-98162030D01*
X87946810Y-98178827D01*
X87966696Y-98187608D01*
X87980277Y-98201189D01*
X88002777Y-98216223D01*
X88017810Y-98238722D01*
X88031391Y-98252303D01*
X88040170Y-98272186D01*
X88056970Y-98297329D01*
X88061641Y-98320812D01*
X88069212Y-98337959D01*
X88075033Y-98388139D01*
X88076000Y-98393000D01*
X88076000Y-98918000D01*
X88075032Y-98922863D01*
X88069212Y-98973040D01*
X88061641Y-98990185D01*
X88056970Y-99013671D01*
X88040169Y-99038815D01*
X88031391Y-99058696D01*
X88017812Y-99072274D01*
X88002777Y-99094777D01*
X87980274Y-99109812D01*
X87966696Y-99123391D01*
X87946815Y-99132169D01*
X87921671Y-99148970D01*
X87898185Y-99153641D01*
X87881040Y-99161212D01*
X87830861Y-99167032D01*
X87826000Y-99168000D01*
X86926000Y-99168000D01*
X86921138Y-99167032D01*
X86870959Y-99161212D01*
X86853812Y-99153641D01*
X86830329Y-99148970D01*
X86805186Y-99132170D01*
X86785303Y-99123391D01*
X86771722Y-99109810D01*
X86749223Y-99094777D01*
X86734189Y-99072277D01*
X86720608Y-99058696D01*
X86711827Y-99038810D01*
X86695030Y-99013671D01*
X86690359Y-98990189D01*
X86682787Y-98973040D01*
X86676964Y-98922849D01*
X86676000Y-98918000D01*
X86676000Y-98393000D01*
X86676964Y-98388150D01*
X86682787Y-98337959D01*
X86690359Y-98320808D01*
X86695030Y-98297329D01*
X86711826Y-98272191D01*
X86720608Y-98252303D01*
X86734191Y-98238719D01*
X86749223Y-98216223D01*
X86771719Y-98201191D01*
X86785303Y-98187608D01*
X86805191Y-98178826D01*
X86830329Y-98162030D01*
X86853808Y-98157359D01*
X86870959Y-98149787D01*
X86921151Y-98143964D01*
X86926000Y-98143000D01*
X87826000Y-98143000D01*
X87830850Y-98143964D01*
G37*
G36*
X90903850Y-98118964D02*
G01*
X90954040Y-98124787D01*
X90971189Y-98132359D01*
X90994671Y-98137030D01*
X91019810Y-98153827D01*
X91039696Y-98162608D01*
X91053277Y-98176189D01*
X91075777Y-98191223D01*
X91090810Y-98213722D01*
X91104391Y-98227303D01*
X91113170Y-98247186D01*
X91129970Y-98272329D01*
X91134641Y-98295812D01*
X91142212Y-98312959D01*
X91148033Y-98363139D01*
X91149000Y-98368000D01*
X91149000Y-98868000D01*
X91148032Y-98872863D01*
X91142212Y-98923040D01*
X91134641Y-98940185D01*
X91129970Y-98963671D01*
X91113169Y-98988815D01*
X91104391Y-99008696D01*
X91090812Y-99022274D01*
X91075777Y-99044777D01*
X91053274Y-99059812D01*
X91039696Y-99073391D01*
X91019815Y-99082169D01*
X90994671Y-99098970D01*
X90971185Y-99103641D01*
X90954040Y-99111212D01*
X90903861Y-99117032D01*
X90899000Y-99118000D01*
X89949000Y-99118000D01*
X89944138Y-99117032D01*
X89893959Y-99111212D01*
X89876812Y-99103641D01*
X89853329Y-99098970D01*
X89828186Y-99082170D01*
X89808303Y-99073391D01*
X89794722Y-99059810D01*
X89772223Y-99044777D01*
X89757189Y-99022277D01*
X89743608Y-99008696D01*
X89734827Y-98988810D01*
X89718030Y-98963671D01*
X89713359Y-98940189D01*
X89705787Y-98923040D01*
X89699964Y-98872849D01*
X89699000Y-98868000D01*
X89699000Y-98368000D01*
X89699964Y-98363150D01*
X89705787Y-98312959D01*
X89713359Y-98295808D01*
X89718030Y-98272329D01*
X89734826Y-98247191D01*
X89743608Y-98227303D01*
X89757191Y-98213719D01*
X89772223Y-98191223D01*
X89794719Y-98176191D01*
X89808303Y-98162608D01*
X89828191Y-98153826D01*
X89853329Y-98137030D01*
X89876808Y-98132359D01*
X89893959Y-98124787D01*
X89944151Y-98118964D01*
X89949000Y-98118000D01*
X90899000Y-98118000D01*
X90903850Y-98118964D01*
G37*
G36*
X78926742Y-96981601D02*
G01*
X79080687Y-97045367D01*
X79219234Y-97137941D01*
X79337059Y-97255766D01*
X79429633Y-97394313D01*
X79493399Y-97548258D01*
X79525907Y-97711685D01*
X79525907Y-97878315D01*
X79493399Y-98041742D01*
X79429633Y-98195687D01*
X79337059Y-98334234D01*
X79219234Y-98452059D01*
X79080687Y-98544633D01*
X78926742Y-98608399D01*
X78763315Y-98640907D01*
X78596685Y-98640907D01*
X78433258Y-98608399D01*
X78279313Y-98544633D01*
X78140766Y-98452059D01*
X78022941Y-98334234D01*
X77930367Y-98195687D01*
X77866601Y-98041742D01*
X77834093Y-97878315D01*
X77834093Y-97711685D01*
X77866601Y-97548258D01*
X77930367Y-97394313D01*
X78022941Y-97255766D01*
X78140766Y-97137941D01*
X78279313Y-97045367D01*
X78433258Y-96981601D01*
X78596685Y-96949093D01*
X78763315Y-96949093D01*
X78926742Y-96981601D01*
G37*
G36*
X94554850Y-97065964D02*
G01*
X94605040Y-97071787D01*
X94622189Y-97079359D01*
X94645671Y-97084030D01*
X94670810Y-97100827D01*
X94690696Y-97109608D01*
X94704277Y-97123189D01*
X94726777Y-97138223D01*
X94741810Y-97160722D01*
X94755391Y-97174303D01*
X94764170Y-97194186D01*
X94780970Y-97219329D01*
X94785641Y-97242812D01*
X94793212Y-97259959D01*
X94799033Y-97310139D01*
X94800000Y-97315000D01*
X94800000Y-98265000D01*
X94799032Y-98269863D01*
X94793212Y-98320040D01*
X94785641Y-98337185D01*
X94780970Y-98360671D01*
X94764169Y-98385815D01*
X94755391Y-98405696D01*
X94741812Y-98419274D01*
X94726777Y-98441777D01*
X94704274Y-98456812D01*
X94690696Y-98470391D01*
X94670815Y-98479169D01*
X94645671Y-98495970D01*
X94622185Y-98500641D01*
X94605040Y-98508212D01*
X94554861Y-98514032D01*
X94550000Y-98515000D01*
X94050000Y-98515000D01*
X94045138Y-98514032D01*
X93994959Y-98508212D01*
X93977812Y-98500641D01*
X93954329Y-98495970D01*
X93929186Y-98479170D01*
X93909303Y-98470391D01*
X93895722Y-98456810D01*
X93873223Y-98441777D01*
X93858189Y-98419277D01*
X93844608Y-98405696D01*
X93835827Y-98385810D01*
X93819030Y-98360671D01*
X93814359Y-98337189D01*
X93806787Y-98320040D01*
X93800964Y-98269849D01*
X93800000Y-98265000D01*
X93800000Y-97315000D01*
X93800964Y-97310150D01*
X93806787Y-97259959D01*
X93814359Y-97242808D01*
X93819030Y-97219329D01*
X93835826Y-97194191D01*
X93844608Y-97174303D01*
X93858191Y-97160719D01*
X93873223Y-97138223D01*
X93895719Y-97123191D01*
X93909303Y-97109608D01*
X93929191Y-97100826D01*
X93954329Y-97084030D01*
X93977808Y-97079359D01*
X93994959Y-97071787D01*
X94045151Y-97065964D01*
X94050000Y-97065000D01*
X94550000Y-97065000D01*
X94554850Y-97065964D01*
G37*
G36*
X96454850Y-97065964D02*
G01*
X96505040Y-97071787D01*
X96522189Y-97079359D01*
X96545671Y-97084030D01*
X96570810Y-97100827D01*
X96590696Y-97109608D01*
X96604277Y-97123189D01*
X96626777Y-97138223D01*
X96641810Y-97160722D01*
X96655391Y-97174303D01*
X96664170Y-97194186D01*
X96680970Y-97219329D01*
X96685641Y-97242812D01*
X96693212Y-97259959D01*
X96699033Y-97310139D01*
X96700000Y-97315000D01*
X96700000Y-98265000D01*
X96699032Y-98269863D01*
X96693212Y-98320040D01*
X96685641Y-98337185D01*
X96680970Y-98360671D01*
X96664169Y-98385815D01*
X96655391Y-98405696D01*
X96641812Y-98419274D01*
X96626777Y-98441777D01*
X96604274Y-98456812D01*
X96590696Y-98470391D01*
X96570815Y-98479169D01*
X96545671Y-98495970D01*
X96522185Y-98500641D01*
X96505040Y-98508212D01*
X96454861Y-98514032D01*
X96450000Y-98515000D01*
X95950000Y-98515000D01*
X95945138Y-98514032D01*
X95894959Y-98508212D01*
X95877812Y-98500641D01*
X95854329Y-98495970D01*
X95829186Y-98479170D01*
X95809303Y-98470391D01*
X95795722Y-98456810D01*
X95773223Y-98441777D01*
X95758189Y-98419277D01*
X95744608Y-98405696D01*
X95735827Y-98385810D01*
X95719030Y-98360671D01*
X95714359Y-98337189D01*
X95706787Y-98320040D01*
X95700964Y-98269849D01*
X95700000Y-98265000D01*
X95700000Y-97315000D01*
X95700964Y-97310150D01*
X95706787Y-97259959D01*
X95714359Y-97242808D01*
X95719030Y-97219329D01*
X95735826Y-97194191D01*
X95744608Y-97174303D01*
X95758191Y-97160719D01*
X95773223Y-97138223D01*
X95795719Y-97123191D01*
X95809303Y-97109608D01*
X95829191Y-97100826D01*
X95854329Y-97084030D01*
X95877808Y-97079359D01*
X95894959Y-97071787D01*
X95945151Y-97065964D01*
X95950000Y-97065000D01*
X96450000Y-97065000D01*
X96454850Y-97065964D01*
G37*
G36*
X101594034Y-96310764D02*
G01*
X101627125Y-96332875D01*
X101649236Y-96365966D01*
X101657000Y-96405000D01*
X101657000Y-97905000D01*
X101649236Y-97944034D01*
X101627125Y-97977125D01*
X101594034Y-97999236D01*
X101555000Y-98007000D01*
X99435000Y-98007000D01*
X99395966Y-97999236D01*
X99362875Y-97977125D01*
X99340764Y-97944034D01*
X99333000Y-97905000D01*
X99333000Y-96405000D01*
X99340764Y-96365966D01*
X99362875Y-96332875D01*
X99395966Y-96310764D01*
X99435000Y-96303000D01*
X101555000Y-96303000D01*
X101594034Y-96310764D01*
G37*
G36*
X105824034Y-96310764D02*
G01*
X105857125Y-96332875D01*
X105879236Y-96365966D01*
X105887000Y-96405000D01*
X105887000Y-97905000D01*
X105879236Y-97944034D01*
X105857125Y-97977125D01*
X105824034Y-97999236D01*
X105785000Y-98007000D01*
X103665000Y-98007000D01*
X103625966Y-97999236D01*
X103592875Y-97977125D01*
X103570764Y-97944034D01*
X103563000Y-97905000D01*
X103563000Y-96405000D01*
X103570764Y-96365966D01*
X103592875Y-96332875D01*
X103625966Y-96310764D01*
X103665000Y-96303000D01*
X105785000Y-96303000D01*
X105824034Y-96310764D01*
G37*
G36*
X83426534Y-94940764D02*
G01*
X83459625Y-94962875D01*
X83481736Y-94995966D01*
X83489500Y-95035000D01*
X83489500Y-97155000D01*
X83481736Y-97194034D01*
X83459625Y-97227125D01*
X83426534Y-97249236D01*
X83387500Y-97257000D01*
X81887500Y-97257000D01*
X81848466Y-97249236D01*
X81815375Y-97227125D01*
X81793264Y-97194034D01*
X81785500Y-97155000D01*
X81785500Y-95035000D01*
X81793264Y-94995966D01*
X81815375Y-94962875D01*
X81848466Y-94940764D01*
X81887500Y-94933000D01*
X83387500Y-94933000D01*
X83426534Y-94940764D01*
G37*
G36*
X108434542Y-95117401D02*
G01*
X108588487Y-95181167D01*
X108727034Y-95273741D01*
X108844859Y-95391566D01*
X108937433Y-95530113D01*
X109001199Y-95684058D01*
X109033707Y-95847485D01*
X109033707Y-96014115D01*
X109001199Y-96177542D01*
X108937433Y-96331487D01*
X108844859Y-96470034D01*
X108727034Y-96587859D01*
X108588487Y-96680433D01*
X108434542Y-96744199D01*
X108271115Y-96776707D01*
X108104485Y-96776707D01*
X107941058Y-96744199D01*
X107787113Y-96680433D01*
X107648566Y-96587859D01*
X107530741Y-96470034D01*
X107438167Y-96331487D01*
X107374401Y-96177542D01*
X107341893Y-96014115D01*
X107341893Y-95847485D01*
X107374401Y-95684058D01*
X107438167Y-95530113D01*
X107530741Y-95391566D01*
X107648566Y-95273741D01*
X107787113Y-95181167D01*
X107941058Y-95117401D01*
X108104485Y-95084893D01*
X108271115Y-95084893D01*
X108434542Y-95117401D01*
G37*
G36*
X89119728Y-94526948D02*
G01*
X89264617Y-94586963D01*
X89395015Y-94674092D01*
X89505908Y-94784985D01*
X89593037Y-94915383D01*
X89653052Y-95060272D01*
X89683648Y-95214086D01*
X89683648Y-95370914D01*
X89653052Y-95524728D01*
X89593037Y-95669617D01*
X89505908Y-95800015D01*
X89395015Y-95910908D01*
X89264617Y-95998037D01*
X89119728Y-96058052D01*
X88965914Y-96088648D01*
X88809086Y-96088648D01*
X88655272Y-96058052D01*
X88510383Y-95998037D01*
X88379985Y-95910908D01*
X88269092Y-95800015D01*
X88181963Y-95669617D01*
X88121948Y-95524728D01*
X88091352Y-95370914D01*
X88091352Y-95214086D01*
X88121948Y-95060272D01*
X88181963Y-94915383D01*
X88269092Y-94784985D01*
X88379985Y-94674092D01*
X88510383Y-94586963D01*
X88655272Y-94526948D01*
X88809086Y-94496352D01*
X88965914Y-94496352D01*
X89119728Y-94526948D01*
G37*
G36*
X94604850Y-94550964D02*
G01*
X94655040Y-94556787D01*
X94672189Y-94564359D01*
X94695671Y-94569030D01*
X94720810Y-94585827D01*
X94740696Y-94594608D01*
X94754277Y-94608189D01*
X94776777Y-94623223D01*
X94791810Y-94645722D01*
X94805391Y-94659303D01*
X94814170Y-94679186D01*
X94830970Y-94704329D01*
X94835641Y-94727812D01*
X94843212Y-94744959D01*
X94849033Y-94795139D01*
X94850000Y-94800000D01*
X94850000Y-95700000D01*
X94849032Y-95704863D01*
X94843212Y-95755040D01*
X94835641Y-95772185D01*
X94830970Y-95795671D01*
X94814169Y-95820815D01*
X94805391Y-95840696D01*
X94791812Y-95854274D01*
X94776777Y-95876777D01*
X94754274Y-95891812D01*
X94740696Y-95905391D01*
X94720815Y-95914169D01*
X94695671Y-95930970D01*
X94672185Y-95935641D01*
X94655040Y-95943212D01*
X94604861Y-95949032D01*
X94600000Y-95950000D01*
X94075000Y-95950000D01*
X94070138Y-95949032D01*
X94019959Y-95943212D01*
X94002812Y-95935641D01*
X93979329Y-95930970D01*
X93954186Y-95914170D01*
X93934303Y-95905391D01*
X93920722Y-95891810D01*
X93898223Y-95876777D01*
X93883189Y-95854277D01*
X93869608Y-95840696D01*
X93860827Y-95820810D01*
X93844030Y-95795671D01*
X93839359Y-95772189D01*
X93831787Y-95755040D01*
X93825964Y-95704849D01*
X93825000Y-95700000D01*
X93825000Y-94800000D01*
X93825964Y-94795150D01*
X93831787Y-94744959D01*
X93839359Y-94727808D01*
X93844030Y-94704329D01*
X93860826Y-94679191D01*
X93869608Y-94659303D01*
X93883191Y-94645719D01*
X93898223Y-94623223D01*
X93920719Y-94608191D01*
X93934303Y-94594608D01*
X93954191Y-94585826D01*
X93979329Y-94569030D01*
X94002808Y-94564359D01*
X94019959Y-94556787D01*
X94070151Y-94550964D01*
X94075000Y-94550000D01*
X94600000Y-94550000D01*
X94604850Y-94550964D01*
G37*
G36*
X96429850Y-94550964D02*
G01*
X96480040Y-94556787D01*
X96497189Y-94564359D01*
X96520671Y-94569030D01*
X96545810Y-94585827D01*
X96565696Y-94594608D01*
X96579277Y-94608189D01*
X96601777Y-94623223D01*
X96616810Y-94645722D01*
X96630391Y-94659303D01*
X96639170Y-94679186D01*
X96655970Y-94704329D01*
X96660641Y-94727812D01*
X96668212Y-94744959D01*
X96674033Y-94795139D01*
X96675000Y-94800000D01*
X96675000Y-95700000D01*
X96674032Y-95704863D01*
X96668212Y-95755040D01*
X96660641Y-95772185D01*
X96655970Y-95795671D01*
X96639169Y-95820815D01*
X96630391Y-95840696D01*
X96616812Y-95854274D01*
X96601777Y-95876777D01*
X96579274Y-95891812D01*
X96565696Y-95905391D01*
X96545815Y-95914169D01*
X96520671Y-95930970D01*
X96497185Y-95935641D01*
X96480040Y-95943212D01*
X96429861Y-95949032D01*
X96425000Y-95950000D01*
X95900000Y-95950000D01*
X95895138Y-95949032D01*
X95844959Y-95943212D01*
X95827812Y-95935641D01*
X95804329Y-95930970D01*
X95779186Y-95914170D01*
X95759303Y-95905391D01*
X95745722Y-95891810D01*
X95723223Y-95876777D01*
X95708189Y-95854277D01*
X95694608Y-95840696D01*
X95685827Y-95820810D01*
X95669030Y-95795671D01*
X95664359Y-95772189D01*
X95656787Y-95755040D01*
X95650964Y-95704849D01*
X95650000Y-95700000D01*
X95650000Y-94800000D01*
X95650964Y-94795150D01*
X95656787Y-94744959D01*
X95664359Y-94727808D01*
X95669030Y-94704329D01*
X95685826Y-94679191D01*
X95694608Y-94659303D01*
X95708191Y-94645719D01*
X95723223Y-94623223D01*
X95745719Y-94608191D01*
X95759303Y-94594608D01*
X95779191Y-94585826D01*
X95804329Y-94569030D01*
X95827808Y-94564359D01*
X95844959Y-94556787D01*
X95895151Y-94550964D01*
X95900000Y-94550000D01*
X96425000Y-94550000D01*
X96429850Y-94550964D01*
G37*
G36*
X103886000Y-94703900D02*
G01*
X100584000Y-94703900D01*
X100584000Y-92036900D01*
X103886000Y-92036900D01*
X103886000Y-94703900D01*
G37*
G36*
X109037800Y-94240800D02*
G01*
X107337800Y-94240800D01*
X107337800Y-92540800D01*
X109037800Y-92540800D01*
X109037800Y-94240800D01*
G37*
G36*
X83426534Y-90710764D02*
G01*
X83459625Y-90732875D01*
X83481736Y-90765966D01*
X83489500Y-90805000D01*
X83489500Y-92925000D01*
X83481736Y-92964034D01*
X83459625Y-92997125D01*
X83426534Y-93019236D01*
X83387500Y-93027000D01*
X81887500Y-93027000D01*
X81848466Y-93019236D01*
X81815375Y-92997125D01*
X81793264Y-92964034D01*
X81785500Y-92925000D01*
X81785500Y-90805000D01*
X81793264Y-90765966D01*
X81815375Y-90732875D01*
X81848466Y-90710764D01*
X81887500Y-90703000D01*
X83387500Y-90703000D01*
X83426534Y-90710764D01*
G37*
G36*
X94579399Y-92379800D02*
G01*
X94020599Y-92379800D01*
X94020599Y-91198700D01*
X94579399Y-91198700D01*
X94579399Y-92379800D01*
G37*
G36*
X96479401Y-92379800D02*
G01*
X95920601Y-92379800D01*
X95920601Y-91198700D01*
X96479401Y-91198700D01*
X96479401Y-92379800D01*
G37*
G36*
X79530000Y-92295000D02*
G01*
X77830000Y-92295000D01*
X77830000Y-90595000D01*
X79530000Y-90595000D01*
X79530000Y-92295000D01*
G37*
G36*
X78926742Y-88091601D02*
G01*
X79080687Y-88155367D01*
X79219234Y-88247941D01*
X79337059Y-88365766D01*
X79429633Y-88504313D01*
X79493399Y-88658258D01*
X79525907Y-88821685D01*
X79525907Y-88988315D01*
X79493399Y-89151742D01*
X79429633Y-89305687D01*
X79337059Y-89444234D01*
X79219234Y-89562059D01*
X79080687Y-89654633D01*
X78926742Y-89718399D01*
X78763315Y-89750907D01*
X78596685Y-89750907D01*
X78433258Y-89718399D01*
X78279313Y-89654633D01*
X78140766Y-89562059D01*
X78022941Y-89444234D01*
X77930367Y-89305687D01*
X77866601Y-89151742D01*
X77834093Y-88988315D01*
X77834093Y-88821685D01*
X77866601Y-88658258D01*
X77930367Y-88504313D01*
X78022941Y-88365766D01*
X78140766Y-88247941D01*
X78279313Y-88155367D01*
X78433258Y-88091601D01*
X78596685Y-88059093D01*
X78763315Y-88059093D01*
X78926742Y-88091601D01*
G37*
G36*
X83092350Y-88665964D02*
G01*
X83142540Y-88671787D01*
X83159689Y-88679359D01*
X83183171Y-88684030D01*
X83208310Y-88700827D01*
X83228196Y-88709608D01*
X83241777Y-88723189D01*
X83264277Y-88738223D01*
X83279310Y-88760722D01*
X83292891Y-88774303D01*
X83301670Y-88794186D01*
X83318470Y-88819329D01*
X83323141Y-88842812D01*
X83330712Y-88859959D01*
X83336533Y-88910139D01*
X83337500Y-88915000D01*
X83337500Y-89440000D01*
X83336532Y-89444863D01*
X83330712Y-89495040D01*
X83323141Y-89512185D01*
X83318470Y-89535671D01*
X83301669Y-89560815D01*
X83292891Y-89580696D01*
X83279312Y-89594274D01*
X83264277Y-89616777D01*
X83241774Y-89631812D01*
X83228196Y-89645391D01*
X83208315Y-89654169D01*
X83183171Y-89670970D01*
X83159685Y-89675641D01*
X83142540Y-89683212D01*
X83092361Y-89689032D01*
X83087500Y-89690000D01*
X82187500Y-89690000D01*
X82182638Y-89689032D01*
X82132459Y-89683212D01*
X82115312Y-89675641D01*
X82091829Y-89670970D01*
X82066686Y-89654170D01*
X82046803Y-89645391D01*
X82033222Y-89631810D01*
X82010723Y-89616777D01*
X81995689Y-89594277D01*
X81982108Y-89580696D01*
X81973327Y-89560810D01*
X81956530Y-89535671D01*
X81951859Y-89512189D01*
X81944287Y-89495040D01*
X81938464Y-89444849D01*
X81937500Y-89440000D01*
X81937500Y-88915000D01*
X81938464Y-88910150D01*
X81944287Y-88859959D01*
X81951859Y-88842808D01*
X81956530Y-88819329D01*
X81973326Y-88794191D01*
X81982108Y-88774303D01*
X81995691Y-88760719D01*
X82010723Y-88738223D01*
X82033219Y-88723191D01*
X82046803Y-88709608D01*
X82066691Y-88700826D01*
X82091829Y-88684030D01*
X82115308Y-88679359D01*
X82132459Y-88671787D01*
X82182651Y-88665964D01*
X82187500Y-88665000D01*
X83087500Y-88665000D01*
X83092350Y-88665964D01*
G37*
G36*
X94579399Y-89649300D02*
G01*
X94020599Y-89649300D01*
X94020599Y-88468200D01*
X94579399Y-88468200D01*
X94579399Y-89649300D01*
G37*
G36*
X95529400Y-89649300D02*
G01*
X94970600Y-89649300D01*
X94970600Y-88468200D01*
X95529400Y-88468200D01*
X95529400Y-89649300D01*
G37*
G36*
X96479401Y-89649300D02*
G01*
X95920601Y-89649300D01*
X95920601Y-88468200D01*
X96479401Y-88468200D01*
X96479401Y-89649300D01*
G37*
G36*
X103886000Y-89573100D02*
G01*
X100584000Y-89573100D01*
X100584000Y-86906100D01*
X103886000Y-86906100D01*
X103886000Y-89573100D01*
G37*
G36*
X89442350Y-86873464D02*
G01*
X89492540Y-86879287D01*
X89509689Y-86886859D01*
X89533171Y-86891530D01*
X89558310Y-86908327D01*
X89578196Y-86917108D01*
X89591777Y-86930689D01*
X89614277Y-86945723D01*
X89629310Y-86968222D01*
X89642891Y-86981803D01*
X89651670Y-87001686D01*
X89668470Y-87026829D01*
X89673141Y-87050312D01*
X89680712Y-87067459D01*
X89686533Y-87117639D01*
X89687500Y-87122500D01*
X89687500Y-88222500D01*
X89686532Y-88227363D01*
X89680712Y-88277540D01*
X89673141Y-88294685D01*
X89668470Y-88318171D01*
X89651669Y-88343315D01*
X89642891Y-88363196D01*
X89629312Y-88376774D01*
X89614277Y-88399277D01*
X89591774Y-88414312D01*
X89578196Y-88427891D01*
X89558315Y-88436669D01*
X89533171Y-88453470D01*
X89509685Y-88458141D01*
X89492540Y-88465712D01*
X89442361Y-88471532D01*
X89437500Y-88472500D01*
X88337500Y-88472500D01*
X88332638Y-88471532D01*
X88282459Y-88465712D01*
X88265312Y-88458141D01*
X88241829Y-88453470D01*
X88216686Y-88436670D01*
X88196803Y-88427891D01*
X88183222Y-88414310D01*
X88160723Y-88399277D01*
X88145689Y-88376777D01*
X88132108Y-88363196D01*
X88123327Y-88343310D01*
X88106530Y-88318171D01*
X88101859Y-88294689D01*
X88094287Y-88277540D01*
X88088464Y-88227349D01*
X88087500Y-88222500D01*
X88087500Y-87122500D01*
X88088464Y-87117650D01*
X88094287Y-87067459D01*
X88101859Y-87050308D01*
X88106530Y-87026829D01*
X88123326Y-87001691D01*
X88132108Y-86981803D01*
X88145691Y-86968219D01*
X88160723Y-86945723D01*
X88183219Y-86930691D01*
X88196803Y-86917108D01*
X88216691Y-86908326D01*
X88241829Y-86891530D01*
X88265308Y-86886859D01*
X88282459Y-86879287D01*
X88332651Y-86873464D01*
X88337500Y-86872500D01*
X89437500Y-86872500D01*
X89442350Y-86873464D01*
G37*
G36*
X83092350Y-86840964D02*
G01*
X83142540Y-86846787D01*
X83159689Y-86854359D01*
X83183171Y-86859030D01*
X83208310Y-86875827D01*
X83228196Y-86884608D01*
X83241777Y-86898189D01*
X83264277Y-86913223D01*
X83279310Y-86935722D01*
X83292891Y-86949303D01*
X83301670Y-86969186D01*
X83318470Y-86994329D01*
X83323141Y-87017812D01*
X83330712Y-87034959D01*
X83336533Y-87085139D01*
X83337500Y-87090000D01*
X83337500Y-87615000D01*
X83336532Y-87619863D01*
X83330712Y-87670040D01*
X83323141Y-87687185D01*
X83318470Y-87710671D01*
X83301669Y-87735815D01*
X83292891Y-87755696D01*
X83279312Y-87769274D01*
X83264277Y-87791777D01*
X83241774Y-87806812D01*
X83228196Y-87820391D01*
X83208315Y-87829169D01*
X83183171Y-87845970D01*
X83159685Y-87850641D01*
X83142540Y-87858212D01*
X83092361Y-87864032D01*
X83087500Y-87865000D01*
X82187500Y-87865000D01*
X82182638Y-87864032D01*
X82132459Y-87858212D01*
X82115312Y-87850641D01*
X82091829Y-87845970D01*
X82066686Y-87829170D01*
X82046803Y-87820391D01*
X82033222Y-87806810D01*
X82010723Y-87791777D01*
X81995689Y-87769277D01*
X81982108Y-87755696D01*
X81973327Y-87735810D01*
X81956530Y-87710671D01*
X81951859Y-87687189D01*
X81944287Y-87670040D01*
X81938464Y-87619849D01*
X81937500Y-87615000D01*
X81937500Y-87090000D01*
X81938464Y-87085150D01*
X81944287Y-87034959D01*
X81951859Y-87017808D01*
X81956530Y-86994329D01*
X81973326Y-86969191D01*
X81982108Y-86949303D01*
X81995691Y-86935719D01*
X82010723Y-86913223D01*
X82033219Y-86898191D01*
X82046803Y-86884608D01*
X82066691Y-86875826D01*
X82091829Y-86859030D01*
X82115308Y-86854359D01*
X82132459Y-86846787D01*
X82182651Y-86840964D01*
X82187500Y-86840000D01*
X83087500Y-86840000D01*
X83092350Y-86840964D01*
G37*
M02*
